M48
;Layer_Color=9474304
;FILE_FORMAT=4:4
METRIC
;TYPE=PLATED
T1F00S00C0.2500
T4F00S00C1.0000
%
T01
X00010500Y00013000
X00010000Y00045000
X00012500Y00102500
Y00147500
Y00185000
X00056000Y00133000
X00062500Y00105000
X00085000Y00100500
X00098500Y00100500
X00115000
X00110000Y00117500
X00140000Y00100500
X00157000Y00117000
X00172500Y00102500
X00197000Y00102500
X00187500Y00117500
X00220000Y00110000
X00233000Y00115500
X00238000Y00125500
X00273000
X00285000Y00123500
X00282500Y00141500
Y00159500
X00267000Y00172500
X00255000Y00178000
X00244500Y00157000
X00259000Y00143500
X00295500Y00134000
X00310500Y00140500
X00308500Y00156000
X00328000Y00156500
X00333500Y00140500
X00358500Y00141500
X00350500Y00156500
X00342000Y00173000
X00319050Y00176550
X00311050Y00176500
X00322500Y00123500
X00349500Y00125500
X00375000Y00122500
X00394000Y00050000
X00396000Y00008500
X00364500
X00343300Y00009000
X00317900
X00292500
X00266500Y00009500
X00241500Y00010500
X00215500Y00009500
X00190000
X00165000
X00139000
X00114500
X00090000
X00064000
X00037000
X00032500Y00045000
X00063500Y00053000
X00089000
X00114000Y00050500
X00140000Y00050500
X00165500Y00050000
X00190500
X00216000Y00062000
X00242000Y00066500
X00262500Y00070000
X00274500Y00060500
X00283219
X00290000Y00070000
X00261000Y00036500
X00244500
X00180500Y00184500
X00171500
X00444947Y00179000
X00451447Y00184500
X00451947Y00173500
X00452000Y00156000
X00451500Y00145000
X00452000Y00134000
Y00123000
X00445000Y00117500
Y00128500
Y00139500
Y00150500
Y00161500
X00542500Y00171000
X00542000Y00109000
X00551000Y00104000
X00562000
X00573000
X00584000
X00578500Y00111000
X00567500
X00556500
X00589500
X00601500Y00103500
X00611088Y00113500
X00639500Y00101500
X00656000Y00114000
X00676000Y00116000
X00675000Y00096000
X00675000Y00054500
X00652000Y00053500
X00656500Y00038000
X00650000Y00011000
X00622500Y00009000
X00597000
X00571000
X00546000
X00521000
X00482500Y00011500
X00444500Y00009000
X00419500
X00490000Y00046000
X00496000Y00056000
Y00065500
X00479500Y00062000
X00597000Y00056500
X00622500Y00059000
X00658607Y00134893
X00675000Y00147000
X00659000Y00164000
X00675000Y00182000
X00658607Y00194893
X00656000Y00214000
X00657500Y00229500
X00639500
X00627500Y00227500
X00628500Y00214500
X00675000Y00221000
Y00242000
Y00267000
X00674500Y00317000
X00676000Y00334000
X00651000Y00331000
X00637000Y00347500
X00629500Y00370500
X00655500Y00392000
X00675000Y00377000
X00649000Y00425000
X00626500Y00428000
X00622500Y00456500
X00650500Y00455000
X00651000Y00482500
Y00514000
X00623000Y00524000
X00597000
X00571500
X00545500Y00524000
X00520500
X00495500
X00470000Y00524000
X00444000Y00523500
X00429500
X00438220Y00505086
X00437000Y00488000
X00438000Y00460500
X00537000Y00430000
X00555500Y00412000
X00569500Y00425500
X00573000Y00391500
X00520000Y00355500
X00510500Y00364000
X00501500Y00373500
X00529500Y00344000
Y00325000
Y00314000
Y00303000
Y00292000
X00522500Y00297500
Y00308500
Y00319500
Y00330500
Y00283500
Y00269000
X00530000Y00275000
X00528000Y00260000
Y00251500
X00522000Y00241500
Y00232500
X00477500Y00234500
X00480500Y00241000
X00479500Y00224000
X00471500Y00221000
X00444000Y00218000
X00437990Y00211990
X00444947Y00201000
Y00190000
X00451947Y00195500
X00453000Y00242500
X00458500Y00272000
X00456000Y00283000
X00446000Y00284500
X00446000Y00294500
X00446000Y00274500
X00421500Y00273500
X00421000Y00281500
X00422000Y00334500
X00442000
X00463957Y00344000
X00472000Y00330500
Y00319500
Y00308500
Y00297500
X00479000Y00303000
Y00314000
Y00325000
Y00292000
X00477000Y00273500
X00471000Y00264500
X00397500Y00269000
Y00277000
X00388000Y00272500
X00376000
X00364000
Y00260500
X00376000
X00388000
X00382500Y00250000
X00369000
X00354500Y00250500
X00353000Y00265000
Y00281000
X00364000Y00284500
X00376000
X00388000
X00397000Y00250000
X00393500Y00221000
Y00212000
Y00203000
X00344500Y00204500
X00342000Y00188500
X00352000Y00221000
X00321500Y00264500
Y00274500
X00321500Y00290500
X00297500Y00290500
X00297500Y00274500
X00297500Y00264500
X00288500Y00257500
X00264500
Y00267500
X00253500Y00270500
X00253879Y00254932
X00251500Y00243000
X00261000Y00242500
X00260500Y00226500
X00259500Y00211000
X00245500Y00221500
X00226000Y00235500
X00209500Y00236000
X00193550Y00237500
Y00267950
Y00289000
X00211000Y00309000
X00210500Y00328500
X00197500Y00326000
Y00334500
Y00343000
X00197000Y00356500
X00181000Y00361500
Y00375500
X00193000Y00402500
X00204500Y00429000
X00174000Y00422500
X00148500Y00431500
X00143000Y00441500
X00132000Y00418000
X00151500Y00409000
X00133000Y00373500
X00116500Y00366500
X00108000Y00362000
X00091500Y00350000
X00083500
X00083000Y00340500
X00071000Y00316000
X00053000Y00266000
X00054000Y00258000
X00073500Y00237500
X00118000
X00130000
X00141500Y00240500
X00151500Y00228000
X00154500Y00216000
X00171500Y00209500
X00180500
X00221000Y00278000
X00236500Y00306500
X00248000Y00310000
X00264000Y00308500
X00271500Y00329500
X00291000Y00330000
X00316500Y00331000
X00317000Y00342000
X00332000Y00341000
X00346000Y00340500
X00339000Y00351000
X00337015Y00324000
X00339000Y00313000
X00305000Y00312000
X00305000Y00300500
X00318500Y00382000
X00317500Y00412000
X00345500Y00411500
X00353000Y00425000
X00372000Y00428500
X00380000Y00410500
X00352000Y00382500
X00330000Y00428000
X00306000Y00431500
X00283000Y00409500
X00293000Y00396500
X00284500Y00382500
X00263500Y00424500
X00244000Y00429000
X00233000Y00401500
X00219000Y00377500
X00210500Y00345000
X00236500Y00347000
X00248000Y00339000
X00277000Y00450000
X00278000Y00524500
X00252000
X00226000
X00201000Y00525000
X00174500Y00524500
X00133000
X00127000Y00505500
X00127500Y00473500
X00107893Y00459393
X00078000Y00453000
X00047893Y00459393
X00032500Y00432000
X00096500Y00431000
X00086000Y00409000
X00083000Y00399500
X00090500Y00399499
X00108000Y00392000
X00171500Y00455000
X00085500Y00522500
X00041500
X00381500Y00525500
X00404000Y00524000
X00406000Y00334500
X00395000Y00333000
Y00324000
X00010000Y00340000
Y00372500
Y00402500
Y00445000
X00009000Y00482000
X00011500Y00522000
X00013500Y00275000
X00014000Y00265500
X00013500Y00256000
X00012500Y00222500
T04
X00050973Y00025573
X00076373
X00101773
X00127173
X00152573
X00177973
X00203373
X00228773
X00279573
X00304973
X00330373
X00355773
X00381173
X00406573
X00431973
X00457373
X00508173
X00533573
X00558973
X00584373
X00609773
X00635173
X00636443Y00254173
Y00279573
Y00304973
X00661843
Y00279573
Y00254173
X00635173Y00508173
X00609773
X00584373
X00558973
X00533573
X00508173
X00482773
X00457373
X00416733
X00391333
X00365933
X00340533
X00315133
X00289733
X00264333
X00238933
X00213533
X00188133
M30
