G04*
G04 #@! TF.GenerationSoftware,Altium Limited,Altium Designer,21.1.1 (26)*
G04*
G04 Layer_Color=16776960*
%FSAX44Y44*%
%MOMM*%
G71*
G04*
G04 #@! TF.SameCoordinates,378EE943-C238-4E8C-B66D-7123103E1C21*
G04*
G04*
G04 #@! TF.FilePolarity,Positive*
G04*
G01*
G75*
%ADD17C,0.2540*%
D17*
X00000173Y00010333D02*
G03*
X00010333Y00000173I00010160J00000000D01*
G01*
Y00533573D02*
G03*
X00000173Y00523667I-00000127J-00010033D01*
G01*
X00650667Y00000173D02*
G03*
X00660573Y00010333I-00000127J00010033D01*
G01*
X00010333Y00000173D02*
X00650667D01*
X00000173Y00010333D02*
Y00523667D01*
X00010333Y00533573D02*
X00645333D01*
X00660573Y00010333D02*
Y00025573D01*
X00685973Y00050973D01*
Y00378633D01*
X00660573Y00404033D02*
X00685973Y00378633D01*
X00660573Y00404033D02*
Y00518333D01*
X00645333Y00533573D02*
X00660573Y00518333D01*
X00000173Y00010333D02*
G03*
X00010333Y00000173I00010160J00000000D01*
G01*
Y00533573D02*
G03*
X00000173Y00523667I-00000127J-00010033D01*
G01*
X00650667Y00000173D02*
G03*
X00660573Y00010333I-00000127J00010033D01*
G01*
X00010333Y00000173D02*
X00650667D01*
X00000173Y00010333D02*
Y00523667D01*
X00010333Y00533573D02*
X00645333D01*
X00660573Y00010333D02*
Y00025573D01*
X00685973Y00050973D01*
Y00378633D01*
X00660573Y00404033D02*
X00685973Y00378633D01*
X00660573Y00404033D02*
Y00518333D01*
X00645333Y00533573D02*
X00660573Y00518333D01*
M02*
