G04*
G04 #@! TF.GenerationSoftware,Altium Limited,Altium Designer,21.1.1 (26)*
G04*
G04 Layer_Physical_Order=2*
G04 Layer_Color=16711680*
%FSAX44Y44*%
%MOMM*%
G71*
G04*
G04 #@! TF.SameCoordinates,378EE943-C238-4E8C-B66D-7123103E1C21*
G04*
G04*
G04 #@! TF.FilePolarity,Positive*
G04*
G01*
G75*
%ADD12C,0.2000*%
%ADD13C,0.1500*%
%ADD17C,0.2540*%
%ADD76C,0.5000*%
%ADD77C,0.7500*%
%ADD78C,0.3000*%
G04:AMPARAMS|DCode=81|XSize=1mm|YSize=2.1mm|CornerRadius=0.5mm|HoleSize=0mm|Usage=FLASHONLY|Rotation=270.000|XOffset=0mm|YOffset=0mm|HoleType=Round|Shape=RoundedRectangle|*
%AMROUNDEDRECTD81*
21,1,1.0000,1.1000,0,0,270.0*
21,1,0.0000,2.1000,0,0,270.0*
1,1,1.0000,-0.5500,0.0000*
1,1,1.0000,-0.5500,0.0000*
1,1,1.0000,0.5500,0.0000*
1,1,1.0000,0.5500,0.0000*
%
%ADD81ROUNDEDRECTD81*%
G04:AMPARAMS|DCode=82|XSize=1mm|YSize=1.8mm|CornerRadius=0.5mm|HoleSize=0mm|Usage=FLASHONLY|Rotation=270.000|XOffset=0mm|YOffset=0mm|HoleType=Round|Shape=RoundedRectangle|*
%AMROUNDEDRECTD82*
21,1,1.0000,0.8000,0,0,270.0*
21,1,0.0000,1.8000,0,0,270.0*
1,1,1.0000,-0.4000,0.0000*
1,1,1.0000,-0.4000,0.0000*
1,1,1.0000,0.4000,0.0000*
1,1,1.0000,0.4000,0.0000*
%
%ADD82ROUNDEDRECTD82*%
G04:AMPARAMS|DCode=83|XSize=4mm|YSize=1.8mm|CornerRadius=0.45mm|HoleSize=0mm|Usage=FLASHONLY|Rotation=90.000|XOffset=0mm|YOffset=0mm|HoleType=Round|Shape=RoundedRectangle|*
%AMROUNDEDRECTD83*
21,1,4.0000,0.9000,0,0,90.0*
21,1,3.1000,1.8000,0,0,90.0*
1,1,0.9000,0.4500,1.5500*
1,1,0.9000,0.4500,-1.5500*
1,1,0.9000,-0.4500,-1.5500*
1,1,0.9000,-0.4500,1.5500*
%
%ADD83ROUNDEDRECTD83*%
G04:AMPARAMS|DCode=84|XSize=4mm|YSize=1.8mm|CornerRadius=0.45mm|HoleSize=0mm|Usage=FLASHONLY|Rotation=180.000|XOffset=0mm|YOffset=0mm|HoleType=Round|Shape=RoundedRectangle|*
%AMROUNDEDRECTD84*
21,1,4.0000,0.9000,0,0,180.0*
21,1,3.1000,1.8000,0,0,180.0*
1,1,0.9000,-1.5500,0.4500*
1,1,0.9000,1.5500,0.4500*
1,1,0.9000,1.5500,-0.4500*
1,1,0.9000,-1.5500,-0.4500*
%
%ADD84ROUNDEDRECTD84*%
G04:AMPARAMS|DCode=85|XSize=1.8mm|YSize=1.6mm|CornerRadius=0.4mm|HoleSize=0mm|Usage=FLASHONLY|Rotation=0.000|XOffset=0mm|YOffset=0mm|HoleType=Round|Shape=RoundedRectangle|*
%AMROUNDEDRECTD85*
21,1,1.8000,0.8000,0,0,0.0*
21,1,1.0000,1.6000,0,0,0.0*
1,1,0.8000,0.5000,-0.4000*
1,1,0.8000,-0.5000,-0.4000*
1,1,0.8000,-0.5000,0.4000*
1,1,0.8000,0.5000,0.4000*
%
%ADD85ROUNDEDRECTD85*%
%ADD86C,0.5500*%
G04:AMPARAMS|DCode=87|XSize=2.8mm|YSize=1.8mm|CornerRadius=0.675mm|HoleSize=0mm|Usage=FLASHONLY|Rotation=90.000|XOffset=0mm|YOffset=0mm|HoleType=Round|Shape=RoundedRectangle|*
%AMROUNDEDRECTD87*
21,1,2.8000,0.4500,0,0,90.0*
21,1,1.4500,1.8000,0,0,90.0*
1,1,1.3500,0.2250,0.7250*
1,1,1.3500,0.2250,-0.7250*
1,1,1.3500,-0.2250,-0.7250*
1,1,1.3500,-0.2250,0.7250*
%
%ADD87ROUNDEDRECTD87*%
G36*
X00010269Y00528476D02*
X00010301Y00528482D01*
X00010333Y00528475D01*
X00143445D01*
X00143644Y00527475D01*
X00142896Y00527165D01*
X00140044Y00525418D01*
X00137501Y00523246D01*
X00135328Y00520702D01*
X00133581Y00517850D01*
X00132301Y00514760D01*
X00131520Y00511507D01*
X00131257Y00508173D01*
X00131520Y00504838D01*
X00132301Y00501586D01*
X00133581Y00498496D01*
X00135328Y00495644D01*
X00137501Y00493101D01*
X00140044Y00490928D01*
X00142896Y00489181D01*
X00145986Y00487901D01*
X00149239Y00487120D01*
X00152573Y00486857D01*
X00155907Y00487120D01*
X00159160Y00487901D01*
X00162250Y00489181D01*
X00165102Y00490928D01*
X00167645Y00493101D01*
X00169818Y00495644D01*
X00171565Y00498496D01*
X00172845Y00501586D01*
X00173626Y00504838D01*
X00173889Y00508173D01*
X00173626Y00511507D01*
X00172845Y00514760D01*
X00171565Y00517850D01*
X00169818Y00520702D01*
X00167645Y00523246D01*
X00165102Y00525418D01*
X00162250Y00527165D01*
X00161502Y00527475D01*
X00161701Y00528475D01*
X00286479D01*
X00287077Y00527475D01*
X00286929Y00526733D01*
Y00526539D01*
X00286489Y00526244D01*
X00285494Y00524756D01*
X00285337Y00523966D01*
X00285199Y00523948D01*
X00283070Y00523066D01*
X00281243Y00521664D01*
X00279840Y00519836D01*
X00278958Y00517707D01*
X00278657Y00515423D01*
Y00500923D01*
X00278958Y00498639D01*
X00279840Y00496510D01*
X00281243Y00494682D01*
X00283070Y00493280D01*
X00285199Y00492398D01*
X00287483Y00492098D01*
X00291983D01*
X00294267Y00492398D01*
X00296396Y00493280D01*
X00298224Y00494682D01*
X00298696Y00495298D01*
X00299696Y00494959D01*
Y00480346D01*
X00299910Y00479273D01*
X00300517Y00478363D01*
X00308627Y00470254D01*
X00308377Y00469575D01*
X00308163Y00469304D01*
X00223421D01*
X00216337Y00476388D01*
Y00483380D01*
X00216777Y00483675D01*
X00217772Y00485163D01*
X00218121Y00486919D01*
Y00492421D01*
X00220196Y00493280D01*
X00222024Y00494682D01*
X00223426Y00496510D01*
X00224308Y00498639D01*
X00224608Y00500923D01*
Y00515423D01*
X00224308Y00517707D01*
X00223426Y00519836D01*
X00222024Y00521664D01*
X00220196Y00523066D01*
X00218067Y00523948D01*
X00215783Y00524249D01*
X00211283D01*
X00208999Y00523948D01*
X00206870Y00523066D01*
X00205042Y00521664D01*
X00203640Y00519836D01*
X00202758Y00517707D01*
X00202458Y00515423D01*
Y00500923D01*
X00202758Y00498639D01*
X00203640Y00496510D01*
X00205042Y00494682D01*
X00206870Y00493280D01*
X00208945Y00492421D01*
Y00486919D01*
X00209294Y00485163D01*
X00210289Y00483675D01*
X00210729Y00483380D01*
Y00475227D01*
X00210943Y00474154D01*
X00211550Y00473244D01*
X00219991Y00464804D01*
X00219586Y00463804D01*
X00200421D01*
X00190937Y00473288D01*
Y00483380D01*
X00191377Y00483675D01*
X00192372Y00485163D01*
X00192721Y00486919D01*
Y00492421D01*
X00194796Y00493280D01*
X00196624Y00494682D01*
X00198026Y00496510D01*
X00198908Y00498639D01*
X00199209Y00500923D01*
Y00515423D01*
X00198908Y00517707D01*
X00198026Y00519836D01*
X00196624Y00521664D01*
X00194796Y00523066D01*
X00192667Y00523948D01*
X00190383Y00524249D01*
X00185883D01*
X00183599Y00523948D01*
X00181470Y00523066D01*
X00179643Y00521664D01*
X00178240Y00519836D01*
X00177358Y00517707D01*
X00177057Y00515423D01*
Y00500923D01*
X00177358Y00498639D01*
X00178240Y00496510D01*
X00179643Y00494682D01*
X00181470Y00493280D01*
X00183545Y00492421D01*
Y00486919D01*
X00183894Y00485163D01*
X00184889Y00483675D01*
X00185329Y00483380D01*
Y00472127D01*
X00185543Y00471054D01*
X00186150Y00470144D01*
X00197277Y00459017D01*
X00198187Y00458410D01*
X00199260Y00458196D01*
X00304839D01*
X00315017Y00448017D01*
X00315927Y00447410D01*
X00317000Y00447196D01*
X00372339D01*
X00379696Y00439839D01*
Y00424000D01*
X00379910Y00422927D01*
X00380517Y00422017D01*
X00418517Y00384017D01*
X00419427Y00383410D01*
X00420500Y00383196D01*
X00508060D01*
X00534296Y00356961D01*
Y00347248D01*
X00533296Y00346922D01*
X00532191Y00348027D01*
X00530445Y00348750D01*
X00528555D01*
X00526809Y00348027D01*
X00525586Y00346804D01*
X00468708D01*
X00467019Y00347655D01*
X00466647Y00348027D01*
X00464901Y00348750D01*
X00464375D01*
X00462579Y00349342D01*
X00450439Y00361483D01*
X00449530Y00362090D01*
X00448457Y00362304D01*
X00402876D01*
X00366697Y00398483D01*
X00365788Y00399090D01*
X00364715Y00399304D01*
X00297751D01*
X00296063Y00400155D01*
X00295691Y00400527D01*
X00293945Y00401250D01*
X00292055D01*
X00290309Y00400527D01*
X00288973Y00399191D01*
X00288250Y00397445D01*
Y00395555D01*
X00288973Y00393809D01*
X00290309Y00392473D01*
X00292055Y00391750D01*
X00293945D01*
X00295691Y00392473D01*
X00296063Y00392845D01*
X00297751Y00393696D01*
X00363553D01*
X00399732Y00357517D01*
X00400642Y00356910D01*
X00401715Y00356696D01*
X00447295D01*
X00458614Y00345377D01*
X00459207Y00343582D01*
Y00343055D01*
X00459930Y00341309D01*
X00461266Y00339973D01*
X00463012Y00339250D01*
X00464901D01*
X00466647Y00339973D01*
X00467019Y00340345D01*
X00468708Y00341196D01*
X00525586D01*
X00526809Y00339973D01*
X00528555Y00339250D01*
X00530445D01*
X00532191Y00339973D01*
X00533296Y00341078D01*
X00534296Y00340752D01*
Y00328248D01*
X00533296Y00327922D01*
X00532191Y00329027D01*
X00530445Y00329750D01*
X00528555D01*
X00528250Y00329623D01*
X00527250Y00330292D01*
Y00331445D01*
X00526527Y00333190D01*
X00525191Y00334527D01*
X00523445Y00335250D01*
X00521555D01*
X00519809Y00334527D01*
X00519437Y00334155D01*
X00517749Y00333304D01*
X00476751D01*
X00475063Y00334155D01*
X00474691Y00334527D01*
X00472945Y00335250D01*
X00471055D01*
X00469309Y00334527D01*
X00467973Y00333191D01*
X00467250Y00331445D01*
Y00329555D01*
X00467973Y00327809D01*
X00469309Y00326473D01*
X00471055Y00325750D01*
X00472945D01*
X00473644Y00325000D01*
X00473415Y00324754D01*
X00472723Y00324250D01*
X00471055D01*
X00469309Y00323527D01*
X00467973Y00322191D01*
X00467250Y00320445D01*
Y00318555D01*
X00467973Y00316809D01*
X00469309Y00315473D01*
X00471055Y00314750D01*
X00472945D01*
X00473644Y00314000D01*
X00473415Y00313754D01*
X00472723Y00313250D01*
X00471055D01*
X00469309Y00312527D01*
X00467973Y00311191D01*
X00467250Y00309445D01*
Y00307555D01*
X00467973Y00305809D01*
X00469309Y00304473D01*
X00471055Y00303750D01*
X00472945D01*
X00473644Y00303000D01*
X00473415Y00302754D01*
X00472723Y00302250D01*
X00471055D01*
X00469309Y00301527D01*
X00467973Y00300191D01*
X00467250Y00298445D01*
Y00296555D01*
X00467973Y00294809D01*
X00469309Y00293473D01*
X00471055Y00292750D01*
X00472945D01*
X00473250Y00292876D01*
X00474250Y00292208D01*
Y00291055D01*
X00474973Y00289309D01*
X00476309Y00287973D01*
X00478055Y00287250D01*
X00479945D01*
X00481691Y00287973D01*
X00482063Y00288345D01*
X00483751Y00289196D01*
X00524749D01*
X00526437Y00288345D01*
X00526809Y00287973D01*
X00528555Y00287250D01*
X00530445D01*
X00532191Y00287973D01*
X00533296Y00289078D01*
X00534296Y00288752D01*
Y00237261D01*
X00512839Y00215804D01*
X00450161D01*
X00449342Y00216623D01*
X00448750Y00218419D01*
Y00218945D01*
X00448027Y00220691D01*
X00446691Y00222027D01*
X00444945Y00222750D01*
X00443055D01*
X00441309Y00222027D01*
X00439973Y00220691D01*
X00439250Y00218945D01*
Y00217663D01*
X00439015Y00216975D01*
X00438326Y00216740D01*
X00437045D01*
X00435299Y00216016D01*
X00433963Y00214680D01*
X00433240Y00212934D01*
Y00211045D01*
X00433963Y00209299D01*
X00435299Y00207963D01*
X00437045Y00207240D01*
X00437571D01*
X00439367Y00206647D01*
X00440496Y00205517D01*
X00440998Y00205182D01*
X00441232Y00204002D01*
X00440920Y00203691D01*
X00440197Y00201945D01*
Y00200055D01*
X00440920Y00198309D01*
X00442257Y00196973D01*
X00444002Y00196250D01*
X00445892D01*
X00446592Y00195500D01*
X00446362Y00195254D01*
X00445671Y00194750D01*
X00444002D01*
X00442257Y00194027D01*
X00440920Y00192691D01*
X00440197Y00190945D01*
Y00189055D01*
X00440920Y00187309D01*
X00442257Y00185973D01*
X00444002Y00185250D01*
X00445892D01*
X00445964Y00185183D01*
Y00184720D01*
X00444992Y00183750D01*
X00444002D01*
X00442257Y00183027D01*
X00440920Y00181691D01*
X00440197Y00179945D01*
Y00178055D01*
X00440920Y00176309D01*
X00442257Y00174973D01*
X00444002Y00174250D01*
X00445892D01*
X00446197Y00174376D01*
X00447197Y00173708D01*
Y00172555D01*
X00447920Y00170809D01*
X00449257Y00169473D01*
X00451002Y00168750D01*
X00452892D01*
X00454638Y00169473D01*
X00455010Y00169845D01*
X00456698Y00170696D01*
X00530361D01*
X00531434Y00170910D01*
X00532344Y00171517D01*
X00576410Y00215583D01*
X00577410Y00215169D01*
Y00193875D01*
X00547839Y00164304D01*
X00449751D01*
X00448063Y00165155D01*
X00447691Y00165527D01*
X00445945Y00166250D01*
X00444055D01*
X00442309Y00165527D01*
X00440973Y00164191D01*
X00440250Y00162445D01*
Y00160555D01*
X00440973Y00158809D01*
X00442309Y00157473D01*
X00444055Y00156750D01*
X00445945D01*
X00446644Y00156000D01*
X00446415Y00155754D01*
X00445723Y00155250D01*
X00444055D01*
X00442309Y00154527D01*
X00440973Y00153191D01*
X00440250Y00151445D01*
Y00149555D01*
X00440973Y00147809D01*
X00442309Y00146473D01*
X00444055Y00145750D01*
X00445945D01*
X00446017Y00145683D01*
Y00145220D01*
X00445045Y00144250D01*
X00444055D01*
X00442309Y00143527D01*
X00440973Y00142191D01*
X00440250Y00140445D01*
Y00138555D01*
X00440973Y00136809D01*
X00442309Y00135473D01*
X00444055Y00134750D01*
X00445945D01*
X00446644Y00134000D01*
X00446415Y00133754D01*
X00445723Y00133250D01*
X00444055D01*
X00442309Y00132527D01*
X00440973Y00131191D01*
X00440250Y00129445D01*
Y00127555D01*
X00440973Y00125809D01*
X00442309Y00124473D01*
X00444055Y00123750D01*
X00445945D01*
X00446644Y00123000D01*
X00446415Y00122754D01*
X00445723Y00122250D01*
X00444055D01*
X00442309Y00121527D01*
X00440973Y00120191D01*
X00440250Y00118445D01*
Y00117129D01*
X00439250Y00116715D01*
X00438483Y00117483D01*
X00437573Y00118090D01*
X00436500Y00118304D01*
X00237751Y00118304D01*
X00236063Y00119155D01*
X00235691Y00119527D01*
X00233945Y00120250D01*
X00232055D01*
X00230309Y00119527D01*
X00228973Y00118191D01*
X00228250Y00116445D01*
Y00114555D01*
X00228561Y00113804D01*
X00227893Y00112804D01*
X00224751D01*
X00223063Y00113655D01*
X00222691Y00114027D01*
X00220945Y00114750D01*
X00219055D01*
X00217309Y00114027D01*
X00215973Y00112691D01*
X00215250Y00110945D01*
Y00109055D01*
X00215561Y00108304D01*
X00214893Y00107304D01*
X00213921D01*
X00210180Y00111045D01*
X00209270Y00111653D01*
X00208197Y00111867D01*
X00123563D01*
X00122490Y00111653D01*
X00121580Y00111045D01*
X00116377Y00105842D01*
X00114581Y00105250D01*
X00114055D01*
X00112309Y00104527D01*
X00110973Y00103191D01*
X00110250Y00101445D01*
Y00099555D01*
X00110973Y00097809D01*
X00112309Y00096473D01*
X00114055Y00095750D01*
X00115945D01*
X00117691Y00096473D01*
X00119027Y00097809D01*
X00119750Y00099555D01*
Y00100081D01*
X00120342Y00101877D01*
X00124724Y00106259D01*
X00168235D01*
X00168617Y00105335D01*
X00168473Y00105191D01*
X00167750Y00103445D01*
Y00101555D01*
X00168065Y00100794D01*
X00167217Y00100228D01*
X00164963Y00102483D01*
X00164053Y00103090D01*
X00162980Y00103304D01*
X00144751D01*
X00143063Y00104155D01*
X00142691Y00104527D01*
X00140945Y00105250D01*
X00139055D01*
X00137309Y00104527D01*
X00135973Y00103191D01*
X00135250Y00101445D01*
Y00099555D01*
X00135973Y00097809D01*
X00137309Y00096473D01*
X00139055Y00095750D01*
X00140945D01*
X00142691Y00096473D01*
X00143063Y00096845D01*
X00144751Y00097696D01*
X00161819D01*
X00164287Y00095228D01*
X00163904Y00094304D01*
X00108661D01*
X00103842Y00099123D01*
X00103250Y00100919D01*
Y00101445D01*
X00102527Y00103191D01*
X00101191Y00104527D01*
X00099445Y00105250D01*
X00097555D01*
X00095809Y00104527D01*
X00094473Y00103191D01*
X00093750Y00101445D01*
Y00099555D01*
X00094473Y00097809D01*
X00095809Y00096473D01*
X00097555Y00095750D01*
X00098081D01*
X00099877Y00095158D01*
X00104731Y00090304D01*
X00104317Y00089304D01*
X00100161D01*
X00090342Y00099123D01*
X00089750Y00100919D01*
Y00101445D01*
X00089027Y00103191D01*
X00087691Y00104527D01*
X00085945Y00105250D01*
X00084055D01*
X00082309Y00104527D01*
X00080973Y00103191D01*
X00080250Y00101445D01*
Y00099555D01*
X00080973Y00097809D01*
X00082309Y00096473D01*
X00084055Y00095750D01*
X00084581D01*
X00086377Y00095158D01*
X00097017Y00084517D01*
X00097927Y00083910D01*
X00099000Y00083696D01*
X00182031D01*
X00190710Y00075017D01*
X00190710Y00075017D01*
X00191620Y00074410D01*
X00192693Y00074196D01*
X00303752D01*
X00304091Y00073196D01*
X00303992Y00073120D01*
X00303992Y00073120D01*
X00298180Y00067308D01*
X00274500D01*
X00272738Y00067076D01*
X00271096Y00066396D01*
X00269686Y00065314D01*
X00268604Y00063904D01*
X00267924Y00062262D01*
X00267692Y00060500D01*
X00267924Y00058738D01*
X00268604Y00057096D01*
X00269621Y00055770D01*
X00269492Y00055114D01*
X00269375Y00054770D01*
X00209932D01*
X00194287Y00070414D01*
X00193086Y00071336D01*
X00191688Y00071915D01*
X00190187Y00072113D01*
X00079589D01*
X00041800Y00109902D01*
Y00202598D01*
X00058101Y00218899D01*
X00059023Y00220100D01*
X00059602Y00221499D01*
X00059800Y00223000D01*
Y00258000D01*
X00059791Y00258068D01*
X00059800Y00258135D01*
X00059602Y00259636D01*
X00059023Y00261035D01*
X00058800Y00261326D01*
Y00266000D01*
X00058602Y00267501D01*
X00058023Y00268900D01*
X00057101Y00270101D01*
X00047300Y00279902D01*
Y00421598D01*
X00061402Y00435700D01*
X00171098D01*
X00242200Y00364598D01*
Y00339000D01*
X00242398Y00337499D01*
X00242977Y00336100D01*
X00243899Y00334899D01*
X00245100Y00333977D01*
X00246499Y00333398D01*
X00248000Y00333200D01*
X00249501Y00333398D01*
X00250900Y00333977D01*
X00252101Y00334899D01*
X00253023Y00336100D01*
X00253602Y00337499D01*
X00253800Y00339000D01*
Y00367000D01*
X00253602Y00368501D01*
X00253023Y00369900D01*
X00252101Y00371101D01*
X00177601Y00445601D01*
X00176400Y00446523D01*
X00175001Y00447102D01*
X00173500Y00447300D01*
X00059000D01*
X00057499Y00447102D01*
X00056920Y00446862D01*
X00056100Y00446523D01*
X00054899Y00445601D01*
X00037399Y00428101D01*
X00036477Y00426900D01*
X00035898Y00425501D01*
X00035744Y00424328D01*
X00034800Y00423792D01*
X00034284Y00424187D01*
X00032338Y00424993D01*
X00030250Y00425268D01*
X00028749D01*
Y00417199D01*
Y00409130D01*
X00030250D01*
X00032338Y00409405D01*
X00034284Y00410211D01*
X00034804Y00410610D01*
X00035700Y00410168D01*
Y00337831D01*
X00034804Y00337389D01*
X00034284Y00337787D01*
X00032338Y00338593D01*
X00030250Y00338868D01*
X00028750D01*
Y00330799D01*
Y00322730D01*
X00030250D01*
X00032338Y00323005D01*
X00034284Y00323811D01*
X00034804Y00324210D01*
X00035700Y00323768D01*
Y00277500D01*
X00035898Y00275999D01*
X00036477Y00274600D01*
X00037399Y00273399D01*
X00047200Y00263598D01*
Y00259135D01*
X00047398Y00257634D01*
X00047977Y00256236D01*
X00048200Y00255945D01*
Y00225402D01*
X00031899Y00209101D01*
X00030977Y00207900D01*
X00030398Y00206501D01*
X00030200Y00205000D01*
Y00107500D01*
X00030398Y00105999D01*
X00030977Y00104600D01*
X00031899Y00103399D01*
X00073086Y00062212D01*
X00074287Y00061291D01*
X00075686Y00060711D01*
X00077187Y00060514D01*
X00187784D01*
X00193188Y00055111D01*
X00192621Y00054263D01*
X00191445Y00054750D01*
X00189555D01*
X00187809Y00054027D01*
X00186473Y00052691D01*
X00185750Y00050945D01*
Y00049055D01*
X00186473Y00047309D01*
X00187809Y00045973D01*
X00189555Y00045250D01*
X00191445D01*
X00193191Y00045973D01*
X00194527Y00047309D01*
X00195250Y00049055D01*
Y00050945D01*
X00194763Y00052121D01*
X00195611Y00052688D01*
X00203428Y00044870D01*
X00204630Y00043948D01*
X00206028Y00043369D01*
X00207529Y00043171D01*
X00305114D01*
X00306615Y00043369D01*
X00308013Y00043948D01*
X00309214Y00044870D01*
X00315545Y00051200D01*
X00329836D01*
X00330235Y00050200D01*
X00328390Y00048356D01*
X00327783Y00047446D01*
X00327569Y00046373D01*
Y00045539D01*
X00327129Y00045244D01*
X00326134Y00043756D01*
X00325785Y00042000D01*
Y00041325D01*
X00323710Y00040466D01*
X00321883Y00039064D01*
X00320480Y00037236D01*
X00319598Y00035107D01*
X00319298Y00032823D01*
Y00018323D01*
X00319598Y00016039D01*
X00320480Y00013910D01*
X00321883Y00012082D01*
X00323710Y00010680D01*
X00325839Y00009798D01*
X00328123Y00009498D01*
X00332623D01*
X00334907Y00009798D01*
X00337036Y00010680D01*
X00338864Y00012082D01*
X00340266Y00013910D01*
X00341148Y00016039D01*
X00341449Y00018323D01*
Y00032823D01*
X00341148Y00035107D01*
X00340266Y00037236D01*
X00338864Y00039064D01*
X00337036Y00040466D01*
X00334961Y00041325D01*
Y00042000D01*
X00334612Y00043756D01*
X00333984Y00044696D01*
X00334518Y00045696D01*
X00361839D01*
X00365696Y00041839D01*
Y00038839D01*
X00364696Y00038500D01*
X00364264Y00039064D01*
X00362436Y00040466D01*
X00360307Y00041348D01*
X00358023Y00041649D01*
X00353523D01*
X00351239Y00041348D01*
X00349110Y00040466D01*
X00347282Y00039064D01*
X00345880Y00037236D01*
X00344998Y00035107D01*
X00344697Y00032823D01*
Y00018323D01*
X00344998Y00016039D01*
X00345880Y00013910D01*
X00347282Y00012082D01*
X00349110Y00010680D01*
X00351239Y00009798D01*
X00353523Y00009498D01*
X00358023D01*
X00360307Y00009798D01*
X00362436Y00010680D01*
X00364264Y00012082D01*
X00364893Y00012902D01*
X00365284Y00012908D01*
X00366028Y00012739D01*
X00366517Y00012007D01*
X00372254Y00006271D01*
X00371896Y00005272D01*
X00371895Y00005271D01*
X00009834D01*
X00008856Y00005465D01*
X00007935Y00005847D01*
X00007106Y00006401D01*
X00006401Y00007106D01*
X00005847Y00007935D01*
X00005465Y00008856D01*
X00005271Y00009834D01*
Y00010333D01*
X00005271Y00523634D01*
X00005277Y00524089D01*
X00005478Y00525040D01*
X00005862Y00525933D01*
X00006412Y00526735D01*
X00007108Y00527413D01*
X00007923Y00527943D01*
X00008826Y00528304D01*
X00009782Y00528482D01*
X00010269Y00528476D01*
D02*
G37*
G36*
X00621242Y00454055D02*
X00619244Y00453928D01*
X00618193Y00454998D01*
X00620003Y00457651D01*
X00621242Y00454055D01*
D02*
G37*
G36*
X00297296Y00397250D02*
Y00395750D01*
X00294964Y00394575D01*
Y00398425D01*
X00297296Y00397250D01*
D02*
G37*
G36*
X00655475Y00516221D02*
Y00404033D01*
X00655863Y00402082D01*
X00656968Y00400428D01*
X00680875Y00376521D01*
Y00364901D01*
X00679875Y00364702D01*
X00679565Y00365450D01*
X00677818Y00368302D01*
X00675646Y00370845D01*
X00673102Y00373018D01*
X00670250Y00374765D01*
X00667160Y00376045D01*
X00663907Y00376826D01*
X00660573Y00377089D01*
X00657238Y00376826D01*
X00653986Y00376045D01*
X00650896Y00374765D01*
X00648044Y00373018D01*
X00645501Y00370845D01*
X00643328Y00368302D01*
X00641581Y00365450D01*
X00640301Y00362360D01*
X00639520Y00359108D01*
X00639257Y00355773D01*
X00639520Y00352439D01*
X00640301Y00349186D01*
X00641581Y00346096D01*
X00643328Y00343244D01*
X00645501Y00340700D01*
X00648044Y00338528D01*
X00650896Y00336781D01*
X00653986Y00335501D01*
X00657238Y00334720D01*
X00660573Y00334457D01*
X00663907Y00334720D01*
X00667160Y00335501D01*
X00670250Y00336781D01*
X00673102Y00338528D01*
X00675646Y00340700D01*
X00677818Y00343244D01*
X00679565Y00346096D01*
X00679875Y00346844D01*
X00680875Y00346645D01*
Y00085501D01*
X00679875Y00085302D01*
X00679565Y00086050D01*
X00677818Y00088902D01*
X00675646Y00091446D01*
X00673102Y00093618D01*
X00670250Y00095365D01*
X00667160Y00096645D01*
X00663907Y00097426D01*
X00660573Y00097689D01*
X00657238Y00097426D01*
X00653986Y00096645D01*
X00650896Y00095365D01*
X00648044Y00093618D01*
X00645501Y00091446D01*
X00643328Y00088902D01*
X00641581Y00086050D01*
X00640301Y00082960D01*
X00639520Y00079707D01*
X00639257Y00076373D01*
X00639520Y00073039D01*
X00640301Y00069786D01*
X00641581Y00066696D01*
X00643328Y00063844D01*
X00645501Y00061301D01*
X00648044Y00059128D01*
X00650896Y00057381D01*
X00653986Y00056101D01*
X00657238Y00055320D01*
X00660573Y00055057D01*
X00663907Y00055320D01*
X00667160Y00056101D01*
X00670250Y00057381D01*
X00673102Y00059128D01*
X00675646Y00061301D01*
X00677818Y00063844D01*
X00679565Y00066696D01*
X00679875Y00067444D01*
X00680875Y00067245D01*
Y00053085D01*
X00656968Y00029178D01*
X00655863Y00027524D01*
X00655475Y00025573D01*
Y00010333D01*
X00655482Y00010301D01*
X00655476Y00010268D01*
X00655482Y00009782D01*
X00655304Y00008826D01*
X00654943Y00007923D01*
X00654414Y00007108D01*
X00653735Y00006412D01*
X00652933Y00005862D01*
X00652040Y00005478D01*
X00651089Y00005277D01*
X00650635Y00005271D01*
X00389355D01*
X00389355Y00005272D01*
X00388996Y00006271D01*
X00395411Y00012686D01*
X00396409Y00012620D01*
X00397369Y00011369D01*
X00399406Y00009806D01*
X00401778Y00008824D01*
X00404073Y00008522D01*
Y00025573D01*
Y00042624D01*
X00401778Y00042322D01*
X00399406Y00041340D01*
X00397804Y00040110D01*
X00396804Y00040603D01*
Y00046086D01*
X00398027Y00047309D01*
X00398750Y00049055D01*
Y00050945D01*
X00398027Y00052691D01*
X00396691Y00054027D01*
X00394945Y00054750D01*
X00393055D01*
X00391309Y00054027D01*
X00389973Y00052691D01*
X00389250Y00050945D01*
Y00049055D01*
X00389973Y00047309D01*
X00391196Y00046086D01*
Y00038709D01*
X00390196Y00038370D01*
X00389664Y00039064D01*
X00387836Y00040466D01*
X00386973Y00040824D01*
Y00048327D01*
X00386775Y00049828D01*
X00386196Y00051227D01*
X00385274Y00052428D01*
X00377204Y00060498D01*
X00377618Y00061498D01*
X00393247D01*
X00406058Y00048686D01*
X00406059Y00048686D01*
X00407468Y00047604D01*
X00409110Y00046924D01*
X00410873Y00046692D01*
X00447614D01*
X00450565Y00043741D01*
Y00041488D01*
X00450206Y00041340D01*
X00448169Y00039777D01*
X00446606Y00037740D01*
X00445624Y00035368D01*
X00445289Y00032823D01*
Y00018323D01*
X00445624Y00015778D01*
X00446606Y00013406D01*
X00448169Y00011369D01*
X00450206Y00009806D01*
X00452578Y00008824D01*
X00455123Y00008489D01*
X00459623D01*
X00462168Y00008824D01*
X00464540Y00009806D01*
X00466577Y00011369D01*
X00468140Y00013406D01*
X00469122Y00015778D01*
X00469457Y00018323D01*
Y00032823D01*
X00469122Y00035368D01*
X00468140Y00037740D01*
X00466577Y00039777D01*
X00464540Y00041340D01*
X00464181Y00041488D01*
Y00046561D01*
X00464181Y00046561D01*
X00463949Y00048323D01*
X00463269Y00049965D01*
X00462187Y00051375D01*
X00462187Y00051375D01*
X00455248Y00058314D01*
X00453838Y00059396D01*
X00452196Y00060076D01*
X00450434Y00060308D01*
X00450434Y00060308D01*
X00413693D01*
X00400881Y00073120D01*
X00400713Y00073249D01*
X00401034Y00074196D01*
X00419391D01*
X00426570Y00067017D01*
X00427480Y00066410D01*
X00428553Y00066196D01*
X00468947D01*
X00470020Y00066410D01*
X00470930Y00067017D01*
X00474609Y00070696D01*
X00493519D01*
X00493718Y00069696D01*
X00493309Y00069527D01*
X00491973Y00068191D01*
X00491250Y00066445D01*
Y00064555D01*
X00491973Y00062809D01*
X00493309Y00061473D01*
X00493749Y00061291D01*
Y00060209D01*
X00493309Y00060027D01*
X00491973Y00058691D01*
X00491250Y00056945D01*
Y00055055D01*
X00491973Y00053309D01*
X00493309Y00051973D01*
X00495055Y00051250D01*
X00496945D01*
X00498691Y00051973D01*
X00499063Y00052345D01*
X00500751Y00053196D01*
X00509839D01*
X00517517Y00045517D01*
X00518427Y00044910D01*
X00519500Y00044696D01*
X00571087D01*
X00572160Y00044910D01*
X00573070Y00045517D01*
X00581249Y00053696D01*
X00592249D01*
X00593937Y00052845D01*
X00594309Y00052473D01*
X00596055Y00051750D01*
X00597945D01*
X00599691Y00052473D01*
X00601027Y00053809D01*
X00601750Y00055555D01*
Y00056236D01*
X00602750Y00056743D01*
X00603249Y00056410D01*
X00604322Y00056196D01*
X00617749D01*
X00619437Y00055345D01*
X00619809Y00054973D01*
X00621555Y00054250D01*
X00623445D01*
X00625191Y00054973D01*
X00626527Y00056309D01*
X00627250Y00058055D01*
Y00059945D01*
X00626527Y00061691D01*
X00625191Y00063027D01*
X00623445Y00063750D01*
X00621555D01*
X00619809Y00063027D01*
X00619437Y00062655D01*
X00617749Y00061804D01*
X00605483D01*
X00601795Y00065492D01*
X00600885Y00066100D01*
X00599812Y00066314D01*
X00578140D01*
X00577903Y00066622D01*
X00577680Y00067268D01*
X00591483Y00081070D01*
X00592090Y00081980D01*
X00592304Y00083053D01*
Y00106249D01*
X00593155Y00107937D01*
X00593527Y00108309D01*
X00594250Y00110055D01*
Y00111945D01*
X00593527Y00113691D01*
X00593445Y00113772D01*
X00593828Y00114696D01*
X00599839D01*
X00603017Y00111517D01*
X00603927Y00110910D01*
X00605000Y00110696D01*
X00606336D01*
X00608025Y00109845D01*
X00608397Y00109473D01*
X00610143Y00108750D01*
X00612033D01*
X00613778Y00109473D01*
X00615115Y00110809D01*
X00615838Y00112555D01*
Y00114445D01*
X00615115Y00116191D01*
X00613778Y00117527D01*
X00612033Y00118250D01*
X00610143D01*
X00608397Y00117527D01*
X00608025Y00117155D01*
X00606336Y00116304D01*
X00606161D01*
X00602983Y00119483D01*
X00602073Y00120090D01*
X00601000Y00120304D01*
X00567621D01*
X00567216Y00121304D01*
X00620696Y00174784D01*
X00621304Y00175693D01*
X00621517Y00176766D01*
Y00451725D01*
X00621555Y00451750D01*
X00623445D01*
X00625191Y00452473D01*
X00626527Y00453809D01*
X00627250Y00455555D01*
Y00457445D01*
X00626527Y00459191D01*
X00625191Y00460527D01*
X00623445Y00461250D01*
X00621555D01*
X00619809Y00460527D01*
X00618473Y00459191D01*
X00618302Y00458776D01*
X00617017Y00456894D01*
X00616017Y00457202D01*
Y00464730D01*
X00621484Y00470196D01*
X00629500D01*
X00630573Y00470410D01*
X00631483Y00471017D01*
X00637156Y00476690D01*
X00637763Y00477600D01*
X00637977Y00478673D01*
Y00483380D01*
X00638417Y00483675D01*
X00639412Y00485163D01*
X00639761Y00486919D01*
Y00492421D01*
X00641836Y00493280D01*
X00643664Y00494682D01*
X00645066Y00496510D01*
X00645948Y00498639D01*
X00646248Y00500923D01*
Y00515423D01*
X00645948Y00517707D01*
X00645066Y00519836D01*
X00643664Y00521664D01*
X00641836Y00523066D01*
X00639707Y00523948D01*
X00637423Y00524249D01*
X00632923D01*
X00630639Y00523948D01*
X00628510Y00523066D01*
X00626683Y00521664D01*
X00625280Y00519836D01*
X00624398Y00517707D01*
X00624098Y00515423D01*
Y00500923D01*
X00624398Y00498639D01*
X00625280Y00496510D01*
X00626683Y00494682D01*
X00628510Y00493280D01*
X00630585Y00492421D01*
Y00486919D01*
X00630934Y00485163D01*
X00631929Y00483675D01*
X00632369Y00483380D01*
Y00479834D01*
X00628339Y00475804D01*
X00620322D01*
X00619249Y00475590D01*
X00618340Y00474983D01*
X00611231Y00467874D01*
X00610623Y00466964D01*
X00610410Y00465891D01*
Y00442965D01*
X00609410Y00442559D01*
X00587177Y00464792D01*
X00587177Y00483380D01*
X00587617Y00483675D01*
X00588612Y00485163D01*
X00588961Y00486919D01*
Y00492421D01*
X00591036Y00493280D01*
X00592864Y00494682D01*
X00594266Y00496510D01*
X00595148Y00498639D01*
X00595448Y00500923D01*
Y00515423D01*
X00595148Y00517707D01*
X00594266Y00519836D01*
X00592864Y00521664D01*
X00591036Y00523066D01*
X00588907Y00523948D01*
X00586623Y00524249D01*
X00582123D01*
X00579839Y00523948D01*
X00577710Y00523066D01*
X00575882Y00521664D01*
X00574480Y00519836D01*
X00573598Y00517707D01*
X00573298Y00515423D01*
Y00500923D01*
X00573598Y00498639D01*
X00574480Y00496510D01*
X00575882Y00494682D01*
X00577710Y00493280D01*
X00579785Y00492421D01*
Y00486919D01*
X00580134Y00485163D01*
X00581129Y00483675D01*
X00581569Y00483380D01*
X00581569Y00463631D01*
X00581621Y00463371D01*
X00580699Y00462879D01*
X00561777Y00481801D01*
Y00483380D01*
X00562217Y00483675D01*
X00563212Y00485163D01*
X00563561Y00486919D01*
Y00492421D01*
X00565636Y00493280D01*
X00567464Y00494682D01*
X00568866Y00496510D01*
X00569748Y00498639D01*
X00570048Y00500923D01*
Y00515423D01*
X00569748Y00517707D01*
X00568866Y00519836D01*
X00567464Y00521664D01*
X00565636Y00523066D01*
X00563507Y00523948D01*
X00561223Y00524249D01*
X00556723D01*
X00554439Y00523948D01*
X00552310Y00523066D01*
X00550482Y00521664D01*
X00549080Y00519836D01*
X00548198Y00517707D01*
X00547897Y00515423D01*
Y00500923D01*
X00548198Y00498639D01*
X00549080Y00496510D01*
X00550482Y00494682D01*
X00552310Y00493280D01*
X00554385Y00492421D01*
Y00486919D01*
X00554734Y00485163D01*
X00555729Y00483675D01*
X00556169Y00483380D01*
Y00480784D01*
X00555750Y00480403D01*
X00555253Y00480121D01*
X00554334Y00480304D01*
X00538161D01*
X00536377Y00482088D01*
Y00483380D01*
X00536817Y00483675D01*
X00537812Y00485163D01*
X00538161Y00486919D01*
Y00492421D01*
X00540236Y00493280D01*
X00542064Y00494682D01*
X00543466Y00496510D01*
X00544348Y00498639D01*
X00544649Y00500923D01*
Y00515423D01*
X00544348Y00517707D01*
X00543466Y00519836D01*
X00542064Y00521664D01*
X00540236Y00523066D01*
X00538107Y00523948D01*
X00535823Y00524249D01*
X00531323D01*
X00529039Y00523948D01*
X00526910Y00523066D01*
X00525083Y00521664D01*
X00523680Y00519836D01*
X00522798Y00517707D01*
X00522497Y00515423D01*
Y00500923D01*
X00522798Y00498639D01*
X00523680Y00496510D01*
X00525083Y00494682D01*
X00526910Y00493280D01*
X00528985Y00492421D01*
Y00486919D01*
X00529334Y00485163D01*
X00530329Y00483675D01*
X00530769Y00483380D01*
Y00480927D01*
X00530983Y00479854D01*
X00531590Y00478944D01*
X00534731Y00475804D01*
X00534326Y00474804D01*
X00516661D01*
X00510977Y00480488D01*
Y00483380D01*
X00511417Y00483675D01*
X00512412Y00485163D01*
X00512761Y00486919D01*
Y00492421D01*
X00514836Y00493280D01*
X00516664Y00494682D01*
X00518066Y00496510D01*
X00518948Y00498639D01*
X00519249Y00500923D01*
Y00515423D01*
X00518948Y00517707D01*
X00518066Y00519836D01*
X00516664Y00521664D01*
X00514836Y00523066D01*
X00512707Y00523948D01*
X00510423Y00524249D01*
X00505923D01*
X00503639Y00523948D01*
X00501510Y00523066D01*
X00499683Y00521664D01*
X00498280Y00519836D01*
X00497398Y00517707D01*
X00497098Y00515423D01*
Y00500923D01*
X00497398Y00498639D01*
X00498280Y00496510D01*
X00499683Y00494682D01*
X00501510Y00493280D01*
X00503585Y00492421D01*
Y00486919D01*
X00503934Y00485163D01*
X00504929Y00483675D01*
X00505369Y00483380D01*
Y00479327D01*
X00505583Y00478254D01*
X00506190Y00477344D01*
X00513231Y00470304D01*
X00512826Y00469304D01*
X00492661D01*
X00485577Y00476388D01*
Y00483380D01*
X00486017Y00483675D01*
X00487012Y00485163D01*
X00487361Y00486919D01*
Y00492421D01*
X00489436Y00493280D01*
X00491264Y00494682D01*
X00492666Y00496510D01*
X00493548Y00498639D01*
X00493848Y00500923D01*
Y00515423D01*
X00493548Y00517707D01*
X00492666Y00519836D01*
X00491264Y00521664D01*
X00489436Y00523066D01*
X00487307Y00523948D01*
X00485023Y00524249D01*
X00480523D01*
X00478239Y00523948D01*
X00476110Y00523066D01*
X00474282Y00521664D01*
X00472880Y00519836D01*
X00471998Y00517707D01*
X00471698Y00515423D01*
Y00500923D01*
X00471998Y00498639D01*
X00472880Y00496510D01*
X00474282Y00494682D01*
X00476110Y00493280D01*
X00478185Y00492421D01*
Y00486919D01*
X00478534Y00485163D01*
X00479529Y00483675D01*
X00479969Y00483380D01*
Y00475227D01*
X00480183Y00474154D01*
X00480790Y00473244D01*
X00489231Y00464804D01*
X00488826Y00463804D01*
X00469661D01*
X00460177Y00473288D01*
Y00483380D01*
X00460617Y00483675D01*
X00461612Y00485163D01*
X00461961Y00486919D01*
Y00492421D01*
X00464036Y00493280D01*
X00465864Y00494682D01*
X00467266Y00496510D01*
X00468148Y00498639D01*
X00468448Y00500923D01*
Y00515423D01*
X00468148Y00517707D01*
X00467266Y00519836D01*
X00465864Y00521664D01*
X00464036Y00523066D01*
X00461907Y00523948D01*
X00459623Y00524249D01*
X00455123D01*
X00452839Y00523948D01*
X00450710Y00523066D01*
X00448882Y00521664D01*
X00447480Y00519836D01*
X00446598Y00517707D01*
X00446297Y00515423D01*
Y00500923D01*
X00446598Y00498639D01*
X00447480Y00496510D01*
X00448882Y00494682D01*
X00450710Y00493280D01*
X00452785Y00492421D01*
Y00486919D01*
X00453134Y00485163D01*
X00454129Y00483675D01*
X00454569Y00483380D01*
Y00472127D01*
X00454783Y00471054D01*
X00455390Y00470144D01*
X00466517Y00459017D01*
X00467427Y00458410D01*
X00468500Y00458196D01*
X00546339D01*
X00577410Y00427125D01*
Y00377861D01*
X00576410Y00377447D01*
X00527374Y00426483D01*
X00526464Y00427090D01*
X00525391Y00427304D01*
X00438661D01*
X00424807Y00441158D01*
Y00459357D01*
X00424594Y00460430D01*
X00423986Y00461339D01*
X00419537Y00465788D01*
X00419537Y00483380D01*
X00419977Y00483675D01*
X00420972Y00485163D01*
X00421321Y00486919D01*
Y00492421D01*
X00423396Y00493280D01*
X00425224Y00494682D01*
X00426626Y00496510D01*
X00427508Y00498639D01*
X00427808Y00500923D01*
Y00515423D01*
X00427508Y00517707D01*
X00426626Y00519836D01*
X00425224Y00521664D01*
X00423396Y00523066D01*
X00421267Y00523948D01*
X00418983Y00524249D01*
X00414483D01*
X00412199Y00523948D01*
X00410070Y00523066D01*
X00408242Y00521664D01*
X00406840Y00519836D01*
X00405958Y00517707D01*
X00405658Y00515423D01*
Y00500923D01*
X00405958Y00498639D01*
X00406840Y00496510D01*
X00408242Y00494682D01*
X00410070Y00493280D01*
X00412145Y00492421D01*
Y00486919D01*
X00412494Y00485163D01*
X00413489Y00483675D01*
X00413929Y00483380D01*
X00413929Y00464627D01*
X00414143Y00463554D01*
X00414750Y00462644D01*
X00418468Y00458927D01*
X00418461Y00458891D01*
X00417374Y00458564D01*
X00394137Y00481801D01*
Y00483380D01*
X00394577Y00483675D01*
X00395572Y00485163D01*
X00395921Y00486919D01*
Y00492421D01*
X00397996Y00493280D01*
X00399824Y00494682D01*
X00401226Y00496510D01*
X00402108Y00498639D01*
X00402408Y00500923D01*
Y00515423D01*
X00402108Y00517707D01*
X00401226Y00519836D01*
X00399824Y00521664D01*
X00397996Y00523066D01*
X00395867Y00523948D01*
X00393583Y00524249D01*
X00389083D01*
X00386799Y00523948D01*
X00384670Y00523066D01*
X00382842Y00521664D01*
X00382089Y00520681D01*
X00381783Y00520648D01*
X00380930Y00520813D01*
X00380483Y00521483D01*
X00374414Y00527551D01*
X00374797Y00528475D01*
X00643221D01*
X00655475Y00516221D01*
D02*
G37*
G36*
X00463929Y00346750D02*
X00461207Y00344027D01*
X00460389Y00346507D01*
X00461449Y00347568D01*
X00463929Y00346750D01*
D02*
G37*
G36*
X00468252Y00344750D02*
Y00343250D01*
X00465920Y00342075D01*
Y00345925D01*
X00468252Y00344750D01*
D02*
G37*
G36*
X00520536Y00328575D02*
X00518204Y00329750D01*
X00518204Y00331250D01*
X00520536Y00332425D01*
X00520536Y00328575D01*
D02*
G37*
G36*
X00476296Y00331250D02*
X00476296Y00329750D01*
X00473964Y00328575D01*
X00473964Y00332425D01*
X00476296Y00331250D01*
D02*
G37*
G36*
X00527536Y00323075D02*
X00525204Y00324250D01*
X00525204Y00325750D01*
X00527536Y00326925D01*
X00527536Y00323075D01*
D02*
G37*
G36*
X00483296Y00325750D02*
X00483296Y00324250D01*
X00480964Y00323075D01*
X00480964Y00326925D01*
X00483296Y00325750D01*
D02*
G37*
G36*
X00520536Y00317575D02*
X00518204Y00318750D01*
X00518204Y00320250D01*
X00520536Y00321425D01*
X00520536Y00317575D01*
D02*
G37*
G36*
X00476296Y00320250D02*
X00476296Y00318750D01*
X00473964Y00317575D01*
X00473964Y00321425D01*
X00476296Y00320250D01*
D02*
G37*
G36*
X00527536Y00312075D02*
X00525204Y00313250D01*
X00525204Y00314750D01*
X00527536Y00315925D01*
X00527536Y00312075D01*
D02*
G37*
G36*
X00483296Y00314750D02*
X00483296Y00313250D01*
X00480964Y00312075D01*
X00480964Y00315925D01*
X00483296Y00314750D01*
D02*
G37*
G36*
X00520536Y00306575D02*
X00518204Y00307750D01*
X00518204Y00309250D01*
X00520536Y00310425D01*
X00520536Y00306575D01*
D02*
G37*
G36*
X00476296Y00309250D02*
X00476296Y00307750D01*
X00473964Y00306575D01*
X00473964Y00310425D01*
X00476296Y00309250D01*
D02*
G37*
G36*
X00527536Y00301075D02*
X00525204Y00302250D01*
X00525204Y00303750D01*
X00527536Y00304925D01*
X00527536Y00301075D01*
D02*
G37*
G36*
X00483296Y00303750D02*
X00483296Y00302250D01*
X00480964Y00301075D01*
X00480964Y00304925D01*
X00483296Y00303750D01*
D02*
G37*
G36*
X00476296Y00298250D02*
Y00296750D01*
X00473964Y00295575D01*
Y00299425D01*
X00476296Y00298250D01*
D02*
G37*
G36*
X00520536Y00295575D02*
X00518204Y00296750D01*
X00518204Y00298250D01*
X00520536Y00299425D01*
X00520536Y00295575D01*
D02*
G37*
G36*
X00527536Y00290075D02*
X00525204Y00291250D01*
Y00292750D01*
X00527536Y00293925D01*
Y00290075D01*
D02*
G37*
G36*
X00483296Y00292750D02*
X00483296Y00291250D01*
X00480964Y00290075D01*
X00480964Y00293925D01*
X00483296Y00292750D01*
D02*
G37*
G36*
X00447568Y00215493D02*
X00446507Y00214432D01*
X00444027Y00215250D01*
X00446750Y00217973D01*
X00447568Y00215493D01*
D02*
G37*
G36*
X00441558Y00209482D02*
X00440497Y00208422D01*
X00438017Y00209240D01*
X00440740Y00211962D01*
X00441558Y00209482D01*
D02*
G37*
G36*
X00449243Y00201750D02*
Y00200250D01*
X00446911Y00199075D01*
Y00202925D01*
X00449243Y00201750D01*
D02*
G37*
G36*
X00456243Y00196250D02*
Y00194750D01*
X00453911Y00193575D01*
Y00197425D01*
X00456243Y00196250D01*
D02*
G37*
G36*
X00449243Y00190750D02*
Y00189250D01*
X00446911Y00188075D01*
Y00191925D01*
X00449243Y00190750D01*
D02*
G37*
G36*
X00455743Y00185250D02*
Y00183750D01*
X00453411Y00182575D01*
Y00186425D01*
X00455743Y00185250D01*
D02*
G37*
G36*
X00449243Y00179750D02*
Y00178250D01*
X00446911Y00177075D01*
Y00180925D01*
X00449243Y00179750D01*
D02*
G37*
G36*
X00456243Y00174250D02*
X00456243Y00172750D01*
X00453911Y00171575D01*
X00453911Y00175425D01*
X00456243Y00174250D01*
D02*
G37*
G36*
X00449296Y00162250D02*
Y00160750D01*
X00446964Y00159575D01*
Y00163425D01*
X00449296Y00162250D01*
D02*
G37*
G36*
X00456296Y00156750D02*
Y00155250D01*
X00453964Y00154075D01*
Y00157925D01*
X00456296Y00156750D01*
D02*
G37*
G36*
X00449296Y00151250D02*
Y00149750D01*
X00446964Y00148575D01*
Y00152425D01*
X00449296Y00151250D01*
D02*
G37*
G36*
X00455796Y00145750D02*
Y00144250D01*
X00453464Y00143075D01*
Y00146925D01*
X00455796Y00145750D01*
D02*
G37*
G36*
X00449296Y00140250D02*
Y00138750D01*
X00446964Y00137575D01*
Y00141425D01*
X00449296Y00140250D01*
D02*
G37*
G36*
X00456296Y00134750D02*
X00456296Y00133250D01*
X00453964Y00132075D01*
X00453964Y00135925D01*
X00456296Y00134750D01*
D02*
G37*
G36*
X00449296Y00129250D02*
Y00127750D01*
X00446964Y00126575D01*
Y00130425D01*
X00449296Y00129250D01*
D02*
G37*
G36*
X00456296Y00123750D02*
Y00122250D01*
X00453964Y00121075D01*
Y00124925D01*
X00456296Y00123750D01*
D02*
G37*
G36*
X00449296Y00118250D02*
Y00116750D01*
X00446964Y00115575D01*
Y00119425D01*
X00449296Y00118250D01*
D02*
G37*
G36*
X00237296Y00116250D02*
X00237296Y00114750D01*
X00234964Y00113575D01*
X00234964Y00117425D01*
X00237296Y00116250D01*
D02*
G37*
G36*
X00609124Y00111575D02*
X00606792Y00112750D01*
Y00114250D01*
X00609124Y00115425D01*
Y00111575D01*
D02*
G37*
G36*
X00224296Y00110750D02*
Y00109250D01*
X00221964Y00108075D01*
Y00111925D01*
X00224296Y00110750D01*
D02*
G37*
G36*
X00568250Y00106704D02*
X00566750Y00106704D01*
X00565575Y00109036D01*
X00569425Y00109036D01*
X00568250Y00106704D01*
D02*
G37*
G36*
X00557250D02*
X00555750Y00106704D01*
X00554575Y00109036D01*
X00558425Y00109036D01*
X00557250Y00106704D01*
D02*
G37*
G36*
X00590250D02*
X00588750Y00106704D01*
X00587575Y00109036D01*
X00591425Y00109036D01*
X00590250Y00106704D01*
D02*
G37*
G36*
X00579250D02*
X00577750Y00106704D01*
X00576575Y00109036D01*
X00580425Y00109036D01*
X00579250Y00106704D01*
D02*
G37*
G36*
X00176796Y00103250D02*
Y00101750D01*
X00174464Y00100575D01*
Y00104425D01*
X00176796Y00103250D01*
D02*
G37*
G36*
X00201296Y00103250D02*
Y00101750D01*
X00198964Y00100575D01*
Y00104425D01*
X00201296Y00103250D01*
D02*
G37*
G36*
X00118568Y00103007D02*
X00117750Y00100527D01*
X00115028Y00103250D01*
X00117507Y00104068D01*
X00118568Y00103007D01*
D02*
G37*
G36*
X00562750Y00099704D02*
X00561250Y00099704D01*
X00560075Y00102036D01*
X00563925Y00102036D01*
X00562750Y00099704D01*
D02*
G37*
G36*
X00551750Y00099704D02*
X00550250D01*
X00549075Y00102036D01*
X00552925D01*
X00551750Y00099704D01*
D02*
G37*
G36*
X00584750Y00099704D02*
X00583250Y00099704D01*
X00582075Y00102036D01*
X00585925Y00102036D01*
X00584750Y00099704D01*
D02*
G37*
G36*
X00573750Y00099704D02*
X00572250Y00099704D01*
X00571075Y00102036D01*
X00574925Y00102036D01*
X00573750Y00099704D01*
D02*
G37*
G36*
X00552555Y00113772D02*
X00552473Y00113691D01*
X00551750Y00111945D01*
Y00110055D01*
X00551876Y00109750D01*
X00551208Y00108750D01*
X00550055D01*
X00548309Y00108027D01*
X00546973Y00106691D01*
X00546250Y00104945D01*
Y00103055D01*
X00546973Y00101309D01*
X00547345Y00100937D01*
X00547890Y00099856D01*
X00546839Y00098804D01*
X00542161D01*
X00527269Y00113696D01*
X00527674Y00114696D01*
X00552172D01*
X00552555Y00113772D01*
D02*
G37*
G36*
X00144296Y00101250D02*
Y00099750D01*
X00141964Y00098575D01*
Y00102425D01*
X00144296Y00101250D01*
D02*
G37*
G36*
X00088568Y00097993D02*
X00087507Y00096932D01*
X00085028Y00097750D01*
X00087750Y00100472D01*
X00088568Y00097993D01*
D02*
G37*
G36*
X00102068Y00097993D02*
X00101007Y00096932D01*
X00098527Y00097750D01*
X00101250Y00100472D01*
X00102068Y00097993D01*
D02*
G37*
G36*
X00500296Y00066250D02*
Y00064750D01*
X00497964Y00063575D01*
Y00067425D01*
X00500296Y00066250D01*
D02*
G37*
G36*
X00620536Y00057075D02*
X00618204Y00058250D01*
Y00059750D01*
X00620536Y00060925D01*
Y00057075D01*
D02*
G37*
G36*
X00595036Y00054575D02*
X00592704Y00055750D01*
Y00057250D01*
X00595036Y00058425D01*
Y00054575D01*
D02*
G37*
G36*
X00500296Y00056750D02*
Y00055250D01*
X00497964Y00054075D01*
Y00057925D01*
X00500296Y00056750D01*
D02*
G37*
%LPC*%
G36*
X00266833Y00525224D02*
Y00510673D01*
X00276417D01*
Y00515423D01*
X00276082Y00517968D01*
X00275100Y00520340D01*
X00273537Y00522377D01*
X00271500Y00523940D01*
X00269128Y00524922D01*
X00266833Y00525224D01*
D02*
G37*
G36*
X00261833D02*
X00259538Y00524922D01*
X00257166Y00523940D01*
X00255129Y00522377D01*
X00253566Y00520340D01*
X00252584Y00517968D01*
X00252249Y00515423D01*
Y00510673D01*
X00261833D01*
Y00525224D01*
D02*
G37*
G36*
X00241183Y00524249D02*
X00236683D01*
X00234399Y00523948D01*
X00232270Y00523066D01*
X00230443Y00521664D01*
X00229040Y00519836D01*
X00228158Y00517707D01*
X00227857Y00515423D01*
Y00500923D01*
X00228158Y00498639D01*
X00229040Y00496510D01*
X00230443Y00494682D01*
X00232270Y00493280D01*
X00234399Y00492398D01*
X00236683Y00492098D01*
X00241183D01*
X00243467Y00492398D01*
X00245596Y00493280D01*
X00247424Y00494682D01*
X00248826Y00496510D01*
X00249708Y00498639D01*
X00250009Y00500923D01*
Y00515423D01*
X00249708Y00517707D01*
X00248826Y00519836D01*
X00247424Y00521664D01*
X00245596Y00523066D01*
X00243467Y00523948D01*
X00241183Y00524249D01*
D02*
G37*
G36*
X00276417Y00505673D02*
X00266833D01*
Y00491122D01*
X00269128Y00491424D01*
X00271500Y00492406D01*
X00273537Y00493969D01*
X00275100Y00496006D01*
X00276082Y00498378D01*
X00276417Y00500923D01*
Y00505673D01*
D02*
G37*
G36*
X00261833D02*
X00252249D01*
Y00500923D01*
X00252584Y00498378D01*
X00253566Y00496006D01*
X00255129Y00493969D01*
X00257166Y00492406D01*
X00259538Y00491424D01*
X00261833Y00491122D01*
Y00505673D01*
D02*
G37*
G36*
X00073250Y00425268D02*
X00070250D01*
Y00419699D01*
X00080873D01*
X00080238Y00421234D01*
X00078955Y00422905D01*
X00077284Y00424187D01*
X00075338Y00424993D01*
X00073250Y00425268D01*
D02*
G37*
G36*
X00065250D02*
X00062250D01*
X00060161Y00424993D01*
X00058215Y00424187D01*
X00056544Y00422905D01*
X00055262Y00421234D01*
X00054626Y00419699D01*
X00065250D01*
Y00425268D01*
D02*
G37*
G36*
X00023749D02*
X00022250D01*
X00020161Y00424993D01*
X00018215Y00424187D01*
X00016544Y00422905D01*
X00015262Y00421234D01*
X00014626Y00419699D01*
X00023749D01*
Y00425268D01*
D02*
G37*
G36*
Y00414699D02*
X00014626D01*
X00015262Y00413165D01*
X00016544Y00411494D01*
X00018215Y00410211D01*
X00020161Y00409405D01*
X00022250Y00409130D01*
X00023749D01*
Y00414699D01*
D02*
G37*
G36*
X00080873Y00414699D02*
X00067750D01*
X00054626D01*
X00055262Y00413165D01*
X00056544Y00411494D01*
X00057650Y00410645D01*
X00057670Y00409401D01*
X00056866Y00408783D01*
X00055543Y00407060D01*
X00054712Y00405053D01*
X00054429Y00402899D01*
X00054712Y00400746D01*
X00055543Y00398739D01*
X00056866Y00397015D01*
X00058589Y00395693D01*
X00058951Y00395543D01*
X00059044Y00394907D01*
X00058995Y00394442D01*
X00057899Y00393601D01*
X00053399Y00389101D01*
X00052477Y00387900D01*
X00051898Y00386501D01*
X00051700Y00385000D01*
Y00366000D01*
X00051898Y00364499D01*
X00052477Y00363100D01*
X00053399Y00361899D01*
X00061088Y00354210D01*
X00060770Y00353160D01*
X00060596Y00353137D01*
X00058589Y00352306D01*
X00056866Y00350983D01*
X00055543Y00349260D01*
X00054712Y00347253D01*
X00054429Y00345099D01*
X00054712Y00342946D01*
X00055543Y00340939D01*
X00056866Y00339215D01*
X00057670Y00338598D01*
X00057650Y00337353D01*
X00056544Y00336505D01*
X00055262Y00334834D01*
X00054626Y00333299D01*
X00067750D01*
X00080873D01*
X00080238Y00334834D01*
X00078955Y00336505D01*
X00077284Y00337787D01*
X00075338Y00338593D01*
X00073250Y00338868D01*
X00069628D01*
X00069135Y00339868D01*
X00069956Y00340939D01*
X00070787Y00342946D01*
X00071071Y00345099D01*
X00070787Y00347253D01*
X00069956Y00349260D01*
X00068634Y00350983D01*
X00068281Y00351254D01*
X00068603Y00352200D01*
X00073098D01*
X00079399Y00345899D01*
X00080600Y00344977D01*
X00081999Y00344398D01*
X00083500Y00344200D01*
X00091500D01*
X00093001Y00344398D01*
X00094400Y00344977D01*
X00095601Y00345899D01*
X00096523Y00347100D01*
X00097102Y00348499D01*
X00097300Y00350000D01*
X00097102Y00351501D01*
X00096523Y00352900D01*
X00095601Y00354101D01*
X00094400Y00355023D01*
X00093001Y00355602D01*
X00091500Y00355800D01*
X00085902D01*
X00079601Y00362101D01*
X00078400Y00363023D01*
X00077001Y00363602D01*
X00075500Y00363800D01*
X00067902D01*
X00063300Y00368402D01*
Y00382598D01*
X00064402Y00383700D01*
X00067500D01*
X00069001Y00383898D01*
X00070400Y00384477D01*
X00071601Y00385399D01*
X00079902Y00393700D01*
X00090500D01*
X00092001Y00393897D01*
X00093400Y00394477D01*
X00094601Y00395398D01*
X00095523Y00396600D01*
X00096102Y00397998D01*
X00096300Y00399499D01*
X00096102Y00401000D01*
X00095523Y00402399D01*
X00094601Y00403600D01*
X00093400Y00404522D01*
X00092001Y00405101D01*
X00090500Y00405299D01*
X00077499D01*
X00075998Y00405101D01*
X00074599Y00404522D01*
X00073398Y00403600D01*
X00071924Y00402126D01*
X00071027Y00402568D01*
X00071071Y00402899D01*
X00070787Y00405053D01*
X00069956Y00407060D01*
X00069135Y00408130D01*
X00069628Y00409130D01*
X00073250D01*
X00075338Y00409405D01*
X00077284Y00410211D01*
X00078955Y00411494D01*
X00080238Y00413165D01*
X00080873Y00414699D01*
D02*
G37*
G36*
X00023750Y00338868D02*
X00022250D01*
X00020161Y00338593D01*
X00018215Y00337787D01*
X00016544Y00336505D01*
X00015262Y00334834D01*
X00014626Y00333299D01*
X00023750D01*
Y00338868D01*
D02*
G37*
G36*
X00080873Y00328299D02*
X00070250D01*
Y00322730D01*
X00073250D01*
X00075338Y00323005D01*
X00077284Y00323811D01*
X00078955Y00325094D01*
X00080238Y00326765D01*
X00080873Y00328299D01*
D02*
G37*
G36*
X00065250D02*
X00054626D01*
X00055262Y00326765D01*
X00056544Y00325094D01*
X00058215Y00323811D01*
X00060161Y00323005D01*
X00062250Y00322730D01*
X00065250D01*
Y00328299D01*
D02*
G37*
G36*
X00023750Y00328299D02*
X00014626D01*
X00015262Y00326765D01*
X00016544Y00325094D01*
X00018215Y00323811D01*
X00020161Y00323005D01*
X00022250Y00322730D01*
X00023750D01*
Y00328299D01*
D02*
G37*
G36*
X00317445Y00335750D02*
X00315555D01*
X00313809Y00335027D01*
X00312473Y00333691D01*
X00311750Y00331945D01*
Y00330055D01*
X00311912Y00329664D01*
Y00300900D01*
X00305256Y00294244D01*
X00304261Y00292756D01*
X00303912Y00291000D01*
Y00274675D01*
Y00259426D01*
X00297563D01*
X00296244Y00260744D01*
X00294756Y00261739D01*
X00293000Y00262088D01*
X00289835D01*
X00289445Y00262250D01*
X00287555D01*
X00285809Y00261527D01*
X00284473Y00260191D01*
X00283750Y00258445D01*
Y00256555D01*
X00284473Y00254809D01*
X00285809Y00253473D01*
X00287555Y00252750D01*
X00289445D01*
X00289835Y00252912D01*
X00291100D01*
X00292418Y00251593D01*
X00293907Y00250599D01*
X00295663Y00250249D01*
X00303912D01*
Y00230500D01*
X00304261Y00228744D01*
X00305256Y00227256D01*
X00313412Y00219100D01*
Y00207901D01*
X00292256Y00186744D01*
X00291261Y00185256D01*
X00290912Y00183500D01*
Y00135336D01*
X00290750Y00134945D01*
Y00133055D01*
X00291473Y00131309D01*
X00292809Y00129973D01*
X00294555Y00129250D01*
X00296445D01*
X00298191Y00129973D01*
X00299527Y00131309D01*
X00300250Y00133055D01*
Y00134945D01*
X00300088Y00135336D01*
Y00181600D01*
X00321244Y00202756D01*
X00322239Y00204244D01*
X00322588Y00206000D01*
Y00216412D01*
X00350664D01*
X00351055Y00216250D01*
X00352945D01*
X00353335Y00216412D01*
X00392164D01*
X00392555Y00216250D01*
X00394445D01*
X00396191Y00216973D01*
X00397527Y00218309D01*
X00398250Y00220055D01*
Y00221945D01*
X00397527Y00223691D01*
X00396191Y00225027D01*
X00394445Y00225750D01*
X00392555D01*
X00392164Y00225588D01*
X00353335D01*
X00352945Y00225750D01*
X00351055D01*
X00350664Y00225588D01*
X00319900D01*
X00313088Y00232400D01*
Y00254837D01*
Y00269912D01*
X00319540D01*
X00319739Y00268912D01*
X00318809Y00268527D01*
X00317473Y00267191D01*
X00316750Y00265445D01*
Y00263555D01*
X00317473Y00261809D01*
X00318809Y00260473D01*
X00320555Y00259750D01*
X00322445D01*
X00322836Y00259912D01*
X00325500D01*
X00327256Y00260261D01*
X00328744Y00261256D01*
X00334244Y00266756D01*
X00335239Y00268244D01*
X00335588Y00270000D01*
Y00285912D01*
X00343367D01*
X00345123Y00286261D01*
X00346611Y00287256D01*
X00351065Y00291709D01*
X00411724D01*
X00416412Y00287021D01*
Y00282836D01*
X00416250Y00282445D01*
Y00280555D01*
X00416973Y00278809D01*
X00418309Y00277473D01*
X00418383Y00277101D01*
X00417473Y00276191D01*
X00416750Y00274445D01*
Y00272555D01*
X00417473Y00270809D01*
X00418809Y00269473D01*
X00420555Y00268750D01*
X00422445D01*
X00422836Y00268912D01*
X00429500D01*
X00431256Y00269261D01*
X00432744Y00270256D01*
X00440244Y00277756D01*
X00441239Y00279244D01*
X00441588Y00281000D01*
Y00289912D01*
X00444664D01*
X00445055Y00289750D01*
X00446945D01*
X00448691Y00290473D01*
X00450027Y00291809D01*
X00450750Y00293555D01*
Y00295445D01*
X00450027Y00297191D01*
X00448691Y00298527D01*
X00446945Y00299250D01*
X00445055D01*
X00444664Y00299088D01*
X00441588D01*
Y00314000D01*
X00441239Y00315756D01*
X00440244Y00317244D01*
X00430244Y00327244D01*
X00428756Y00328239D01*
X00427000Y00328588D01*
X00396335D01*
X00395945Y00328750D01*
X00394055D01*
X00393665Y00328588D01*
X00338350D01*
X00337960Y00328750D01*
X00336070D01*
X00334324Y00328027D01*
X00332988Y00326691D01*
X00332265Y00324945D01*
Y00323055D01*
X00332988Y00321309D01*
X00334324Y00319973D01*
X00336070Y00319250D01*
X00337960D01*
X00338350Y00319412D01*
X00393665D01*
X00394055Y00319250D01*
X00395945D01*
X00396335Y00319412D01*
X00425099D01*
X00432412Y00312099D01*
Y00294500D01*
Y00282901D01*
X00427599Y00278088D01*
X00425612D01*
X00425142Y00279088D01*
X00425750Y00280555D01*
Y00282445D01*
X00425588Y00282836D01*
Y00288922D01*
X00425239Y00290677D01*
X00424244Y00292166D01*
X00416869Y00299542D01*
X00415380Y00300536D01*
X00413624Y00300885D01*
X00349164D01*
X00347408Y00300536D01*
X00345920Y00299542D01*
X00341466Y00295088D01*
X00322836D01*
X00322445Y00295250D01*
X00320609D01*
X00320425Y00295436D01*
X00319967Y00296089D01*
X00320739Y00297244D01*
X00321088Y00299000D01*
Y00329664D01*
X00321250Y00330055D01*
Y00331945D01*
X00320527Y00333691D01*
X00319191Y00335027D01*
X00317445Y00335750D01*
D02*
G37*
G36*
X00071945Y00320750D02*
X00070055D01*
X00068309Y00320027D01*
X00066973Y00318691D01*
X00066250Y00316945D01*
Y00315055D01*
X00066973Y00313309D01*
X00068309Y00311973D01*
X00070055Y00311250D01*
X00071945D01*
X00073691Y00311973D01*
X00074149Y00312431D01*
X00118022D01*
X00143977Y00286477D01*
X00145134Y00285703D01*
X00146500Y00285431D01*
X00190401D01*
X00190859Y00284973D01*
X00192605Y00284250D01*
X00194495D01*
X00196241Y00284973D01*
X00197577Y00286309D01*
X00198300Y00288055D01*
Y00289945D01*
X00197577Y00291691D01*
X00196241Y00293027D01*
X00194495Y00293750D01*
X00192605D01*
X00190859Y00293027D01*
X00190401Y00292569D01*
X00147978D01*
X00122023Y00318523D01*
X00120866Y00319297D01*
X00119500Y00319569D01*
X00074149D01*
X00073691Y00320027D01*
X00071945Y00320750D01*
D02*
G37*
G36*
X00398445Y00281750D02*
X00396555D01*
X00394809Y00281027D01*
X00393473Y00279691D01*
X00392750Y00277945D01*
Y00276055D01*
X00393473Y00274309D01*
X00394782Y00273000D01*
X00393473Y00271691D01*
X00392750Y00269945D01*
Y00268055D01*
X00393473Y00266309D01*
X00394809Y00264973D01*
X00396555Y00264250D01*
X00397081D01*
X00398877Y00263658D01*
X00410517Y00252017D01*
X00411427Y00251410D01*
X00412500Y00251196D01*
X00518339D01*
X00520017Y00249517D01*
X00520927Y00248910D01*
X00522000Y00248696D01*
X00523249D01*
X00524937Y00247845D01*
X00525309Y00247473D01*
X00527055Y00246750D01*
X00528945D01*
X00530691Y00247473D01*
X00532027Y00248809D01*
X00532750Y00250555D01*
Y00252445D01*
X00532027Y00254191D01*
X00531121Y00255097D01*
X00530800Y00255750D01*
X00531121Y00256403D01*
X00532027Y00257309D01*
X00532750Y00259055D01*
Y00260945D01*
X00532027Y00262691D01*
X00530691Y00264027D01*
X00528945Y00264750D01*
X00527055D01*
X00525309Y00264027D01*
X00524937Y00263655D01*
X00523249Y00262804D01*
X00522000D01*
X00520927Y00262590D01*
X00520017Y00261983D01*
X00518339Y00260304D01*
X00416161D01*
X00407163Y00269303D01*
Y00275170D01*
X00406949Y00276243D01*
X00406341Y00277152D01*
X00404511Y00278983D01*
X00403601Y00279590D01*
X00402528Y00279804D01*
X00402251D01*
X00400563Y00280655D01*
X00400191Y00281027D01*
X00398445Y00281750D01*
D02*
G37*
G36*
X00133757Y00379250D02*
X00132243D01*
X00130781Y00378858D01*
X00129469Y00378101D01*
X00128399Y00377030D01*
X00127642Y00375719D01*
X00127250Y00374257D01*
Y00372743D01*
X00127642Y00371281D01*
X00128399Y00369969D01*
X00129469Y00368899D01*
X00130781Y00368142D01*
X00132243Y00367750D01*
X00133757D01*
X00135219Y00368142D01*
X00136531Y00368899D01*
X00136544Y00368912D01*
X00139600D01*
X00144412Y00364100D01*
Y00351000D01*
X00144761Y00349244D01*
X00145756Y00347756D01*
X00204912Y00288599D01*
Y00239543D01*
X00204899Y00239531D01*
X00204142Y00238219D01*
X00203750Y00236757D01*
Y00235243D01*
X00204142Y00233781D01*
X00204899Y00232470D01*
X00205969Y00231399D01*
X00207281Y00230642D01*
X00208743Y00230250D01*
X00210257D01*
X00211719Y00230642D01*
X00213030Y00231399D01*
X00214101Y00232470D01*
X00214858Y00233781D01*
X00215250Y00235243D01*
Y00236757D01*
X00214858Y00238219D01*
X00214101Y00239531D01*
X00214088Y00239543D01*
Y00290500D01*
X00213739Y00292256D01*
X00212744Y00293744D01*
X00153588Y00352901D01*
Y00366000D01*
X00153239Y00367756D01*
X00152244Y00369244D01*
X00144744Y00376744D01*
X00143256Y00377739D01*
X00141500Y00378088D01*
X00136544D01*
X00136531Y00378101D01*
X00135219Y00378858D01*
X00133757Y00379250D01*
D02*
G37*
G36*
X00083000Y00208065D02*
X00082250D01*
Y00188750D01*
X00090565D01*
Y00200500D01*
X00090307Y00202458D01*
X00089551Y00204282D01*
X00088349Y00205849D01*
X00086782Y00207051D01*
X00084958Y00207807D01*
X00083000Y00208065D01*
D02*
G37*
G36*
X00074750D02*
X00074000D01*
X00072042Y00207807D01*
X00070218Y00207051D01*
X00068651Y00205849D01*
X00067449Y00204282D01*
X00066693Y00202458D01*
X00066435Y00200500D01*
Y00188750D01*
X00074750D01*
Y00208065D01*
D02*
G37*
G36*
X00141000D02*
X00132000D01*
X00130042Y00207807D01*
X00128218Y00207051D01*
X00126651Y00205849D01*
X00125449Y00204282D01*
X00124693Y00202458D01*
X00124435Y00200500D01*
Y00169500D01*
X00124693Y00167542D01*
X00125449Y00165718D01*
X00126651Y00164151D01*
X00128218Y00162949D01*
X00130042Y00162193D01*
X00132000Y00161935D01*
X00141000D01*
X00142958Y00162193D01*
X00144782Y00162949D01*
X00146349Y00164151D01*
X00147551Y00165718D01*
X00148307Y00167542D01*
X00148565Y00169500D01*
Y00200500D01*
X00148307Y00202458D01*
X00147551Y00204282D01*
X00146349Y00205849D01*
X00144782Y00207051D01*
X00142958Y00207807D01*
X00141000Y00208065D01*
D02*
G37*
G36*
X00090565Y00181250D02*
X00082250D01*
Y00161935D01*
X00083000D01*
X00084958Y00162193D01*
X00086782Y00162949D01*
X00088349Y00164151D01*
X00089551Y00165718D01*
X00090307Y00167542D01*
X00090565Y00169500D01*
Y00181250D01*
D02*
G37*
G36*
X00074750D02*
X00066435D01*
Y00169500D01*
X00066693Y00167542D01*
X00067449Y00165718D01*
X00068651Y00164151D01*
X00070218Y00162949D01*
X00072042Y00162193D01*
X00074000Y00161935D01*
X00074750D01*
Y00181250D01*
D02*
G37*
G36*
X00122000Y00149065D02*
X00110250D01*
Y00140750D01*
X00129565D01*
Y00141500D01*
X00129307Y00143458D01*
X00128551Y00145282D01*
X00127349Y00146849D01*
X00125782Y00148051D01*
X00123958Y00148807D01*
X00122000Y00149065D01*
D02*
G37*
G36*
X00102750D02*
X00091000D01*
X00089042Y00148807D01*
X00087218Y00148051D01*
X00085651Y00146849D01*
X00084449Y00145282D01*
X00083693Y00143458D01*
X00083435Y00141500D01*
Y00140750D01*
X00102750D01*
Y00149065D01*
D02*
G37*
G36*
X00129565Y00133250D02*
X00110250D01*
Y00124935D01*
X00122000D01*
X00123958Y00125193D01*
X00125782Y00125949D01*
X00127349Y00127151D01*
X00128551Y00128718D01*
X00129307Y00130542D01*
X00129565Y00132500D01*
Y00133250D01*
D02*
G37*
G36*
X00102750D02*
X00083435D01*
Y00132500D01*
X00083693Y00130542D01*
X00084449Y00128718D01*
X00085651Y00127151D01*
X00087218Y00125949D01*
X00089042Y00125193D01*
X00091000Y00124935D01*
X00102750D01*
Y00133250D01*
D02*
G37*
G36*
X00216945Y00066750D02*
X00215055D01*
X00213309Y00066027D01*
X00211973Y00064691D01*
X00211250Y00062945D01*
Y00061055D01*
X00211973Y00059309D01*
X00213309Y00057973D01*
X00215055Y00057250D01*
X00216945D01*
X00218691Y00057973D01*
X00220027Y00059309D01*
X00220750Y00061055D01*
Y00062945D01*
X00220027Y00064691D01*
X00218691Y00066027D01*
X00216945Y00066750D01*
D02*
G37*
G36*
X00033500Y00093000D02*
X00009500Y00093000D01*
X00009500Y00054000D01*
X00033500Y00054000D01*
X00033500Y00093000D01*
D02*
G37*
G36*
X00089945Y00057750D02*
X00088055D01*
X00086309Y00057027D01*
X00084973Y00055691D01*
X00084250Y00053945D01*
Y00052055D01*
X00084973Y00050309D01*
X00086309Y00048973D01*
X00088055Y00048250D01*
X00089945D01*
X00091691Y00048973D01*
X00093027Y00050309D01*
X00093750Y00052055D01*
Y00053945D01*
X00093027Y00055691D01*
X00091691Y00057027D01*
X00089945Y00057750D01*
D02*
G37*
G36*
X00064445D02*
X00062555D01*
X00060809Y00057027D01*
X00059473Y00055691D01*
X00058750Y00053945D01*
Y00052055D01*
X00059473Y00050309D01*
X00060809Y00048973D01*
X00062555Y00048250D01*
X00064445D01*
X00066191Y00048973D01*
X00067527Y00050309D01*
X00068250Y00052055D01*
Y00053945D01*
X00067527Y00055691D01*
X00066191Y00057027D01*
X00064445Y00057750D01*
D02*
G37*
G36*
X00140945Y00055250D02*
X00139055D01*
X00137309Y00054527D01*
X00135973Y00053191D01*
X00135250Y00051445D01*
Y00049555D01*
X00135973Y00047809D01*
X00137309Y00046473D01*
X00139055Y00045750D01*
X00140945D01*
X00142691Y00046473D01*
X00144027Y00047809D01*
X00144750Y00049555D01*
Y00051445D01*
X00144027Y00053191D01*
X00142691Y00054527D01*
X00140945Y00055250D01*
D02*
G37*
G36*
X00114945Y00055250D02*
X00113055D01*
X00111309Y00054527D01*
X00109973Y00053191D01*
X00109250Y00051445D01*
Y00049555D01*
X00109973Y00047809D01*
X00111309Y00046473D01*
X00113055Y00045750D01*
X00114945D01*
X00116691Y00046473D01*
X00118027Y00047809D01*
X00118750Y00049555D01*
Y00051445D01*
X00118027Y00053191D01*
X00116691Y00054527D01*
X00114945Y00055250D01*
D02*
G37*
G36*
X00166445Y00054750D02*
X00164555D01*
X00162809Y00054027D01*
X00161473Y00052691D01*
X00160750Y00050945D01*
Y00049055D01*
X00161473Y00047309D01*
X00162809Y00045973D01*
X00164555Y00045250D01*
X00166445D01*
X00168191Y00045973D01*
X00169527Y00047309D01*
X00170250Y00049055D01*
Y00050945D01*
X00169527Y00052691D01*
X00168191Y00054027D01*
X00166445Y00054750D01*
D02*
G37*
G36*
X00307223Y00041649D02*
X00302723D01*
X00300439Y00041348D01*
X00298310Y00040466D01*
X00296483Y00039064D01*
X00295080Y00037236D01*
X00294198Y00035107D01*
X00293897Y00032823D01*
Y00018323D01*
X00294198Y00016039D01*
X00295080Y00013910D01*
X00296483Y00012082D01*
X00298310Y00010680D01*
X00300439Y00009798D01*
X00302723Y00009498D01*
X00307223D01*
X00309507Y00009798D01*
X00311636Y00010680D01*
X00313464Y00012082D01*
X00314866Y00013910D01*
X00315748Y00016039D01*
X00316049Y00018323D01*
Y00032823D01*
X00315748Y00035107D01*
X00314866Y00037236D01*
X00313464Y00039064D01*
X00311636Y00040466D01*
X00309507Y00041348D01*
X00307223Y00041649D01*
D02*
G37*
G36*
X00281823D02*
X00277323D01*
X00275039Y00041348D01*
X00272910Y00040466D01*
X00271082Y00039064D01*
X00269680Y00037236D01*
X00268798Y00035107D01*
X00268498Y00032823D01*
Y00018323D01*
X00268798Y00016039D01*
X00269680Y00013910D01*
X00271082Y00012082D01*
X00272910Y00010680D01*
X00275039Y00009798D01*
X00277323Y00009498D01*
X00281823D01*
X00284107Y00009798D01*
X00286236Y00010680D01*
X00288064Y00012082D01*
X00289466Y00013910D01*
X00290348Y00016039D01*
X00290648Y00018323D01*
Y00032823D01*
X00290348Y00035107D01*
X00289466Y00037236D01*
X00288064Y00039064D01*
X00286236Y00040466D01*
X00284107Y00041348D01*
X00281823Y00041649D01*
D02*
G37*
G36*
X00231023D02*
X00226523D01*
X00224239Y00041348D01*
X00222110Y00040466D01*
X00220282Y00039064D01*
X00218880Y00037236D01*
X00217998Y00035107D01*
X00217698Y00032823D01*
Y00018323D01*
X00217998Y00016039D01*
X00218880Y00013910D01*
X00220282Y00012082D01*
X00222110Y00010680D01*
X00224239Y00009798D01*
X00226523Y00009498D01*
X00231023D01*
X00233307Y00009798D01*
X00235436Y00010680D01*
X00237264Y00012082D01*
X00238666Y00013910D01*
X00239548Y00016039D01*
X00239848Y00018323D01*
Y00032823D01*
X00239548Y00035107D01*
X00238666Y00037236D01*
X00237264Y00039064D01*
X00235436Y00040466D01*
X00233307Y00041348D01*
X00231023Y00041649D01*
D02*
G37*
G36*
X00205623D02*
X00201123D01*
X00198839Y00041348D01*
X00196710Y00040466D01*
X00194883Y00039064D01*
X00193480Y00037236D01*
X00192598Y00035107D01*
X00192297Y00032823D01*
Y00018323D01*
X00192598Y00016039D01*
X00193480Y00013910D01*
X00194883Y00012082D01*
X00196710Y00010680D01*
X00198839Y00009798D01*
X00201123Y00009498D01*
X00205623D01*
X00207907Y00009798D01*
X00210036Y00010680D01*
X00211864Y00012082D01*
X00213266Y00013910D01*
X00214148Y00016039D01*
X00214449Y00018323D01*
Y00032823D01*
X00214148Y00035107D01*
X00213266Y00037236D01*
X00211864Y00039064D01*
X00210036Y00040466D01*
X00207907Y00041348D01*
X00205623Y00041649D01*
D02*
G37*
G36*
X00180223D02*
X00175723D01*
X00173439Y00041348D01*
X00171310Y00040466D01*
X00169482Y00039064D01*
X00168080Y00037236D01*
X00167198Y00035107D01*
X00166898Y00032823D01*
Y00018323D01*
X00167198Y00016039D01*
X00168080Y00013910D01*
X00169482Y00012082D01*
X00171310Y00010680D01*
X00173439Y00009798D01*
X00175723Y00009498D01*
X00180223D01*
X00182507Y00009798D01*
X00184636Y00010680D01*
X00186464Y00012082D01*
X00187866Y00013910D01*
X00188748Y00016039D01*
X00189049Y00018323D01*
Y00032823D01*
X00188748Y00035107D01*
X00187866Y00037236D01*
X00186464Y00039064D01*
X00184636Y00040466D01*
X00182507Y00041348D01*
X00180223Y00041649D01*
D02*
G37*
G36*
X00154823D02*
X00150323D01*
X00148039Y00041348D01*
X00145910Y00040466D01*
X00144082Y00039064D01*
X00142680Y00037236D01*
X00141798Y00035107D01*
X00141497Y00032823D01*
Y00018323D01*
X00141798Y00016039D01*
X00142680Y00013910D01*
X00144082Y00012082D01*
X00145910Y00010680D01*
X00148039Y00009798D01*
X00150323Y00009498D01*
X00154823D01*
X00157107Y00009798D01*
X00159236Y00010680D01*
X00161064Y00012082D01*
X00162466Y00013910D01*
X00163348Y00016039D01*
X00163648Y00018323D01*
Y00032823D01*
X00163348Y00035107D01*
X00162466Y00037236D01*
X00161064Y00039064D01*
X00159236Y00040466D01*
X00157107Y00041348D01*
X00154823Y00041649D01*
D02*
G37*
G36*
X00129423D02*
X00124923D01*
X00122639Y00041348D01*
X00120510Y00040466D01*
X00118682Y00039064D01*
X00117280Y00037236D01*
X00116398Y00035107D01*
X00116097Y00032823D01*
Y00018323D01*
X00116398Y00016039D01*
X00117280Y00013910D01*
X00118682Y00012082D01*
X00120510Y00010680D01*
X00122639Y00009798D01*
X00124923Y00009498D01*
X00129423D01*
X00131707Y00009798D01*
X00133836Y00010680D01*
X00135664Y00012082D01*
X00137066Y00013910D01*
X00137948Y00016039D01*
X00138249Y00018323D01*
Y00032823D01*
X00137948Y00035107D01*
X00137066Y00037236D01*
X00135664Y00039064D01*
X00133836Y00040466D01*
X00131707Y00041348D01*
X00129423Y00041649D01*
D02*
G37*
G36*
X00104023D02*
X00099523D01*
X00097239Y00041348D01*
X00095110Y00040466D01*
X00093282Y00039064D01*
X00091880Y00037236D01*
X00090998Y00035107D01*
X00090697Y00032823D01*
Y00018323D01*
X00090998Y00016039D01*
X00091880Y00013910D01*
X00093282Y00012082D01*
X00095110Y00010680D01*
X00097239Y00009798D01*
X00099523Y00009498D01*
X00104023D01*
X00106307Y00009798D01*
X00108436Y00010680D01*
X00110264Y00012082D01*
X00111666Y00013910D01*
X00112548Y00016039D01*
X00112849Y00018323D01*
Y00032823D01*
X00112548Y00035107D01*
X00111666Y00037236D01*
X00110264Y00039064D01*
X00108436Y00040466D01*
X00106307Y00041348D01*
X00104023Y00041649D01*
D02*
G37*
G36*
X00078623D02*
X00074123D01*
X00071839Y00041348D01*
X00069710Y00040466D01*
X00067882Y00039064D01*
X00066480Y00037236D01*
X00065598Y00035107D01*
X00065297Y00032823D01*
Y00018323D01*
X00065598Y00016039D01*
X00066480Y00013910D01*
X00067882Y00012082D01*
X00069710Y00010680D01*
X00071839Y00009798D01*
X00074123Y00009498D01*
X00078623D01*
X00080907Y00009798D01*
X00083036Y00010680D01*
X00084864Y00012082D01*
X00086266Y00013910D01*
X00087148Y00016039D01*
X00087449Y00018323D01*
Y00032823D01*
X00087148Y00035107D01*
X00086266Y00037236D01*
X00084864Y00039064D01*
X00083036Y00040466D01*
X00080907Y00041348D01*
X00078623Y00041649D01*
D02*
G37*
G36*
X00053223D02*
X00048723D01*
X00046439Y00041348D01*
X00044310Y00040466D01*
X00042483Y00039064D01*
X00041080Y00037236D01*
X00040198Y00035107D01*
X00039897Y00032823D01*
Y00018323D01*
X00040198Y00016039D01*
X00041080Y00013910D01*
X00042483Y00012082D01*
X00044310Y00010680D01*
X00046439Y00009798D01*
X00048723Y00009498D01*
X00053223D01*
X00055507Y00009798D01*
X00057636Y00010680D01*
X00059464Y00012082D01*
X00060866Y00013910D01*
X00061748Y00016039D01*
X00062049Y00018323D01*
Y00032823D01*
X00061748Y00035107D01*
X00060866Y00037236D01*
X00059464Y00039064D01*
X00057636Y00040466D01*
X00055507Y00041348D01*
X00053223Y00041649D01*
D02*
G37*
%LPD*%
G36*
X00401796Y00277750D02*
Y00276250D01*
X00399464Y00275075D01*
Y00278925D01*
X00401796Y00277750D01*
D02*
G37*
G36*
X00401068Y00266493D02*
X00400007Y00265432D01*
X00397528Y00266250D01*
X00400250Y00268972D01*
X00401068Y00266493D01*
D02*
G37*
G36*
X00526036Y00258075D02*
X00523704Y00259250D01*
Y00260750D01*
X00526036Y00261925D01*
Y00258075D01*
D02*
G37*
G36*
Y00249575D02*
X00523704Y00250750D01*
Y00252250D01*
X00526036Y00253425D01*
Y00249575D01*
D02*
G37*
%LPC*%
G36*
X00612023Y00524249D02*
X00607523D01*
X00605239Y00523948D01*
X00603110Y00523066D01*
X00601283Y00521664D01*
X00599880Y00519836D01*
X00598998Y00517707D01*
X00598698Y00515423D01*
Y00500923D01*
X00598998Y00498639D01*
X00599880Y00496510D01*
X00601283Y00494682D01*
X00603110Y00493280D01*
X00605239Y00492398D01*
X00607523Y00492098D01*
X00612023D01*
X00614307Y00492398D01*
X00616436Y00493280D01*
X00618264Y00494682D01*
X00619666Y00496510D01*
X00620548Y00498639D01*
X00620849Y00500923D01*
Y00515423D01*
X00620548Y00517707D01*
X00619666Y00519836D01*
X00618264Y00521664D01*
X00616436Y00523066D01*
X00614307Y00523948D01*
X00612023Y00524249D01*
D02*
G37*
G36*
X00641443Y00315025D02*
X00631443D01*
X00629877Y00314818D01*
X00628417Y00314214D01*
X00627164Y00313252D01*
X00626202Y00311999D01*
X00625597Y00310539D01*
X00625391Y00308973D01*
Y00300973D01*
X00625597Y00299407D01*
X00626202Y00297947D01*
X00627164Y00296694D01*
X00628417Y00295732D01*
X00629877Y00295128D01*
X00631443Y00294921D01*
X00641443D01*
X00643009Y00295128D01*
X00644469Y00295732D01*
X00645722Y00296694D01*
X00646684Y00297947D01*
X00647289Y00299407D01*
X00647495Y00300973D01*
Y00308973D01*
X00647289Y00310539D01*
X00646684Y00311999D01*
X00645722Y00313252D01*
X00644469Y00314214D01*
X00643009Y00314818D01*
X00641443Y00315025D01*
D02*
G37*
G36*
X00666843D02*
X00656843D01*
X00655277Y00314818D01*
X00653817Y00314214D01*
X00652564Y00313252D01*
X00651602Y00311999D01*
X00650997Y00310539D01*
X00650791Y00308973D01*
Y00300973D01*
X00650857Y00300475D01*
X00648386Y00298005D01*
X00647391Y00296516D01*
X00647042Y00294760D01*
X00647145Y00294241D01*
X00647017Y00294113D01*
X00646410Y00293203D01*
X00646196Y00292130D01*
Y00288749D01*
X00645196Y00288256D01*
X00644469Y00288814D01*
X00643009Y00289419D01*
X00641443Y00289625D01*
X00631443D01*
X00629877Y00289419D01*
X00628417Y00288814D01*
X00627164Y00287852D01*
X00626202Y00286599D01*
X00625597Y00285139D01*
X00625391Y00283573D01*
Y00275573D01*
X00625597Y00274007D01*
X00626202Y00272547D01*
X00627164Y00271294D01*
X00628417Y00270332D01*
X00629877Y00269727D01*
X00631443Y00269521D01*
X00641443D01*
X00643009Y00269727D01*
X00644469Y00270332D01*
X00645196Y00270890D01*
X00646196Y00270397D01*
Y00264480D01*
X00645299Y00264037D01*
X00644973Y00264287D01*
X00643270Y00264993D01*
X00641443Y00265233D01*
X00638943D01*
Y00254173D01*
Y00243113D01*
X00641443D01*
X00643270Y00243353D01*
X00644973Y00244058D01*
X00645299Y00244309D01*
X00646196Y00243866D01*
Y00240161D01*
X00640877Y00234842D01*
X00639081Y00234250D01*
X00638555D01*
X00636809Y00233527D01*
X00635473Y00232191D01*
X00634750Y00230445D01*
Y00228555D01*
X00635473Y00226809D01*
X00636809Y00225473D01*
X00638555Y00224750D01*
X00640445D01*
X00642191Y00225473D01*
X00643527Y00226809D01*
X00644250Y00228555D01*
Y00229081D01*
X00644842Y00230877D01*
X00650983Y00237017D01*
X00651590Y00237927D01*
X00651804Y00239000D01*
Y00245362D01*
X00652804Y00245710D01*
X00653817Y00244932D01*
X00655277Y00244328D01*
X00656843Y00244121D01*
X00666843D01*
X00668409Y00244328D01*
X00669869Y00244932D01*
X00671122Y00245894D01*
X00672084Y00247147D01*
X00672689Y00248607D01*
X00672895Y00250173D01*
Y00258173D01*
X00672689Y00259739D01*
X00672084Y00261199D01*
X00671122Y00262452D01*
X00669869Y00263414D01*
X00668409Y00264018D01*
X00666843Y00264225D01*
X00656843D01*
X00655277Y00264018D01*
X00653817Y00263414D01*
X00652804Y00262636D01*
X00651804Y00262984D01*
Y00270762D01*
X00652804Y00271110D01*
X00653817Y00270332D01*
X00655277Y00269727D01*
X00656843Y00269521D01*
X00666843D01*
X00668409Y00269727D01*
X00669869Y00270332D01*
X00671122Y00271294D01*
X00672084Y00272547D01*
X00672689Y00274007D01*
X00672895Y00275573D01*
Y00283573D01*
X00672689Y00285139D01*
X00672084Y00286599D01*
X00671122Y00287852D01*
X00669869Y00288814D01*
X00668409Y00289419D01*
X00666843Y00289625D01*
X00656843D01*
X00655277Y00289419D01*
X00653817Y00288814D01*
X00652804Y00288036D01*
X00651804Y00288384D01*
Y00290207D01*
X00653386Y00290521D01*
X00654875Y00291516D01*
X00658280Y00294921D01*
X00666843D01*
X00668409Y00295128D01*
X00669869Y00295732D01*
X00671122Y00296694D01*
X00672084Y00297947D01*
X00672689Y00299407D01*
X00672895Y00300973D01*
Y00308973D01*
X00672689Y00310539D01*
X00672084Y00311999D01*
X00671122Y00313252D01*
X00669869Y00314214D01*
X00668409Y00314818D01*
X00666843Y00315025D01*
D02*
G37*
G36*
X00633943Y00265233D02*
X00631443D01*
X00629616Y00264993D01*
X00627913Y00264287D01*
X00626451Y00263165D01*
X00625329Y00261703D01*
X00624623Y00260000D01*
X00624383Y00258173D01*
Y00256673D01*
X00633943D01*
Y00265233D01*
D02*
G37*
G36*
Y00251673D02*
X00624383D01*
Y00250173D01*
X00624623Y00248346D01*
X00625329Y00246643D01*
X00626451Y00245181D01*
X00627913Y00244058D01*
X00629616Y00243353D01*
X00631443Y00243113D01*
X00633943D01*
Y00251673D01*
D02*
G37*
G36*
X00434473Y00042624D02*
Y00028073D01*
X00444057D01*
Y00032823D01*
X00443722Y00035368D01*
X00442740Y00037740D01*
X00441177Y00039777D01*
X00439140Y00041340D01*
X00436768Y00042322D01*
X00434473Y00042624D01*
D02*
G37*
G36*
X00409073D02*
Y00028073D01*
X00418657D01*
Y00032823D01*
X00418322Y00035368D01*
X00417340Y00037740D01*
X00415777Y00039777D01*
X00413740Y00041340D01*
X00411368Y00042322D01*
X00409073Y00042624D01*
D02*
G37*
G36*
X00429473D02*
X00427178Y00042322D01*
X00424806Y00041340D01*
X00422769Y00039777D01*
X00421206Y00037740D01*
X00420224Y00035368D01*
X00419889Y00032823D01*
Y00028073D01*
X00429473D01*
Y00042624D01*
D02*
G37*
G36*
X00637423Y00041649D02*
X00632923D01*
X00630639Y00041348D01*
X00628510Y00040466D01*
X00626683Y00039064D01*
X00625280Y00037236D01*
X00624398Y00035107D01*
X00624098Y00032823D01*
Y00018323D01*
X00624398Y00016039D01*
X00625280Y00013910D01*
X00626683Y00012082D01*
X00628510Y00010680D01*
X00630639Y00009798D01*
X00632923Y00009498D01*
X00637423D01*
X00639707Y00009798D01*
X00641836Y00010680D01*
X00643664Y00012082D01*
X00645066Y00013910D01*
X00645948Y00016039D01*
X00646248Y00018323D01*
Y00032823D01*
X00645948Y00035107D01*
X00645066Y00037236D01*
X00643664Y00039064D01*
X00641836Y00040466D01*
X00639707Y00041348D01*
X00637423Y00041649D01*
D02*
G37*
G36*
X00612023D02*
X00607523D01*
X00605239Y00041348D01*
X00603110Y00040466D01*
X00601283Y00039064D01*
X00599880Y00037236D01*
X00598998Y00035107D01*
X00598698Y00032823D01*
Y00018323D01*
X00598998Y00016039D01*
X00599880Y00013910D01*
X00601283Y00012082D01*
X00603110Y00010680D01*
X00605239Y00009798D01*
X00607523Y00009498D01*
X00612023D01*
X00614307Y00009798D01*
X00616436Y00010680D01*
X00618264Y00012082D01*
X00619666Y00013910D01*
X00620548Y00016039D01*
X00620849Y00018323D01*
Y00032823D01*
X00620548Y00035107D01*
X00619666Y00037236D01*
X00618264Y00039064D01*
X00616436Y00040466D01*
X00614307Y00041348D01*
X00612023Y00041649D01*
D02*
G37*
G36*
X00586623D02*
X00582123D01*
X00579839Y00041348D01*
X00577710Y00040466D01*
X00575882Y00039064D01*
X00574480Y00037236D01*
X00573598Y00035107D01*
X00573298Y00032823D01*
Y00018323D01*
X00573598Y00016039D01*
X00574480Y00013910D01*
X00575882Y00012082D01*
X00577710Y00010680D01*
X00579839Y00009798D01*
X00582123Y00009498D01*
X00586623D01*
X00588907Y00009798D01*
X00591036Y00010680D01*
X00592864Y00012082D01*
X00594266Y00013910D01*
X00595148Y00016039D01*
X00595448Y00018323D01*
Y00032823D01*
X00595148Y00035107D01*
X00594266Y00037236D01*
X00592864Y00039064D01*
X00591036Y00040466D01*
X00588907Y00041348D01*
X00586623Y00041649D01*
D02*
G37*
G36*
X00561223D02*
X00556723D01*
X00554439Y00041348D01*
X00552310Y00040466D01*
X00550482Y00039064D01*
X00549080Y00037236D01*
X00548198Y00035107D01*
X00547897Y00032823D01*
Y00018323D01*
X00548198Y00016039D01*
X00549080Y00013910D01*
X00550482Y00012082D01*
X00552310Y00010680D01*
X00554439Y00009798D01*
X00556723Y00009498D01*
X00561223D01*
X00563507Y00009798D01*
X00565636Y00010680D01*
X00567464Y00012082D01*
X00568866Y00013910D01*
X00569748Y00016039D01*
X00570048Y00018323D01*
Y00032823D01*
X00569748Y00035107D01*
X00568866Y00037236D01*
X00567464Y00039064D01*
X00565636Y00040466D01*
X00563507Y00041348D01*
X00561223Y00041649D01*
D02*
G37*
G36*
X00535823D02*
X00531323D01*
X00529039Y00041348D01*
X00526910Y00040466D01*
X00525083Y00039064D01*
X00523680Y00037236D01*
X00522798Y00035107D01*
X00522497Y00032823D01*
Y00018323D01*
X00522798Y00016039D01*
X00523680Y00013910D01*
X00525083Y00012082D01*
X00526910Y00010680D01*
X00529039Y00009798D01*
X00531323Y00009498D01*
X00535823D01*
X00538107Y00009798D01*
X00540236Y00010680D01*
X00542064Y00012082D01*
X00543466Y00013910D01*
X00544348Y00016039D01*
X00544649Y00018323D01*
Y00032823D01*
X00544348Y00035107D01*
X00543466Y00037236D01*
X00542064Y00039064D01*
X00540236Y00040466D01*
X00538107Y00041348D01*
X00535823Y00041649D01*
D02*
G37*
G36*
X00510423D02*
X00505923D01*
X00503639Y00041348D01*
X00501510Y00040466D01*
X00499683Y00039064D01*
X00498280Y00037236D01*
X00497398Y00035107D01*
X00497098Y00032823D01*
Y00018323D01*
X00497398Y00016039D01*
X00498280Y00013910D01*
X00499683Y00012082D01*
X00501510Y00010680D01*
X00503639Y00009798D01*
X00505923Y00009498D01*
X00510423D01*
X00512707Y00009798D01*
X00514836Y00010680D01*
X00516664Y00012082D01*
X00518066Y00013910D01*
X00518948Y00016039D01*
X00519249Y00018323D01*
Y00032823D01*
X00518948Y00035107D01*
X00518066Y00037236D01*
X00516664Y00039064D01*
X00514836Y00040466D01*
X00512707Y00041348D01*
X00510423Y00041649D01*
D02*
G37*
G36*
X00444057Y00023073D02*
X00434473D01*
Y00008522D01*
X00436768Y00008824D01*
X00439140Y00009806D01*
X00441177Y00011369D01*
X00442740Y00013406D01*
X00443722Y00015778D01*
X00444057Y00018323D01*
Y00023073D01*
D02*
G37*
G36*
X00418657D02*
X00409073D01*
Y00008522D01*
X00411368Y00008824D01*
X00413740Y00009806D01*
X00415777Y00011369D01*
X00417340Y00013406D01*
X00418322Y00015778D01*
X00418657Y00018323D01*
Y00023073D01*
D02*
G37*
G36*
X00429473D02*
X00419889D01*
Y00018323D01*
X00420224Y00015778D01*
X00421206Y00013406D01*
X00422769Y00011369D01*
X00424806Y00009806D01*
X00427178Y00008824D01*
X00429473Y00008522D01*
Y00023073D01*
D02*
G37*
%LPD*%
G36*
X00643068Y00232007D02*
X00642250Y00229527D01*
X00639528Y00232250D01*
X00642007Y00233068D01*
X00643068Y00232007D01*
D02*
G37*
D12*
X00012000Y00090500D02*
X00031000D01*
X00012000Y00074500D02*
Y00090500D01*
Y00074500D02*
X00031000D01*
Y00090500D01*
X00026500Y00086165D02*
Y00079500D01*
X00019835Y00086165D01*
X00018169D01*
X00016503Y00084498D01*
Y00081166D01*
X00018169Y00079500D01*
D13*
X00457556Y00096500D02*
X00462056Y00101000D01*
X00520444D02*
X00536444Y00085000D01*
X00462056Y00101000D02*
X00520444D01*
X00289733Y00523000D02*
Y00526733D01*
X00290710Y00527710D01*
X00370290D02*
X00378500Y00519500D01*
X00290710Y00527710D02*
X00370290D01*
X00302500Y00519157D02*
X00307968Y00524625D01*
X00356071D02*
X00359098Y00521598D01*
X00307968Y00524625D02*
X00356071D01*
X00302500Y00480346D02*
Y00519157D01*
X00386760Y00008000D02*
X00394000Y00015240D01*
X00374490Y00008000D02*
X00386760D01*
X00394000Y00015240D02*
Y00050000D01*
X00368500Y00013990D02*
Y00043000D01*
Y00013990D02*
X00374490Y00008000D01*
X00363000Y00048500D02*
X00368500Y00043000D01*
X00332500Y00048500D02*
X00363000D01*
X00330373Y00042000D02*
Y00046373D01*
X00332500Y00048500D01*
X00478500Y00303000D02*
X00529500D01*
X00562000Y00094444D02*
Y00104500D01*
X00197000Y00102500D02*
X00205674D01*
X00209174Y00099000D01*
X00186263Y00102500D02*
X00195263Y00093500D01*
X00172500Y00102500D02*
X00186263D01*
X00208197Y00109063D02*
X00212760Y00104500D01*
X00123563Y00109063D02*
X00208197D01*
X00115000Y00100500D02*
X00123563Y00109063D01*
X00098500Y00100500D02*
X00107500Y00091500D01*
X00085000Y00100500D02*
X00099000Y00086500D01*
X00140000Y00100500D02*
X00162980D01*
X00167612Y00095868D01*
X00186544D01*
X00194412Y00088000D01*
X00185042Y00091500D02*
X00194042Y00082500D01*
X00107500Y00091500D02*
X00185042D01*
X00099000Y00086500D02*
X00183193D01*
X00192693Y00077000D01*
X00209174Y00099000D02*
X00429665Y00099000D01*
X00195263Y00093500D02*
X00427387Y00093500D01*
X00194412Y00088000D02*
X00425109Y00088000D01*
X00194042Y00082500D02*
X00422831Y00082500D01*
X00192693Y00077000D02*
X00420553Y00077000D01*
X00429665Y00099000D02*
X00437665Y00091000D01*
X00420553Y00077000D02*
X00428553Y00069000D01*
X00425109Y00088000D02*
X00433109Y00080000D01*
X00422831Y00082500D02*
X00430831Y00074500D01*
X00427387Y00093500D02*
X00435387Y00085500D01*
X00428553Y00069000D02*
X00468947D01*
X00435387Y00085500D02*
X00462113D01*
X00433109Y00080000D02*
X00464391D01*
X00430831Y00074500D02*
X00466669D01*
X00437665Y00091000D02*
X00459835D01*
X00468947Y00069000D02*
X00473447Y00073500D01*
X00462113Y00085500D02*
X00466613Y00090000D01*
X00464391Y00080000D02*
X00468891Y00084500D01*
X00466669Y00074500D02*
X00471169Y00079000D01*
X00459835Y00091000D02*
X00464334Y00095500D01*
X00473447Y00073500D02*
X00509053D01*
X00466613Y00090000D02*
X00515887D01*
X00464334Y00095500D02*
X00518166D01*
X00468891Y00084500D02*
X00513609D01*
X00471169Y00079000D02*
X00511331D01*
X00509053Y00073500D02*
X00525053Y00057500D01*
X00515887Y00090000D02*
X00531887Y00074000D01*
X00518166Y00095500D02*
X00534165Y00079500D01*
X00513609Y00084500D02*
X00529609Y00068500D01*
X00511331Y00079000D02*
X00527331Y00063000D01*
X00525053Y00057500D02*
X00563947D01*
X00531887Y00074000D02*
X00557113D01*
X00534165Y00079500D02*
X00554835D01*
X00529609Y00068500D02*
X00559391D01*
X00527331Y00063000D02*
X00561669D01*
X00563947Y00057500D02*
X00589500Y00083053D01*
X00557113Y00074000D02*
X00573000Y00089887D01*
X00554835Y00079500D02*
X00567500Y00092166D01*
X00559391Y00068500D02*
X00578500Y00087609D01*
X00561669Y00063000D02*
X00584000Y00085331D01*
X00573000Y00089887D02*
Y00104000D01*
X00567500Y00092166D02*
Y00111000D01*
X00578500Y00087609D02*
Y00111000D01*
X00589500Y00083053D02*
Y00111000D01*
X00584000Y00085331D02*
Y00104000D01*
X00402528Y00277000D02*
X00404359Y00275170D01*
Y00268141D02*
Y00275170D01*
Y00268141D02*
X00415000Y00257500D01*
X00397500Y00277000D02*
X00402528D01*
X00415000Y00257500D02*
X00519500D01*
X00412500Y00254000D02*
X00519500D01*
X00397500Y00269000D02*
X00397500D01*
X00412500Y00254000D01*
X00364715Y00396500D02*
X00401715Y00359500D01*
X00448457D02*
X00463957Y00344000D01*
X00401715Y00359500D02*
X00448457D01*
X00222260Y00466500D02*
X00308278D01*
X00319278Y00455500D02*
X00375778D01*
X00308278Y00466500D02*
X00319278Y00455500D01*
X00317000Y00450000D02*
X00373500D01*
X00199260Y00461000D02*
X00306000D01*
X00317000Y00450000D01*
X00321846Y00461000D02*
X00379860D01*
X00302500Y00480346D02*
X00321846Y00461000D01*
X00620322Y00473000D02*
X00629500D01*
X00613213Y00465891D02*
X00620322Y00473000D01*
X00613213Y00179044D02*
Y00465891D01*
X00607714Y00181322D02*
Y00440290D01*
X00584373Y00486919D02*
X00584373Y00463631D01*
Y00463631D02*
X00607714Y00440290D01*
X00639500Y00229500D02*
X00649000Y00239000D01*
Y00292130D01*
X00651630Y00294760D01*
X00529500Y00344000D02*
X00531000D01*
X00463957D02*
X00529500D01*
X00212760Y00104500D02*
X00431944Y00104500D01*
X00220000Y00110000D02*
X00434222Y00110000D01*
X00233000Y00115500D02*
X00436500Y00115500D01*
X00431944Y00104500D02*
X00439944Y00096500D01*
X00434222Y00110000D02*
X00442222Y00102000D01*
X00436500Y00115500D02*
X00444500Y00107500D01*
X00439944Y00096500D02*
X00457556D01*
X00442222Y00102000D02*
X00455278D01*
X00444500Y00107500D02*
X00453000D01*
X00455278Y00102000D02*
X00459778Y00106500D01*
X00453000Y00107500D02*
X00457500Y00112000D01*
X00578010Y00063510D02*
X00599812D01*
X00604322Y00059000D02*
X00622500D01*
X00599812Y00063510D02*
X00604322Y00059000D01*
X00567000Y00052500D02*
X00578010Y00063510D01*
X00580087Y00056500D02*
X00597000D01*
X00571087Y00047500D02*
X00580087Y00056500D01*
X00519500Y00047500D02*
X00571087D01*
X00511000Y00056000D02*
X00519500Y00047500D01*
X00522500Y00052500D02*
X00567000D01*
X00509500Y00065500D02*
X00522500Y00052500D01*
X00459778Y00106500D02*
X00522722D01*
X00457500Y00112000D02*
X00525000D01*
X00522722Y00106500D02*
X00538722Y00090500D01*
X00525000Y00112000D02*
X00541000Y00096000D01*
X00536444Y00085000D02*
X00552556D01*
X00538722Y00090500D02*
X00550278D01*
X00541000Y00096000D02*
X00548000D01*
X00552556Y00085000D02*
X00562000Y00094444D01*
X00550278Y00090500D02*
X00556500Y00096722D01*
X00548000Y00096000D02*
X00551000Y00099000D01*
Y00104000D01*
X00556500Y00096722D02*
Y00111000D01*
X00496000Y00056000D02*
X00511000D01*
X00496000Y00065500D02*
X00509500D01*
X00445000Y00117500D02*
X00601000D01*
X00605000Y00113500D02*
X00611088D01*
X00601000Y00117500D02*
X00605000Y00113500D01*
X00479000Y00325000D02*
X00529500D01*
X00472000Y00330500D02*
X00522500D01*
X00472000Y00319500D02*
X00522500D01*
X00472000Y00308500D02*
X00522500D01*
X00479000Y00314000D02*
X00529500D01*
X00472000Y00297500D02*
X00522500D01*
X00479000Y00292000D02*
X00529500D01*
X00509222Y00386000D02*
X00537100Y00358122D01*
Y00236100D02*
Y00358122D01*
X00514000Y00213000D02*
X00537100Y00236100D01*
X00542232Y00233454D02*
Y00360768D01*
X00516278Y00207500D02*
X00542232Y00233454D01*
X00511500Y00391500D02*
X00542232Y00360768D01*
X00547601Y00229630D02*
Y00363399D01*
X00528083Y00179000D02*
X00569601Y00220518D01*
Y00372512D01*
X00514000Y00397000D02*
X00547601Y00363399D01*
X00558601Y00225074D02*
Y00367956D01*
X00523527Y00190000D02*
X00558601Y00225074D01*
X00518556Y00408000D02*
X00558601Y00367956D01*
X00530361Y00173500D02*
X00575101Y00218239D01*
X00525391Y00424500D02*
X00575101Y00374790D01*
X00518971Y00201000D02*
X00547601Y00229630D01*
X00520835Y00413500D02*
X00564101Y00370234D01*
X00523113Y00419000D02*
X00569601Y00372512D01*
X00525805Y00184500D02*
X00564101Y00222796D01*
Y00370234D01*
X00521249Y00195500D02*
X00553101Y00227352D01*
Y00365677D01*
X00516278Y00402500D02*
X00553101Y00365677D01*
X00575101Y00218239D02*
Y00374790D01*
X00522000Y00251500D02*
X00528000D01*
X00519500Y00254000D02*
X00522000Y00251500D01*
Y00260000D02*
X00528000D01*
X00519500Y00257500D02*
X00522000Y00260000D01*
X00564947Y00123000D02*
X00618713Y00176766D01*
Y00454458D02*
X00619990Y00455735D01*
X00591213Y00188157D02*
Y00432843D01*
X00555835Y00145000D02*
X00596713Y00185879D01*
X00619990Y00455735D02*
X00621735D01*
X00585714Y00190435D02*
Y00430565D01*
X00549778Y00466500D02*
X00585714Y00430565D01*
X00596713Y00185879D02*
Y00435121D01*
X00621735Y00455735D02*
X00622500Y00456500D01*
X00547500Y00461000D02*
X00580214Y00428287D01*
X00551278Y00156000D02*
X00585714Y00190435D01*
X00562669Y00128500D02*
X00613213Y00179044D01*
X00558973Y00480640D02*
X00602214Y00437399D01*
X00560391Y00134000D02*
X00607714Y00181322D01*
X00602214Y00183601D02*
Y00437399D01*
X00558113Y00139500D02*
X00602214Y00183601D01*
X00618713Y00176766D02*
Y00454458D01*
X00552056Y00472000D02*
X00591213Y00432843D01*
X00580214Y00192714D02*
Y00428287D01*
X00549000Y00161500D02*
X00580214Y00192714D01*
X00554334Y00477500D02*
X00596713Y00435121D01*
X00553556Y00150500D02*
X00591213Y00188157D01*
X00293000Y00396500D02*
X00364715D01*
X00444000Y00218000D02*
X00449000Y00213000D01*
X00437990Y00211990D02*
X00442479Y00207500D01*
X00451947Y00173500D02*
X00530361D01*
X00444947Y00179000D02*
X00528083D01*
X00451947Y00195500D02*
X00521249D01*
X00451447Y00184500D02*
X00525805D01*
X00444947Y00190000D02*
X00523527D01*
X00444947Y00201000D02*
X00518971D01*
X00449000Y00213000D02*
X00514000D01*
X00442479Y00207500D02*
X00516278D01*
X00452000Y00123000D02*
X00564947D01*
X00452000Y00134000D02*
X00560391D01*
X00445000Y00128500D02*
X00562669D01*
X00445000Y00139500D02*
X00558113D01*
X00445000Y00161500D02*
X00549000D01*
X00452000Y00145000D02*
X00555835D01*
X00445000Y00150500D02*
X00553556D01*
X00452000Y00156000D02*
X00551278D01*
X00420500Y00386000D02*
X00509222D01*
X00422778Y00391500D02*
X00511500D01*
X00388000Y00426278D02*
X00422778Y00391500D01*
X00382500Y00424000D02*
X00420500Y00386000D01*
X00388000Y00426278D02*
Y00443278D01*
X00382500Y00424000D02*
Y00441000D01*
X00375778Y00455500D02*
X00388000Y00443278D01*
X00373500Y00450000D02*
X00382500Y00441000D01*
X00213533Y00475227D02*
X00222260Y00466500D01*
X00213533Y00475227D02*
Y00486919D01*
X00188133Y00472127D02*
X00199260Y00461000D01*
X00188133Y00472127D02*
Y00486919D01*
X00378500Y00485695D02*
Y00519500D01*
X00378500Y00485695D02*
X00411003Y00453191D01*
X00430666Y00408000D02*
X00518556D01*
X00426109Y00397000D02*
X00514000D01*
X00428387Y00402500D02*
X00516278D01*
X00432944Y00413500D02*
X00520835D01*
X00435222Y00419000D02*
X00523113D01*
X00437500Y00424500D02*
X00525391D01*
X00405503Y00433162D02*
X00430666Y00408000D01*
X00394503Y00428606D02*
X00426109Y00397000D01*
X00400003Y00430884D02*
X00428387Y00402500D01*
X00411003Y00435440D02*
X00432944Y00413500D01*
X00416503Y00437719D02*
X00435222Y00419000D01*
X00422003Y00439997D02*
X00437500Y00424500D01*
X00416733Y00486919D02*
X00416733Y00464627D01*
X00422003Y00459357D01*
X00315133Y00475227D02*
Y00486919D01*
Y00475227D02*
X00323860Y00466500D01*
X00340533Y00479327D02*
Y00486919D01*
Y00479327D02*
X00347860Y00472000D01*
X00384416D01*
X00323860Y00466500D02*
X00382138D01*
X00391333Y00480640D02*
Y00486919D01*
X00384416Y00472000D02*
X00405503Y00450913D01*
X00391333Y00480640D02*
X00416503Y00455470D01*
X00382138Y00466500D02*
X00400003Y00448635D01*
X00379860Y00461000D02*
X00394503Y00446357D01*
X00405503Y00433162D02*
Y00450913D01*
X00394503Y00428606D02*
Y00446357D01*
X00400003Y00430884D02*
Y00448635D01*
X00422003Y00439997D02*
Y00459357D01*
X00411003Y00435440D02*
Y00453191D01*
X00416503Y00437719D02*
Y00455470D01*
X00629500Y00473000D02*
X00635173Y00478673D01*
X00457373Y00472127D02*
Y00486919D01*
Y00472127D02*
X00468500Y00461000D01*
X00482773Y00475227D02*
Y00486919D01*
Y00475227D02*
X00491500Y00466500D01*
X00508173Y00479327D02*
Y00486919D01*
Y00479327D02*
X00515500Y00472000D01*
X00533573Y00480927D02*
Y00486919D01*
Y00480927D02*
X00537000Y00477500D01*
X00515500Y00472000D02*
X00552056D01*
X00491500Y00466500D02*
X00549778D01*
X00468500Y00461000D02*
X00547500D01*
X00537000Y00477500D02*
X00554334D01*
X00558973Y00480640D02*
Y00486919D01*
X00635173Y00478673D02*
Y00486919D01*
D17*
X00000173Y00010333D02*
G03*
X00010333Y00000173I00010160J00000000D01*
G01*
Y00533573D02*
G03*
X00000173Y00523667I-00000127J-00010033D01*
G01*
X00650667Y00000173D02*
G03*
X00660573Y00010333I-00000127J00010033D01*
G01*
X00010333Y00000173D02*
X00650667D01*
X00000173Y00010333D02*
Y00523667D01*
X00010333Y00533573D02*
X00645333D01*
X00660573Y00010333D02*
Y00025573D01*
X00685973Y00050973D01*
Y00378633D01*
X00660573Y00404033D02*
X00685973Y00378633D01*
X00660573Y00404033D02*
Y00518333D01*
X00645333Y00533573D02*
X00660573Y00518333D01*
D76*
X00330373Y00025573D02*
Y00042000D01*
X00054000Y00258000D02*
Y00258135D01*
X00413624Y00296297D02*
X00421000Y00288922D01*
X00349164Y00296297D02*
X00413624D01*
X00421000Y00281500D02*
Y00288922D01*
X00395000Y00324000D02*
X00427000D01*
X00343367Y00290500D02*
X00349164Y00296297D01*
X00651630Y00294760D02*
X00661843Y00304973D01*
X00295500Y00134000D02*
Y00183500D01*
Y00134000D02*
X00295500Y00134000D01*
X00331000Y00290500D02*
X00343367D01*
X00321500D02*
X00331000D01*
Y00270000D02*
Y00290500D01*
X00325500Y00264500D02*
X00331000Y00270000D01*
X00295500Y00183500D02*
X00318000Y00206000D01*
X00295663Y00254837D02*
X00308500D01*
X00293000Y00257500D02*
X00295663Y00254837D01*
X00288500Y00257500D02*
X00293000D01*
X00308500Y00230500D02*
X00318000Y00221000D01*
X00308500Y00230500D02*
Y00254837D01*
X00318000Y00206000D02*
Y00221000D01*
X00308500Y00274675D02*
Y00291000D01*
Y00254837D02*
Y00274675D01*
X00318000Y00221000D02*
X00352000D01*
X00393500D01*
X00321500Y00264500D02*
X00325500D01*
X00308500Y00274675D02*
X00308675Y00274500D01*
X00321500D01*
X00429500Y00273500D02*
X00437000Y00281000D01*
X00337015Y00324000D02*
X00395000D01*
X00437000Y00294500D02*
Y00314000D01*
X00421500Y00273500D02*
X00429500D01*
X00437000Y00281000D02*
Y00294500D01*
X00427000Y00324000D02*
X00437000Y00314000D01*
Y00294500D02*
X00446000D01*
X00316500Y00299000D02*
Y00331000D01*
X00308500Y00291000D02*
X00316500Y00299000D01*
X00213533Y00486919D02*
Y00508173D01*
X00188133Y00486919D02*
Y00508173D01*
X00365933D02*
Y00514763D01*
X00359098Y00521598D02*
X00365933Y00514763D01*
X00289733Y00508173D02*
X00289733Y00523000D01*
X00315133Y00486919D02*
Y00508173D01*
X00340533Y00486919D02*
X00340533Y00508173D01*
X00416733Y00486919D02*
Y00508173D01*
X00391333Y00486919D02*
Y00508173D01*
X00457373Y00486919D02*
Y00508173D01*
X00482773Y00486919D02*
Y00508173D01*
X00508173Y00486919D02*
X00508173Y00508173D01*
X00533573Y00486919D02*
Y00508173D01*
X00635173Y00486919D02*
Y00508173D01*
X00584373Y00486919D02*
Y00508173D01*
X00558973Y00486919D02*
Y00508173D01*
D77*
X00457373Y00025573D02*
Y00046561D01*
X00410873Y00053500D02*
X00450434D01*
X00457373Y00046561D01*
X00396067Y00068306D02*
X00410873Y00053500D01*
X00308806Y00068306D02*
X00396067D01*
X00381173Y00025573D02*
Y00048327D01*
X00372500Y00057000D02*
X00381173Y00048327D01*
X00190187Y00066313D02*
X00207529Y00048971D01*
X00305114D02*
X00313143Y00057000D01*
X00207529Y00048971D02*
X00305114D01*
X00313143Y00057000D02*
X00372500D01*
X00301000Y00060500D02*
X00308806Y00068306D01*
X00274500Y00060500D02*
X00301000D01*
X00036000Y00107500D02*
X00077187Y00066313D01*
X00190187D01*
X00036000Y00107500D02*
Y00205000D01*
X00054000Y00223000D01*
Y00258000D01*
X00083500Y00350000D02*
X00091500D01*
X00077499Y00399499D02*
X00090500D01*
X00075500Y00358000D02*
X00083500Y00350000D01*
X00065500Y00358000D02*
X00075500D01*
X00057500Y00366000D02*
X00065500Y00358000D01*
X00057500Y00366000D02*
Y00385000D01*
X00062000Y00389500D01*
X00067500D01*
X00077499Y00399499D01*
X00143000Y00441500D02*
X00173500D01*
X00059000D02*
X00143000D01*
X00173500D02*
X00248000Y00367000D01*
Y00339000D02*
Y00367000D01*
X00041500Y00424000D02*
X00059000Y00441500D01*
X00041500Y00277500D02*
Y00424000D01*
Y00277500D02*
X00053000Y00266000D01*
Y00259135D02*
X00054000Y00258135D01*
X00053000Y00259135D02*
Y00266000D01*
D78*
X00149000Y00351000D02*
X00209500Y00290500D01*
Y00236000D02*
Y00290500D01*
X00149000Y00351000D02*
Y00366000D01*
X00133000Y00373500D02*
X00141500D01*
X00149000Y00366000D01*
X00146500Y00289000D02*
X00193550D01*
X00071000Y00316000D02*
X00119500D01*
X00146500Y00289000D01*
D81*
X00067750Y00417199D02*
D03*
Y00330799D02*
D03*
D82*
X00026250Y00417199D02*
D03*
Y00330799D02*
D03*
D83*
X00136500Y00185000D02*
D03*
X00078500D02*
D03*
D84*
X00106500Y00137000D02*
D03*
D85*
X00636443Y00304973D02*
D03*
X00661843D02*
D03*
X00636443Y00279573D02*
D03*
X00661843D02*
D03*
X00636443Y00254173D02*
D03*
X00661843D02*
D03*
D86*
X00197000Y00356500D02*
D03*
X00219000Y00377500D02*
D03*
X00210500Y00345000D02*
D03*
X00236500Y00347000D02*
D03*
Y00306500D02*
D03*
X00130000Y00237500D02*
D03*
X00141500Y00240500D02*
D03*
X00151500Y00228000D02*
D03*
X00154500Y00216000D02*
D03*
X00283219Y00060500D02*
D03*
X00292500Y00009000D02*
D03*
X00317900D02*
D03*
X00343300D02*
D03*
X00364500Y00008500D02*
D03*
X00396000D02*
D03*
X00209500Y00236000D02*
D03*
X00133000Y00373500D02*
D03*
X00083000Y00399500D02*
D03*
X00090500Y00399499D02*
D03*
X00143000Y00441500D02*
D03*
X00053000Y00266000D02*
D03*
X00054000Y00258000D02*
D03*
X00181000Y00375500D02*
D03*
X00083500Y00350000D02*
D03*
X00091500D02*
D03*
X00193550Y00237500D02*
D03*
Y00267950D02*
D03*
X00014000Y00265500D02*
D03*
X00013500Y00275000D02*
D03*
X00086000Y00409000D02*
D03*
X00083000Y00340500D02*
D03*
X00108000Y00392000D02*
D03*
Y00362000D02*
D03*
X00197500Y00326000D02*
D03*
Y00343000D02*
D03*
X00248000Y00339000D02*
D03*
X00193550Y00289000D02*
D03*
X00071000Y00316000D02*
D03*
X00274500Y00060500D02*
D03*
X00180500Y00209500D02*
D03*
X00171500D02*
D03*
X00180500Y00184500D02*
D03*
X00171500D02*
D03*
X00139000Y00009500D02*
D03*
X00271500Y00329500D02*
D03*
X00291000Y00330000D02*
D03*
X00248000Y00310000D02*
D03*
X00216000Y00062000D02*
D03*
X00190500Y00050000D02*
D03*
X00114000Y00050500D02*
D03*
X00165500Y00050000D02*
D03*
X00089000Y00053000D02*
D03*
X00140000Y00050500D02*
D03*
X00233000Y00115500D02*
D03*
X00115000Y00100500D02*
D03*
X00140000D02*
D03*
X00085000Y00100500D02*
D03*
X00098500Y00100500D02*
D03*
X00063500Y00053000D02*
D03*
X00220000Y00110000D02*
D03*
X00197000Y00102500D02*
D03*
X00172500Y00102500D02*
D03*
X00197500Y00334500D02*
D03*
X00422000Y00334500D02*
D03*
X00442000D02*
D03*
X00406000D02*
D03*
X00482500Y00011500D02*
D03*
X00490000Y00046000D02*
D03*
X00479500Y00062000D02*
D03*
X00659000Y00164000D02*
D03*
X00639500Y00101500D02*
D03*
X00601500Y00103500D02*
D03*
X00078000Y00453000D02*
D03*
X00032500Y00432000D02*
D03*
X00148500Y00431500D02*
D03*
X00127500Y00473500D02*
D03*
X00127000Y00505500D02*
D03*
X00277000Y00450000D02*
D03*
X00655500Y00392000D02*
D03*
X00238000Y00125500D02*
D03*
X00157000Y00117000D02*
D03*
X00187500Y00117500D02*
D03*
X00244500Y00036500D02*
D03*
X00242000Y00066500D02*
D03*
X00266500Y00009500D02*
D03*
X00261000Y00036500D02*
D03*
X00290000Y00070000D02*
D03*
X00262500D02*
D03*
X00656000Y00214000D02*
D03*
X00657500Y00229500D02*
D03*
X00627500Y00227500D02*
D03*
X00628500Y00214500D02*
D03*
X00652000Y00053500D02*
D03*
X00656500Y00038000D02*
D03*
X00393500Y00203000D02*
D03*
X00285000Y00123500D02*
D03*
X00273000Y00125500D02*
D03*
X00322500Y00123500D02*
D03*
X00349500Y00125500D02*
D03*
X00375000Y00122500D02*
D03*
X00193000Y00402500D02*
D03*
X00211000Y00309000D02*
D03*
X00210500Y00328500D02*
D03*
X00251500Y00243000D02*
D03*
X00221000Y00278000D02*
D03*
X00181000Y00361500D02*
D03*
X00151500Y00409000D02*
D03*
X00116500Y00366500D02*
D03*
X00010000Y00445000D02*
D03*
X00096500Y00431000D02*
D03*
X00226000Y00235500D02*
D03*
X00245500Y00221500D02*
D03*
X00073500Y00237500D02*
D03*
X00259500Y00211000D02*
D03*
X00260500Y00226500D02*
D03*
X00261000Y00242500D02*
D03*
X00253879Y00254932D02*
D03*
X00253500Y00270500D02*
D03*
X00264000Y00308500D02*
D03*
X00332000Y00341000D02*
D03*
X00317000Y00342000D02*
D03*
X00318500Y00382000D02*
D03*
X00339000Y00351000D02*
D03*
X00352000Y00382500D02*
D03*
X00330000Y00428000D02*
D03*
X00353000Y00425000D02*
D03*
X00372000Y00428500D02*
D03*
X00380000Y00410500D02*
D03*
X00345500Y00411500D02*
D03*
X00317500Y00412000D02*
D03*
X00306000Y00431500D02*
D03*
X00244000Y00429000D02*
D03*
X00263500Y00424500D02*
D03*
X00283000Y00409500D02*
D03*
X00284500Y00382500D02*
D03*
X00204500Y00429000D02*
D03*
X00233000Y00401500D02*
D03*
X00132000Y00418000D02*
D03*
X00174000Y00422500D02*
D03*
X00171500Y00455000D02*
D03*
X00437000Y00488000D02*
D03*
X00438220Y00505086D02*
D03*
X00438000Y00460500D02*
D03*
X00629500Y00370500D02*
D03*
X00637000Y00347500D02*
D03*
X00651000Y00331000D02*
D03*
X00649000Y00425000D02*
D03*
X00650500Y00455000D02*
D03*
X00626500Y00428000D02*
D03*
X00555500Y00412000D02*
D03*
X00569500Y00425500D02*
D03*
X00537000Y00430000D02*
D03*
X00573000Y00391500D02*
D03*
X00520000Y00355500D02*
D03*
X00510500Y00364000D02*
D03*
X00501500Y00373500D02*
D03*
X00522000Y00232500D02*
D03*
Y00241500D02*
D03*
X00522500Y00269000D02*
D03*
X00530000Y00275000D02*
D03*
X00522500Y00283500D02*
D03*
X00542500Y00171000D02*
D03*
X00542000Y00109000D02*
D03*
X00333500Y00140500D02*
D03*
X00358500Y00141500D02*
D03*
X00310500Y00140500D02*
D03*
X00282500Y00141500D02*
D03*
X00259000Y00143500D02*
D03*
X00244500Y00157000D02*
D03*
X00282500Y00159500D02*
D03*
X00267000Y00172500D02*
D03*
X00255000Y00178000D02*
D03*
X00328000Y00156500D02*
D03*
X00308500Y00156000D02*
D03*
X00350500Y00156500D02*
D03*
X00342000Y00173000D02*
D03*
Y00188500D02*
D03*
X00479500Y00224000D02*
D03*
X00480500Y00241000D02*
D03*
X00471000Y00264500D02*
D03*
X00456000Y00283000D02*
D03*
X00477000Y00273500D02*
D03*
X00339000Y00313000D02*
D03*
X00353000Y00281000D02*
D03*
Y00265000D02*
D03*
X00397000Y00250000D02*
D03*
X00382500D02*
D03*
X00369000D02*
D03*
X00354500Y00250500D02*
D03*
X00639500Y00229500D02*
D03*
X00529500Y00344000D02*
D03*
X00295500Y00134000D02*
D03*
X00551000Y00104000D02*
D03*
X00556500Y00111000D02*
D03*
X00562000Y00104000D02*
D03*
X00567500Y00111000D02*
D03*
X00573000Y00104000D02*
D03*
X00578500Y00111000D02*
D03*
X00589500D02*
D03*
X00584000Y00104000D02*
D03*
X00522500Y00297500D02*
D03*
X00529500Y00292000D02*
D03*
Y00303000D02*
D03*
X00522500Y00308500D02*
D03*
X00529500Y00314000D02*
D03*
X00522500Y00319500D02*
D03*
X00529500Y00325000D02*
D03*
X00522500Y00330500D02*
D03*
X00472000Y00330500D02*
D03*
X00479000Y00325000D02*
D03*
X00472000Y00319500D02*
D03*
X00479000Y00314000D02*
D03*
X00472000Y00308500D02*
D03*
X00479000Y00303000D02*
D03*
Y00292000D02*
D03*
X00477500Y00234500D02*
D03*
X00472000Y00297500D02*
D03*
X00528000Y00260000D02*
D03*
Y00251500D02*
D03*
X00397500Y00277000D02*
D03*
Y00269000D02*
D03*
X00675000Y00096000D02*
D03*
X00011500Y00522000D02*
D03*
X00041500Y00522500D02*
D03*
X00085500D02*
D03*
X00133000Y00524500D02*
D03*
X00174500D02*
D03*
X00201000Y00525000D02*
D03*
X00009000Y00482000D02*
D03*
X00226000Y00524500D02*
D03*
X00252000D02*
D03*
X00278000D02*
D03*
X00381500Y00525500D02*
D03*
X00404000Y00524000D02*
D03*
X00429500Y00523500D02*
D03*
X00444000D02*
D03*
X00470000Y00524000D02*
D03*
X00495500Y00524000D02*
D03*
X00520500D02*
D03*
X00545500D02*
D03*
X00571500Y00524000D02*
D03*
X00597000D02*
D03*
X00623000D02*
D03*
X00651000Y00514000D02*
D03*
Y00482500D02*
D03*
X00675000Y00377000D02*
D03*
X00676000Y00334000D02*
D03*
X00674500Y00317000D02*
D03*
X00675000Y00267000D02*
D03*
Y00242000D02*
D03*
Y00221000D02*
D03*
Y00182000D02*
D03*
Y00147000D02*
D03*
X00676000Y00116000D02*
D03*
X00656000Y00114000D02*
D03*
X00675000Y00054500D02*
D03*
X00650000Y00011000D02*
D03*
X00622500Y00009000D02*
D03*
X00597000D02*
D03*
X00571000D02*
D03*
X00546000D02*
D03*
X00521000D02*
D03*
X00419500D02*
D03*
X00444500D02*
D03*
X00010000Y00372500D02*
D03*
Y00402500D02*
D03*
X00013500Y00256000D02*
D03*
X00010000Y00340000D02*
D03*
X00118000Y00237500D02*
D03*
X00012500Y00185000D02*
D03*
Y00222500D02*
D03*
Y00147500D02*
D03*
X00056000Y00133000D02*
D03*
X00012500Y00102500D02*
D03*
X00062500Y00105000D02*
D03*
X00110000Y00117500D02*
D03*
X00010000Y00045000D02*
D03*
X00032500D02*
D03*
X00241500Y00010500D02*
D03*
X00215500Y00009500D02*
D03*
X00190000D02*
D03*
X00165000D02*
D03*
X00114500D02*
D03*
X00090000D02*
D03*
X00064000D02*
D03*
X00037000D02*
D03*
X00010500Y00013000D02*
D03*
X00463957Y00344000D02*
D03*
X00445000Y00117500D02*
D03*
X00394000Y00050000D02*
D03*
X00611088Y00113500D02*
D03*
X00293000Y00396500D02*
D03*
X00496000Y00065500D02*
D03*
X00597000Y00056500D02*
D03*
X00496000Y00056000D02*
D03*
X00622500Y00059000D02*
D03*
X00344500Y00204500D02*
D03*
X00319050Y00176550D02*
D03*
X00264500Y00257500D02*
D03*
X00288500D02*
D03*
X00311050Y00176500D02*
D03*
X00297500Y00264500D02*
D03*
X00337015Y00324000D02*
D03*
X00297500Y00274500D02*
D03*
X00297500Y00290500D02*
D03*
X00346000Y00340500D02*
D03*
X00321500Y00264500D02*
D03*
Y00274500D02*
D03*
X00321500Y00290500D02*
D03*
X00305000Y00300500D02*
D03*
X00305000Y00312000D02*
D03*
X00316500Y00331000D02*
D03*
X00421500Y00273500D02*
D03*
X00364000Y00260500D02*
D03*
Y00272500D02*
D03*
X00376000Y00260500D02*
D03*
Y00272500D02*
D03*
X00393500Y00221000D02*
D03*
X00388000Y00260500D02*
D03*
Y00272500D02*
D03*
Y00284500D02*
D03*
X00393500Y00212000D02*
D03*
X00421000Y00281500D02*
D03*
X00364000Y00284500D02*
D03*
X00376000D02*
D03*
X00395000Y00333000D02*
D03*
Y00324000D02*
D03*
X00446000Y00284500D02*
D03*
X00264500Y00267500D02*
D03*
X00446000Y00294500D02*
D03*
X00446000Y00274500D02*
D03*
X00444947Y00190000D02*
D03*
X00453000Y00242500D02*
D03*
X00451947Y00195500D02*
D03*
X00458500Y00272000D02*
D03*
X00352000Y00221000D02*
D03*
X00451947Y00173500D02*
D03*
X00451447Y00184500D02*
D03*
X00471500Y00221000D02*
D03*
X00444947Y00179000D02*
D03*
Y00201000D02*
D03*
X00444000Y00218000D02*
D03*
X00437990Y00211990D02*
D03*
X00445000Y00139500D02*
D03*
X00452000Y00123000D02*
D03*
X00445000Y00161500D02*
D03*
Y00150500D02*
D03*
X00452000Y00134000D02*
D03*
X00445000Y00128500D02*
D03*
X00451500Y00145000D02*
D03*
X00452000Y00156000D02*
D03*
X00622500Y00456500D02*
D03*
X00107893Y00459393D02*
D03*
X00047893Y00459393D02*
D03*
X00658607Y00134893D02*
D03*
Y00194893D02*
D03*
D87*
X00076373Y00025573D02*
D03*
X00228773D02*
D03*
X00203373D02*
D03*
X00177973D02*
D03*
X00152573D02*
D03*
X00127173D02*
D03*
X00101773D02*
D03*
X00050973D02*
D03*
X00457373Y00508173D02*
D03*
X00188133D02*
D03*
X00482773D02*
D03*
X00213533D02*
D03*
X00508173D02*
D03*
X00238933D02*
D03*
X00533573D02*
D03*
X00264333D02*
D03*
X00558973D02*
D03*
X00289733D02*
D03*
X00584373D02*
D03*
X00315133D02*
D03*
X00609773D02*
D03*
X00340533D02*
D03*
X00635173D02*
D03*
X00365933D02*
D03*
X00391333D02*
D03*
X00416733D02*
D03*
X00609773Y00025573D02*
D03*
X00635173D02*
D03*
X00279573D02*
D03*
X00304973D02*
D03*
X00330373D02*
D03*
X00355773D02*
D03*
X00381173D02*
D03*
X00406573D02*
D03*
X00431973D02*
D03*
X00457373D02*
D03*
X00508173D02*
D03*
X00533573D02*
D03*
X00558973D02*
D03*
X00584373D02*
D03*
M02*
