G04*
G04 #@! TF.GenerationSoftware,Altium Limited,Altium Designer,21.1.1 (26)*
G04*
G04 Layer_Color=16711935*
%FSAX44Y44*%
%MOMM*%
G71*
G04*
G04 #@! TF.SameCoordinates,378EE943-C238-4E8C-B66D-7123103E1C21*
G04*
G04*
G04 #@! TF.FilePolarity,Negative*
G04*
G01*
G75*
%ADD17C,0.2540*%
%ADD39R,2.2000X1.8500*%
%ADD65C,0.7500*%
G04:AMPARAMS|DCode=66|XSize=1.1mm|YSize=2.2mm|CornerRadius=0.55mm|HoleSize=0mm|Usage=FLASHONLY|Rotation=270.000|XOffset=0mm|YOffset=0mm|HoleType=Round|Shape=RoundedRectangle|*
%AMROUNDEDRECTD66*
21,1,1.1000,1.1000,0,0,270.0*
21,1,0.0000,2.2000,0,0,270.0*
1,1,1.1000,-0.5500,0.0000*
1,1,1.1000,-0.5500,0.0000*
1,1,1.1000,0.5500,0.0000*
1,1,1.1000,0.5500,0.0000*
%
%ADD66ROUNDEDRECTD66*%
G04:AMPARAMS|DCode=67|XSize=1.1mm|YSize=1.9mm|CornerRadius=0.55mm|HoleSize=0mm|Usage=FLASHONLY|Rotation=270.000|XOffset=0mm|YOffset=0mm|HoleType=Round|Shape=RoundedRectangle|*
%AMROUNDEDRECTD67*
21,1,1.1000,0.8000,0,0,270.0*
21,1,0.0000,1.9000,0,0,270.0*
1,1,1.1000,-0.4000,0.0000*
1,1,1.1000,-0.4000,0.0000*
1,1,1.1000,0.4000,0.0000*
1,1,1.1000,0.4000,0.0000*
%
%ADD67ROUNDEDRECTD67*%
G04:AMPARAMS|DCode=68|XSize=4.1mm|YSize=1.9mm|CornerRadius=0.5mm|HoleSize=0mm|Usage=FLASHONLY|Rotation=90.000|XOffset=0mm|YOffset=0mm|HoleType=Round|Shape=RoundedRectangle|*
%AMROUNDEDRECTD68*
21,1,4.1000,0.9000,0,0,90.0*
21,1,3.1000,1.9000,0,0,90.0*
1,1,1.0000,0.4500,1.5500*
1,1,1.0000,0.4500,-1.5500*
1,1,1.0000,-0.4500,-1.5500*
1,1,1.0000,-0.4500,1.5500*
%
%ADD68ROUNDEDRECTD68*%
G04:AMPARAMS|DCode=69|XSize=4.1mm|YSize=1.9mm|CornerRadius=0.5mm|HoleSize=0mm|Usage=FLASHONLY|Rotation=180.000|XOffset=0mm|YOffset=0mm|HoleType=Round|Shape=RoundedRectangle|*
%AMROUNDEDRECTD69*
21,1,4.1000,0.9000,0,0,180.0*
21,1,3.1000,1.9000,0,0,180.0*
1,1,1.0000,-1.5500,0.4500*
1,1,1.0000,1.5500,0.4500*
1,1,1.0000,1.5500,-0.4500*
1,1,1.0000,-1.5500,-0.4500*
%
%ADD69ROUNDEDRECTD69*%
%ADD70C,3.4000*%
G04:AMPARAMS|DCode=71|XSize=1.9mm|YSize=1.7mm|CornerRadius=0.45mm|HoleSize=0mm|Usage=FLASHONLY|Rotation=0.000|XOffset=0mm|YOffset=0mm|HoleType=Round|Shape=RoundedRectangle|*
%AMROUNDEDRECTD71*
21,1,1.9000,0.8000,0,0,0.0*
21,1,1.0000,1.7000,0,0,0.0*
1,1,0.9000,0.5000,-0.4000*
1,1,0.9000,-0.5000,-0.4000*
1,1,0.9000,-0.5000,0.4000*
1,1,0.9000,0.5000,0.4000*
%
%ADD71ROUNDEDRECTD71*%
G04:AMPARAMS|DCode=88|XSize=2.9mm|YSize=1.9mm|CornerRadius=0.725mm|HoleSize=0mm|Usage=FLASHONLY|Rotation=90.000|XOffset=0mm|YOffset=0mm|HoleType=Round|Shape=RoundedRectangle|*
%AMROUNDEDRECTD88*
21,1,2.9000,0.4500,0,0,90.0*
21,1,1.4500,1.9000,0,0,90.0*
1,1,1.4500,0.2250,0.7250*
1,1,1.4500,0.2250,-0.7250*
1,1,1.4500,-0.2250,-0.7250*
1,1,1.4500,-0.2250,0.7250*
%
%ADD88ROUNDEDRECTD88*%
D17*
X00000173Y00010333D02*
G03*
X00010333Y00000173I00010160J00000000D01*
G01*
Y00533573D02*
G03*
X00000173Y00523667I-00000127J-00010033D01*
G01*
X00650667Y00000173D02*
G03*
X00660573Y00010333I-00000127J00010033D01*
G01*
X00010333Y00000173D02*
X00650667D01*
X00000173Y00010333D02*
Y00523667D01*
X00010333Y00533573D02*
X00645333D01*
X00660573Y00010333D02*
Y00025573D01*
X00685973Y00050973D01*
Y00378633D01*
X00660573Y00404033D02*
X00685973Y00378633D01*
X00660573Y00404033D02*
Y00518333D01*
X00645333Y00533573D02*
X00660573Y00518333D01*
D39*
X00021499Y00064249D02*
D03*
D65*
X00062750Y00345099D02*
D03*
Y00402899D02*
D03*
D66*
X00067750Y00417199D02*
D03*
Y00330799D02*
D03*
D67*
X00026250Y00417199D02*
D03*
Y00330799D02*
D03*
D68*
X00136500Y00185000D02*
D03*
X00078500D02*
D03*
D69*
X00106500Y00137000D02*
D03*
D70*
X00152573Y00508173D02*
D03*
X00660573Y00076373D02*
D03*
Y00355773D02*
D03*
D71*
X00636443Y00304973D02*
D03*
X00661843D02*
D03*
X00636443Y00279573D02*
D03*
X00661843D02*
D03*
X00636443Y00254173D02*
D03*
X00661843D02*
D03*
D88*
X00076373Y00025573D02*
D03*
X00228773D02*
D03*
X00203373D02*
D03*
X00177973D02*
D03*
X00152573D02*
D03*
X00127173D02*
D03*
X00101773D02*
D03*
X00050973D02*
D03*
X00457373Y00508173D02*
D03*
X00188133D02*
D03*
X00482773D02*
D03*
X00213533D02*
D03*
X00508173D02*
D03*
X00238933D02*
D03*
X00533573D02*
D03*
X00264333D02*
D03*
X00558973D02*
D03*
X00289733D02*
D03*
X00584373D02*
D03*
X00315133D02*
D03*
X00609773D02*
D03*
X00340533D02*
D03*
X00635173D02*
D03*
X00365933D02*
D03*
X00391333D02*
D03*
X00416733D02*
D03*
X00609773Y00025573D02*
D03*
X00635173D02*
D03*
X00279573D02*
D03*
X00304973D02*
D03*
X00330373D02*
D03*
X00355773D02*
D03*
X00381173D02*
D03*
X00406573D02*
D03*
X00431973D02*
D03*
X00457373D02*
D03*
X00508173D02*
D03*
X00533573D02*
D03*
X00558973D02*
D03*
X00584373D02*
D03*
M02*
