G04*
G04 #@! TF.GenerationSoftware,Altium Limited,Altium Designer,21.1.1 (26)*
G04*
G04 Layer_Physical_Order=1*
G04 Layer_Color=255*
%FSAX44Y44*%
%MOMM*%
G71*
G04*
G04 #@! TF.SameCoordinates,378EE943-C238-4E8C-B66D-7123103E1C21*
G04*
G04*
G04 #@! TF.FilePolarity,Positive*
G04*
G01*
G75*
%ADD11C,0.2500*%
%ADD12C,0.2000*%
%ADD13C,0.1500*%
%ADD17C,0.2540*%
G04:AMPARAMS|DCode=18|XSize=2mm|YSize=2.6mm|CornerRadius=0.2mm|HoleSize=0mm|Usage=FLASHONLY|Rotation=0.000|XOffset=0mm|YOffset=0mm|HoleType=Round|Shape=RoundedRectangle|*
%AMROUNDEDRECTD18*
21,1,2.0000,2.2000,0,0,0.0*
21,1,1.6000,2.6000,0,0,0.0*
1,1,0.4000,0.8000,-1.1000*
1,1,0.4000,-0.8000,-1.1000*
1,1,0.4000,-0.8000,1.1000*
1,1,0.4000,0.8000,1.1000*
%
%ADD18ROUNDEDRECTD18*%
G04:AMPARAMS|DCode=19|XSize=0.25mm|YSize=1mm|CornerRadius=0.0938mm|HoleSize=0mm|Usage=FLASHONLY|Rotation=270.000|XOffset=0mm|YOffset=0mm|HoleType=Round|Shape=RoundedRectangle|*
%AMROUNDEDRECTD19*
21,1,0.2500,0.8125,0,0,270.0*
21,1,0.0625,1.0000,0,0,270.0*
1,1,0.1875,-0.4063,-0.0313*
1,1,0.1875,-0.4063,0.0313*
1,1,0.1875,0.4063,0.0313*
1,1,0.1875,0.4063,-0.0313*
%
%ADD19ROUNDEDRECTD19*%
G04:AMPARAMS|DCode=20|XSize=0.8mm|YSize=0.9mm|CornerRadius=0.2mm|HoleSize=0mm|Usage=FLASHONLY|Rotation=0.000|XOffset=0mm|YOffset=0mm|HoleType=Round|Shape=RoundedRectangle|*
%AMROUNDEDRECTD20*
21,1,0.8000,0.5000,0,0,0.0*
21,1,0.4000,0.9000,0,0,0.0*
1,1,0.4000,0.2000,-0.2500*
1,1,0.4000,-0.2000,-0.2500*
1,1,0.4000,-0.2000,0.2500*
1,1,0.4000,0.2000,0.2500*
%
%ADD20ROUNDEDRECTD20*%
G04:AMPARAMS|DCode=21|XSize=0.75mm|YSize=0.8mm|CornerRadius=0.1875mm|HoleSize=0mm|Usage=FLASHONLY|Rotation=90.000|XOffset=0mm|YOffset=0mm|HoleType=Round|Shape=RoundedRectangle|*
%AMROUNDEDRECTD21*
21,1,0.7500,0.4250,0,0,90.0*
21,1,0.3750,0.8000,0,0,90.0*
1,1,0.3750,0.2125,0.1875*
1,1,0.3750,0.2125,-0.1875*
1,1,0.3750,-0.2125,-0.1875*
1,1,0.3750,-0.2125,0.1875*
%
%ADD21ROUNDEDRECTD21*%
G04:AMPARAMS|DCode=22|XSize=0.75mm|YSize=0.8mm|CornerRadius=0.1875mm|HoleSize=0mm|Usage=FLASHONLY|Rotation=180.000|XOffset=0mm|YOffset=0mm|HoleType=Round|Shape=RoundedRectangle|*
%AMROUNDEDRECTD22*
21,1,0.7500,0.4250,0,0,180.0*
21,1,0.3750,0.8000,0,0,180.0*
1,1,0.3750,-0.1875,0.2125*
1,1,0.3750,0.1875,0.2125*
1,1,0.3750,0.1875,-0.2125*
1,1,0.3750,-0.1875,-0.2125*
%
%ADD22ROUNDEDRECTD22*%
G04:AMPARAMS|DCode=23|XSize=3.05mm|YSize=2.4mm|CornerRadius=0.3mm|HoleSize=0mm|Usage=FLASHONLY|Rotation=270.000|XOffset=0mm|YOffset=0mm|HoleType=Round|Shape=RoundedRectangle|*
%AMROUNDEDRECTD23*
21,1,3.0500,1.8000,0,0,270.0*
21,1,2.4500,2.4000,0,0,270.0*
1,1,0.6000,-0.9000,-1.2250*
1,1,0.6000,-0.9000,1.2250*
1,1,0.6000,0.9000,1.2250*
1,1,0.6000,0.9000,-1.2250*
%
%ADD23ROUNDEDRECTD23*%
G04:AMPARAMS|DCode=24|XSize=1.6mm|YSize=0.6mm|CornerRadius=0.15mm|HoleSize=0mm|Usage=FLASHONLY|Rotation=90.000|XOffset=0mm|YOffset=0mm|HoleType=Round|Shape=RoundedRectangle|*
%AMROUNDEDRECTD24*
21,1,1.6000,0.3000,0,0,90.0*
21,1,1.3000,0.6000,0,0,90.0*
1,1,0.3000,0.1500,0.6500*
1,1,0.3000,0.1500,-0.6500*
1,1,0.3000,-0.1500,-0.6500*
1,1,0.3000,-0.1500,0.6500*
%
%ADD24ROUNDEDRECTD24*%
G04:AMPARAMS|DCode=25|XSize=0.85mm|YSize=1.25mm|CornerRadius=0.17mm|HoleSize=0mm|Usage=FLASHONLY|Rotation=0.000|XOffset=0mm|YOffset=0mm|HoleType=Round|Shape=RoundedRectangle|*
%AMROUNDEDRECTD25*
21,1,0.8500,0.9100,0,0,0.0*
21,1,0.5100,1.2500,0,0,0.0*
1,1,0.3400,0.2550,-0.4550*
1,1,0.3400,-0.2550,-0.4550*
1,1,0.3400,-0.2550,0.4550*
1,1,0.3400,0.2550,0.4550*
%
%ADD25ROUNDEDRECTD25*%
G04:AMPARAMS|DCode=26|XSize=3.2mm|YSize=1mm|CornerRadius=0.25mm|HoleSize=0mm|Usage=FLASHONLY|Rotation=0.000|XOffset=0mm|YOffset=0mm|HoleType=Round|Shape=RoundedRectangle|*
%AMROUNDEDRECTD26*
21,1,3.2000,0.5000,0,0,0.0*
21,1,2.7000,1.0000,0,0,0.0*
1,1,0.5000,1.3500,-0.2500*
1,1,0.5000,-1.3500,-0.2500*
1,1,0.5000,-1.3500,0.2500*
1,1,0.5000,1.3500,0.2500*
%
%ADD26ROUNDEDRECTD26*%
G04:AMPARAMS|DCode=27|XSize=0.5mm|YSize=0.5mm|CornerRadius=0.125mm|HoleSize=0mm|Usage=FLASHONLY|Rotation=90.000|XOffset=0mm|YOffset=0mm|HoleType=Round|Shape=RoundedRectangle|*
%AMROUNDEDRECTD27*
21,1,0.5000,0.2500,0,0,90.0*
21,1,0.2500,0.5000,0,0,90.0*
1,1,0.2500,0.1250,0.1250*
1,1,0.2500,0.1250,-0.1250*
1,1,0.2500,-0.1250,-0.1250*
1,1,0.2500,-0.1250,0.1250*
%
%ADD27ROUNDEDRECTD27*%
G04:AMPARAMS|DCode=28|XSize=0.6mm|YSize=1mm|CornerRadius=0.15mm|HoleSize=0mm|Usage=FLASHONLY|Rotation=90.000|XOffset=0mm|YOffset=0mm|HoleType=Round|Shape=RoundedRectangle|*
%AMROUNDEDRECTD28*
21,1,0.6000,0.7000,0,0,90.0*
21,1,0.3000,1.0000,0,0,90.0*
1,1,0.3000,0.3500,0.1500*
1,1,0.3000,0.3500,-0.1500*
1,1,0.3000,-0.3500,-0.1500*
1,1,0.3000,-0.3500,0.1500*
%
%ADD28ROUNDEDRECTD28*%
G04:AMPARAMS|DCode=29|XSize=0.5mm|YSize=0.5mm|CornerRadius=0.125mm|HoleSize=0mm|Usage=FLASHONLY|Rotation=180.000|XOffset=0mm|YOffset=0mm|HoleType=Round|Shape=RoundedRectangle|*
%AMROUNDEDRECTD29*
21,1,0.5000,0.2500,0,0,180.0*
21,1,0.2500,0.5000,0,0,180.0*
1,1,0.2500,-0.1250,0.1250*
1,1,0.2500,0.1250,0.1250*
1,1,0.2500,0.1250,-0.1250*
1,1,0.2500,-0.1250,-0.1250*
%
%ADD29ROUNDEDRECTD29*%
G04:AMPARAMS|DCode=30|XSize=0.45mm|YSize=0.5mm|CornerRadius=0.1125mm|HoleSize=0mm|Usage=FLASHONLY|Rotation=270.000|XOffset=0mm|YOffset=0mm|HoleType=Round|Shape=RoundedRectangle|*
%AMROUNDEDRECTD30*
21,1,0.4500,0.2750,0,0,270.0*
21,1,0.2250,0.5000,0,0,270.0*
1,1,0.2250,-0.1375,-0.1125*
1,1,0.2250,-0.1375,0.1125*
1,1,0.2250,0.1375,0.1125*
1,1,0.2250,0.1375,-0.1125*
%
%ADD30ROUNDEDRECTD30*%
G04:AMPARAMS|DCode=31|XSize=0.45mm|YSize=0.5mm|CornerRadius=0.1125mm|HoleSize=0mm|Usage=FLASHONLY|Rotation=0.000|XOffset=0mm|YOffset=0mm|HoleType=Round|Shape=RoundedRectangle|*
%AMROUNDEDRECTD31*
21,1,0.4500,0.2750,0,0,0.0*
21,1,0.2250,0.5000,0,0,0.0*
1,1,0.2250,0.1125,-0.1375*
1,1,0.2250,-0.1125,-0.1375*
1,1,0.2250,-0.1125,0.1375*
1,1,0.2250,0.1125,0.1375*
%
%ADD31ROUNDEDRECTD31*%
G04:AMPARAMS|DCode=32|XSize=0.2mm|YSize=0.8mm|CornerRadius=0.075mm|HoleSize=0mm|Usage=FLASHONLY|Rotation=90.000|XOffset=0mm|YOffset=0mm|HoleType=Round|Shape=RoundedRectangle|*
%AMROUNDEDRECTD32*
21,1,0.2000,0.6500,0,0,90.0*
21,1,0.0500,0.8000,0,0,90.0*
1,1,0.1500,0.3250,0.0250*
1,1,0.1500,0.3250,-0.0250*
1,1,0.1500,-0.3250,-0.0250*
1,1,0.1500,-0.3250,0.0250*
%
%ADD32ROUNDEDRECTD32*%
G04:AMPARAMS|DCode=33|XSize=0.8mm|YSize=0.2mm|CornerRadius=0.075mm|HoleSize=0mm|Usage=FLASHONLY|Rotation=90.000|XOffset=0mm|YOffset=0mm|HoleType=Round|Shape=RoundedRectangle|*
%AMROUNDEDRECTD33*
21,1,0.8000,0.0500,0,0,90.0*
21,1,0.6500,0.2000,0,0,90.0*
1,1,0.1500,0.0250,0.3250*
1,1,0.1500,0.0250,-0.3250*
1,1,0.1500,-0.0250,-0.3250*
1,1,0.1500,-0.0250,0.3250*
%
%ADD33ROUNDEDRECTD33*%
G04:AMPARAMS|DCode=34|XSize=1.4mm|YSize=1.15mm|CornerRadius=0.2875mm|HoleSize=0mm|Usage=FLASHONLY|Rotation=180.000|XOffset=0mm|YOffset=0mm|HoleType=Round|Shape=RoundedRectangle|*
%AMROUNDEDRECTD34*
21,1,1.4000,0.5750,0,0,180.0*
21,1,0.8250,1.1500,0,0,180.0*
1,1,0.5750,-0.4125,0.2875*
1,1,0.5750,0.4125,0.2875*
1,1,0.5750,0.4125,-0.2875*
1,1,0.5750,-0.4125,-0.2875*
%
%ADD34ROUNDEDRECTD34*%
G04:AMPARAMS|DCode=35|XSize=1.4mm|YSize=1.15mm|CornerRadius=0.115mm|HoleSize=0mm|Usage=FLASHONLY|Rotation=180.000|XOffset=0mm|YOffset=0mm|HoleType=Round|Shape=RoundedRectangle|*
%AMROUNDEDRECTD35*
21,1,1.4000,0.9200,0,0,180.0*
21,1,1.1700,1.1500,0,0,180.0*
1,1,0.2300,-0.5850,0.4600*
1,1,0.2300,0.5850,0.4600*
1,1,0.2300,0.5850,-0.4600*
1,1,0.2300,-0.5850,-0.4600*
%
%ADD35ROUNDEDRECTD35*%
G04:AMPARAMS|DCode=36|XSize=1mm|YSize=0.5mm|CornerRadius=0.125mm|HoleSize=0mm|Usage=FLASHONLY|Rotation=90.000|XOffset=0mm|YOffset=0mm|HoleType=Round|Shape=RoundedRectangle|*
%AMROUNDEDRECTD36*
21,1,1.0000,0.2500,0,0,90.0*
21,1,0.7500,0.5000,0,0,90.0*
1,1,0.2500,0.1250,0.3750*
1,1,0.2500,0.1250,-0.3750*
1,1,0.2500,-0.1250,-0.3750*
1,1,0.2500,-0.1250,0.3750*
%
%ADD36ROUNDEDRECTD36*%
G04:AMPARAMS|DCode=37|XSize=0.8mm|YSize=1.2mm|CornerRadius=0.2mm|HoleSize=0mm|Usage=FLASHONLY|Rotation=0.000|XOffset=0mm|YOffset=0mm|HoleType=Round|Shape=RoundedRectangle|*
%AMROUNDEDRECTD37*
21,1,0.8000,0.8000,0,0,0.0*
21,1,0.4000,1.2000,0,0,0.0*
1,1,0.4000,0.2000,-0.4000*
1,1,0.4000,-0.2000,-0.4000*
1,1,0.4000,-0.2000,0.4000*
1,1,0.4000,0.2000,0.4000*
%
%ADD37ROUNDEDRECTD37*%
G04:AMPARAMS|DCode=38|XSize=0.8mm|YSize=1.2mm|CornerRadius=0.2mm|HoleSize=0mm|Usage=FLASHONLY|Rotation=270.000|XOffset=0mm|YOffset=0mm|HoleType=Round|Shape=RoundedRectangle|*
%AMROUNDEDRECTD38*
21,1,0.8000,0.8000,0,0,270.0*
21,1,0.4000,1.2000,0,0,270.0*
1,1,0.4000,-0.4000,-0.2000*
1,1,0.4000,-0.4000,0.2000*
1,1,0.4000,0.4000,0.2000*
1,1,0.4000,0.4000,-0.2000*
%
%ADD38ROUNDEDRECTD38*%
%ADD72C,1.0000*%
G04:AMPARAMS|DCode=73|XSize=3.2mm|YSize=3.2mm|CornerRadius=0.16mm|HoleSize=0mm|Usage=FLASHONLY|Rotation=90.000|XOffset=0mm|YOffset=0mm|HoleType=Round|Shape=RoundedRectangle|*
%AMROUNDEDRECTD73*
21,1,3.2000,2.8800,0,0,90.0*
21,1,2.8800,3.2000,0,0,90.0*
1,1,0.3200,1.4400,1.4400*
1,1,0.3200,1.4400,-1.4400*
1,1,0.3200,-1.4400,-1.4400*
1,1,0.3200,-1.4400,1.4400*
%
%ADD73ROUNDEDRECTD73*%
G04:AMPARAMS|DCode=74|XSize=3.4mm|YSize=4.3mm|CornerRadius=0.255mm|HoleSize=0mm|Usage=FLASHONLY|Rotation=270.000|XOffset=0mm|YOffset=0mm|HoleType=Round|Shape=RoundedRectangle|*
%AMROUNDEDRECTD74*
21,1,3.4000,3.7900,0,0,270.0*
21,1,2.8900,4.3000,0,0,270.0*
1,1,0.5100,-1.8950,-1.4450*
1,1,0.5100,-1.8950,1.4450*
1,1,0.5100,1.8950,1.4450*
1,1,0.5100,1.8950,-1.4450*
%
%ADD74ROUNDEDRECTD74*%
%ADD75C,0.3810*%
%ADD76C,0.5000*%
%ADD77C,0.7500*%
%ADD78C,0.3000*%
%ADD79C,0.4000*%
G04:AMPARAMS|DCode=80|XSize=2mm|YSize=1.6mm|CornerRadius=0.6mm|HoleSize=0mm|Usage=FLASHONLY|Rotation=90.000|XOffset=0mm|YOffset=0mm|HoleType=Round|Shape=RoundedRectangle|*
%AMROUNDEDRECTD80*
21,1,2.0000,0.4000,0,0,90.0*
21,1,0.8000,1.6000,0,0,90.0*
1,1,1.2000,0.2000,0.4000*
1,1,1.2000,0.2000,-0.4000*
1,1,1.2000,-0.2000,-0.4000*
1,1,1.2000,-0.2000,0.4000*
%
%ADD80ROUNDEDRECTD80*%
G04:AMPARAMS|DCode=81|XSize=1mm|YSize=2.1mm|CornerRadius=0.5mm|HoleSize=0mm|Usage=FLASHONLY|Rotation=270.000|XOffset=0mm|YOffset=0mm|HoleType=Round|Shape=RoundedRectangle|*
%AMROUNDEDRECTD81*
21,1,1.0000,1.1000,0,0,270.0*
21,1,0.0000,2.1000,0,0,270.0*
1,1,1.0000,-0.5500,0.0000*
1,1,1.0000,-0.5500,0.0000*
1,1,1.0000,0.5500,0.0000*
1,1,1.0000,0.5500,0.0000*
%
%ADD81ROUNDEDRECTD81*%
G04:AMPARAMS|DCode=82|XSize=1mm|YSize=1.8mm|CornerRadius=0.5mm|HoleSize=0mm|Usage=FLASHONLY|Rotation=270.000|XOffset=0mm|YOffset=0mm|HoleType=Round|Shape=RoundedRectangle|*
%AMROUNDEDRECTD82*
21,1,1.0000,0.8000,0,0,270.0*
21,1,0.0000,1.8000,0,0,270.0*
1,1,1.0000,-0.4000,0.0000*
1,1,1.0000,-0.4000,0.0000*
1,1,1.0000,0.4000,0.0000*
1,1,1.0000,0.4000,0.0000*
%
%ADD82ROUNDEDRECTD82*%
G04:AMPARAMS|DCode=83|XSize=4mm|YSize=1.8mm|CornerRadius=0.45mm|HoleSize=0mm|Usage=FLASHONLY|Rotation=90.000|XOffset=0mm|YOffset=0mm|HoleType=Round|Shape=RoundedRectangle|*
%AMROUNDEDRECTD83*
21,1,4.0000,0.9000,0,0,90.0*
21,1,3.1000,1.8000,0,0,90.0*
1,1,0.9000,0.4500,1.5500*
1,1,0.9000,0.4500,-1.5500*
1,1,0.9000,-0.4500,-1.5500*
1,1,0.9000,-0.4500,1.5500*
%
%ADD83ROUNDEDRECTD83*%
G04:AMPARAMS|DCode=84|XSize=4mm|YSize=1.8mm|CornerRadius=0.45mm|HoleSize=0mm|Usage=FLASHONLY|Rotation=180.000|XOffset=0mm|YOffset=0mm|HoleType=Round|Shape=RoundedRectangle|*
%AMROUNDEDRECTD84*
21,1,4.0000,0.9000,0,0,180.0*
21,1,3.1000,1.8000,0,0,180.0*
1,1,0.9000,-1.5500,0.4500*
1,1,0.9000,1.5500,0.4500*
1,1,0.9000,1.5500,-0.4500*
1,1,0.9000,-1.5500,-0.4500*
%
%ADD84ROUNDEDRECTD84*%
G04:AMPARAMS|DCode=85|XSize=1.8mm|YSize=1.6mm|CornerRadius=0.4mm|HoleSize=0mm|Usage=FLASHONLY|Rotation=0.000|XOffset=0mm|YOffset=0mm|HoleType=Round|Shape=RoundedRectangle|*
%AMROUNDEDRECTD85*
21,1,1.8000,0.8000,0,0,0.0*
21,1,1.0000,1.6000,0,0,0.0*
1,1,0.8000,0.5000,-0.4000*
1,1,0.8000,-0.5000,-0.4000*
1,1,0.8000,-0.5000,0.4000*
1,1,0.8000,0.5000,0.4000*
%
%ADD85ROUNDEDRECTD85*%
%ADD86C,0.5500*%
G36*
X00291036Y00394575D02*
X00288704Y00395750D01*
Y00397250D01*
X00291036Y00398425D01*
Y00394575D01*
D02*
G37*
G36*
X00010269Y00528476D02*
X00010301Y00528482D01*
X00010333Y00528475D01*
X00143445D01*
X00143644Y00527475D01*
X00142896Y00527165D01*
X00140044Y00525418D01*
X00137501Y00523246D01*
X00135328Y00520702D01*
X00133581Y00517850D01*
X00132301Y00514760D01*
X00131520Y00511507D01*
X00131257Y00508173D01*
X00131520Y00504838D01*
X00132301Y00501586D01*
X00133581Y00498496D01*
X00135328Y00495644D01*
X00137501Y00493101D01*
X00140044Y00490928D01*
X00142896Y00489181D01*
X00145986Y00487901D01*
X00148035Y00487409D01*
X00147916Y00486409D01*
X00129557D01*
X00125983Y00489983D01*
X00125073Y00490590D01*
X00124000Y00490804D01*
X00115812D01*
X00115661Y00491561D01*
X00114777Y00492884D01*
X00113454Y00493768D01*
X00111893Y00494078D01*
X00103893D01*
X00102333Y00493768D01*
X00101010Y00492884D01*
X00100126Y00491561D01*
X00099975Y00490804D01*
X00055812D01*
X00055661Y00491561D01*
X00054777Y00492884D01*
X00053454Y00493768D01*
X00051893Y00494078D01*
X00043893D01*
X00042333Y00493768D01*
X00041010Y00492884D01*
X00040125Y00491561D01*
X00039815Y00490000D01*
Y00486000D01*
X00040125Y00484439D01*
X00041010Y00483116D01*
X00042333Y00482232D01*
X00043893Y00481922D01*
X00051893D01*
X00053454Y00482232D01*
X00054777Y00483116D01*
X00055661Y00484439D01*
X00055812Y00485196D01*
X00099975D01*
X00100126Y00484439D01*
X00101010Y00483116D01*
X00102333Y00482232D01*
X00103893Y00481922D01*
X00111893D01*
X00113454Y00482232D01*
X00114777Y00483116D01*
X00115661Y00484439D01*
X00115812Y00485196D01*
X00122839D01*
X00126412Y00481622D01*
X00127322Y00481015D01*
X00128395Y00480801D01*
X00143665D01*
X00143813Y00479801D01*
X00142867Y00479514D01*
X00139870Y00477912D01*
X00137243Y00475757D01*
X00135088Y00473130D01*
X00133486Y00470133D01*
X00132500Y00466882D01*
X00132167Y00463500D01*
X00132500Y00460118D01*
X00133486Y00456867D01*
X00135088Y00453870D01*
X00137243Y00451243D01*
X00139870Y00449088D01*
X00142867Y00447486D01*
X00143645Y00447250D01*
X00143496Y00446250D01*
X00142055D01*
X00141664Y00446088D01*
X00136973D01*
X00136919Y00446169D01*
X00135637Y00447025D01*
X00134125Y00447326D01*
X00129875D01*
X00128363Y00447025D01*
X00127081Y00446169D01*
X00126225Y00444887D01*
X00125924Y00443375D01*
Y00439625D01*
X00126225Y00438113D01*
X00127081Y00436831D01*
X00128363Y00435975D01*
X00129875Y00435674D01*
X00134125D01*
X00135637Y00435975D01*
X00136919Y00436831D01*
X00136973Y00436912D01*
X00141664D01*
X00142055Y00436750D01*
X00143945D01*
X00145691Y00437473D01*
X00147027Y00438809D01*
X00147750Y00440555D01*
Y00442445D01*
X00147027Y00444191D01*
X00145691Y00445527D01*
X00145172Y00445742D01*
X00145509Y00446684D01*
X00146118Y00446500D01*
X00149500Y00446166D01*
X00152882Y00446500D01*
X00156133Y00447486D01*
X00159130Y00449088D01*
X00161757Y00451243D01*
X00163912Y00453870D01*
X00165514Y00456867D01*
X00166500Y00460118D01*
X00166833Y00463500D01*
X00166500Y00466882D01*
X00165514Y00470133D01*
X00163912Y00473130D01*
X00161757Y00475757D01*
X00159130Y00477912D01*
X00156133Y00479514D01*
X00155187Y00479801D01*
X00155335Y00480801D01*
X00171734D01*
X00200182Y00452353D01*
X00201091Y00451745D01*
X00202164Y00451532D01*
X00213503D01*
X00227196Y00437839D01*
Y00420000D01*
X00227410Y00418927D01*
X00228017Y00418017D01*
X00251517Y00394517D01*
X00252427Y00393910D01*
X00253500Y00393696D01*
X00288249D01*
X00289937Y00392845D01*
X00290309Y00392473D01*
X00292055Y00391750D01*
X00293945D01*
X00295691Y00392473D01*
X00297027Y00393809D01*
X00297750Y00395555D01*
Y00397445D01*
X00297027Y00399191D01*
X00295691Y00400527D01*
X00293945Y00401250D01*
X00292055D01*
X00290309Y00400527D01*
X00289937Y00400155D01*
X00288249Y00399304D01*
X00254661D01*
X00232804Y00421161D01*
Y00439000D01*
X00232590Y00440073D01*
X00231983Y00440983D01*
X00216647Y00456318D01*
X00215737Y00456926D01*
X00214664Y00457140D01*
X00203326D01*
X00174878Y00485588D01*
X00173968Y00486195D01*
X00172895Y00486409D01*
X00157230D01*
X00157111Y00487409D01*
X00159160Y00487901D01*
X00162250Y00489181D01*
X00165102Y00490928D01*
X00167645Y00493101D01*
X00169818Y00495644D01*
X00171565Y00498496D01*
X00172845Y00501586D01*
X00173626Y00504838D01*
X00173889Y00508173D01*
X00173626Y00511507D01*
X00172845Y00514760D01*
X00171565Y00517850D01*
X00169818Y00520702D01*
X00167645Y00523246D01*
X00165102Y00525418D01*
X00162250Y00527165D01*
X00161502Y00527475D01*
X00161701Y00528475D01*
X00643221D01*
X00655475Y00516221D01*
Y00404033D01*
X00655863Y00402082D01*
X00656968Y00400428D01*
X00680875Y00376521D01*
Y00364901D01*
X00679875Y00364702D01*
X00679565Y00365450D01*
X00677818Y00368302D01*
X00675646Y00370845D01*
X00673102Y00373018D01*
X00670250Y00374765D01*
X00667160Y00376045D01*
X00663907Y00376826D01*
X00660573Y00377089D01*
X00657238Y00376826D01*
X00653986Y00376045D01*
X00650896Y00374765D01*
X00648044Y00373018D01*
X00645501Y00370845D01*
X00643328Y00368302D01*
X00641581Y00365450D01*
X00640301Y00362360D01*
X00639520Y00359108D01*
X00639257Y00355773D01*
X00639520Y00352439D01*
X00640301Y00349186D01*
X00641581Y00346096D01*
X00643328Y00343244D01*
X00645501Y00340700D01*
X00648044Y00338528D01*
X00650896Y00336781D01*
X00653986Y00335501D01*
X00657238Y00334720D01*
X00660573Y00334457D01*
X00663907Y00334720D01*
X00667160Y00335501D01*
X00670250Y00336781D01*
X00673102Y00338528D01*
X00675646Y00340700D01*
X00677818Y00343244D01*
X00679565Y00346096D01*
X00679875Y00346844D01*
X00680875Y00346645D01*
Y00085501D01*
X00679875Y00085302D01*
X00679565Y00086050D01*
X00677818Y00088902D01*
X00675646Y00091446D01*
X00673102Y00093618D01*
X00670250Y00095365D01*
X00667160Y00096645D01*
X00663907Y00097426D01*
X00660573Y00097689D01*
X00657238Y00097426D01*
X00653986Y00096645D01*
X00650896Y00095365D01*
X00648044Y00093618D01*
X00645501Y00091446D01*
X00643328Y00088902D01*
X00641581Y00086050D01*
X00640301Y00082960D01*
X00639520Y00079707D01*
X00639257Y00076373D01*
X00639520Y00073039D01*
X00640301Y00069786D01*
X00641581Y00066696D01*
X00643328Y00063844D01*
X00645501Y00061301D01*
X00648044Y00059128D01*
X00650896Y00057381D01*
X00653986Y00056101D01*
X00657238Y00055320D01*
X00660573Y00055057D01*
X00663907Y00055320D01*
X00667160Y00056101D01*
X00670250Y00057381D01*
X00673102Y00059128D01*
X00675646Y00061301D01*
X00677818Y00063844D01*
X00679565Y00066696D01*
X00679875Y00067444D01*
X00680875Y00067245D01*
Y00053085D01*
X00656968Y00029178D01*
X00655863Y00027524D01*
X00655475Y00025573D01*
Y00010333D01*
X00655482Y00010301D01*
X00655476Y00010268D01*
X00655482Y00009782D01*
X00655304Y00008826D01*
X00654943Y00007923D01*
X00654414Y00007108D01*
X00653735Y00006412D01*
X00652933Y00005862D01*
X00652040Y00005478D01*
X00651089Y00005277D01*
X00650635Y00005271D01*
X00009834D01*
X00008856Y00005465D01*
X00007935Y00005847D01*
X00007106Y00006401D01*
X00006401Y00007106D01*
X00005847Y00007935D01*
X00005465Y00008856D01*
X00005271Y00009834D01*
Y00010333D01*
X00005271Y00523634D01*
X00005277Y00524089D01*
X00005478Y00525040D01*
X00005862Y00525933D01*
X00006412Y00526735D01*
X00007108Y00527413D01*
X00007923Y00527943D01*
X00008826Y00528304D01*
X00009782Y00528482D01*
X00010269Y00528476D01*
D02*
G37*
%LPC*%
G36*
X00266833Y00521185D02*
Y00510673D01*
X00275411D01*
Y00512173D01*
X00275101Y00514523D01*
X00274195Y00516712D01*
X00272752Y00518592D01*
X00270872Y00520034D01*
X00268682Y00520941D01*
X00266833Y00521185D01*
D02*
G37*
G36*
X00261833D02*
X00259984Y00520941D01*
X00257794Y00520034D01*
X00255914Y00518592D01*
X00254472Y00516712D01*
X00253565Y00514523D01*
X00253255Y00512173D01*
Y00510673D01*
X00261833D01*
Y00521185D01*
D02*
G37*
G36*
X00637173Y00520242D02*
X00633173D01*
X00631085Y00519967D01*
X00629138Y00519161D01*
X00627467Y00517879D01*
X00626185Y00516208D01*
X00625379Y00514261D01*
X00625104Y00512173D01*
Y00504173D01*
X00625379Y00502085D01*
X00626185Y00500139D01*
X00627467Y00498467D01*
X00629138Y00497185D01*
X00631085Y00496379D01*
X00633173Y00496104D01*
X00637173D01*
X00639261Y00496379D01*
X00641208Y00497185D01*
X00642879Y00498467D01*
X00644161Y00500139D01*
X00644967Y00502085D01*
X00645242Y00504173D01*
Y00512173D01*
X00644967Y00514261D01*
X00644161Y00516208D01*
X00642879Y00517879D01*
X00641208Y00519161D01*
X00639261Y00519967D01*
X00637173Y00520242D01*
D02*
G37*
G36*
X00586373D02*
X00582373D01*
X00580285Y00519967D01*
X00578339Y00519161D01*
X00576667Y00517879D01*
X00575385Y00516208D01*
X00574579Y00514261D01*
X00574304Y00512173D01*
Y00504173D01*
X00574579Y00502085D01*
X00575385Y00500139D01*
X00576667Y00498467D01*
X00578339Y00497185D01*
X00580285Y00496379D01*
X00582373Y00496104D01*
X00586373D01*
X00588461Y00496379D01*
X00590407Y00497185D01*
X00592079Y00498467D01*
X00593361Y00500139D01*
X00594167Y00502085D01*
X00594442Y00504173D01*
Y00512173D01*
X00594167Y00514261D01*
X00593361Y00516208D01*
X00592079Y00517879D01*
X00590407Y00519161D01*
X00588461Y00519967D01*
X00586373Y00520242D01*
D02*
G37*
G36*
X00560973D02*
X00556973D01*
X00554885Y00519967D01*
X00552938Y00519161D01*
X00551267Y00517879D01*
X00549985Y00516208D01*
X00549179Y00514261D01*
X00548904Y00512173D01*
Y00504173D01*
X00549179Y00502085D01*
X00549985Y00500139D01*
X00551267Y00498467D01*
X00552938Y00497185D01*
X00554885Y00496379D01*
X00556973Y00496104D01*
X00560973D01*
X00563061Y00496379D01*
X00565008Y00497185D01*
X00566679Y00498467D01*
X00567961Y00500139D01*
X00568767Y00502085D01*
X00569042Y00504173D01*
Y00512173D01*
X00568767Y00514261D01*
X00567961Y00516208D01*
X00566679Y00517879D01*
X00565008Y00519161D01*
X00563061Y00519967D01*
X00560973Y00520242D01*
D02*
G37*
G36*
X00535573D02*
X00531573D01*
X00529485Y00519967D01*
X00527538Y00519161D01*
X00525867Y00517879D01*
X00524585Y00516208D01*
X00523779Y00514261D01*
X00523504Y00512173D01*
Y00504173D01*
X00523779Y00502085D01*
X00524585Y00500139D01*
X00525867Y00498467D01*
X00527538Y00497185D01*
X00529485Y00496379D01*
X00531573Y00496104D01*
X00535573D01*
X00537661Y00496379D01*
X00539608Y00497185D01*
X00541279Y00498467D01*
X00542561Y00500139D01*
X00543367Y00502085D01*
X00543642Y00504173D01*
Y00512173D01*
X00543367Y00514261D01*
X00542561Y00516208D01*
X00541279Y00517879D01*
X00539608Y00519161D01*
X00537661Y00519967D01*
X00535573Y00520242D01*
D02*
G37*
G36*
X00510173D02*
X00506173D01*
X00504085Y00519967D01*
X00502138Y00519161D01*
X00500467Y00517879D01*
X00499185Y00516208D01*
X00498379Y00514261D01*
X00498104Y00512173D01*
Y00504173D01*
X00498379Y00502085D01*
X00499185Y00500139D01*
X00500467Y00498467D01*
X00502138Y00497185D01*
X00504085Y00496379D01*
X00506173Y00496104D01*
X00510173D01*
X00512261Y00496379D01*
X00514207Y00497185D01*
X00515879Y00498467D01*
X00517161Y00500139D01*
X00517967Y00502085D01*
X00518242Y00504173D01*
Y00512173D01*
X00517967Y00514261D01*
X00517161Y00516208D01*
X00515879Y00517879D01*
X00514207Y00519161D01*
X00512261Y00519967D01*
X00510173Y00520242D01*
D02*
G37*
G36*
X00484773D02*
X00480773D01*
X00478685Y00519967D01*
X00476739Y00519161D01*
X00475067Y00517879D01*
X00473785Y00516208D01*
X00472979Y00514261D01*
X00472704Y00512173D01*
Y00504173D01*
X00472979Y00502085D01*
X00473785Y00500139D01*
X00475067Y00498467D01*
X00476739Y00497185D01*
X00478685Y00496379D01*
X00480773Y00496104D01*
X00484773D01*
X00486861Y00496379D01*
X00488807Y00497185D01*
X00490479Y00498467D01*
X00491761Y00500139D01*
X00492567Y00502085D01*
X00492842Y00504173D01*
Y00512173D01*
X00492567Y00514261D01*
X00491761Y00516208D01*
X00490479Y00517879D01*
X00488807Y00519161D01*
X00486861Y00519967D01*
X00484773Y00520242D01*
D02*
G37*
G36*
X00459373D02*
X00455373D01*
X00453285Y00519967D01*
X00451339Y00519161D01*
X00449667Y00517879D01*
X00448385Y00516208D01*
X00447579Y00514261D01*
X00447304Y00512173D01*
Y00504173D01*
X00447579Y00502085D01*
X00448385Y00500139D01*
X00449667Y00498467D01*
X00451339Y00497185D01*
X00453285Y00496379D01*
X00455373Y00496104D01*
X00459373D01*
X00461461Y00496379D01*
X00463408Y00497185D01*
X00465079Y00498467D01*
X00466361Y00500139D01*
X00467167Y00502085D01*
X00467442Y00504173D01*
Y00512173D01*
X00467167Y00514261D01*
X00466361Y00516208D01*
X00465079Y00517879D01*
X00463408Y00519161D01*
X00461461Y00519967D01*
X00459373Y00520242D01*
D02*
G37*
G36*
X00418733D02*
X00414733D01*
X00412645Y00519967D01*
X00410699Y00519161D01*
X00409027Y00517879D01*
X00407745Y00516208D01*
X00406939Y00514261D01*
X00406664Y00512173D01*
Y00504173D01*
X00406939Y00502085D01*
X00407745Y00500139D01*
X00409027Y00498467D01*
X00410699Y00497185D01*
X00412645Y00496379D01*
X00414733Y00496104D01*
X00418733D01*
X00420821Y00496379D01*
X00422767Y00497185D01*
X00424439Y00498467D01*
X00425721Y00500139D01*
X00426527Y00502085D01*
X00426802Y00504173D01*
Y00512173D01*
X00426527Y00514261D01*
X00425721Y00516208D01*
X00424439Y00517879D01*
X00422767Y00519161D01*
X00420821Y00519967D01*
X00418733Y00520242D01*
D02*
G37*
G36*
X00393333D02*
X00389333D01*
X00387245Y00519967D01*
X00385299Y00519161D01*
X00383627Y00517879D01*
X00382345Y00516208D01*
X00381539Y00514261D01*
X00381264Y00512173D01*
Y00504173D01*
X00381539Y00502085D01*
X00382345Y00500139D01*
X00383627Y00498467D01*
X00385299Y00497185D01*
X00387245Y00496379D01*
X00389333Y00496104D01*
X00393333D01*
X00395421Y00496379D01*
X00397368Y00497185D01*
X00399039Y00498467D01*
X00400321Y00500139D01*
X00401127Y00502085D01*
X00401402Y00504173D01*
Y00512173D01*
X00401127Y00514261D01*
X00400321Y00516208D01*
X00399039Y00517879D01*
X00397368Y00519161D01*
X00395421Y00519967D01*
X00393333Y00520242D01*
D02*
G37*
G36*
X00367933D02*
X00363933D01*
X00361845Y00519967D01*
X00359898Y00519161D01*
X00358227Y00517879D01*
X00356945Y00516208D01*
X00356139Y00514261D01*
X00355864Y00512173D01*
Y00504173D01*
X00356139Y00502085D01*
X00356945Y00500139D01*
X00358227Y00498467D01*
X00359898Y00497185D01*
X00361845Y00496379D01*
X00363933Y00496104D01*
X00367933D01*
X00370021Y00496379D01*
X00371968Y00497185D01*
X00373639Y00498467D01*
X00374921Y00500139D01*
X00375727Y00502085D01*
X00376002Y00504173D01*
Y00512173D01*
X00375727Y00514261D01*
X00374921Y00516208D01*
X00373639Y00517879D01*
X00371968Y00519161D01*
X00370021Y00519967D01*
X00367933Y00520242D01*
D02*
G37*
G36*
X00342533D02*
X00338533D01*
X00336445Y00519967D01*
X00334498Y00519161D01*
X00332827Y00517879D01*
X00331545Y00516208D01*
X00330739Y00514261D01*
X00330464Y00512173D01*
Y00504173D01*
X00330739Y00502085D01*
X00331545Y00500139D01*
X00332827Y00498467D01*
X00334498Y00497185D01*
X00336445Y00496379D01*
X00338533Y00496104D01*
X00342533D01*
X00344621Y00496379D01*
X00346567Y00497185D01*
X00348239Y00498467D01*
X00349521Y00500139D01*
X00350327Y00502085D01*
X00350602Y00504173D01*
Y00512173D01*
X00350327Y00514261D01*
X00349521Y00516208D01*
X00348239Y00517879D01*
X00346567Y00519161D01*
X00344621Y00519967D01*
X00342533Y00520242D01*
D02*
G37*
G36*
X00317133D02*
X00313133D01*
X00311045Y00519967D01*
X00309098Y00519161D01*
X00307427Y00517879D01*
X00306145Y00516208D01*
X00305339Y00514261D01*
X00305064Y00512173D01*
Y00504173D01*
X00305339Y00502085D01*
X00306145Y00500139D01*
X00307427Y00498467D01*
X00309098Y00497185D01*
X00311045Y00496379D01*
X00313133Y00496104D01*
X00317133D01*
X00319221Y00496379D01*
X00321167Y00497185D01*
X00322839Y00498467D01*
X00324121Y00500139D01*
X00324927Y00502085D01*
X00325202Y00504173D01*
Y00512173D01*
X00324927Y00514261D01*
X00324121Y00516208D01*
X00322839Y00517879D01*
X00321167Y00519161D01*
X00319221Y00519967D01*
X00317133Y00520242D01*
D02*
G37*
G36*
X00291733D02*
X00287733D01*
X00285645Y00519967D01*
X00283699Y00519161D01*
X00282027Y00517879D01*
X00280745Y00516208D01*
X00279939Y00514261D01*
X00279664Y00512173D01*
Y00504173D01*
X00279939Y00502085D01*
X00280745Y00500139D01*
X00282027Y00498467D01*
X00283699Y00497185D01*
X00285645Y00496379D01*
X00287733Y00496104D01*
X00291733D01*
X00293821Y00496379D01*
X00295767Y00497185D01*
X00297439Y00498467D01*
X00298721Y00500139D01*
X00299527Y00502085D01*
X00299802Y00504173D01*
Y00512173D01*
X00299527Y00514261D01*
X00298721Y00516208D01*
X00297439Y00517879D01*
X00295767Y00519161D01*
X00293821Y00519967D01*
X00291733Y00520242D01*
D02*
G37*
G36*
X00275411Y00505673D02*
X00266833D01*
Y00495161D01*
X00268682Y00495405D01*
X00270872Y00496311D01*
X00272752Y00497754D01*
X00274195Y00499634D01*
X00275101Y00501824D01*
X00275411Y00504173D01*
Y00505673D01*
D02*
G37*
G36*
X00261833D02*
X00253255D01*
Y00504173D01*
X00253565Y00501824D01*
X00254472Y00499634D01*
X00255914Y00497754D01*
X00257794Y00496311D01*
X00259984Y00495405D01*
X00261833Y00495161D01*
Y00505673D01*
D02*
G37*
G36*
X00240933Y00520242D02*
X00236933D01*
X00234845Y00519967D01*
X00232899Y00519161D01*
X00231227Y00517879D01*
X00229945Y00516208D01*
X00229139Y00514261D01*
X00228864Y00512173D01*
Y00504173D01*
X00229139Y00502085D01*
X00229945Y00500139D01*
X00231227Y00498467D01*
X00232899Y00497185D01*
X00234345Y00496586D01*
Y00478814D01*
X00230171D01*
X00230128Y00478878D01*
X00229275Y00479448D01*
X00229186Y00479934D01*
Y00480066D01*
X00229275Y00480552D01*
X00230128Y00481122D01*
X00230819Y00482156D01*
X00231061Y00483375D01*
Y00485625D01*
X00230819Y00486844D01*
X00230128Y00487878D01*
X00229094Y00488569D01*
X00227875Y00488811D01*
X00225125D01*
X00223906Y00488569D01*
X00222872Y00487878D01*
X00222488Y00487304D01*
X00220400D01*
X00219327Y00487090D01*
X00218417Y00486483D01*
X00217948Y00486013D01*
X00217819Y00486015D01*
X00217367Y00486779D01*
X00217365Y00487135D01*
X00217772Y00487744D01*
X00218121Y00489500D01*
Y00496586D01*
X00219568Y00497185D01*
X00221239Y00498467D01*
X00222521Y00500139D01*
X00223327Y00502085D01*
X00223602Y00504173D01*
Y00512173D01*
X00223327Y00514261D01*
X00222521Y00516208D01*
X00221239Y00517879D01*
X00219568Y00519161D01*
X00217621Y00519967D01*
X00215533Y00520242D01*
X00211533D01*
X00209445Y00519967D01*
X00207498Y00519161D01*
X00205827Y00517879D01*
X00204545Y00516208D01*
X00203739Y00514261D01*
X00203464Y00512173D01*
Y00504173D01*
X00203739Y00502085D01*
X00204545Y00500139D01*
X00205827Y00498467D01*
X00207498Y00497185D01*
X00208945Y00496586D01*
Y00489500D01*
X00209294Y00487744D01*
X00210289Y00486256D01*
X00210729Y00485961D01*
Y00483867D01*
X00210943Y00482794D01*
X00211550Y00481884D01*
X00212917Y00480517D01*
X00213827Y00479910D01*
X00214900Y00479696D01*
X00218400D01*
X00219473Y00479910D01*
X00220383Y00480517D01*
X00221549Y00481684D01*
X00222533Y00481629D01*
X00222872Y00481122D01*
X00223725Y00480552D01*
X00223814Y00480066D01*
Y00479934D01*
X00223725Y00479448D01*
X00222872Y00478878D01*
X00222659Y00478559D01*
X00204841D01*
X00204628Y00478878D01*
X00203775Y00479448D01*
X00203686Y00479934D01*
Y00480066D01*
X00203775Y00480552D01*
X00204628Y00481122D01*
X00205319Y00482156D01*
X00205561Y00483375D01*
Y00485625D01*
X00205319Y00486844D01*
X00204628Y00487878D01*
X00203594Y00488569D01*
X00202375Y00488811D01*
X00199625D01*
X00198406Y00488569D01*
X00197372Y00487878D01*
X00196988Y00487304D01*
X00195000D01*
X00193927Y00487090D01*
X00193017Y00486483D01*
X00192548Y00486013D01*
X00192419Y00486015D01*
X00191968Y00486779D01*
X00191965Y00487135D01*
X00192372Y00487744D01*
X00192721Y00489500D01*
Y00496586D01*
X00194167Y00497185D01*
X00195839Y00498467D01*
X00197121Y00500139D01*
X00197927Y00502085D01*
X00198202Y00504173D01*
Y00512173D01*
X00197927Y00514261D01*
X00197121Y00516208D01*
X00195839Y00517879D01*
X00194167Y00519161D01*
X00192221Y00519967D01*
X00190133Y00520242D01*
X00186133D01*
X00184045Y00519967D01*
X00182099Y00519161D01*
X00180427Y00517879D01*
X00179145Y00516208D01*
X00178339Y00514261D01*
X00178064Y00512173D01*
Y00504173D01*
X00178339Y00502085D01*
X00179145Y00500139D01*
X00180427Y00498467D01*
X00182099Y00497185D01*
X00183545Y00496586D01*
Y00489500D01*
X00183894Y00487744D01*
X00184889Y00486256D01*
X00185329Y00485961D01*
Y00483867D01*
X00185543Y00482794D01*
X00186150Y00481884D01*
X00187517Y00480517D01*
X00188427Y00479910D01*
X00189500Y00479696D01*
X00193000D01*
X00194073Y00479910D01*
X00194983Y00480517D01*
X00196066Y00481600D01*
X00197095Y00481536D01*
X00197372Y00481122D01*
X00198225Y00480552D01*
X00198314Y00480066D01*
Y00479934D01*
X00198225Y00479448D01*
X00197372Y00478878D01*
X00196681Y00477844D01*
X00196439Y00476625D01*
Y00474375D01*
X00196681Y00473156D01*
X00197372Y00472122D01*
X00198406Y00471431D01*
X00199625Y00471189D01*
X00202375D01*
X00203594Y00471431D01*
X00204628Y00472122D01*
X00204841Y00472441D01*
X00222659D01*
X00222872Y00472122D01*
X00223906Y00471431D01*
X00225125Y00471189D01*
X00227875D01*
X00229094Y00471431D01*
X00230128Y00472122D01*
X00230171Y00472186D01*
X00234345D01*
Y00461805D01*
X00234694Y00460049D01*
X00235689Y00458561D01*
X00245494Y00448756D01*
X00246982Y00447761D01*
X00248738Y00447412D01*
X00259100D01*
X00301912Y00404599D01*
Y00391500D01*
Y00343775D01*
X00301206Y00343398D01*
X00300912Y00343333D01*
X00299750Y00343564D01*
X00297250D01*
X00295982Y00343312D01*
X00294907Y00342593D01*
X00294890Y00342569D01*
X00291327D01*
X00291023Y00343023D01*
X00289866Y00343797D01*
X00288500Y00344069D01*
X00281500D01*
X00280134Y00343797D01*
X00278977Y00343023D01*
X00278203Y00341866D01*
X00277931Y00340500D01*
Y00338350D01*
X00276931Y00337936D01*
X00273705Y00341163D01*
X00272712Y00341826D01*
X00271542Y00342059D01*
X00271542Y00342059D01*
X00267668D01*
X00267023Y00343023D01*
X00265866Y00343797D01*
X00264500Y00344069D01*
X00257500D01*
X00256134Y00343797D01*
X00254977Y00343023D01*
X00254673Y00342569D01*
X00251149D01*
X00250691Y00343027D01*
X00248945Y00343750D01*
X00247055D01*
X00245309Y00343027D01*
X00243973Y00341691D01*
X00243250Y00339945D01*
Y00338055D01*
X00243973Y00336309D01*
X00244431Y00335851D01*
Y00330110D01*
X00244407Y00330093D01*
X00243689Y00329018D01*
X00243436Y00327750D01*
Y00325250D01*
X00243689Y00323982D01*
X00244407Y00322907D01*
Y00322296D01*
X00243686Y00321814D01*
X00242747Y00320408D01*
X00242417Y00318750D01*
Y00318750D01*
X00248000D01*
Y00317500D01*
X00249250D01*
Y00311917D01*
X00249250D01*
X00250908Y00312247D01*
X00252314Y00313186D01*
X00253253Y00314592D01*
X00253583Y00316250D01*
Y00316262D01*
X00254583Y00316565D01*
X00254977Y00315977D01*
X00256134Y00315203D01*
X00257500Y00314931D01*
X00264500D01*
X00265866Y00315203D01*
X00267023Y00315977D01*
X00267668Y00316941D01*
X00271014D01*
X00271014Y00316941D01*
X00272184Y00317174D01*
X00273176Y00317837D01*
X00276997Y00321657D01*
X00277931Y00321178D01*
Y00318500D01*
X00278203Y00317134D01*
X00278977Y00315977D01*
X00280134Y00315203D01*
X00281500Y00314931D01*
X00288500D01*
X00289866Y00315203D01*
X00291023Y00315977D01*
X00291797Y00317134D01*
X00292069Y00318500D01*
Y00321500D01*
X00291797Y00322866D01*
X00291023Y00324023D01*
X00289866Y00324797D01*
X00288500Y00325069D01*
X00281500D01*
X00281468Y00325062D01*
X00281214Y00325244D01*
X00280712Y00325931D01*
X00280888Y00326815D01*
Y00332713D01*
X00280888Y00332713D01*
X00280821Y00333047D01*
X00281268Y00333630D01*
X00281665Y00333931D01*
X00288500D01*
X00289866Y00334203D01*
X00291023Y00334977D01*
X00291327Y00335431D01*
X00294058D01*
X00294362Y00334431D01*
X00294186Y00334314D01*
X00293247Y00332908D01*
X00292917Y00331250D01*
X00298500D01*
Y00330000D01*
X00299750D01*
Y00324417D01*
X00299750D01*
X00300530Y00324572D01*
X00301023Y00323650D01*
X00293227Y00315854D01*
X00292453Y00314696D01*
X00292181Y00313331D01*
Y00309564D01*
X00282465D01*
X00281196Y00309311D01*
X00280121Y00308593D01*
X00278657Y00307129D01*
X00277939Y00306054D01*
X00277686Y00304785D01*
Y00303671D01*
X00277622Y00303628D01*
X00277052Y00302775D01*
X00276565Y00302686D01*
X00276435D01*
X00275948Y00302775D01*
X00275378Y00303628D01*
X00274344Y00304319D01*
X00273125Y00304561D01*
X00270875D01*
X00269656Y00304319D01*
X00268622Y00303628D01*
X00268242Y00303059D01*
X00262758D01*
X00262378Y00303628D01*
X00261344Y00304319D01*
X00260125Y00304561D01*
X00257875D01*
X00256656Y00304319D01*
X00255622Y00303628D01*
X00254500Y00303749D01*
X00254099Y00304349D01*
X00252735Y00305261D01*
X00251250Y00305556D01*
Y00300000D01*
Y00294444D01*
X00252735Y00294739D01*
X00254099Y00295651D01*
X00254500Y00296251D01*
X00255622Y00296372D01*
X00256656Y00295681D01*
X00257875Y00295439D01*
X00260125D01*
X00261344Y00295681D01*
X00262378Y00296372D01*
X00262758Y00296941D01*
X00268242D01*
X00268622Y00296372D01*
X00269656Y00295681D01*
X00270875Y00295439D01*
X00273125D01*
X00274344Y00295681D01*
X00275378Y00296372D01*
X00275948Y00297225D01*
X00276435Y00297314D01*
X00276565D01*
X00277052Y00297225D01*
X00277622Y00296372D01*
X00278656Y00295681D01*
X00279875Y00295439D01*
X00282125D01*
X00283344Y00295681D01*
X00284378Y00296372D01*
X00285069Y00297406D01*
X00285311Y00298625D01*
Y00301375D01*
X00285200Y00301936D01*
X00285951Y00302936D01*
X00294468D01*
X00295750Y00302681D01*
X00302500D01*
X00303866Y00302953D01*
X00304222Y00303191D01*
X00306415D01*
X00307050Y00302418D01*
X00306917Y00301750D01*
Y00301750D01*
X00312500D01*
Y00299250D01*
X00306917D01*
Y00299250D01*
X00307247Y00297592D01*
X00307776Y00296799D01*
X00307175Y00295899D01*
X00306250Y00296083D01*
X00306250D01*
Y00290500D01*
X00305000D01*
Y00289250D01*
X00299417D01*
Y00289250D01*
X00299500Y00288832D01*
X00298866Y00288059D01*
X00292610D01*
X00289506Y00291163D01*
X00288514Y00291826D01*
X00287343Y00292059D01*
X00287343Y00292059D01*
X00284950D01*
X00284593Y00292593D01*
X00283518Y00293312D01*
X00282250Y00293564D01*
X00279750D01*
X00278482Y00293312D01*
X00277407Y00292593D01*
X00277101Y00292136D01*
X00275899D01*
X00275593Y00292593D01*
X00274518Y00293312D01*
X00273250Y00293564D01*
X00270750D01*
X00269482Y00293312D01*
X00268407Y00292593D01*
X00267689Y00291518D01*
X00267477Y00290453D01*
X00241739D01*
X00231942Y00300250D01*
Y00351561D01*
X00231632Y00353122D01*
X00230748Y00354445D01*
X00185648Y00399544D01*
X00184325Y00400428D01*
X00182764Y00400739D01*
X00182764Y00400739D01*
X00129069D01*
X00129068Y00400739D01*
X00127508Y00400428D01*
X00126185Y00399544D01*
X00112469Y00385828D01*
X00103808D01*
X00103638Y00386031D01*
X00103830Y00387362D01*
X00104314Y00387686D01*
X00105253Y00389092D01*
X00105583Y00390750D01*
Y00390750D01*
X00100000D01*
Y00392000D01*
X00098750D01*
Y00397583D01*
X00097092Y00397253D01*
X00095686Y00396314D01*
X00095455Y00395969D01*
X00095172Y00396040D01*
X00095037Y00396201D01*
X00094686Y00397193D01*
X00095250Y00398554D01*
Y00400444D01*
X00094527Y00402190D01*
X00093191Y00403526D01*
X00091445Y00404249D01*
X00089555D01*
X00089164Y00404087D01*
X00084337D01*
X00083945Y00404250D01*
X00082055D01*
X00080309Y00403527D01*
X00079595Y00402813D01*
X00073000D01*
X00072969Y00402807D01*
X00071152D01*
X00071071Y00402899D01*
X00070787Y00405053D01*
X00069956Y00407060D01*
X00069135Y00408130D01*
X00069628Y00409130D01*
X00073250D01*
X00075338Y00409405D01*
X00077284Y00410211D01*
X00078955Y00411494D01*
X00080238Y00413165D01*
X00080873Y00414699D01*
X00067750D01*
X00054626D01*
X00055262Y00413165D01*
X00056544Y00411494D01*
X00057650Y00410645D01*
X00057670Y00409401D01*
X00056866Y00408783D01*
X00055543Y00407060D01*
X00054712Y00405053D01*
X00054429Y00402899D01*
X00054712Y00400746D01*
X00055543Y00398739D01*
X00056866Y00397015D01*
X00058589Y00395693D01*
X00060596Y00394862D01*
X00062750Y00394578D01*
X00064903Y00394862D01*
X00065806Y00395235D01*
X00066170Y00395041D01*
X00066328Y00394804D01*
X00066780Y00393999D01*
X00066328Y00393195D01*
X00066170Y00392958D01*
X00065942Y00391812D01*
Y00391187D01*
X00066170Y00390041D01*
X00066328Y00389804D01*
X00066780Y00388999D01*
X00066328Y00388195D01*
X00066170Y00387958D01*
X00065942Y00386812D01*
Y00386187D01*
X00066067Y00385558D01*
X00065560Y00384666D01*
X00065331Y00384525D01*
X00064329Y00384325D01*
X00063336Y00383662D01*
X00063336Y00383662D01*
X00061837Y00382163D01*
X00061174Y00381171D01*
X00060941Y00380000D01*
X00060941Y00380000D01*
Y00373649D01*
X00060941Y00373649D01*
X00061174Y00372479D01*
X00061837Y00371486D01*
X00063987Y00369337D01*
X00063987Y00369336D01*
X00064979Y00368673D01*
X00065391Y00368591D01*
X00066115Y00368003D01*
X00066073Y00367472D01*
X00065942Y00366812D01*
Y00366187D01*
X00066170Y00365041D01*
X00066328Y00364804D01*
X00066780Y00363999D01*
X00066328Y00363195D01*
X00066170Y00362958D01*
X00065942Y00361812D01*
Y00361187D01*
X00066170Y00360041D01*
X00066328Y00359804D01*
X00066780Y00358999D01*
X00066328Y00358195D01*
X00066170Y00357958D01*
X00065942Y00356812D01*
Y00356187D01*
X00066170Y00355041D01*
X00066328Y00354804D01*
X00066780Y00353999D01*
X00066328Y00353195D01*
X00066170Y00352958D01*
X00065806Y00352763D01*
X00064903Y00353137D01*
X00062750Y00353420D01*
X00060596Y00353137D01*
X00058589Y00352306D01*
X00056866Y00350983D01*
X00055543Y00349260D01*
X00054712Y00347253D01*
X00054429Y00345099D01*
X00054712Y00342946D01*
X00055543Y00340939D01*
X00056866Y00339215D01*
X00057670Y00338598D01*
X00057650Y00337353D01*
X00056544Y00336505D01*
X00055262Y00334834D01*
X00054626Y00333299D01*
X00067750D01*
X00080873D01*
X00080238Y00334834D01*
X00078955Y00336505D01*
X00077284Y00337787D01*
X00075338Y00338593D01*
X00073250Y00338868D01*
X00069628D01*
X00069135Y00339868D01*
X00069956Y00340939D01*
X00070787Y00342946D01*
X00071027Y00344768D01*
X00072969D01*
X00073000Y00344774D01*
X00079800D01*
X00080473Y00344640D01*
X00080975Y00344305D01*
X00081160Y00344228D01*
X00081328Y00344116D01*
X00081525Y00344077D01*
X00081710Y00344000D01*
X00081911D01*
X00082108Y00343961D01*
X00085655D01*
X00089058Y00340558D01*
X00089720Y00340116D01*
X00090500Y00339961D01*
X00090757D01*
X00091171Y00338961D01*
X00089977Y00337766D01*
X00089203Y00336608D01*
X00088931Y00335243D01*
Y00334263D01*
X00087616Y00333384D01*
X00086732Y00332061D01*
X00086422Y00330500D01*
Y00325500D01*
X00086732Y00323939D01*
X00087616Y00322616D01*
X00088406Y00322088D01*
X00088103Y00321088D01*
X00084500D01*
X00082744Y00320739D01*
X00081256Y00319744D01*
X00076750Y00315239D01*
X00075750Y00315653D01*
Y00316945D01*
X00075027Y00318691D01*
X00073691Y00320027D01*
X00071945Y00320750D01*
X00070055D01*
X00068309Y00320027D01*
X00067851Y00319569D01*
X00064500D01*
X00063134Y00319297D01*
X00061977Y00318523D01*
X00054022Y00310569D01*
X00048654D01*
X00047919Y00311669D01*
X00046637Y00312525D01*
X00045125Y00312826D01*
X00040875D01*
X00039363Y00312525D01*
X00038081Y00311669D01*
X00037346Y00310569D01*
X00034654D01*
X00033919Y00311669D01*
X00032637Y00312525D01*
X00031125Y00312826D01*
X00026875D01*
X00025363Y00312525D01*
X00024081Y00311669D01*
X00023346Y00310569D01*
X00020654D01*
X00019919Y00311669D01*
X00018637Y00312525D01*
X00017125Y00312826D01*
X00012875D01*
X00011363Y00312525D01*
X00010081Y00311669D01*
X00009225Y00310387D01*
X00008924Y00308875D01*
Y00305125D01*
X00009225Y00303613D01*
X00010081Y00302331D01*
X00011363Y00301475D01*
X00012875Y00301174D01*
X00017125D01*
X00018637Y00301475D01*
X00019919Y00302331D01*
X00020654Y00303431D01*
X00023346D01*
X00024081Y00302331D01*
X00025363Y00301475D01*
X00026875Y00301174D01*
X00031125D01*
X00032637Y00301475D01*
X00033919Y00302331D01*
X00034654Y00303431D01*
X00037346D01*
X00038081Y00302331D01*
X00039363Y00301475D01*
X00040875Y00301174D01*
X00045125D01*
X00046637Y00301475D01*
X00047919Y00302331D01*
X00048654Y00303431D01*
X00055500D01*
X00056866Y00303703D01*
X00058023Y00304477D01*
X00065978Y00312431D01*
X00067851D01*
X00068309Y00311973D01*
X00070055Y00311250D01*
X00071945D01*
X00071994Y00311270D01*
X00072707Y00310483D01*
X00072412Y00309000D01*
Y00300039D01*
X00050637D01*
X00050343Y00299981D01*
X00050045Y00299951D01*
X00049956Y00299904D01*
X00049857Y00299884D01*
X00049608Y00299717D01*
X00049344Y00299576D01*
X00049279Y00299498D01*
X00049195Y00299442D01*
X00049029Y00299193D01*
X00048839Y00298961D01*
X00048168Y00297705D01*
X00046881Y00297362D01*
X00046637Y00297525D01*
X00045125Y00297826D01*
X00040875D01*
X00039363Y00297525D01*
X00038081Y00296669D01*
X00037346Y00295569D01*
X00034654D01*
X00033919Y00296669D01*
X00032637Y00297525D01*
X00031125Y00297826D01*
X00026875D01*
X00025363Y00297525D01*
X00024081Y00296669D01*
X00023225Y00295387D01*
X00023020Y00294355D01*
X00022000D01*
X00021717Y00295777D01*
X00020640Y00297390D01*
X00019027Y00298467D01*
X00017125Y00298846D01*
X00016250D01*
Y00292000D01*
Y00285154D01*
X00017125D01*
X00019027Y00285533D01*
X00020640Y00286610D01*
X00021717Y00288223D01*
X00022000Y00289645D01*
X00023020D01*
X00023225Y00288613D01*
X00024081Y00287331D01*
X00025363Y00286475D01*
X00026875Y00286174D01*
X00029797D01*
X00030563Y00285174D01*
X00030231Y00283946D01*
X00030081Y00283790D01*
X00029526Y00283500D01*
X00029169Y00283453D01*
X00028384Y00283977D01*
X00026550Y00284342D01*
X00025250D01*
Y00276250D01*
X00031342D01*
Y00278947D01*
X00032342Y00279513D01*
X00032461Y00279442D01*
Y00250000D01*
X00032461Y00250000D01*
X00032616Y00249220D01*
X00033058Y00248558D01*
X00033058Y00248558D01*
X00036558Y00245058D01*
X00037220Y00244616D01*
X00038000Y00244461D01*
X00049500D01*
X00049500Y00244461D01*
X00050280Y00244616D01*
X00050942Y00245058D01*
X00061345Y00255461D01*
X00079500Y00255461D01*
X00079500Y00255461D01*
X00080280Y00255616D01*
X00080942Y00256058D01*
X00080942Y00256058D01*
X00084037Y00259153D01*
X00084961Y00258770D01*
Y00246500D01*
X00085116Y00245720D01*
X00085558Y00245058D01*
X00086220Y00244616D01*
X00087000Y00244461D01*
X00110500D01*
X00111280Y00244616D01*
X00111942Y00245058D01*
X00112384Y00245720D01*
X00112539Y00246500D01*
Y00259270D01*
X00113463Y00259653D01*
X00117558Y00255558D01*
X00117558Y00255558D01*
X00118220Y00255116D01*
X00119000Y00254961D01*
X00141500Y00254961D01*
X00141500Y00254961D01*
X00142280Y00255116D01*
X00142942Y00255558D01*
X00148345Y00260961D01*
X00150516D01*
X00151051Y00259961D01*
X00150653Y00259366D01*
X00150381Y00258000D01*
Y00245000D01*
X00150653Y00243634D01*
X00151427Y00242477D01*
X00152584Y00241703D01*
X00153950Y00241431D01*
X00156950D01*
X00157941Y00241629D01*
X00158941Y00241010D01*
X00158941Y00230735D01*
X00158941Y00222000D01*
X00159174Y00220830D01*
X00159837Y00219837D01*
X00166837Y00212837D01*
X00166837Y00212837D01*
X00167829Y00212174D01*
X00169000Y00211941D01*
X00169000Y00211941D01*
X00169810D01*
X00170203Y00212019D01*
X00170602Y00212045D01*
X00171146Y00212191D01*
X00171854D01*
X00172398Y00212045D01*
X00172797Y00212019D01*
X00173190Y00211941D01*
X00176045Y00211941D01*
X00178810D01*
X00179202Y00212019D01*
X00179602Y00212045D01*
X00180146Y00212191D01*
X00180854D01*
X00181398Y00212045D01*
X00181798Y00212019D01*
X00182190Y00211941D01*
X00184233Y00211941D01*
X00190941Y00205233D01*
X00190941Y00190267D01*
X00186837Y00186163D01*
X00186174Y00185170D01*
X00185941Y00184000D01*
X00185941Y00184000D01*
X00185941Y00166050D01*
X00184941Y00165746D01*
X00184663Y00166163D01*
X00184663Y00166163D01*
X00172663Y00178163D01*
X00172663Y00178163D01*
X00171670Y00178826D01*
X00170500Y00179059D01*
X00170500Y00179059D01*
X00162767Y00179059D01*
X00154559Y00187267D01*
X00154559Y00206500D01*
X00154326Y00207671D01*
X00153663Y00208663D01*
X00153663Y00208663D01*
X00147663Y00214663D01*
X00147663Y00214663D01*
X00146671Y00215326D01*
X00145500Y00215559D01*
X00145500Y00215559D01*
X00128000Y00215559D01*
X00128000Y00215559D01*
X00126829Y00215326D01*
X00125837Y00214663D01*
X00125837Y00214663D01*
X00113837Y00202663D01*
X00113174Y00201670D01*
X00112941Y00200500D01*
X00112941Y00200500D01*
X00112941Y00161500D01*
X00113174Y00160330D01*
X00113837Y00159337D01*
X00113837Y00159337D01*
X00123268Y00149906D01*
X00122801Y00148959D01*
X00122000Y00149065D01*
X00110250D01*
Y00140750D01*
X00129565D01*
Y00141500D01*
X00129459Y00142301D01*
X00130407Y00142768D01*
X00135941Y00137233D01*
X00135941Y00131500D01*
X00135941Y00131500D01*
X00136174Y00130329D01*
X00136837Y00129337D01*
X00136837Y00129337D01*
X00145337Y00120837D01*
X00145337Y00120837D01*
X00146329Y00120174D01*
X00147500Y00119941D01*
X00147500Y00119941D01*
X00179000Y00119941D01*
X00179000Y00119941D01*
X00180170Y00120174D01*
X00181163Y00120837D01*
X00181163Y00120837D01*
X00184663Y00124337D01*
X00185326Y00125330D01*
X00185559Y00126500D01*
X00185559Y00126500D01*
Y00127450D01*
X00186559Y00127754D01*
X00186837Y00127337D01*
X00186837Y00127337D01*
X00194337Y00119837D01*
X00194337Y00119837D01*
X00195329Y00119174D01*
X00196500Y00118941D01*
X00196500Y00118941D01*
X00219500Y00118941D01*
X00219500Y00118941D01*
X00220671Y00119174D01*
X00221663Y00119837D01*
X00226663Y00124837D01*
X00227326Y00125829D01*
X00227559Y00127000D01*
X00227559Y00127000D01*
Y00133692D01*
X00237680D01*
X00272192Y00099180D01*
Y00066850D01*
X00271096Y00066396D01*
X00269686Y00065314D01*
X00268604Y00063904D01*
X00267924Y00062262D01*
X00267692Y00060500D01*
X00267924Y00058738D01*
X00268604Y00057096D01*
X00269686Y00055686D01*
X00271096Y00054604D01*
X00272738Y00053924D01*
X00274500Y00053692D01*
X00283219D01*
X00284981Y00053924D01*
X00286623Y00054604D01*
X00288033Y00055686D01*
X00289115Y00057096D01*
X00289795Y00058738D01*
X00290027Y00060500D01*
X00289795Y00062262D01*
X00289115Y00063904D01*
X00288033Y00065314D01*
X00286623Y00066396D01*
X00285808Y00066733D01*
Y00102000D01*
X00285576Y00103762D01*
X00284896Y00105404D01*
X00283814Y00106814D01*
X00283814Y00106814D01*
X00245314Y00145314D01*
X00243904Y00146396D01*
X00242262Y00147076D01*
X00241381Y00147192D01*
X00240500Y00147308D01*
X00240500Y00147308D01*
X00227559D01*
Y00168233D01*
X00234163Y00174837D01*
X00234163Y00174837D01*
X00234826Y00175830D01*
X00235059Y00177000D01*
X00235059Y00177000D01*
X00235059Y00213500D01*
X00234826Y00214671D01*
X00234163Y00215663D01*
X00234163Y00215663D01*
X00216163Y00233663D01*
X00216163Y00233663D01*
X00215171Y00234326D01*
X00215054Y00234513D01*
X00215250Y00235243D01*
Y00235264D01*
X00216239Y00236744D01*
X00216588Y00238500D01*
Y00240908D01*
X00217640Y00241610D01*
X00218427Y00242789D01*
X00219573D01*
X00220360Y00241610D01*
X00221973Y00240533D01*
X00223875Y00240154D01*
X00224750D01*
Y00247000D01*
Y00253846D01*
X00223875D01*
X00221973Y00253467D01*
X00220360Y00252390D01*
X00219573Y00251211D01*
X00218427D01*
X00217640Y00252390D01*
X00216027Y00253467D01*
X00214125Y00253846D01*
X00209875D01*
X00207973Y00253467D01*
X00206360Y00252390D01*
X00205283Y00250777D01*
X00204904Y00248875D01*
Y00245125D01*
X00205283Y00243223D01*
X00206181Y00241878D01*
X00206097Y00240675D01*
X00205969Y00240601D01*
X00204899Y00239531D01*
X00204142Y00238219D01*
X00203750Y00236757D01*
Y00235243D01*
X00203225Y00234559D01*
X00183767Y00234559D01*
X00180789Y00237537D01*
X00181171Y00238461D01*
X00184000D01*
X00184780Y00238616D01*
X00185442Y00239058D01*
X00185442Y00239058D01*
X00187818Y00241434D01*
X00188806Y00241756D01*
X00190294Y00240761D01*
X00192050Y00240412D01*
X00192300D01*
Y00251500D01*
Y00262588D01*
X00192050D01*
X00190294Y00262239D01*
X00189921Y00261990D01*
X00189039Y00262461D01*
Y00272000D01*
X00189039Y00272000D01*
X00188884Y00272780D01*
X00188442Y00273442D01*
X00188442Y00273442D01*
X00185868Y00276016D01*
X00186315Y00276983D01*
X00192971D01*
X00198240Y00271714D01*
Y00264393D01*
X00198511Y00263027D01*
X00199285Y00261869D01*
X00201677Y00259477D01*
X00202835Y00258703D01*
X00204201Y00258431D01*
X00206346D01*
X00207081Y00257331D01*
X00208363Y00256475D01*
X00209875Y00256174D01*
X00214125D01*
X00215637Y00256475D01*
X00216919Y00257331D01*
X00217654Y00258431D01*
X00220346D01*
X00221081Y00257331D01*
X00222363Y00256475D01*
X00223875Y00256174D01*
X00228125D01*
X00229637Y00256475D01*
X00230919Y00257331D01*
X00231775Y00258613D01*
X00232076Y00260125D01*
Y00263875D01*
X00231775Y00265387D01*
X00230919Y00266669D01*
X00229637Y00267525D01*
X00228125Y00267826D01*
X00223875D01*
X00222363Y00267525D01*
X00221081Y00266669D01*
X00220346Y00265569D01*
X00217654D01*
X00216919Y00266669D01*
X00215637Y00267525D01*
X00214125Y00267826D01*
X00209875D01*
X00208363Y00267525D01*
X00207081Y00266669D01*
X00207041Y00266609D01*
X00205737Y00266458D01*
X00205377Y00266794D01*
Y00273192D01*
X00205105Y00274557D01*
X00204332Y00275715D01*
X00196972Y00283074D01*
X00195938Y00283766D01*
X00195868Y00284305D01*
X00195930Y00284845D01*
X00196241Y00284973D01*
X00197577Y00286309D01*
X00198300Y00288055D01*
Y00289945D01*
X00197577Y00291691D01*
X00197119Y00292149D01*
Y00296173D01*
X00197573Y00296477D01*
X00198347Y00297634D01*
X00198619Y00299000D01*
Y00312000D01*
X00198347Y00313366D01*
X00197573Y00314523D01*
X00196416Y00315297D01*
X00195050Y00315569D01*
X00192050D01*
X00190684Y00315297D01*
X00189527Y00314523D01*
X00188753Y00313366D01*
X00188481Y00312000D01*
Y00299000D01*
X00188753Y00297634D01*
X00189527Y00296477D01*
X00189981Y00296173D01*
Y00292149D01*
X00189523Y00291691D01*
X00188800Y00289945D01*
Y00288055D01*
X00189523Y00286309D01*
X00190713Y00285120D01*
X00190569Y00284426D01*
X00190406Y00284120D01*
X00187427D01*
X00182023Y00289523D01*
X00180866Y00290297D01*
X00179500Y00290569D01*
X00172978D01*
X00171719Y00291828D01*
Y00296173D01*
X00172173Y00296477D01*
X00172947Y00297634D01*
X00173219Y00299000D01*
Y00312000D01*
X00172947Y00313366D01*
X00172173Y00314523D01*
X00171016Y00315297D01*
X00169650Y00315569D01*
X00166650D01*
X00165284Y00315297D01*
X00164127Y00314523D01*
X00163353Y00313366D01*
X00163081Y00312000D01*
Y00299000D01*
X00163353Y00297634D01*
X00164127Y00296477D01*
X00164581Y00296173D01*
Y00290350D01*
X00164853Y00288984D01*
X00165627Y00287827D01*
X00168977Y00284477D01*
X00169631Y00284039D01*
X00169328Y00283039D01*
X00160845D01*
X00149539Y00294345D01*
Y00298108D01*
X00150539Y00298207D01*
X00150653Y00297634D01*
X00151427Y00296477D01*
X00152584Y00295703D01*
X00153950Y00295431D01*
X00156950D01*
X00158316Y00295703D01*
X00159473Y00296477D01*
X00160247Y00297634D01*
X00160519Y00299000D01*
Y00312000D01*
X00160247Y00313366D01*
X00159473Y00314523D01*
X00158316Y00315297D01*
X00156950Y00315569D01*
X00153950D01*
X00153222Y00315424D01*
X00152729Y00316345D01*
X00153442Y00317058D01*
X00153884Y00317720D01*
X00154039Y00318500D01*
Y00345500D01*
X00153884Y00346280D01*
X00153442Y00346942D01*
X00146442Y00353942D01*
X00145780Y00354384D01*
X00145000Y00354539D01*
X00127500D01*
X00127086Y00355539D01*
X00129478Y00357931D01*
X00136846D01*
X00137581Y00356831D01*
X00138863Y00355975D01*
X00140375Y00355674D01*
X00144625D01*
X00146137Y00355975D01*
X00147419Y00356831D01*
X00148154Y00357931D01*
X00150961D01*
X00150975Y00357863D01*
X00151831Y00356581D01*
X00153113Y00355725D01*
X00154625Y00355424D01*
X00158375D01*
X00159887Y00355725D01*
X00161169Y00356581D01*
X00162025Y00357863D01*
X00162326Y00359375D01*
Y00363625D01*
X00162025Y00365137D01*
X00161169Y00366419D01*
X00160069Y00367154D01*
Y00369846D01*
X00161169Y00370581D01*
X00162025Y00371863D01*
X00162326Y00373375D01*
Y00377625D01*
X00162025Y00379137D01*
X00161169Y00380419D01*
X00159887Y00381275D01*
X00158375Y00381576D01*
X00154625D01*
X00153113Y00381275D01*
X00151831Y00380419D01*
X00150975Y00379137D01*
X00150674Y00377625D01*
Y00373375D01*
X00150975Y00371863D01*
X00151831Y00370581D01*
X00152931Y00369846D01*
Y00367154D01*
X00151831Y00366419D01*
X00150975Y00365137D01*
X00150961Y00365069D01*
X00148154D01*
X00147419Y00366169D01*
X00146137Y00367025D01*
X00144625Y00367326D01*
X00140375D01*
X00138863Y00367025D01*
X00137581Y00366169D01*
X00136846Y00365069D01*
X00128000D01*
X00126634Y00364797D01*
X00125477Y00364023D01*
X00112977Y00351523D01*
X00112203Y00350366D01*
X00112039Y00349542D01*
X00111039Y00349640D01*
Y00352500D01*
X00111039Y00352500D01*
X00110884Y00353280D01*
X00110442Y00353942D01*
X00106942Y00357442D01*
X00106280Y00357884D01*
X00105723Y00357995D01*
X00105130Y00358908D01*
X00105253Y00359092D01*
X00105583Y00360750D01*
Y00360750D01*
X00100000D01*
Y00362000D01*
X00098750D01*
Y00367583D01*
X00097092Y00367253D01*
X00095686Y00366314D01*
X00095204Y00365593D01*
X00094593D01*
X00093518Y00366311D01*
X00092250Y00366564D01*
X00089750D01*
X00088482Y00366311D01*
X00087407Y00365593D01*
X00086879Y00364804D01*
X00086745D01*
X00086745Y00364804D01*
X00085574Y00364571D01*
X00084582Y00363908D01*
X00080882Y00360208D01*
X00079960Y00360700D01*
X00080057Y00361187D01*
Y00361812D01*
X00079829Y00362958D01*
X00080435Y00363851D01*
X00081162Y00364336D01*
X00083069Y00366243D01*
X00083069Y00366243D01*
X00083732Y00367235D01*
X00083965Y00368406D01*
X00083965Y00368406D01*
Y00371839D01*
X00084738Y00372474D01*
X00085000Y00372422D01*
X00116333D01*
X00116333Y00372422D01*
X00117893Y00372732D01*
X00119217Y00373616D01*
X00132932Y00387332D01*
X00178900D01*
X00218535Y00347697D01*
Y00296387D01*
X00218535Y00296387D01*
X00218846Y00294826D01*
X00219730Y00293503D01*
X00234991Y00278241D01*
X00234991Y00278241D01*
X00236314Y00277357D01*
X00237875Y00277047D01*
X00267477D01*
X00267689Y00275982D01*
X00268407Y00274907D01*
X00269482Y00274189D01*
X00270331Y00274020D01*
Y00273000D01*
X00269092Y00272753D01*
X00267686Y00271814D01*
X00266747Y00270408D01*
X00266417Y00268750D01*
Y00268750D01*
X00272000D01*
Y00266250D01*
X00266417D01*
Y00266250D01*
X00266747Y00264592D01*
X00267686Y00263186D01*
X00267964Y00263000D01*
Y00262000D01*
X00267686Y00261814D01*
X00266747Y00260408D01*
X00266417Y00258750D01*
Y00258750D01*
X00272000D01*
Y00256250D01*
X00266417D01*
Y00256250D01*
X00266747Y00254592D01*
X00267686Y00253186D01*
X00269092Y00252247D01*
X00270471Y00251972D01*
X00270923Y00251009D01*
X00269674Y00249761D01*
X00269011Y00248768D01*
X00268778Y00247598D01*
X00268778Y00247598D01*
Y00202672D01*
X00267778Y00202138D01*
X00267518Y00202311D01*
X00266250Y00202564D01*
X00263750D01*
X00262482Y00202311D01*
X00261407Y00201593D01*
X00260689Y00200518D01*
X00260510Y00199619D01*
X00259490D01*
X00259311Y00200518D01*
X00258593Y00201593D01*
X00257518Y00202311D01*
X00256250Y00202564D01*
X00253750D01*
X00252482Y00202311D01*
X00251407Y00201593D01*
X00250879Y00200804D01*
X00245500D01*
X00244427Y00200590D01*
X00243517Y00199983D01*
X00239613Y00196078D01*
X00239005Y00195168D01*
X00238792Y00194095D01*
Y00172904D01*
X00239005Y00171831D01*
X00239613Y00170922D01*
X00263517Y00147017D01*
X00264427Y00146410D01*
X00265500Y00146196D01*
X00360839D01*
X00391517Y00115517D01*
X00392427Y00114910D01*
X00393500Y00114696D01*
X00440249D01*
X00441937Y00113845D01*
X00442309Y00113473D01*
X00444055Y00112750D01*
X00445945D01*
X00447691Y00113473D01*
X00449027Y00114809D01*
X00449750Y00116555D01*
Y00117708D01*
X00450750Y00118376D01*
X00451055Y00118250D01*
X00452945D01*
X00454691Y00118973D01*
X00456027Y00120309D01*
X00456750Y00122055D01*
Y00123945D01*
X00456027Y00125691D01*
X00454691Y00127027D01*
X00452945Y00127750D01*
X00451055D01*
X00450355Y00128500D01*
X00450585Y00128746D01*
X00451277Y00129250D01*
X00452945D01*
X00454691Y00129973D01*
X00456027Y00131309D01*
X00456750Y00133055D01*
Y00134945D01*
X00456027Y00136691D01*
X00454691Y00138027D01*
X00452945Y00138750D01*
X00451055D01*
X00450536Y00139409D01*
X00451322Y00140250D01*
X00452445D01*
X00454191Y00140973D01*
X00455527Y00142309D01*
X00456250Y00144055D01*
Y00145945D01*
X00455527Y00147691D01*
X00454191Y00149027D01*
X00452445Y00149750D01*
X00451322D01*
X00450536Y00150591D01*
X00451055Y00151250D01*
X00452945D01*
X00454691Y00151973D01*
X00456027Y00153309D01*
X00456750Y00155055D01*
Y00156945D01*
X00456027Y00158691D01*
X00454691Y00160027D01*
X00452945Y00160750D01*
X00451055D01*
X00450750Y00160624D01*
X00449750Y00161292D01*
Y00162445D01*
X00449027Y00164191D01*
X00447691Y00165527D01*
X00445945Y00166250D01*
X00444055D01*
X00442309Y00165527D01*
X00441937Y00165155D01*
X00440249Y00164304D01*
X00413161D01*
X00391304Y00186161D01*
Y00198106D01*
X00391090Y00199179D01*
X00390483Y00200088D01*
X00385154Y00205417D01*
X00385568Y00206417D01*
X00387250D01*
X00388908Y00206747D01*
X00390314Y00207686D01*
X00391253Y00209092D01*
X00391583Y00210750D01*
Y00210750D01*
X00386000D01*
Y00213250D01*
X00391583D01*
X00391253Y00214908D01*
X00390516Y00216012D01*
X00391179Y00216820D01*
X00392555Y00216250D01*
X00394445D01*
X00396191Y00216973D01*
X00397196Y00217979D01*
X00398196Y00217564D01*
Y00192609D01*
X00398410Y00191536D01*
X00399017Y00190627D01*
X00418126Y00171517D01*
X00419036Y00170910D01*
X00420109Y00170696D01*
X00447196D01*
X00448884Y00169845D01*
X00449257Y00169473D01*
X00451002Y00168750D01*
X00452892D01*
X00454638Y00169473D01*
X00455974Y00170809D01*
X00456697Y00172555D01*
Y00174445D01*
X00455974Y00176191D01*
X00454638Y00177527D01*
X00452892Y00178250D01*
X00451002D01*
X00450483Y00178909D01*
X00451269Y00179750D01*
X00452392D01*
X00454138Y00180473D01*
X00455474Y00181809D01*
X00456197Y00183555D01*
Y00185445D01*
X00455474Y00187191D01*
X00454138Y00188527D01*
X00452392Y00189250D01*
X00451269D01*
X00450483Y00190091D01*
X00451002Y00190750D01*
X00452892D01*
X00454638Y00191473D01*
X00455974Y00192809D01*
X00456697Y00194555D01*
Y00196445D01*
X00455974Y00198191D01*
X00454638Y00199527D01*
X00452892Y00200250D01*
X00451002D01*
X00450697Y00200124D01*
X00449697Y00200792D01*
Y00201945D01*
X00448974Y00203691D01*
X00447638Y00205027D01*
X00445892Y00205750D01*
X00444002D01*
X00442257Y00205027D01*
X00441884Y00204655D01*
X00440196Y00203804D01*
X00432661D01*
X00431304Y00205161D01*
Y00212570D01*
X00432304Y00213169D01*
X00432800Y00212903D01*
X00433240Y00211571D01*
Y00211045D01*
X00433963Y00209299D01*
X00435299Y00207963D01*
X00437045Y00207240D01*
X00438934D01*
X00440680Y00207963D01*
X00442016Y00209299D01*
X00442740Y00211045D01*
Y00212326D01*
X00442975Y00213015D01*
X00443663Y00213250D01*
X00444945D01*
X00446691Y00213973D01*
X00448027Y00215309D01*
X00448750Y00217055D01*
Y00218945D01*
X00448027Y00220691D01*
X00446691Y00222027D01*
X00446282Y00222196D01*
X00446481Y00223196D01*
X00449836D01*
X00450471Y00222423D01*
X00450436Y00222250D01*
Y00219750D01*
X00450689Y00218482D01*
X00451407Y00217407D01*
X00452482Y00216689D01*
X00453750Y00216436D01*
X00456250D01*
X00457518Y00216689D01*
X00458593Y00217407D01*
X00459204D01*
X00459686Y00216686D01*
X00461092Y00215747D01*
X00462750Y00215417D01*
X00462750D01*
Y00221000D01*
X00464000D01*
Y00222250D01*
X00469583D01*
Y00222250D01*
X00469253Y00223908D01*
X00468682Y00224764D01*
X00469168Y00225837D01*
X00469659Y00225901D01*
X00471088Y00226493D01*
X00472315Y00227435D01*
X00473257Y00228662D01*
X00473849Y00230091D01*
X00474051Y00231625D01*
Y00233250D01*
X00464000D01*
Y00235750D01*
X00474051D01*
Y00237375D01*
X00473849Y00238909D01*
X00473257Y00240338D01*
X00472315Y00241565D01*
X00471620Y00242098D01*
X00471648Y00243313D01*
X00472121Y00243629D01*
X00472817Y00244671D01*
X00473062Y00245900D01*
Y00255100D01*
X00472817Y00256329D01*
X00472121Y00257371D01*
X00471079Y00258067D01*
X00469850Y00258312D01*
X00461672D01*
X00461408Y00259247D01*
X00462814Y00260186D01*
X00463753Y00261592D01*
X00464083Y00263250D01*
Y00263250D01*
X00458500D01*
Y00264500D01*
X00457250D01*
Y00270083D01*
X00455592Y00269753D01*
X00454186Y00268814D01*
X00453704Y00268093D01*
X00453093D01*
X00452018Y00268811D01*
X00450750Y00269064D01*
X00448250D01*
X00446982Y00268811D01*
X00445907Y00268093D01*
X00445379Y00267304D01*
X00442621D01*
X00442093Y00268093D01*
X00441719Y00268343D01*
X00441696Y00268410D01*
X00441787Y00269500D01*
X00442814Y00270186D01*
X00443753Y00271592D01*
X00444083Y00273250D01*
Y00273250D01*
X00438500D01*
Y00275750D01*
X00444083D01*
Y00275750D01*
X00443753Y00277408D01*
X00442814Y00278814D01*
X00442536Y00279000D01*
Y00280000D01*
X00442814Y00280186D01*
X00443753Y00281592D01*
X00444083Y00283250D01*
X00438500D01*
Y00285750D01*
X00444083D01*
Y00285750D01*
X00443753Y00287408D01*
X00442814Y00288814D01*
X00442203Y00289222D01*
X00442116Y00290377D01*
X00442614Y00290827D01*
X00443018Y00290764D01*
X00443309Y00290473D01*
X00445055Y00289750D01*
X00446945D01*
X00448691Y00290473D01*
X00450027Y00291809D01*
X00450750Y00293555D01*
Y00293978D01*
X00451674Y00294361D01*
X00465372Y00280663D01*
X00466282Y00280055D01*
X00467355Y00279841D01*
X00483787D01*
Y00082253D01*
X00454339Y00052804D01*
X00398751D01*
X00397063Y00053655D01*
X00396691Y00054027D01*
X00394945Y00054750D01*
X00393055D01*
X00391309Y00054027D01*
X00389973Y00052691D01*
X00389250Y00050945D01*
Y00049055D01*
X00389973Y00047309D01*
X00391309Y00045973D01*
X00393055Y00045250D01*
X00394945D01*
X00396691Y00045973D01*
X00397063Y00046345D01*
X00398751Y00047196D01*
X00455500D01*
X00456573Y00047410D01*
X00457483Y00048017D01*
X00484276Y00074811D01*
X00485197Y00074318D01*
X00485196Y00074311D01*
Y00064000D01*
X00485410Y00062927D01*
X00486017Y00062017D01*
X00490658Y00057377D01*
X00491250Y00055581D01*
Y00055055D01*
X00491973Y00053309D01*
X00493309Y00051973D01*
X00495055Y00051250D01*
X00496945D01*
X00498691Y00051973D01*
X00500027Y00053309D01*
X00500750Y00055055D01*
Y00056945D01*
X00500027Y00058691D01*
X00498691Y00060027D01*
X00498251Y00060209D01*
Y00061291D01*
X00498691Y00061473D01*
X00500027Y00062809D01*
X00500750Y00064555D01*
Y00066445D01*
X00500027Y00068191D01*
X00499240Y00068978D01*
X00499310Y00069373D01*
X00500387Y00069711D01*
X00505369Y00064729D01*
Y00050366D01*
X00504929Y00050071D01*
X00503934Y00048583D01*
X00503585Y00046827D01*
Y00037160D01*
X00502138Y00036561D01*
X00500467Y00035279D01*
X00499185Y00033607D01*
X00498379Y00031661D01*
X00498104Y00029573D01*
Y00021573D01*
X00498379Y00019485D01*
X00499185Y00017538D01*
X00500467Y00015867D01*
X00502138Y00014585D01*
X00504085Y00013779D01*
X00506173Y00013504D01*
X00510173D01*
X00512261Y00013779D01*
X00514207Y00014585D01*
X00515879Y00015867D01*
X00517161Y00017538D01*
X00517967Y00019485D01*
X00518242Y00021573D01*
Y00029573D01*
X00517967Y00031661D01*
X00517161Y00033607D01*
X00515879Y00035279D01*
X00514207Y00036561D01*
X00512761Y00037160D01*
Y00046827D01*
X00512412Y00048583D01*
X00511417Y00050071D01*
X00510977Y00050366D01*
Y00065890D01*
X00510880Y00066376D01*
X00511802Y00066868D01*
X00517153Y00061517D01*
X00518062Y00060910D01*
X00519135Y00060696D01*
X00524839D01*
X00530769Y00054766D01*
Y00050366D01*
X00530329Y00050071D01*
X00529334Y00048583D01*
X00528985Y00046827D01*
Y00037160D01*
X00527538Y00036561D01*
X00525867Y00035279D01*
X00524585Y00033607D01*
X00523779Y00031661D01*
X00523504Y00029573D01*
Y00021573D01*
X00523779Y00019485D01*
X00524585Y00017538D01*
X00525867Y00015867D01*
X00527538Y00014585D01*
X00529485Y00013779D01*
X00531573Y00013504D01*
X00535573D01*
X00537661Y00013779D01*
X00539608Y00014585D01*
X00541279Y00015867D01*
X00542561Y00017538D01*
X00543367Y00019485D01*
X00543642Y00021573D01*
Y00029573D01*
X00543367Y00031661D01*
X00542561Y00033607D01*
X00541279Y00035279D01*
X00539608Y00036561D01*
X00538161Y00037160D01*
Y00046827D01*
X00537812Y00048583D01*
X00536817Y00050071D01*
X00536377Y00050366D01*
Y00055927D01*
X00536163Y00057000D01*
X00535556Y00057910D01*
X00528769Y00064696D01*
X00529183Y00065696D01*
X00542839D01*
X00556169Y00052366D01*
Y00050366D01*
X00555729Y00050071D01*
X00554734Y00048583D01*
X00554385Y00046827D01*
Y00037160D01*
X00552938Y00036561D01*
X00551267Y00035279D01*
X00549985Y00033607D01*
X00549179Y00031661D01*
X00548904Y00029573D01*
Y00021573D01*
X00549179Y00019485D01*
X00549985Y00017538D01*
X00551267Y00015867D01*
X00552938Y00014585D01*
X00554885Y00013779D01*
X00556973Y00013504D01*
X00560973D01*
X00563061Y00013779D01*
X00565008Y00014585D01*
X00566679Y00015867D01*
X00567961Y00017538D01*
X00568767Y00019485D01*
X00569042Y00021573D01*
Y00029573D01*
X00568767Y00031661D01*
X00567961Y00033607D01*
X00566679Y00035279D01*
X00565008Y00036561D01*
X00563561Y00037160D01*
Y00046827D01*
X00563212Y00048583D01*
X00562217Y00050071D01*
X00561777Y00050366D01*
Y00053527D01*
X00561563Y00054600D01*
X00560956Y00055510D01*
X00545983Y00070483D01*
X00545663Y00070696D01*
X00545966Y00071696D01*
X00564339D01*
X00581569Y00054466D01*
Y00050366D01*
X00581129Y00050071D01*
X00580134Y00048583D01*
X00579785Y00046827D01*
Y00037160D01*
X00578339Y00036561D01*
X00576667Y00035279D01*
X00575385Y00033607D01*
X00574579Y00031661D01*
X00574304Y00029573D01*
Y00021573D01*
X00574579Y00019485D01*
X00575385Y00017538D01*
X00576667Y00015867D01*
X00578339Y00014585D01*
X00580285Y00013779D01*
X00582373Y00013504D01*
X00586373D01*
X00588461Y00013779D01*
X00590407Y00014585D01*
X00592079Y00015867D01*
X00593361Y00017538D01*
X00594167Y00019485D01*
X00594442Y00021573D01*
Y00029573D01*
X00594167Y00031661D01*
X00593361Y00033607D01*
X00592079Y00035279D01*
X00590407Y00036561D01*
X00588961Y00037160D01*
Y00046827D01*
X00588612Y00048583D01*
X00587617Y00050071D01*
X00587177Y00050366D01*
Y00055627D01*
X00586963Y00056700D01*
X00586356Y00057610D01*
X00567483Y00076483D01*
X00566573Y00077090D01*
X00565500Y00077304D01*
X00526661D01*
X00518439Y00085526D01*
Y00293429D01*
X00519439Y00293844D01*
X00519809Y00293473D01*
X00521555Y00292750D01*
X00523445D01*
X00523750Y00292876D01*
X00524750Y00292208D01*
Y00291055D01*
X00525473Y00289309D01*
X00526809Y00287973D01*
X00528555Y00287250D01*
X00530445D01*
X00532191Y00287973D01*
X00532563Y00288345D01*
X00534251Y00289196D01*
X00536839D01*
X00548196Y00277839D01*
Y00108751D01*
X00547345Y00107063D01*
X00546973Y00106691D01*
X00546250Y00104945D01*
Y00103055D01*
X00546973Y00101309D01*
X00548309Y00099973D01*
X00550055Y00099250D01*
X00551945D01*
X00553691Y00099973D01*
X00555027Y00101309D01*
X00555750Y00103055D01*
Y00104945D01*
X00556500Y00105644D01*
X00556746Y00105415D01*
X00557250Y00104723D01*
Y00103055D01*
X00557973Y00101309D01*
X00559309Y00099973D01*
X00561055Y00099250D01*
X00562945D01*
X00564691Y00099973D01*
X00566027Y00101309D01*
X00566750Y00103055D01*
Y00104945D01*
X00567500Y00105644D01*
X00567746Y00105415D01*
X00568250Y00104723D01*
Y00103055D01*
X00568973Y00101309D01*
X00570309Y00099973D01*
X00572055Y00099250D01*
X00573945D01*
X00575691Y00099973D01*
X00577027Y00101309D01*
X00577750Y00103055D01*
Y00104945D01*
X00578500Y00105645D01*
X00578746Y00105415D01*
X00579250Y00104723D01*
Y00103055D01*
X00579973Y00101309D01*
X00581309Y00099973D01*
X00583055Y00099250D01*
X00584945D01*
X00586691Y00099973D01*
X00588027Y00101309D01*
X00588750Y00103055D01*
Y00104945D01*
X00588624Y00105250D01*
X00589292Y00106250D01*
X00590445D01*
X00592191Y00106973D01*
X00593527Y00108309D01*
X00594250Y00110055D01*
Y00111945D01*
X00593527Y00113691D01*
X00593155Y00114063D01*
X00592304Y00115751D01*
Y00294947D01*
X00592090Y00296020D01*
X00591483Y00296930D01*
X00555930Y00332483D01*
X00555020Y00333090D01*
X00553947Y00333304D01*
X00527251D01*
X00525563Y00334155D01*
X00525191Y00334527D01*
X00523445Y00335250D01*
X00521555D01*
X00519809Y00334527D01*
X00519439Y00334156D01*
X00518439Y00334571D01*
Y00345200D01*
X00518226Y00346273D01*
X00517618Y00347182D01*
X00484317Y00380483D01*
X00483407Y00381091D01*
X00482334Y00381304D01*
X00366887Y00381304D01*
X00365814Y00381090D01*
X00364905Y00380483D01*
X00352017Y00367595D01*
X00351410Y00366686D01*
X00351196Y00365613D01*
Y00337657D01*
X00350196Y00337393D01*
X00348908Y00338253D01*
X00347250Y00338583D01*
Y00333000D01*
X00346000D01*
Y00331750D01*
X00340417D01*
Y00331750D01*
X00340747Y00330092D01*
X00341686Y00328686D01*
X00341861Y00328569D01*
X00341558Y00327569D01*
X00340164D01*
X00339706Y00328027D01*
X00339315Y00328189D01*
X00333259Y00334244D01*
X00331771Y00335239D01*
X00330015Y00335588D01*
X00317836D01*
X00317445Y00335750D01*
X00315555D01*
X00315165Y00335588D01*
X00311088D01*
Y00386912D01*
X00497599Y00386912D01*
X00528256Y00356256D01*
X00529744Y00355261D01*
X00531500Y00354912D01*
X00603017D01*
X00631855Y00326074D01*
Y00315025D01*
X00631443D01*
X00629877Y00314818D01*
X00628417Y00314214D01*
X00627164Y00313252D01*
X00626202Y00311999D01*
X00625597Y00310539D01*
X00625391Y00308973D01*
Y00300973D01*
X00625597Y00299407D01*
X00626202Y00297947D01*
X00627164Y00296694D01*
X00628417Y00295732D01*
X00629877Y00295128D01*
X00631443Y00294921D01*
X00641443D01*
X00643009Y00295128D01*
X00644469Y00295732D01*
X00645722Y00296694D01*
X00646684Y00297947D01*
X00647289Y00299407D01*
X00647495Y00300973D01*
Y00308973D01*
X00647289Y00310539D01*
X00646684Y00311999D01*
X00645722Y00313252D01*
X00644469Y00314214D01*
X00643009Y00314818D01*
X00641443Y00315025D01*
X00641031D01*
Y00327974D01*
X00640682Y00329730D01*
X00639687Y00331219D01*
X00608162Y00362744D01*
X00606673Y00363739D01*
X00604917Y00364088D01*
X00533400D01*
X00502744Y00394744D01*
X00501256Y00395739D01*
X00499500Y00396088D01*
X00311088Y00396088D01*
Y00406500D01*
X00310739Y00408256D01*
X00309744Y00409744D01*
X00264244Y00455244D01*
X00262756Y00456239D01*
X00261000Y00456588D01*
X00250639D01*
X00243521Y00463705D01*
Y00475623D01*
Y00496586D01*
X00244967Y00497185D01*
X00246639Y00498467D01*
X00247921Y00500139D01*
X00248727Y00502085D01*
X00249002Y00504173D01*
Y00512173D01*
X00248727Y00514261D01*
X00247921Y00516208D01*
X00246639Y00517879D01*
X00244967Y00519161D01*
X00243021Y00519967D01*
X00240933Y00520242D01*
D02*
G37*
G36*
X00111893Y00458098D02*
X00109143D01*
Y00452250D01*
X00116991D01*
Y00453000D01*
X00116603Y00454951D01*
X00115498Y00456605D01*
X00113844Y00457710D01*
X00111893Y00458098D01*
D02*
G37*
G36*
X00051893D02*
X00049143D01*
Y00452250D01*
X00056991D01*
Y00453000D01*
X00056603Y00454951D01*
X00055498Y00456605D01*
X00053844Y00457710D01*
X00051893Y00458098D01*
D02*
G37*
G36*
X00106643D02*
X00103893D01*
X00101943Y00457710D01*
X00100289Y00456605D01*
X00099184Y00454951D01*
X00098795Y00453000D01*
Y00452250D01*
X00106643D01*
Y00458098D01*
D02*
G37*
G36*
X00046643D02*
X00043893D01*
X00041943Y00457710D01*
X00040289Y00456605D01*
X00039183Y00454951D01*
X00038795Y00453000D01*
Y00452250D01*
X00046643D01*
Y00458098D01*
D02*
G37*
G36*
X00611773Y00520242D02*
X00607773D01*
X00605685Y00519967D01*
X00603739Y00519161D01*
X00602067Y00517879D01*
X00600785Y00516208D01*
X00599979Y00514261D01*
X00599704Y00512173D01*
Y00504173D01*
X00599979Y00502085D01*
X00600785Y00500139D01*
X00602067Y00498467D01*
X00603739Y00497185D01*
X00605185Y00496586D01*
Y00486919D01*
X00605534Y00485163D01*
X00606529Y00483675D01*
X00606969Y00483380D01*
Y00480227D01*
X00607183Y00479154D01*
X00607790Y00478244D01*
X00619696Y00466339D01*
Y00461251D01*
X00618845Y00459563D01*
X00618473Y00459191D01*
X00617750Y00457445D01*
Y00455555D01*
X00618473Y00453809D01*
X00619809Y00452473D01*
X00621555Y00451750D01*
X00623445D01*
X00625191Y00452473D01*
X00626527Y00453809D01*
X00627250Y00455555D01*
Y00457445D01*
X00626527Y00459191D01*
X00626155Y00459563D01*
X00625304Y00461251D01*
Y00467500D01*
X00625090Y00468573D01*
X00624483Y00469483D01*
X00612577Y00481388D01*
Y00483380D01*
X00613017Y00483675D01*
X00614012Y00485163D01*
X00614361Y00486919D01*
Y00496586D01*
X00615807Y00497185D01*
X00617479Y00498467D01*
X00618761Y00500139D01*
X00619567Y00502085D01*
X00619842Y00504173D01*
Y00512173D01*
X00619567Y00514261D01*
X00618761Y00516208D01*
X00617479Y00517879D01*
X00615807Y00519161D01*
X00613861Y00519967D01*
X00611773Y00520242D01*
D02*
G37*
G36*
X00116991Y00449750D02*
X00109143D01*
Y00443902D01*
X00111893D01*
X00113844Y00444290D01*
X00115498Y00445395D01*
X00116603Y00447049D01*
X00116991Y00449000D01*
Y00449750D01*
D02*
G37*
G36*
X00106643D02*
X00098795D01*
Y00449000D01*
X00099184Y00447049D01*
X00100289Y00445395D01*
X00101943Y00444290D01*
X00103893Y00443902D01*
X00106643D01*
Y00449750D01*
D02*
G37*
G36*
X00056991D02*
X00049143D01*
Y00443902D01*
X00051893D01*
X00053844Y00444290D01*
X00055498Y00445395D01*
X00056603Y00447049D01*
X00056991Y00449000D01*
Y00449750D01*
D02*
G37*
G36*
X00046643D02*
X00038795D01*
Y00449000D01*
X00039183Y00447049D01*
X00040289Y00445395D01*
X00041943Y00444290D01*
X00043893Y00443902D01*
X00046643D01*
Y00449750D01*
D02*
G37*
G36*
X00134125Y00433345D02*
X00133250D01*
Y00427750D01*
X00139095D01*
Y00428375D01*
X00138717Y00430277D01*
X00137640Y00431890D01*
X00136027Y00432967D01*
X00134125Y00433345D01*
D02*
G37*
G36*
X00130750D02*
X00129875D01*
X00127973Y00432967D01*
X00126360Y00431890D01*
X00125283Y00430277D01*
X00124904Y00428375D01*
Y00427750D01*
X00130750D01*
Y00433345D01*
D02*
G37*
G36*
X00073250Y00425268D02*
X00070250D01*
Y00419699D01*
X00080873D01*
X00080238Y00421234D01*
X00078955Y00422905D01*
X00077284Y00424187D01*
X00075338Y00424993D01*
X00073250Y00425268D01*
D02*
G37*
G36*
X00065250D02*
X00062250D01*
X00060161Y00424993D01*
X00058215Y00424187D01*
X00056544Y00422905D01*
X00055262Y00421234D01*
X00054626Y00419699D01*
X00065250D01*
Y00425268D01*
D02*
G37*
G36*
X00030250D02*
X00028749D01*
Y00419699D01*
X00037873D01*
X00037238Y00421234D01*
X00035955Y00422905D01*
X00034284Y00424187D01*
X00032338Y00424993D01*
X00030250Y00425268D01*
D02*
G37*
G36*
X00023749D02*
X00022250D01*
X00020161Y00424993D01*
X00018215Y00424187D01*
X00016544Y00422905D01*
X00015262Y00421234D01*
X00014626Y00419699D01*
X00023749D01*
Y00425268D01*
D02*
G37*
G36*
X00139095Y00425250D02*
X00133250D01*
Y00419655D01*
X00134125D01*
X00136027Y00420033D01*
X00137640Y00421110D01*
X00138717Y00422723D01*
X00139095Y00424625D01*
Y00425250D01*
D02*
G37*
G36*
X00130750D02*
X00124904D01*
Y00424625D01*
X00125283Y00422723D01*
X00126360Y00421110D01*
X00127973Y00420033D01*
X00129875Y00419655D01*
X00130750D01*
Y00425250D01*
D02*
G37*
G36*
X00037873Y00414699D02*
X00028749D01*
Y00409130D01*
X00030250D01*
X00032338Y00409405D01*
X00034284Y00410211D01*
X00035955Y00411494D01*
X00037238Y00413165D01*
X00037873Y00414699D01*
D02*
G37*
G36*
X00023749D02*
X00014626D01*
X00015262Y00413165D01*
X00016544Y00411494D01*
X00018215Y00410211D01*
X00020161Y00409405D01*
X00022250Y00409130D01*
X00023749D01*
Y00414699D01*
D02*
G37*
G36*
X00101250Y00397583D02*
X00101250D01*
Y00393250D01*
X00105583D01*
Y00393250D01*
X00105253Y00394908D01*
X00104314Y00396314D01*
X00102908Y00397253D01*
X00101250Y00397583D01*
D02*
G37*
G36*
X00631500Y00417834D02*
X00628118Y00417500D01*
X00624867Y00416514D01*
X00621870Y00414912D01*
X00619243Y00412757D01*
X00617088Y00410130D01*
X00615486Y00407133D01*
X00614500Y00403882D01*
X00614167Y00400500D01*
X00614500Y00397118D01*
X00615486Y00393867D01*
X00617088Y00390870D01*
X00619243Y00388243D01*
X00621870Y00386088D01*
X00624867Y00384486D01*
X00628118Y00383500D01*
X00631500Y00383167D01*
X00634882Y00383500D01*
X00638133Y00384486D01*
X00641130Y00386088D01*
X00643757Y00388243D01*
X00645912Y00390870D01*
X00647514Y00393867D01*
X00648500Y00397118D01*
X00648833Y00400500D01*
X00648500Y00403882D01*
X00647514Y00407133D01*
X00645912Y00410130D01*
X00643757Y00412757D01*
X00641130Y00414912D01*
X00638133Y00416514D01*
X00634882Y00417500D01*
X00631500Y00417834D01*
D02*
G37*
G36*
X00173375Y00382595D02*
X00172750D01*
Y00376750D01*
X00178346D01*
Y00377625D01*
X00177967Y00379527D01*
X00176890Y00381140D01*
X00175277Y00382217D01*
X00173375Y00382595D01*
D02*
G37*
G36*
X00170250D02*
X00169625D01*
X00167723Y00382217D01*
X00166110Y00381140D01*
X00165033Y00379527D01*
X00164655Y00377625D01*
Y00376750D01*
X00170250D01*
Y00382595D01*
D02*
G37*
G36*
X00144625Y00383345D02*
X00140375D01*
X00138473Y00382967D01*
X00136860Y00381890D01*
X00136325Y00381088D01*
X00136000D01*
X00134244Y00380739D01*
X00132756Y00379744D01*
X00132261Y00379250D01*
X00132243D01*
X00130781Y00378858D01*
X00129469Y00378101D01*
X00128399Y00377030D01*
X00127642Y00375719D01*
X00127250Y00374257D01*
Y00372743D01*
X00127642Y00371281D01*
X00128399Y00369969D01*
X00129469Y00368899D01*
X00130781Y00368142D01*
X00132243Y00367750D01*
X00133757D01*
X00135219Y00368142D01*
X00136531Y00368899D01*
X00137601Y00369969D01*
X00138318Y00370136D01*
X00138473Y00370033D01*
X00140375Y00369655D01*
X00144625D01*
X00146527Y00370033D01*
X00148140Y00371110D01*
X00149217Y00372723D01*
X00149595Y00374625D01*
Y00378375D01*
X00149217Y00380277D01*
X00148140Y00381890D01*
X00146527Y00382967D01*
X00144625Y00383345D01*
D02*
G37*
G36*
X00101250Y00367583D02*
X00101250D01*
Y00363250D01*
X00105583D01*
X00105253Y00364908D01*
X00104314Y00366314D01*
X00102908Y00367253D01*
X00101250Y00367583D01*
D02*
G37*
G36*
X00178346Y00374250D02*
X00171500D01*
X00164655D01*
Y00373375D01*
X00165033Y00371473D01*
X00166110Y00369860D01*
X00167289Y00369073D01*
Y00367927D01*
X00166110Y00367140D01*
X00165033Y00365527D01*
X00164655Y00363625D01*
Y00362750D01*
X00171500D01*
X00178346D01*
Y00363625D01*
X00177967Y00365527D01*
X00176890Y00367140D01*
X00175711Y00367927D01*
Y00369073D01*
X00176890Y00369860D01*
X00177967Y00371473D01*
X00178346Y00373375D01*
Y00374250D01*
D02*
G37*
G36*
Y00360250D02*
X00172750D01*
Y00354404D01*
X00173375D01*
X00175277Y00354783D01*
X00176890Y00355860D01*
X00177967Y00357473D01*
X00178346Y00359375D01*
Y00360250D01*
D02*
G37*
G36*
X00170250D02*
X00164655D01*
Y00359375D01*
X00165033Y00357473D01*
X00166110Y00355860D01*
X00167723Y00354783D01*
X00169625Y00354404D01*
X00170250D01*
Y00360250D01*
D02*
G37*
G36*
X00344750Y00338583D02*
X00344750D01*
X00343092Y00338253D01*
X00341686Y00337314D01*
X00340747Y00335908D01*
X00340417Y00334250D01*
D01*
X00344750D01*
Y00338583D01*
D02*
G37*
G36*
X00030250Y00338868D02*
X00028750D01*
Y00333299D01*
X00037873D01*
X00037238Y00334834D01*
X00035955Y00336505D01*
X00034284Y00337787D01*
X00032338Y00338593D01*
X00030250Y00338868D01*
D02*
G37*
G36*
X00023750D02*
X00022250D01*
X00020161Y00338593D01*
X00018215Y00337787D01*
X00016544Y00336505D01*
X00015262Y00334834D01*
X00014626Y00333299D01*
X00023750D01*
Y00338868D01*
D02*
G37*
G36*
X00297250Y00328750D02*
X00292917D01*
Y00328750D01*
X00293247Y00327092D01*
X00294186Y00325686D01*
X00295592Y00324747D01*
X00297250Y00324417D01*
X00297250D01*
Y00328750D01*
D02*
G37*
G36*
X00080873Y00328299D02*
X00070250D01*
Y00322730D01*
X00073250D01*
X00075338Y00323005D01*
X00077284Y00323811D01*
X00078955Y00325094D01*
X00080238Y00326765D01*
X00080873Y00328299D01*
D02*
G37*
G36*
X00065250D02*
X00054626D01*
X00055262Y00326765D01*
X00056544Y00325094D01*
X00058215Y00323811D01*
X00060161Y00323005D01*
X00062250Y00322730D01*
X00065250D01*
Y00328299D01*
D02*
G37*
G36*
X00037873Y00328299D02*
X00028750D01*
Y00322730D01*
X00030250D01*
X00032338Y00323005D01*
X00034284Y00323811D01*
X00035955Y00325094D01*
X00037238Y00326765D01*
X00037873Y00328299D01*
D02*
G37*
G36*
X00023750D02*
X00014626D01*
X00015262Y00326765D01*
X00016544Y00325094D01*
X00018215Y00323811D01*
X00020161Y00323005D01*
X00022250Y00322730D01*
X00023750D01*
Y00328299D01*
D02*
G37*
G36*
X00246750Y00316250D02*
X00242417D01*
Y00316250D01*
X00242747Y00314592D01*
X00243686Y00313186D01*
X00245092Y00312247D01*
X00246750Y00311917D01*
X00246750D01*
Y00316250D01*
D02*
G37*
G36*
X00248750Y00305556D02*
X00247265Y00305261D01*
X00245901Y00304349D01*
X00244989Y00302985D01*
X00244669Y00301375D01*
Y00301250D01*
X00248750D01*
Y00305556D01*
D02*
G37*
G36*
X00182350Y00315569D02*
X00179350D01*
X00177984Y00315297D01*
X00176827Y00314523D01*
X00176053Y00313366D01*
X00175781Y00312000D01*
Y00299000D01*
X00176053Y00297634D01*
X00176827Y00296477D01*
X00177984Y00295703D01*
X00179350Y00295431D01*
X00182350D01*
X00183716Y00295703D01*
X00184873Y00296477D01*
X00185647Y00297634D01*
X00185919Y00299000D01*
Y00312000D01*
X00185647Y00313366D01*
X00184873Y00314523D01*
X00183716Y00315297D01*
X00182350Y00315569D01*
D02*
G37*
G36*
X00666843Y00315025D02*
X00656843D01*
X00655277Y00314818D01*
X00653817Y00314214D01*
X00652564Y00313252D01*
X00651602Y00311999D01*
X00650997Y00310539D01*
X00650791Y00308973D01*
Y00300973D01*
X00650997Y00299407D01*
X00651602Y00297947D01*
X00652564Y00296694D01*
X00653817Y00295732D01*
X00655277Y00295128D01*
X00656843Y00294921D01*
X00666843D01*
X00668409Y00295128D01*
X00669869Y00295732D01*
X00671122Y00296694D01*
X00672084Y00297947D01*
X00672689Y00299407D01*
X00672895Y00300973D01*
Y00308973D01*
X00672689Y00310539D01*
X00672084Y00311999D01*
X00671122Y00313252D01*
X00669869Y00314214D01*
X00668409Y00314818D01*
X00666843Y00315025D01*
D02*
G37*
G36*
X00248750Y00298750D02*
X00244669D01*
Y00298625D01*
X00244989Y00297015D01*
X00245901Y00295651D01*
X00247265Y00294739D01*
X00248750Y00294444D01*
Y00298750D01*
D02*
G37*
G36*
X00013750Y00298846D02*
X00012875D01*
X00010973Y00298467D01*
X00009360Y00297390D01*
X00008283Y00295777D01*
X00007904Y00293875D01*
Y00293250D01*
X00013750D01*
Y00298846D01*
D02*
G37*
G36*
X00303750Y00296083D02*
X00303750D01*
X00302092Y00295753D01*
X00300686Y00294814D01*
X00299747Y00293408D01*
X00299417Y00291750D01*
Y00291750D01*
X00303750D01*
Y00296083D01*
D02*
G37*
G36*
X00013750Y00290750D02*
X00007904D01*
Y00290125D01*
X00008283Y00288223D01*
X00009360Y00286610D01*
X00010973Y00285533D01*
X00012875Y00285154D01*
X00013750D01*
Y00290750D01*
D02*
G37*
G36*
X00022750Y00284342D02*
X00021450D01*
X00019616Y00283977D01*
X00018061Y00282938D01*
X00017023Y00281384D01*
X00016658Y00279550D01*
Y00276250D01*
X00022750D01*
Y00284342D01*
D02*
G37*
G36*
X00530445Y00348750D02*
X00528555D01*
X00526809Y00348027D01*
X00525473Y00346691D01*
X00524750Y00344945D01*
Y00343055D01*
X00525473Y00341309D01*
X00526809Y00339973D01*
X00528555Y00339250D01*
X00530445D01*
X00532191Y00339973D01*
X00532563Y00340345D01*
X00534251Y00341196D01*
X00571839D01*
X00608196Y00304839D01*
Y00283500D01*
X00608410Y00282427D01*
X00609017Y00281517D01*
X00612944Y00277590D01*
X00613854Y00276983D01*
X00614927Y00276769D01*
X00618461D01*
X00618756Y00276329D01*
X00620244Y00275334D01*
X00622000Y00274985D01*
X00625469D01*
X00625597Y00274007D01*
X00626202Y00272547D01*
X00627164Y00271294D01*
X00628417Y00270332D01*
X00629877Y00269727D01*
X00631443Y00269521D01*
X00641443D01*
X00643009Y00269727D01*
X00644469Y00270332D01*
X00645722Y00271294D01*
X00646684Y00272547D01*
X00647289Y00274007D01*
X00647495Y00275573D01*
Y00283573D01*
X00647289Y00285139D01*
X00646684Y00286599D01*
X00645722Y00287852D01*
X00644469Y00288814D01*
X00643009Y00289419D01*
X00641443Y00289625D01*
X00631443D01*
X00629877Y00289419D01*
X00628417Y00288814D01*
X00627164Y00287852D01*
X00626202Y00286599D01*
X00625597Y00285139D01*
X00625469Y00284161D01*
X00622000D01*
X00620244Y00283812D01*
X00618756Y00282817D01*
X00618461Y00282377D01*
X00616088D01*
X00613804Y00284661D01*
Y00306000D01*
X00613590Y00307073D01*
X00612983Y00307983D01*
X00574983Y00345983D01*
X00574073Y00346590D01*
X00573000Y00346804D01*
X00534251D01*
X00532563Y00347655D01*
X00532191Y00348027D01*
X00530445Y00348750D01*
D02*
G37*
G36*
X00459750Y00270083D02*
X00459750D01*
Y00265750D01*
X00464083D01*
X00463753Y00267408D01*
X00462814Y00268814D01*
X00461408Y00269753D01*
X00459750Y00270083D01*
D02*
G37*
G36*
X00666843Y00289625D02*
X00656843D01*
X00655277Y00289419D01*
X00653817Y00288814D01*
X00652564Y00287852D01*
X00651602Y00286599D01*
X00650997Y00285139D01*
X00650791Y00283573D01*
Y00275573D01*
X00650857Y00275075D01*
X00648386Y00272605D01*
X00647391Y00271116D01*
X00647042Y00269360D01*
X00647149Y00268822D01*
X00646588Y00267981D01*
X00646374Y00266908D01*
Y00264343D01*
X00645477Y00263901D01*
X00644973Y00264287D01*
X00643270Y00264993D01*
X00641443Y00265233D01*
X00638943D01*
Y00254173D01*
Y00243113D01*
X00641443D01*
X00643270Y00243353D01*
X00644973Y00244058D01*
X00645015Y00244091D01*
X00646066Y00243637D01*
X00646128Y00243093D01*
X00644517Y00241483D01*
X00643910Y00240573D01*
X00643696Y00239500D01*
Y00233436D01*
X00642696Y00233021D01*
X00642191Y00233527D01*
X00640445Y00234250D01*
X00638555D01*
X00636809Y00233527D01*
X00635473Y00232191D01*
X00634750Y00230445D01*
Y00228555D01*
X00635473Y00226809D01*
X00635845Y00226437D01*
X00636696Y00224749D01*
Y00222000D01*
X00636910Y00220927D01*
X00637517Y00220017D01*
X00639196Y00218339D01*
Y00122076D01*
X00607924Y00090804D01*
X00545025D01*
X00535304Y00100525D01*
Y00244339D01*
X00537546Y00246581D01*
X00538154Y00247490D01*
X00538367Y00248563D01*
Y00257937D01*
X00538154Y00259010D01*
X00537546Y00259919D01*
X00535483Y00261983D01*
X00534573Y00262590D01*
X00533500Y00262804D01*
X00532751D01*
X00531063Y00263655D01*
X00530691Y00264027D01*
X00528945Y00264750D01*
X00527055D01*
X00525309Y00264027D01*
X00523973Y00262691D01*
X00523250Y00260945D01*
Y00259055D01*
X00523973Y00257309D01*
X00524879Y00256403D01*
X00525200Y00255750D01*
X00524879Y00255097D01*
X00523973Y00254191D01*
X00523250Y00252445D01*
Y00250555D01*
X00523973Y00248809D01*
X00524345Y00248437D01*
X00525196Y00246749D01*
Y00097500D01*
X00525410Y00096427D01*
X00526017Y00095517D01*
X00540017Y00081517D01*
X00540927Y00080910D01*
X00542000Y00080696D01*
X00610950D01*
X00612023Y00080910D01*
X00612933Y00081517D01*
X00648483Y00117067D01*
X00649090Y00117977D01*
X00649304Y00119050D01*
Y00238339D01*
X00651161Y00240196D01*
X00651768Y00241105D01*
X00651982Y00242178D01*
Y00245080D01*
X00652982Y00245573D01*
X00653817Y00244932D01*
X00655277Y00244328D01*
X00656843Y00244121D01*
X00666843D01*
X00668409Y00244328D01*
X00669869Y00244932D01*
X00671122Y00245894D01*
X00672084Y00247147D01*
X00672689Y00248607D01*
X00672895Y00250173D01*
Y00258173D01*
X00672689Y00259739D01*
X00672084Y00261199D01*
X00671122Y00262452D01*
X00669869Y00263414D01*
X00668409Y00264018D01*
X00666843Y00264225D01*
X00656843D01*
X00655277Y00264018D01*
X00653817Y00263414D01*
X00652982Y00262773D01*
X00651982Y00263266D01*
Y00264842D01*
X00653386Y00265121D01*
X00654875Y00266116D01*
X00658280Y00269521D01*
X00666843D01*
X00668409Y00269727D01*
X00669869Y00270332D01*
X00671122Y00271294D01*
X00672084Y00272547D01*
X00672689Y00274007D01*
X00672895Y00275573D01*
Y00283573D01*
X00672689Y00285139D01*
X00672084Y00286599D01*
X00671122Y00287852D01*
X00669869Y00288814D01*
X00668409Y00289419D01*
X00666843Y00289625D01*
D02*
G37*
G36*
X00031342Y00273750D02*
X00016658D01*
Y00270450D01*
X00017023Y00268616D01*
X00018061Y00267062D01*
X00019616Y00266023D01*
X00019681Y00266010D01*
Y00264990D01*
X00019616Y00264977D01*
X00018061Y00263939D01*
X00017023Y00262384D01*
X00016658Y00260550D01*
Y00257250D01*
X00031342D01*
Y00260550D01*
X00030977Y00262384D01*
X00029938Y00263939D01*
X00028384Y00264977D01*
X00028319Y00264990D01*
Y00266010D01*
X00028384Y00266023D01*
X00029938Y00267062D01*
X00030977Y00268616D01*
X00031342Y00270450D01*
Y00273750D01*
D02*
G37*
G36*
X00633943Y00265233D02*
X00631443D01*
X00629616Y00264993D01*
X00627913Y00264287D01*
X00626451Y00263165D01*
X00625329Y00261703D01*
X00624623Y00260000D01*
X00624383Y00258173D01*
Y00256673D01*
X00633943D01*
Y00265233D01*
D02*
G37*
G36*
X00195050Y00262588D02*
X00194800D01*
Y00252750D01*
X00199638D01*
Y00258000D01*
X00199289Y00259756D01*
X00198294Y00261244D01*
X00196806Y00262239D01*
X00195050Y00262588D01*
D02*
G37*
G36*
X00228125Y00253846D02*
X00227250D01*
Y00248250D01*
X00233095D01*
Y00248875D01*
X00232717Y00250777D01*
X00231640Y00252390D01*
X00230027Y00253467D01*
X00228125Y00253846D01*
D02*
G37*
G36*
X00031342Y00254750D02*
X00025250D01*
Y00246658D01*
X00026550D01*
X00028384Y00247023D01*
X00029938Y00248062D01*
X00030977Y00249616D01*
X00031342Y00251450D01*
Y00254750D01*
D02*
G37*
G36*
X00022750D02*
X00016658D01*
Y00251450D01*
X00017023Y00249616D01*
X00018061Y00248062D01*
X00019616Y00247023D01*
X00021450Y00246658D01*
X00022750D01*
Y00254750D01*
D02*
G37*
G36*
X00633943Y00251673D02*
X00624383D01*
Y00250173D01*
X00624623Y00248346D01*
X00625329Y00246643D01*
X00626451Y00245181D01*
X00627913Y00244058D01*
X00629616Y00243353D01*
X00631443Y00243113D01*
X00633943D01*
Y00251673D01*
D02*
G37*
G36*
X00199638Y00250250D02*
X00194800D01*
Y00240412D01*
X00195050D01*
X00196806Y00240761D01*
X00198294Y00241756D01*
X00199289Y00243244D01*
X00199638Y00245000D01*
Y00250250D01*
D02*
G37*
G36*
X00233095Y00245750D02*
X00227250D01*
Y00240154D01*
X00228125D01*
X00230027Y00240533D01*
X00231640Y00241610D01*
X00232717Y00243223D01*
X00233095Y00245125D01*
Y00245750D01*
D02*
G37*
G36*
X00469583Y00219750D02*
X00465250D01*
Y00215417D01*
X00466908Y00215747D01*
X00468314Y00216686D01*
X00469253Y00218092D01*
X00469583Y00219750D01*
D02*
G37*
G36*
X00669000Y00203991D02*
X00668250D01*
Y00196143D01*
X00674098D01*
Y00198893D01*
X00673710Y00200844D01*
X00672605Y00202498D01*
X00670951Y00203603D01*
X00669000Y00203991D01*
D02*
G37*
G36*
X00665750D02*
X00665000D01*
X00663049Y00203603D01*
X00661395Y00202498D01*
X00660290Y00200844D01*
X00659902Y00198893D01*
Y00196143D01*
X00665750D01*
Y00203991D01*
D02*
G37*
G36*
X00083000Y00208065D02*
X00082250D01*
Y00188750D01*
X00090565D01*
Y00200500D01*
X00090307Y00202458D01*
X00089551Y00204282D01*
X00088349Y00205849D01*
X00086782Y00207051D01*
X00084958Y00207807D01*
X00083000Y00208065D01*
D02*
G37*
G36*
X00074750D02*
X00074000D01*
X00072042Y00207807D01*
X00070218Y00207051D01*
X00068651Y00205849D01*
X00067449Y00204282D01*
X00066693Y00202458D01*
X00066435Y00200500D01*
Y00188750D01*
X00074750D01*
Y00208065D01*
D02*
G37*
G36*
X00674098Y00193643D02*
X00668250D01*
Y00185795D01*
X00669000D01*
X00670951Y00186183D01*
X00672605Y00187289D01*
X00673710Y00188943D01*
X00674098Y00190893D01*
Y00193643D01*
D02*
G37*
G36*
X00665750D02*
X00659902D01*
Y00190893D01*
X00660290Y00188943D01*
X00661395Y00187289D01*
X00663049Y00186183D01*
X00665000Y00185795D01*
X00665750D01*
Y00193643D01*
D02*
G37*
G36*
X00090565Y00181250D02*
X00082250D01*
Y00161935D01*
X00083000D01*
X00084958Y00162193D01*
X00086782Y00162949D01*
X00088349Y00164151D01*
X00089551Y00165718D01*
X00090307Y00167542D01*
X00090565Y00169500D01*
Y00181250D01*
D02*
G37*
G36*
X00074750D02*
X00066435D01*
Y00169500D01*
X00066693Y00167542D01*
X00067449Y00165718D01*
X00068651Y00164151D01*
X00070218Y00162949D01*
X00072042Y00162193D01*
X00074000Y00161935D01*
X00074750D01*
Y00181250D01*
D02*
G37*
G36*
X00102750Y00149065D02*
X00091000D01*
X00089042Y00148807D01*
X00087218Y00148051D01*
X00085651Y00146849D01*
X00084449Y00145282D01*
X00083693Y00143458D01*
X00083435Y00141500D01*
Y00140750D01*
X00102750D01*
Y00149065D01*
D02*
G37*
G36*
X00669000Y00143991D02*
X00668250D01*
Y00136143D01*
X00674098D01*
Y00138893D01*
X00673710Y00140844D01*
X00672605Y00142498D01*
X00670951Y00143603D01*
X00669000Y00143991D01*
D02*
G37*
G36*
X00665750D02*
X00665000D01*
X00663049Y00143603D01*
X00661395Y00142498D01*
X00660290Y00140844D01*
X00659902Y00138893D01*
Y00136143D01*
X00665750D01*
Y00143991D01*
D02*
G37*
G36*
X00674098Y00133643D02*
X00668250D01*
Y00125795D01*
X00669000D01*
X00670951Y00126184D01*
X00672605Y00127289D01*
X00673710Y00128942D01*
X00674098Y00130893D01*
Y00133643D01*
D02*
G37*
G36*
X00665750D02*
X00659902D01*
Y00130893D01*
X00660290Y00128942D01*
X00661395Y00127289D01*
X00663049Y00126184D01*
X00665000Y00125795D01*
X00665750D01*
Y00133643D01*
D02*
G37*
G36*
X00129565Y00133250D02*
X00110250D01*
Y00124935D01*
X00122000D01*
X00123958Y00125193D01*
X00125782Y00125949D01*
X00127349Y00127151D01*
X00128551Y00128718D01*
X00129307Y00130542D01*
X00129565Y00132500D01*
Y00133250D01*
D02*
G37*
G36*
X00102750D02*
X00083435D01*
Y00132500D01*
X00083693Y00130542D01*
X00084449Y00128718D01*
X00085651Y00127151D01*
X00087218Y00125949D01*
X00089042Y00125193D01*
X00091000Y00124935D01*
X00102750D01*
Y00133250D01*
D02*
G37*
G36*
X00632000Y00202972D02*
X00628000D01*
X00626439Y00202661D01*
X00625116Y00201777D01*
X00624232Y00200454D01*
X00623922Y00198893D01*
Y00190893D01*
X00624232Y00189333D01*
X00625116Y00188010D01*
X00626439Y00187125D01*
X00627196Y00186975D01*
Y00142812D01*
X00626439Y00142661D01*
X00625116Y00141777D01*
X00624232Y00140454D01*
X00623922Y00138893D01*
Y00130893D01*
X00624232Y00129333D01*
X00625116Y00128010D01*
X00626439Y00127126D01*
X00627019Y00127010D01*
X00627133Y00126020D01*
X00617416Y00116304D01*
X00615839D01*
X00614150Y00117155D01*
X00613778Y00117527D01*
X00612033Y00118250D01*
X00610143D01*
X00608397Y00117527D01*
X00607061Y00116191D01*
X00606338Y00114445D01*
Y00112555D01*
X00607061Y00110809D01*
X00608397Y00109473D01*
X00610143Y00108750D01*
X00612033D01*
X00613778Y00109473D01*
X00614150Y00109845D01*
X00615839Y00110696D01*
X00618578D01*
X00619651Y00110910D01*
X00620560Y00111517D01*
X00631983Y00122940D01*
X00632590Y00123849D01*
X00632804Y00124922D01*
Y00126975D01*
X00633561Y00127126D01*
X00634884Y00128010D01*
X00635768Y00129333D01*
X00636078Y00130893D01*
Y00138893D01*
X00635768Y00140454D01*
X00634884Y00141777D01*
X00633561Y00142661D01*
X00632804Y00142812D01*
Y00186975D01*
X00633561Y00187125D01*
X00634884Y00188010D01*
X00635768Y00189333D01*
X00636078Y00190893D01*
Y00198893D01*
X00635768Y00200454D01*
X00634884Y00201777D01*
X00633561Y00202661D01*
X00632000Y00202972D01*
D02*
G37*
G36*
X00030000Y00133833D02*
X00026618Y00133500D01*
X00023367Y00132514D01*
X00020370Y00130912D01*
X00017743Y00128757D01*
X00015588Y00126130D01*
X00013986Y00123133D01*
X00013000Y00119882D01*
X00012666Y00116500D01*
X00013000Y00113118D01*
X00013986Y00109867D01*
X00015588Y00106870D01*
X00017743Y00104243D01*
X00020370Y00102088D01*
X00023367Y00100486D01*
X00026618Y00099500D01*
X00030000Y00099167D01*
X00033382Y00099500D01*
X00036633Y00100486D01*
X00039630Y00102088D01*
X00042257Y00104243D01*
X00044412Y00106870D01*
X00046014Y00109867D01*
X00047000Y00113118D01*
X00047333Y00116500D01*
X00047000Y00119882D01*
X00046014Y00123133D01*
X00044412Y00126130D01*
X00042257Y00128757D01*
X00039630Y00130912D01*
X00036633Y00132514D01*
X00033382Y00133500D01*
X00030000Y00133833D01*
D02*
G37*
G36*
X00216945Y00066750D02*
X00215055D01*
X00213309Y00066027D01*
X00211973Y00064691D01*
X00211250Y00062945D01*
Y00061055D01*
X00211973Y00059309D01*
X00213309Y00057973D01*
X00215055Y00057250D01*
X00216945D01*
X00218691Y00057973D01*
X00220027Y00059309D01*
X00220750Y00061055D01*
Y00062945D01*
X00220027Y00064691D01*
X00218691Y00066027D01*
X00216945Y00066750D01*
D02*
G37*
G36*
X00033500Y00093000D02*
X00009500Y00093000D01*
X00009500Y00054000D01*
X00033500D01*
X00033500Y00093000D01*
D02*
G37*
G36*
X00089945Y00057750D02*
X00088055D01*
X00086309Y00057027D01*
X00084973Y00055691D01*
X00084250Y00053945D01*
Y00052055D01*
X00084973Y00050309D01*
X00086309Y00048973D01*
X00088055Y00048250D01*
X00089945D01*
X00091691Y00048973D01*
X00093027Y00050309D01*
X00093750Y00052055D01*
Y00053945D01*
X00093027Y00055691D01*
X00091691Y00057027D01*
X00089945Y00057750D01*
D02*
G37*
G36*
X00064445D02*
X00062555D01*
X00060809Y00057027D01*
X00059473Y00055691D01*
X00058750Y00053945D01*
Y00052055D01*
X00059473Y00050309D01*
X00060809Y00048973D01*
X00062555Y00048250D01*
X00064445D01*
X00066191Y00048973D01*
X00067527Y00050309D01*
X00068250Y00052055D01*
Y00053945D01*
X00067527Y00055691D01*
X00066191Y00057027D01*
X00064445Y00057750D01*
D02*
G37*
G36*
X00140945Y00055250D02*
X00139055D01*
X00137309Y00054527D01*
X00135973Y00053191D01*
X00135250Y00051445D01*
Y00049555D01*
X00135973Y00047809D01*
X00137309Y00046473D01*
X00139055Y00045750D01*
X00140945D01*
X00142691Y00046473D01*
X00144027Y00047809D01*
X00144750Y00049555D01*
Y00051445D01*
X00144027Y00053191D01*
X00142691Y00054527D01*
X00140945Y00055250D01*
D02*
G37*
G36*
X00114945Y00055250D02*
X00113055D01*
X00111309Y00054527D01*
X00109973Y00053191D01*
X00109250Y00051445D01*
Y00049555D01*
X00109973Y00047809D01*
X00111309Y00046473D01*
X00113055Y00045750D01*
X00114945D01*
X00116691Y00046473D01*
X00118027Y00047809D01*
X00118750Y00049555D01*
Y00051445D01*
X00118027Y00053191D01*
X00116691Y00054527D01*
X00114945Y00055250D01*
D02*
G37*
G36*
X00191445Y00054750D02*
X00189555D01*
X00187809Y00054027D01*
X00186473Y00052691D01*
X00185750Y00050945D01*
Y00049055D01*
X00186473Y00047309D01*
X00187809Y00045973D01*
X00189555Y00045250D01*
X00191445D01*
X00193191Y00045973D01*
X00194527Y00047309D01*
X00195250Y00049055D01*
Y00050945D01*
X00194527Y00052691D01*
X00193191Y00054027D01*
X00191445Y00054750D01*
D02*
G37*
G36*
X00166445D02*
X00164555D01*
X00162809Y00054027D01*
X00161473Y00052691D01*
X00160750Y00050945D01*
Y00049055D01*
X00161473Y00047309D01*
X00162809Y00045973D01*
X00164555Y00045250D01*
X00166445D01*
X00168191Y00045973D01*
X00169527Y00047309D01*
X00170250Y00049055D01*
Y00050945D01*
X00169527Y00052691D01*
X00168191Y00054027D01*
X00166445Y00054750D01*
D02*
G37*
G36*
X00434473Y00038585D02*
Y00028073D01*
X00443051D01*
Y00029573D01*
X00442741Y00031923D01*
X00441834Y00034112D01*
X00440392Y00035992D01*
X00438512Y00037434D01*
X00436323Y00038341D01*
X00434473Y00038585D01*
D02*
G37*
G36*
X00409073D02*
Y00028073D01*
X00417651D01*
Y00029573D01*
X00417341Y00031923D01*
X00416435Y00034112D01*
X00414992Y00035992D01*
X00413112Y00037434D01*
X00410923Y00038341D01*
X00409073Y00038585D01*
D02*
G37*
G36*
X00404073D02*
X00402224Y00038341D01*
X00400034Y00037434D01*
X00398154Y00035992D01*
X00396712Y00034112D01*
X00395805Y00031923D01*
X00395495Y00029573D01*
Y00028073D01*
X00404073D01*
Y00038585D01*
D02*
G37*
G36*
X00429473D02*
X00427624Y00038341D01*
X00425434Y00037434D01*
X00423554Y00035992D01*
X00422112Y00034112D01*
X00421205Y00031923D01*
X00420895Y00029573D01*
Y00028073D01*
X00429473D01*
Y00038585D01*
D02*
G37*
G36*
X00623445Y00063750D02*
X00621555D01*
X00619809Y00063027D01*
X00618473Y00061691D01*
X00617750Y00059945D01*
Y00058055D01*
X00618473Y00056309D01*
X00619809Y00054973D01*
X00621555Y00054250D01*
X00623445D01*
X00625191Y00054973D01*
X00625563Y00055345D01*
X00627251Y00056196D01*
X00628339D01*
X00632369Y00052166D01*
Y00050366D01*
X00631929Y00050071D01*
X00630934Y00048583D01*
X00630585Y00046827D01*
Y00037160D01*
X00629138Y00036561D01*
X00627467Y00035279D01*
X00626185Y00033607D01*
X00625379Y00031661D01*
X00625104Y00029573D01*
Y00021573D01*
X00625379Y00019485D01*
X00626185Y00017538D01*
X00627467Y00015867D01*
X00629138Y00014585D01*
X00631085Y00013779D01*
X00633173Y00013504D01*
X00637173D01*
X00639261Y00013779D01*
X00641208Y00014585D01*
X00642879Y00015867D01*
X00644161Y00017538D01*
X00644967Y00019485D01*
X00645242Y00021573D01*
Y00029573D01*
X00644967Y00031661D01*
X00644161Y00033607D01*
X00642879Y00035279D01*
X00641208Y00036561D01*
X00639761Y00037160D01*
Y00046827D01*
X00639412Y00048583D01*
X00638417Y00050071D01*
X00637977Y00050366D01*
Y00053327D01*
X00637763Y00054400D01*
X00637156Y00055310D01*
X00631483Y00060983D01*
X00630573Y00061590D01*
X00629500Y00061804D01*
X00627251D01*
X00625563Y00062655D01*
X00625191Y00063027D01*
X00623445Y00063750D01*
D02*
G37*
G36*
X00597945Y00061250D02*
X00596055D01*
X00594309Y00060527D01*
X00592973Y00059191D01*
X00592250Y00057445D01*
Y00055555D01*
X00592973Y00053809D01*
X00594309Y00052473D01*
X00596055Y00051750D01*
X00597945D01*
X00599691Y00052473D01*
X00600063Y00052845D01*
X00601751Y00053696D01*
X00603839D01*
X00606368Y00051167D01*
X00606529Y00050071D01*
X00605534Y00048583D01*
X00605185Y00046827D01*
Y00037160D01*
X00603739Y00036561D01*
X00602067Y00035279D01*
X00600785Y00033607D01*
X00599979Y00031661D01*
X00599704Y00029573D01*
Y00021573D01*
X00599979Y00019485D01*
X00600785Y00017538D01*
X00602067Y00015867D01*
X00603739Y00014585D01*
X00605685Y00013779D01*
X00607773Y00013504D01*
X00611773D01*
X00613861Y00013779D01*
X00615807Y00014585D01*
X00617479Y00015867D01*
X00618761Y00017538D01*
X00619567Y00019485D01*
X00619842Y00021573D01*
Y00029573D01*
X00619567Y00031661D01*
X00618761Y00033607D01*
X00617479Y00035279D01*
X00615807Y00036561D01*
X00614361Y00037160D01*
Y00046827D01*
X00614012Y00048583D01*
X00613017Y00050071D01*
X00612577Y00050366D01*
Y00051727D01*
X00612364Y00052800D01*
X00611756Y00053710D01*
X00606983Y00058483D01*
X00606073Y00059090D01*
X00605000Y00059304D01*
X00601751D01*
X00600063Y00060155D01*
X00599691Y00060527D01*
X00597945Y00061250D01*
D02*
G37*
G36*
X00383173Y00037642D02*
X00379173D01*
X00377085Y00037367D01*
X00375139Y00036561D01*
X00373467Y00035279D01*
X00372185Y00033607D01*
X00371379Y00031661D01*
X00371104Y00029573D01*
Y00021573D01*
X00371379Y00019485D01*
X00372185Y00017538D01*
X00373467Y00015867D01*
X00375139Y00014585D01*
X00377085Y00013779D01*
X00379173Y00013504D01*
X00383173D01*
X00385261Y00013779D01*
X00387207Y00014585D01*
X00388879Y00015867D01*
X00390161Y00017538D01*
X00390967Y00019485D01*
X00391242Y00021573D01*
Y00029573D01*
X00390967Y00031661D01*
X00390161Y00033607D01*
X00388879Y00035279D01*
X00387207Y00036561D01*
X00385261Y00037367D01*
X00383173Y00037642D01*
D02*
G37*
G36*
X00295500Y00139800D02*
X00293999Y00139602D01*
X00292600Y00139023D01*
X00291399Y00138101D01*
Y00138101D01*
X00290477Y00136900D01*
X00289898Y00135501D01*
X00289700Y00134000D01*
Y00111000D01*
X00289898Y00109499D01*
X00290477Y00108100D01*
X00291399Y00106899D01*
X00322177Y00076121D01*
Y00057800D01*
X00310000D01*
X00308499Y00057602D01*
X00307100Y00057023D01*
X00305899Y00056101D01*
X00300872Y00051074D01*
X00299950Y00049873D01*
X00299371Y00048474D01*
X00299173Y00046973D01*
Y00036658D01*
X00298939Y00036561D01*
X00297267Y00035279D01*
X00295985Y00033607D01*
X00295179Y00031661D01*
X00294904Y00029573D01*
Y00021573D01*
X00295179Y00019485D01*
X00295985Y00017538D01*
X00297267Y00015867D01*
X00298939Y00014585D01*
X00300885Y00013779D01*
X00302973Y00013504D01*
X00306973D01*
X00309061Y00013779D01*
X00311007Y00014585D01*
X00312679Y00015867D01*
X00313961Y00017538D01*
X00314767Y00019485D01*
X00315042Y00021573D01*
Y00029573D01*
X00314767Y00031661D01*
X00313961Y00033607D01*
X00312679Y00035279D01*
X00311007Y00036561D01*
X00310773Y00036658D01*
Y00044571D01*
X00312402Y00046200D01*
X00347598D01*
X00349973Y00043825D01*
Y00036658D01*
X00349739Y00036561D01*
X00348067Y00035279D01*
X00346785Y00033607D01*
X00345979Y00031661D01*
X00345704Y00029573D01*
Y00021573D01*
X00345979Y00019485D01*
X00346785Y00017538D01*
X00348067Y00015867D01*
X00349739Y00014585D01*
X00351685Y00013779D01*
X00353773Y00013504D01*
X00357773D01*
X00359861Y00013779D01*
X00361808Y00014585D01*
X00363479Y00015867D01*
X00364761Y00017538D01*
X00365567Y00019485D01*
X00365842Y00021573D01*
Y00029573D01*
X00365567Y00031661D01*
X00364761Y00033607D01*
X00363479Y00035279D01*
X00361808Y00036561D01*
X00361573Y00036658D01*
Y00046227D01*
X00361375Y00047728D01*
X00360796Y00049127D01*
X00359874Y00050328D01*
X00354101Y00056101D01*
X00352900Y00057023D01*
X00351501Y00057602D01*
X00350000Y00057800D01*
X00333776D01*
Y00078524D01*
X00333578Y00080025D01*
X00332999Y00081424D01*
X00332077Y00082625D01*
X00301300Y00113402D01*
Y00134000D01*
X00301102Y00135501D01*
X00300523Y00136900D01*
X00299601Y00138101D01*
X00298400Y00139023D01*
X00297001Y00139602D01*
X00295500Y00139800D01*
D02*
G37*
G36*
X00332373Y00037642D02*
X00328373D01*
X00326285Y00037367D01*
X00324338Y00036561D01*
X00322667Y00035279D01*
X00321385Y00033607D01*
X00320579Y00031661D01*
X00320304Y00029573D01*
Y00021573D01*
X00320579Y00019485D01*
X00321385Y00017538D01*
X00322667Y00015867D01*
X00324338Y00014585D01*
X00326285Y00013779D01*
X00328373Y00013504D01*
X00332373D01*
X00334461Y00013779D01*
X00336408Y00014585D01*
X00338079Y00015867D01*
X00339361Y00017538D01*
X00340167Y00019485D01*
X00340442Y00021573D01*
Y00029573D01*
X00340167Y00031661D01*
X00339361Y00033607D01*
X00338079Y00035279D01*
X00336408Y00036561D01*
X00334461Y00037367D01*
X00332373Y00037642D01*
D02*
G37*
G36*
X00281573D02*
X00277573D01*
X00275485Y00037367D01*
X00273538Y00036561D01*
X00271867Y00035279D01*
X00270585Y00033607D01*
X00269779Y00031661D01*
X00269504Y00029573D01*
Y00021573D01*
X00269779Y00019485D01*
X00270585Y00017538D01*
X00271867Y00015867D01*
X00273538Y00014585D01*
X00275485Y00013779D01*
X00277573Y00013504D01*
X00281573D01*
X00283661Y00013779D01*
X00285607Y00014585D01*
X00287279Y00015867D01*
X00288561Y00017538D01*
X00289367Y00019485D01*
X00289642Y00021573D01*
Y00029573D01*
X00289367Y00031661D01*
X00288561Y00033607D01*
X00287279Y00035279D01*
X00285607Y00036561D01*
X00283661Y00037367D01*
X00281573Y00037642D01*
D02*
G37*
G36*
X00233945Y00120250D02*
X00232055D01*
X00230309Y00119527D01*
X00228973Y00118191D01*
X00228250Y00116445D01*
Y00114555D01*
X00228973Y00112809D01*
X00229345Y00112437D01*
X00230196Y00110749D01*
Y00075161D01*
X00226790Y00071756D01*
X00226183Y00070846D01*
X00225969Y00069773D01*
Y00050366D01*
X00225529Y00050071D01*
X00224534Y00048583D01*
X00224185Y00046827D01*
Y00037160D01*
X00222738Y00036561D01*
X00221067Y00035279D01*
X00219785Y00033607D01*
X00218979Y00031661D01*
X00218704Y00029573D01*
Y00021573D01*
X00218979Y00019485D01*
X00219785Y00017538D01*
X00221067Y00015867D01*
X00222738Y00014585D01*
X00224685Y00013779D01*
X00226773Y00013504D01*
X00230773D01*
X00232861Y00013779D01*
X00234807Y00014585D01*
X00236479Y00015867D01*
X00237761Y00017538D01*
X00238567Y00019485D01*
X00238842Y00021573D01*
Y00029573D01*
X00238567Y00031661D01*
X00237761Y00033607D01*
X00236479Y00035279D01*
X00234807Y00036561D01*
X00233361Y00037160D01*
Y00046827D01*
X00233012Y00048583D01*
X00232017Y00050071D01*
X00231577Y00050366D01*
Y00068612D01*
X00234983Y00072017D01*
X00235590Y00072927D01*
X00235804Y00074000D01*
Y00110749D01*
X00236655Y00112437D01*
X00237027Y00112809D01*
X00237750Y00114555D01*
Y00116445D01*
X00237027Y00118191D01*
X00235691Y00119527D01*
X00233945Y00120250D01*
D02*
G37*
G36*
X00220945Y00114750D02*
X00219055D01*
X00217309Y00114027D01*
X00215973Y00112691D01*
X00215250Y00110945D01*
Y00109055D01*
X00215973Y00107309D01*
X00216345Y00106937D01*
X00217196Y00105249D01*
Y00084661D01*
X00201390Y00068856D01*
X00200783Y00067946D01*
X00200569Y00066873D01*
Y00050366D01*
X00200129Y00050071D01*
X00199134Y00048583D01*
X00198785Y00046827D01*
Y00037160D01*
X00197339Y00036561D01*
X00195667Y00035279D01*
X00194385Y00033607D01*
X00193579Y00031661D01*
X00193304Y00029573D01*
Y00021573D01*
X00193579Y00019485D01*
X00194385Y00017538D01*
X00195667Y00015867D01*
X00197339Y00014585D01*
X00199285Y00013779D01*
X00201373Y00013504D01*
X00205373D01*
X00207461Y00013779D01*
X00209408Y00014585D01*
X00211079Y00015867D01*
X00212361Y00017538D01*
X00213167Y00019485D01*
X00213442Y00021573D01*
Y00029573D01*
X00213167Y00031661D01*
X00212361Y00033607D01*
X00211079Y00035279D01*
X00209408Y00036561D01*
X00207961Y00037160D01*
Y00046827D01*
X00207612Y00048583D01*
X00206617Y00050071D01*
X00206177Y00050366D01*
Y00065712D01*
X00221983Y00081517D01*
X00222591Y00082427D01*
X00222804Y00083500D01*
Y00105249D01*
X00223655Y00106937D01*
X00224027Y00107309D01*
X00224750Y00109055D01*
Y00110945D01*
X00224027Y00112691D01*
X00222691Y00114027D01*
X00220945Y00114750D01*
D02*
G37*
G36*
X00197945Y00107250D02*
X00196055D01*
X00194309Y00106527D01*
X00192973Y00105191D01*
X00192250Y00103445D01*
Y00101555D01*
X00192973Y00099809D01*
X00193345Y00099437D01*
X00194196Y00097748D01*
Y00087661D01*
X00175990Y00069456D01*
X00175383Y00068546D01*
X00175169Y00067473D01*
Y00050366D01*
X00174729Y00050071D01*
X00173734Y00048583D01*
X00173385Y00046827D01*
Y00037160D01*
X00171938Y00036561D01*
X00170267Y00035279D01*
X00168985Y00033607D01*
X00168179Y00031661D01*
X00167904Y00029573D01*
Y00021573D01*
X00168179Y00019485D01*
X00168985Y00017538D01*
X00170267Y00015867D01*
X00171938Y00014585D01*
X00173885Y00013779D01*
X00175973Y00013504D01*
X00179973D01*
X00182061Y00013779D01*
X00184007Y00014585D01*
X00185679Y00015867D01*
X00186961Y00017538D01*
X00187767Y00019485D01*
X00188042Y00021573D01*
Y00029573D01*
X00187767Y00031661D01*
X00186961Y00033607D01*
X00185679Y00035279D01*
X00184007Y00036561D01*
X00182561Y00037160D01*
Y00046827D01*
X00182212Y00048583D01*
X00181217Y00050071D01*
X00180777Y00050366D01*
Y00066312D01*
X00198983Y00084517D01*
X00199590Y00085427D01*
X00199804Y00086500D01*
Y00097748D01*
X00200655Y00099437D01*
X00201027Y00099809D01*
X00201750Y00101555D01*
Y00103445D01*
X00201027Y00105191D01*
X00199691Y00106527D01*
X00197945Y00107250D01*
D02*
G37*
G36*
X00173445Y00107250D02*
X00171555D01*
X00169809Y00106527D01*
X00168473Y00105191D01*
X00167750Y00103445D01*
Y00101555D01*
X00168473Y00099809D01*
X00168845Y00099437D01*
X00169696Y00097749D01*
Y00087741D01*
X00150590Y00068636D01*
X00149983Y00067726D01*
X00149769Y00066653D01*
Y00050366D01*
X00149329Y00050071D01*
X00148334Y00048583D01*
X00147985Y00046827D01*
Y00037160D01*
X00146538Y00036561D01*
X00144867Y00035279D01*
X00143585Y00033607D01*
X00142779Y00031661D01*
X00142504Y00029573D01*
Y00021573D01*
X00142779Y00019485D01*
X00143585Y00017538D01*
X00144867Y00015867D01*
X00146538Y00014585D01*
X00148485Y00013779D01*
X00150573Y00013504D01*
X00154573D01*
X00156661Y00013779D01*
X00158608Y00014585D01*
X00160279Y00015867D01*
X00161561Y00017538D01*
X00162367Y00019485D01*
X00162642Y00021573D01*
Y00029573D01*
X00162367Y00031661D01*
X00161561Y00033607D01*
X00160279Y00035279D01*
X00158608Y00036561D01*
X00157161Y00037160D01*
Y00046827D01*
X00156812Y00048583D01*
X00155817Y00050071D01*
X00155377Y00050366D01*
Y00065491D01*
X00174483Y00084597D01*
X00175090Y00085507D01*
X00175304Y00086580D01*
Y00097749D01*
X00176155Y00099437D01*
X00176527Y00099809D01*
X00177250Y00101555D01*
Y00103445D01*
X00176527Y00105191D01*
X00175191Y00106527D01*
X00173445Y00107250D01*
D02*
G37*
G36*
X00140945Y00105250D02*
X00139055D01*
X00137309Y00104527D01*
X00135973Y00103191D01*
X00135250Y00101445D01*
Y00099555D01*
X00135973Y00097809D01*
X00136345Y00097437D01*
X00137196Y00095749D01*
Y00081661D01*
X00125190Y00069656D01*
X00124583Y00068746D01*
X00124369Y00067673D01*
Y00050366D01*
X00123929Y00050071D01*
X00122934Y00048583D01*
X00122585Y00046827D01*
Y00037160D01*
X00121138Y00036561D01*
X00119467Y00035279D01*
X00118185Y00033607D01*
X00117379Y00031661D01*
X00117104Y00029573D01*
Y00021573D01*
X00117379Y00019485D01*
X00118185Y00017538D01*
X00119467Y00015867D01*
X00121138Y00014585D01*
X00123085Y00013779D01*
X00125173Y00013504D01*
X00129173D01*
X00131261Y00013779D01*
X00133208Y00014585D01*
X00134879Y00015867D01*
X00136161Y00017538D01*
X00136967Y00019485D01*
X00137242Y00021573D01*
Y00029573D01*
X00136967Y00031661D01*
X00136161Y00033607D01*
X00134879Y00035279D01*
X00133208Y00036561D01*
X00131761Y00037160D01*
Y00046827D01*
X00131412Y00048583D01*
X00130417Y00050071D01*
X00129977Y00050366D01*
Y00066512D01*
X00141983Y00078517D01*
X00142590Y00079427D01*
X00142804Y00080500D01*
Y00095749D01*
X00143655Y00097437D01*
X00144027Y00097809D01*
X00144750Y00099555D01*
Y00101445D01*
X00144027Y00103191D01*
X00142691Y00104527D01*
X00140945Y00105250D01*
D02*
G37*
G36*
X00115945D02*
X00114055D01*
X00112309Y00104527D01*
X00110973Y00103191D01*
X00110250Y00101445D01*
Y00099555D01*
X00110973Y00097809D01*
X00111345Y00097437D01*
X00112196Y00095749D01*
Y00072661D01*
X00099790Y00060256D01*
X00099183Y00059346D01*
X00098969Y00058273D01*
Y00050366D01*
X00098529Y00050071D01*
X00097534Y00048583D01*
X00097185Y00046827D01*
Y00037160D01*
X00095738Y00036561D01*
X00094067Y00035279D01*
X00092785Y00033607D01*
X00091979Y00031661D01*
X00091704Y00029573D01*
Y00021573D01*
X00091979Y00019485D01*
X00092785Y00017538D01*
X00094067Y00015867D01*
X00095738Y00014585D01*
X00097685Y00013779D01*
X00099773Y00013504D01*
X00103773D01*
X00105861Y00013779D01*
X00107808Y00014585D01*
X00109479Y00015867D01*
X00110761Y00017538D01*
X00111567Y00019485D01*
X00111842Y00021573D01*
Y00029573D01*
X00111567Y00031661D01*
X00110761Y00033607D01*
X00109479Y00035279D01*
X00107808Y00036561D01*
X00106361Y00037160D01*
Y00046827D01*
X00106012Y00048583D01*
X00105017Y00050071D01*
X00104577Y00050366D01*
Y00057112D01*
X00116983Y00069517D01*
X00117590Y00070427D01*
X00117804Y00071500D01*
Y00095749D01*
X00118655Y00097437D01*
X00119027Y00097809D01*
X00119750Y00099555D01*
Y00101445D01*
X00119027Y00103191D01*
X00117691Y00104527D01*
X00115945Y00105250D01*
D02*
G37*
G36*
X00099445D02*
X00097555D01*
X00095809Y00104527D01*
X00094473Y00103191D01*
X00093750Y00101445D01*
Y00099555D01*
X00094473Y00097809D01*
X00094845Y00097437D01*
X00095696Y00095749D01*
Y00078161D01*
X00074390Y00056856D01*
X00073783Y00055946D01*
X00073569Y00054873D01*
Y00050366D01*
X00073129Y00050071D01*
X00072134Y00048583D01*
X00071785Y00046827D01*
Y00037160D01*
X00070339Y00036561D01*
X00068667Y00035279D01*
X00067385Y00033607D01*
X00066579Y00031661D01*
X00066304Y00029573D01*
Y00021573D01*
X00066579Y00019485D01*
X00067385Y00017538D01*
X00068667Y00015867D01*
X00070339Y00014585D01*
X00072285Y00013779D01*
X00074373Y00013504D01*
X00078373D01*
X00080461Y00013779D01*
X00082408Y00014585D01*
X00084079Y00015867D01*
X00085361Y00017538D01*
X00086167Y00019485D01*
X00086442Y00021573D01*
Y00029573D01*
X00086167Y00031661D01*
X00085361Y00033607D01*
X00084079Y00035279D01*
X00082408Y00036561D01*
X00080961Y00037160D01*
Y00046827D01*
X00080612Y00048583D01*
X00079617Y00050071D01*
X00079177Y00050366D01*
Y00053712D01*
X00100483Y00075017D01*
X00101090Y00075927D01*
X00101304Y00077000D01*
Y00095749D01*
X00102155Y00097437D01*
X00102527Y00097809D01*
X00103250Y00099555D01*
Y00101445D01*
X00102527Y00103191D01*
X00101191Y00104527D01*
X00099445Y00105250D01*
D02*
G37*
G36*
X00085945Y00105250D02*
X00084055D01*
X00082309Y00104527D01*
X00080973Y00103191D01*
X00080250Y00101445D01*
Y00099555D01*
X00080973Y00097809D01*
X00081345Y00097437D01*
X00082196Y00095749D01*
Y00090508D01*
X00048990Y00057302D01*
X00048383Y00056392D01*
X00048169Y00055319D01*
Y00050366D01*
X00047729Y00050071D01*
X00046734Y00048583D01*
X00046385Y00046827D01*
Y00037160D01*
X00044939Y00036561D01*
X00043267Y00035279D01*
X00041985Y00033607D01*
X00041179Y00031661D01*
X00040904Y00029573D01*
Y00021573D01*
X00041179Y00019485D01*
X00041985Y00017538D01*
X00043267Y00015867D01*
X00044939Y00014585D01*
X00046885Y00013779D01*
X00048973Y00013504D01*
X00052973D01*
X00055061Y00013779D01*
X00057007Y00014585D01*
X00058679Y00015867D01*
X00059961Y00017538D01*
X00060767Y00019485D01*
X00061042Y00021573D01*
Y00029573D01*
X00060767Y00031661D01*
X00059961Y00033607D01*
X00058679Y00035279D01*
X00057007Y00036561D01*
X00055561Y00037160D01*
Y00046827D01*
X00055212Y00048583D01*
X00054217Y00050071D01*
X00053777Y00050366D01*
Y00054158D01*
X00086983Y00087364D01*
X00087590Y00088273D01*
X00087804Y00089347D01*
Y00095749D01*
X00088655Y00097437D01*
X00089027Y00097809D01*
X00089750Y00099555D01*
Y00101445D01*
X00089027Y00103191D01*
X00087691Y00104527D01*
X00085945Y00105250D01*
D02*
G37*
G36*
X00443051Y00023073D02*
X00434473D01*
Y00012561D01*
X00436323Y00012805D01*
X00438512Y00013712D01*
X00440392Y00015154D01*
X00441834Y00017034D01*
X00442741Y00019224D01*
X00443051Y00021573D01*
Y00023073D01*
D02*
G37*
G36*
X00417651D02*
X00409073D01*
Y00012561D01*
X00410923Y00012805D01*
X00413112Y00013712D01*
X00414992Y00015154D01*
X00416435Y00017034D01*
X00417341Y00019224D01*
X00417651Y00021573D01*
Y00023073D01*
D02*
G37*
G36*
X00429473D02*
X00420895D01*
Y00021573D01*
X00421205Y00019224D01*
X00422112Y00017034D01*
X00423554Y00015154D01*
X00425434Y00013712D01*
X00427624Y00012805D01*
X00429473Y00012561D01*
Y00023073D01*
D02*
G37*
G36*
X00404073D02*
X00395495D01*
Y00021573D01*
X00395805Y00019224D01*
X00396712Y00017034D01*
X00398154Y00015154D01*
X00400034Y00013712D01*
X00402224Y00012805D01*
X00404073Y00012561D01*
Y00023073D01*
D02*
G37*
G36*
X00459373Y00038651D02*
X00455373D01*
X00453024Y00038341D01*
X00450834Y00037434D01*
X00448954Y00035992D01*
X00447512Y00034112D01*
X00446605Y00031923D01*
X00446295Y00029573D01*
Y00021573D01*
X00446605Y00019224D01*
X00447512Y00017034D01*
X00448954Y00015154D01*
X00450834Y00013712D01*
X00453024Y00012805D01*
X00455373Y00012495D01*
X00459373D01*
X00461722Y00012805D01*
X00463912Y00013712D01*
X00465792Y00015154D01*
X00467234Y00017034D01*
X00468141Y00019224D01*
X00468451Y00021573D01*
Y00029573D01*
X00468141Y00031923D01*
X00467234Y00034112D01*
X00465792Y00035992D01*
X00463912Y00037434D01*
X00461722Y00038341D01*
X00459373Y00038651D01*
D02*
G37*
%LPD*%
G36*
X00109000Y00352500D02*
Y00344500D01*
X00106500Y00342000D01*
X00090500D01*
X00086500Y00346000D01*
X00082108D01*
X00081269Y00346561D01*
X00080001Y00346813D01*
X00073000D01*
X00072969Y00346807D01*
X00070846D01*
X00070787Y00347253D01*
X00069956Y00349260D01*
X00068634Y00350983D01*
X00068299Y00351240D01*
X00068892Y00353029D01*
X00069041Y00353192D01*
X00077062D01*
X00078208Y00353420D01*
X00078239Y00353441D01*
X00081499D01*
X00081499Y00353441D01*
X00082670Y00353673D01*
X00083159Y00354000D01*
X00085500Y00354000D01*
X00087500Y00356000D01*
X00105500Y00356000D01*
X00109000Y00352500D01*
D02*
G37*
G36*
X00468252Y00344750D02*
Y00343250D01*
X00465920Y00342075D01*
Y00345925D01*
X00468252Y00344750D01*
D02*
G37*
G36*
X00471973Y00333250D02*
X00469250Y00330527D01*
X00468432Y00333007D01*
X00469493Y00334068D01*
X00471973Y00333250D01*
D02*
G37*
G36*
X00526796Y00331250D02*
X00526796Y00329750D01*
X00524464Y00328575D01*
X00524464Y00332425D01*
X00526796Y00331250D01*
D02*
G37*
G36*
X00533796Y00325750D02*
X00533796Y00324250D01*
X00531464Y00323075D01*
X00531464Y00326925D01*
X00533796Y00325750D01*
D02*
G37*
G36*
X00477036Y00323075D02*
X00474704Y00324250D01*
Y00325750D01*
X00477036Y00326925D01*
Y00323075D01*
D02*
G37*
G36*
X00453860Y00330788D02*
X00453477Y00329864D01*
X00414060D01*
X00412987Y00329650D01*
X00412077Y00329042D01*
X00405839Y00322804D01*
X00399918D01*
X00399750Y00323055D01*
Y00324945D01*
X00399027Y00326691D01*
X00397691Y00328027D01*
X00395945Y00328750D01*
X00394055D01*
X00392678Y00328180D01*
X00392016Y00328988D01*
X00392753Y00330092D01*
X00393083Y00331750D01*
D01*
X00387500D01*
Y00334250D01*
X00393083D01*
Y00334250D01*
X00392753Y00335908D01*
X00391814Y00337314D01*
X00391242Y00337696D01*
X00391546Y00338696D01*
X00445951D01*
X00453860Y00330788D01*
D02*
G37*
G36*
X00470011Y00317600D02*
X00467695Y00318785D01*
X00467715Y00320285D01*
X00470061Y00321450D01*
X00470011Y00317600D01*
D02*
G37*
G36*
X00526796Y00320250D02*
X00526796Y00318750D01*
X00524464Y00317575D01*
X00524464Y00321425D01*
X00526796Y00320250D01*
D02*
G37*
G36*
X00477036Y00312075D02*
X00474704Y00313250D01*
Y00314750D01*
X00477036Y00315925D01*
Y00312075D01*
D02*
G37*
G36*
X00533796Y00314750D02*
X00533796Y00313250D01*
X00531464Y00312075D01*
X00531464Y00315925D01*
X00533796Y00314750D01*
D02*
G37*
G36*
X00470036Y00306575D02*
X00467704Y00307750D01*
Y00309250D01*
X00470036Y00310425D01*
Y00306575D01*
D02*
G37*
G36*
X00526796Y00309250D02*
X00526796Y00307750D01*
X00524464Y00306575D01*
X00524464Y00310425D01*
X00526796Y00309250D01*
D02*
G37*
G36*
X00477036Y00301075D02*
X00474704Y00302250D01*
Y00303750D01*
X00477036Y00304925D01*
Y00301075D01*
D02*
G37*
G36*
X00533796Y00303750D02*
Y00302250D01*
X00531464Y00301075D01*
Y00304925D01*
X00533796Y00303750D01*
D02*
G37*
G36*
X00470036Y00295575D02*
X00467704Y00296750D01*
Y00298250D01*
X00470036Y00299425D01*
Y00295575D01*
D02*
G37*
G36*
X00526796Y00298250D02*
Y00296750D01*
X00524464Y00295575D01*
Y00299425D01*
X00526796Y00298250D01*
D02*
G37*
G36*
X00533796Y00292750D02*
X00533796Y00291250D01*
X00531464Y00290075D01*
X00531464Y00293925D01*
X00533796Y00292750D01*
D02*
G37*
G36*
X00477036Y00290075D02*
X00474704Y00291250D01*
Y00292750D01*
X00477036Y00293925D01*
Y00290075D01*
D02*
G37*
G36*
X00332826Y00321700D02*
X00332988Y00321309D01*
X00334324Y00319973D01*
X00336070Y00319250D01*
X00337960D01*
X00339706Y00319973D01*
X00340164Y00320431D01*
X00342391D01*
X00342407Y00320407D01*
X00342941Y00320050D01*
Y00318000D01*
X00342941Y00318000D01*
X00343174Y00316829D01*
X00343837Y00315837D01*
X00346941Y00312733D01*
Y00306850D01*
X00346946Y00306825D01*
Y00303600D01*
X00347160Y00302527D01*
X00347767Y00301617D01*
X00348677Y00301010D01*
X00349750Y00300796D01*
X00350250D01*
X00351323Y00301010D01*
X00352000Y00301462D01*
X00352677Y00301010D01*
X00353750Y00300796D01*
X00354250D01*
X00355323Y00301010D01*
X00356000Y00301462D01*
X00356677Y00301010D01*
X00357750Y00300796D01*
X00358250D01*
X00359323Y00301010D01*
X00360000Y00301462D01*
X00360677Y00301010D01*
X00361750Y00300796D01*
X00362250D01*
X00363323Y00301010D01*
X00364000Y00301462D01*
X00364677Y00301010D01*
X00365750Y00300796D01*
X00366250D01*
X00367323Y00301010D01*
X00368000Y00301462D01*
X00368677Y00301010D01*
X00369750Y00300796D01*
X00370250D01*
X00371323Y00301010D01*
X00372000Y00301462D01*
X00372677Y00301010D01*
X00373750Y00300796D01*
X00374250D01*
X00375323Y00301010D01*
X00376000Y00301462D01*
X00376677Y00301010D01*
X00377750Y00300796D01*
X00378250D01*
X00379323Y00301010D01*
X00380000Y00301462D01*
X00380677Y00301010D01*
X00381750Y00300796D01*
X00382250D01*
X00383323Y00301010D01*
X00384000Y00301462D01*
X00384677Y00301010D01*
X00385750Y00300796D01*
X00386250D01*
X00386316Y00300809D01*
X00387299Y00299985D01*
X00387410Y00299427D01*
X00388017Y00298517D01*
X00389517Y00297017D01*
X00390427Y00296410D01*
X00391500Y00296196D01*
X00402500D01*
X00403573Y00296410D01*
X00403744Y00296523D01*
X00403840Y00296522D01*
X00404521Y00295840D01*
X00404510Y00295823D01*
X00404296Y00294750D01*
Y00294250D01*
X00404510Y00293177D01*
X00404962Y00292500D01*
X00404510Y00291823D01*
X00404296Y00290750D01*
Y00290250D01*
X00404331Y00290077D01*
X00403696Y00289304D01*
X00401000D01*
X00399927Y00289090D01*
X00399017Y00288483D01*
X00396090Y00285555D01*
X00395090Y00285970D01*
Y00286900D01*
X00394733Y00288695D01*
X00393716Y00290216D01*
X00392195Y00291233D01*
X00390400Y00291590D01*
X00377250D01*
Y00272500D01*
Y00253410D01*
X00390400D01*
X00392195Y00253767D01*
X00393716Y00254784D01*
X00394733Y00256305D01*
X00395090Y00258100D01*
Y00263957D01*
X00395922Y00264513D01*
X00396555Y00264250D01*
X00398445D01*
X00400191Y00264973D01*
X00400563Y00265345D01*
X00402452Y00266297D01*
X00403017Y00266410D01*
X00403034Y00266421D01*
X00404078Y00266104D01*
X00404396Y00265454D01*
X00403568Y00264213D01*
X00403475Y00263750D01*
X00405891D01*
X00406027Y00263659D01*
X00407100Y00263446D01*
X00410350D01*
Y00261554D01*
X00407100D01*
X00406027Y00261341D01*
X00405891Y00261250D01*
X00403475D01*
X00403568Y00260787D01*
X00404396Y00259546D01*
X00404448Y00259512D01*
X00404296Y00258750D01*
Y00258250D01*
X00404510Y00257177D01*
X00404962Y00256500D01*
X00404510Y00255823D01*
X00404296Y00254750D01*
Y00254250D01*
X00404510Y00253177D01*
X00404962Y00252500D01*
X00404510Y00251823D01*
X00404296Y00250750D01*
Y00250250D01*
X00404510Y00249177D01*
X00404962Y00248500D01*
X00404510Y00247823D01*
X00404372Y00247133D01*
X00404121Y00247183D01*
X00402879D01*
X00401806Y00246969D01*
X00400896Y00246361D01*
X00400017Y00245483D01*
X00399410Y00244573D01*
X00399295Y00243996D01*
X00398250Y00244204D01*
X00397750D01*
X00396677Y00243990D01*
X00396000Y00243538D01*
X00395323Y00243990D01*
X00394250Y00244204D01*
X00393750D01*
X00392677Y00243990D01*
X00392000Y00243538D01*
X00391323Y00243990D01*
X00390250Y00244204D01*
X00389750D01*
X00388677Y00243990D01*
X00388000Y00243538D01*
X00387323Y00243990D01*
X00386250Y00244204D01*
X00385750D01*
X00384677Y00243990D01*
X00384000Y00243538D01*
X00383323Y00243990D01*
X00382250Y00244204D01*
X00381750D01*
X00380677Y00243990D01*
X00380000Y00243538D01*
X00379323Y00243990D01*
X00378250Y00244204D01*
X00377750D01*
X00376677Y00243990D01*
X00376000Y00243538D01*
X00375323Y00243990D01*
X00374250Y00244204D01*
X00373750D01*
X00372677Y00243990D01*
X00372000Y00243538D01*
X00371323Y00243990D01*
X00370250Y00244204D01*
X00369750D01*
X00368677Y00243990D01*
X00368000Y00243538D01*
X00367323Y00243990D01*
X00366250Y00244204D01*
X00365750D01*
X00364677Y00243990D01*
X00364000Y00243538D01*
X00363323Y00243990D01*
X00362250Y00244204D01*
X00361750D01*
X00360677Y00243990D01*
X00360000Y00243538D01*
X00359323Y00243990D01*
X00358250Y00244204D01*
X00357750D01*
X00356677Y00243990D01*
X00356000Y00243538D01*
X00355323Y00243990D01*
X00354250Y00244204D01*
X00353750D01*
X00352677Y00243990D01*
X00352000Y00243538D01*
X00351323Y00243990D01*
X00350250Y00244204D01*
X00349750D01*
X00348677Y00243990D01*
X00347767Y00243383D01*
X00347160Y00242473D01*
X00346946Y00241400D01*
Y00238175D01*
X00346941Y00238150D01*
Y00233247D01*
X00342337Y00228643D01*
X00341674Y00227650D01*
X00341441Y00226480D01*
X00341441Y00226480D01*
Y00224950D01*
X00340907Y00224593D01*
X00340189Y00223518D01*
X00339936Y00222250D01*
Y00219750D01*
X00340189Y00218482D01*
X00340907Y00217407D01*
Y00216796D01*
X00340186Y00216314D01*
X00339247Y00214908D01*
X00338917Y00213250D01*
D01*
X00344500D01*
X00350083D01*
X00349753Y00214908D01*
X00349016Y00216012D01*
X00349678Y00216820D01*
X00351055Y00216250D01*
X00352945D01*
X00354104Y00216730D01*
X00355104Y00216080D01*
Y00208213D01*
X00348017Y00201126D01*
X00347410Y00200216D01*
X00347196Y00199143D01*
Y00169053D01*
X00347410Y00167980D01*
X00348017Y00167070D01*
X00362330Y00152758D01*
X00362107Y00152112D01*
X00361869Y00151804D01*
X00266661D01*
X00244399Y00174066D01*
Y00192934D01*
X00246661Y00195196D01*
X00250879D01*
X00251407Y00194407D01*
X00251864Y00194101D01*
Y00192899D01*
X00251407Y00192593D01*
X00250689Y00191518D01*
X00250436Y00190250D01*
Y00187750D01*
X00250689Y00186482D01*
X00251407Y00185407D01*
X00252482Y00184689D01*
X00253750Y00184436D01*
X00256250D01*
X00257518Y00184689D01*
X00258593Y00185407D01*
X00259121Y00186196D01*
X00260879D01*
X00261407Y00185407D01*
X00262196Y00184879D01*
Y00183500D01*
X00262410Y00182427D01*
X00263017Y00181517D01*
X00266467Y00178067D01*
X00267377Y00177460D01*
X00268450Y00177246D01*
X00284789D01*
X00300017Y00162017D01*
X00300927Y00161410D01*
X00302000Y00161196D01*
X00326500D01*
X00327573Y00161410D01*
X00328483Y00162017D01*
X00336983Y00170517D01*
X00337590Y00171427D01*
X00337804Y00172500D01*
Y00242957D01*
X00338400Y00243446D01*
X00344900D01*
X00345973Y00243660D01*
X00346883Y00244267D01*
X00347490Y00245177D01*
X00347704Y00246250D01*
Y00246750D01*
X00347490Y00247823D01*
X00347038Y00248500D01*
X00347490Y00249177D01*
X00347704Y00250250D01*
Y00250750D01*
X00347490Y00251823D01*
X00347038Y00252500D01*
X00347490Y00253177D01*
X00347704Y00254250D01*
Y00254750D01*
X00347490Y00255823D01*
X00347038Y00256500D01*
X00347490Y00257177D01*
X00347704Y00258250D01*
Y00258750D01*
X00347490Y00259823D01*
X00347038Y00260500D01*
X00347490Y00261177D01*
X00347704Y00262250D01*
Y00262750D01*
X00347490Y00263823D01*
X00347038Y00264500D01*
X00347490Y00265177D01*
X00347704Y00266250D01*
Y00266750D01*
X00347490Y00267823D01*
X00347038Y00268500D01*
X00347490Y00269177D01*
X00347704Y00270250D01*
Y00270750D01*
X00347490Y00271823D01*
X00347038Y00272500D01*
X00347490Y00273177D01*
X00347704Y00274250D01*
Y00274750D01*
X00347490Y00275823D01*
X00347038Y00276500D01*
X00347490Y00277177D01*
X00347704Y00278250D01*
Y00278750D01*
X00347490Y00279823D01*
X00347038Y00280500D01*
X00347490Y00281177D01*
X00347704Y00282250D01*
Y00282750D01*
X00347490Y00283823D01*
X00347038Y00284500D01*
X00347490Y00285177D01*
X00347704Y00286250D01*
Y00286750D01*
X00347490Y00287823D01*
X00347038Y00288500D01*
X00347490Y00289177D01*
X00347704Y00290250D01*
Y00290750D01*
X00347490Y00291823D01*
X00347038Y00292500D01*
X00347490Y00293177D01*
X00347704Y00294250D01*
Y00294750D01*
X00347490Y00295823D01*
X00347038Y00296500D01*
X00347490Y00297177D01*
X00347704Y00298250D01*
Y00298750D01*
X00347490Y00299823D01*
X00346883Y00300733D01*
X00345973Y00301340D01*
X00344900Y00301554D01*
X00341675D01*
X00341650Y00301559D01*
X00337920D01*
X00337285Y00302332D01*
X00337319Y00302500D01*
Y00306963D01*
X00337047Y00308329D01*
X00336273Y00309487D01*
X00331236Y00314523D01*
X00330079Y00315297D01*
X00328713Y00315569D01*
X00325109D01*
X00325093Y00315593D01*
X00325069Y00315609D01*
Y00318391D01*
X00325093Y00318407D01*
X00325811Y00319482D01*
X00326064Y00320750D01*
Y00323250D01*
X00325811Y00324518D01*
X00325214Y00325412D01*
X00325423Y00326072D01*
X00325657Y00326412D01*
X00328114D01*
X00332826Y00321700D01*
D02*
G37*
G36*
X00084961Y00292539D02*
Y00262961D01*
X00079500Y00257500D01*
X00060500Y00257500D01*
X00049500Y00246500D01*
X00038000D01*
X00034500Y00250000D01*
Y00281000D01*
X00032176Y00283324D01*
X00032757Y00285479D01*
X00033027Y00285533D01*
X00034640Y00286610D01*
X00034797Y00286846D01*
X00037203D01*
X00037360Y00286610D01*
X00038973Y00285533D01*
X00040875Y00285154D01*
X00041750D01*
Y00292000D01*
X00043000D01*
Y00293250D01*
X00050096D01*
Y00293875D01*
X00049717Y00295777D01*
X00049568Y00296000D01*
X00050637Y00298000D01*
X00079500D01*
X00084961Y00292539D01*
D02*
G37*
G36*
X00399425Y00278964D02*
X00395575D01*
X00396750Y00281296D01*
X00398250D01*
X00399425Y00278964D01*
D02*
G37*
G36*
X00299654Y00276941D02*
X00299417Y00275750D01*
Y00275750D01*
X00305000D01*
Y00273250D01*
X00299417D01*
Y00273250D01*
X00299747Y00271592D01*
X00300686Y00270186D01*
X00300964Y00270000D01*
Y00269000D01*
X00300686Y00268814D01*
X00299747Y00267408D01*
X00299417Y00265750D01*
Y00265750D01*
X00305000D01*
Y00263250D01*
X00299417D01*
Y00263250D01*
X00299731Y00261670D01*
X00299733Y00261328D01*
X00299575Y00260947D01*
X00299279Y00260492D01*
X00298517Y00259983D01*
X00293797Y00255262D01*
X00292949Y00255828D01*
X00293250Y00256555D01*
Y00258445D01*
X00292527Y00260191D01*
X00291191Y00261527D01*
X00289445Y00262250D01*
X00287555D01*
X00285809Y00261527D01*
X00285569Y00261286D01*
X00284569Y00261594D01*
Y00263890D01*
X00284593Y00263907D01*
X00285311Y00264982D01*
X00285564Y00266250D01*
Y00268750D01*
X00285311Y00270018D01*
X00284593Y00271093D01*
X00283518Y00271811D01*
X00282250Y00272064D01*
X00279750D01*
X00278482Y00271811D01*
X00277407Y00271093D01*
X00276796D01*
X00276314Y00271814D01*
X00274908Y00272753D01*
X00273668Y00273000D01*
Y00274020D01*
X00274518Y00274189D01*
X00275593Y00274907D01*
X00275899Y00275364D01*
X00277101D01*
X00277407Y00274907D01*
X00278482Y00274189D01*
X00279750Y00273936D01*
X00282250D01*
X00283518Y00274189D01*
X00284593Y00274907D01*
X00284950Y00275441D01*
X00288535D01*
X00288535Y00275441D01*
X00289705Y00275674D01*
X00290698Y00276337D01*
X00292302Y00277941D01*
X00298992D01*
X00299654Y00276941D01*
D02*
G37*
G36*
X00401796Y00269750D02*
Y00268250D01*
X00399464Y00267075D01*
Y00270925D01*
X00401796Y00269750D01*
D02*
G37*
G36*
X00152000Y00345500D02*
Y00318500D01*
X00147500Y00314000D01*
Y00293500D01*
X00160000Y00281000D01*
X00178000D01*
X00187000Y00272000D01*
X00187000Y00243500D01*
X00184000Y00240500D01*
X00178000Y00240500D01*
X00176059Y00242441D01*
Y00259000D01*
X00176059Y00259000D01*
X00175826Y00260170D01*
X00175826Y00260170D01*
Y00260170D01*
X00175163Y00261163D01*
X00175163Y00261163D01*
X00173163Y00263163D01*
X00173163D01*
X00173163Y00263163D01*
X00172569Y00263559D01*
X00172171Y00263826D01*
X00172171Y00263826D01*
X00172171Y00263826D01*
X00171778Y00263904D01*
X00171000Y00264059D01*
X00171000Y00264059D01*
X00165000Y00264059D01*
X00165000Y00264059D01*
X00163829Y00263826D01*
X00163500Y00263606D01*
X00162837Y00263163D01*
X00162837Y00263163D01*
X00162674Y00263000D01*
X00147500D01*
X00141500Y00257000D01*
X00119000Y00257000D01*
X00112539Y00263461D01*
Y00309500D01*
X00112500Y00309697D01*
Y00313500D01*
X00120500Y00321500D01*
Y00346500D01*
X00126500Y00352500D01*
X00145000D01*
X00152000Y00345500D01*
D02*
G37*
G36*
X00443973Y00220750D02*
X00441250Y00218027D01*
X00440432Y00220507D01*
X00441493Y00221568D01*
X00443973Y00220750D01*
D02*
G37*
G36*
X00437962Y00214739D02*
X00435240Y00212017D01*
X00434422Y00214497D01*
X00435482Y00215557D01*
X00437962Y00214739D01*
D02*
G37*
G36*
X00442983Y00199075D02*
X00440652Y00200250D01*
Y00201750D01*
X00442983Y00202925D01*
Y00199075D01*
D02*
G37*
G36*
X00449983Y00193575D02*
X00447651Y00194750D01*
Y00196250D01*
X00449983Y00197425D01*
Y00193575D01*
D02*
G37*
G36*
X00326196Y00248500D02*
Y00176147D01*
X00322853Y00172804D01*
X00305647D01*
X00304299Y00174151D01*
Y00175464D01*
X00308333Y00179497D01*
X00308940Y00180407D01*
X00309154Y00181480D01*
Y00182379D01*
X00309943Y00182907D01*
X00310661Y00183982D01*
X00310914Y00185250D01*
Y00192750D01*
X00310661Y00194018D01*
X00309943Y00195093D01*
X00308868Y00195811D01*
X00308368Y00195911D01*
X00308466Y00196911D01*
X00314578D01*
X00314881Y00195911D01*
X00314736Y00195814D01*
X00313797Y00194408D01*
X00313467Y00192750D01*
Y00190250D01*
X00319050D01*
X00324633D01*
Y00192750D01*
X00324303Y00194408D01*
X00323364Y00195814D01*
X00321958Y00196753D01*
X00321806Y00196784D01*
X00321595Y00197845D01*
X00322230Y00198270D01*
X00323236Y00199775D01*
X00323589Y00201550D01*
Y00230450D01*
X00323236Y00232225D01*
X00322230Y00233730D01*
X00320725Y00234736D01*
X00319718Y00234936D01*
X00319816Y00235936D01*
X00320300D01*
X00321568Y00236189D01*
X00322643Y00236907D01*
X00323361Y00237982D01*
X00323614Y00239250D01*
Y00246750D01*
X00323361Y00248018D01*
X00323242Y00248196D01*
X00323777Y00249196D01*
X00325625D01*
X00326196Y00248500D01*
D02*
G37*
G36*
X00442983Y00188075D02*
X00440652Y00189250D01*
Y00190750D01*
X00442983Y00191925D01*
Y00188075D01*
D02*
G37*
G36*
X00449483Y00182575D02*
X00447151Y00183750D01*
Y00185250D01*
X00449483Y00186425D01*
Y00182575D01*
D02*
G37*
G36*
X00442983Y00177075D02*
X00440652Y00178250D01*
Y00179750D01*
X00442983Y00180925D01*
Y00177075D01*
D02*
G37*
G36*
X00449983Y00171575D02*
X00447651Y00172750D01*
Y00174250D01*
X00449983Y00175425D01*
Y00171575D01*
D02*
G37*
G36*
X00443036Y00159575D02*
X00440704Y00160750D01*
Y00162250D01*
X00443036Y00163425D01*
Y00159575D01*
D02*
G37*
G36*
X00450036Y00154075D02*
X00447704Y00155250D01*
Y00156750D01*
X00450036Y00157925D01*
Y00154075D01*
D02*
G37*
G36*
X00443036Y00148575D02*
X00440704Y00149750D01*
Y00151250D01*
X00443036Y00152425D01*
Y00148575D01*
D02*
G37*
G36*
X00449536Y00143075D02*
X00447204Y00144250D01*
Y00145750D01*
X00449536Y00146925D01*
Y00143075D01*
D02*
G37*
G36*
X00443036Y00137575D02*
X00440704Y00138750D01*
Y00140250D01*
X00443036Y00141425D01*
Y00137575D01*
D02*
G37*
G36*
X00450036Y00132075D02*
X00447704Y00133250D01*
Y00134750D01*
X00450036Y00135925D01*
Y00132075D01*
D02*
G37*
G36*
X00443036Y00126575D02*
X00440704Y00127750D01*
Y00129250D01*
X00443036Y00130425D01*
Y00126575D01*
D02*
G37*
G36*
X00151500Y00206500D02*
X00151500Y00186000D01*
X00161500Y00176000D01*
X00170500Y00176000D01*
X00182500Y00164000D01*
X00182500Y00126500D01*
X00179000Y00123000D01*
X00147500Y00123000D01*
X00139000Y00131500D01*
X00139000Y00138500D01*
X00116000Y00161500D01*
X00116000Y00200500D01*
X00128000Y00212500D01*
X00145500Y00212500D01*
X00151500Y00206500D01*
D02*
G37*
G36*
X00173000Y00259000D02*
Y00241000D01*
X00182500Y00231500D01*
X00214000Y00231500D01*
X00232000Y00213500D01*
X00232000Y00177000D01*
X00224500Y00169500D01*
Y00127000D01*
X00219500Y00122000D01*
X00196500Y00122000D01*
X00189000Y00129500D01*
X00189000Y00184000D01*
X00194000Y00189000D01*
X00194000Y00206500D01*
X00185500Y00215000D01*
X00182190Y00215000D01*
X00181257Y00215250D01*
X00179743D01*
X00178810Y00215000D01*
X00176045D01*
X00173190Y00215000D01*
X00172257Y00215250D01*
X00170743D01*
X00169810Y00215000D01*
X00169000D01*
X00162000Y00222000D01*
X00162000Y00230735D01*
X00162000Y00240000D01*
X00162000Y00258000D01*
X00165000Y00261000D01*
X00171000Y00261000D01*
X00173000Y00259000D01*
D02*
G37*
G36*
X00450036Y00121075D02*
X00447704Y00122250D01*
Y00123750D01*
X00450036Y00124925D01*
Y00121075D01*
D02*
G37*
G36*
X00443036Y00115575D02*
X00440704Y00116750D01*
Y00118250D01*
X00443036Y00119425D01*
Y00115575D01*
D02*
G37*
G36*
X00591425Y00112964D02*
X00587575Y00112964D01*
X00588750Y00115296D01*
X00590250Y00115296D01*
X00591425Y00112964D01*
D02*
G37*
G36*
X00580425Y00112964D02*
X00576575Y00112964D01*
X00577750Y00115296D01*
X00579250Y00115296D01*
X00580425Y00112964D01*
D02*
G37*
G36*
X00558425Y00112964D02*
X00554575Y00112964D01*
X00555750Y00115296D01*
X00557250Y00115296D01*
X00558425Y00112964D01*
D02*
G37*
G36*
X00569425Y00112964D02*
X00565575Y00112964D01*
X00566750Y00115296D01*
X00568250Y00115296D01*
X00569425Y00112964D01*
D02*
G37*
G36*
X00585925Y00105964D02*
X00582075Y00105964D01*
X00583250Y00108296D01*
X00584750Y00108296D01*
X00585925Y00105964D01*
D02*
G37*
G36*
X00574925D02*
X00571075Y00105964D01*
X00572250Y00108296D01*
X00573750Y00108296D01*
X00574925Y00105964D01*
D02*
G37*
G36*
X00552925D02*
X00549075Y00105964D01*
X00550250Y00108296D01*
X00551750Y00108296D01*
X00552925Y00105964D01*
D02*
G37*
G36*
X00563925Y00105964D02*
X00560075Y00105964D01*
X00561250Y00108296D01*
X00562750Y00108296D01*
X00563925Y00105964D01*
D02*
G37*
G36*
X00495973Y00058750D02*
X00493250Y00056027D01*
X00492432Y00058507D01*
X00493493Y00059568D01*
X00495973Y00058750D01*
D02*
G37*
G36*
X00398296Y00050750D02*
Y00049250D01*
X00395964Y00048075D01*
Y00051925D01*
X00398296Y00050750D01*
D02*
G37*
%LPC*%
G36*
X00374750Y00291590D02*
X00361600D01*
X00359805Y00291233D01*
X00358284Y00290216D01*
X00357267Y00288695D01*
X00356910Y00286900D01*
Y00273750D01*
X00374750D01*
Y00291590D01*
D02*
G37*
G36*
Y00271250D02*
X00356910D01*
Y00258100D01*
X00357267Y00256305D01*
X00358284Y00254784D01*
X00359805Y00253767D01*
X00361600Y00253410D01*
X00374750D01*
Y00271250D01*
D02*
G37*
G36*
X00350083Y00210750D02*
X00345750D01*
Y00206417D01*
X00347408Y00206747D01*
X00348814Y00207686D01*
X00349753Y00209092D01*
X00350083Y00210750D01*
Y00210750D01*
D02*
G37*
G36*
X00343250D02*
X00338917D01*
Y00210750D01*
X00339247Y00209092D01*
X00340186Y00207686D01*
X00341592Y00206747D01*
X00343250Y00206417D01*
X00343250D01*
Y00210750D01*
D02*
G37*
G36*
X00050096Y00290750D02*
X00044250D01*
Y00285154D01*
X00045125D01*
X00047027Y00285533D01*
X00048640Y00286610D01*
X00049717Y00288223D01*
X00050096Y00290125D01*
Y00290750D01*
D02*
G37*
G36*
X00324633Y00187750D02*
X00320300D01*
Y00180917D01*
X00321958Y00181247D01*
X00323364Y00182186D01*
X00324303Y00183592D01*
X00324633Y00185250D01*
Y00187750D01*
D02*
G37*
G36*
X00317800D02*
X00313467D01*
Y00185250D01*
X00313797Y00183592D01*
X00314736Y00182186D01*
X00316142Y00181247D01*
X00317800Y00180917D01*
X00317800D01*
Y00187750D01*
D02*
G37*
G36*
X00141500Y00207999D02*
Y00190000D01*
X00148565D01*
Y00200500D01*
X00148307Y00202458D01*
X00147551Y00204282D01*
X00146349Y00205849D01*
X00144782Y00207051D01*
X00142958Y00207807D01*
X00141500Y00207999D01*
D02*
G37*
G36*
X00131500D02*
X00130042Y00207807D01*
X00128218Y00207051D01*
X00126651Y00205849D01*
X00125449Y00204282D01*
X00124693Y00202458D01*
X00124435Y00200500D01*
Y00190000D01*
X00131500D01*
Y00207999D01*
D02*
G37*
G36*
X00148565Y00180000D02*
X00141500D01*
Y00162001D01*
X00142958Y00162193D01*
X00144782Y00162949D01*
X00146349Y00164151D01*
X00147551Y00165718D01*
X00148307Y00167542D01*
X00148565Y00169500D01*
Y00180000D01*
D02*
G37*
G36*
X00131500D02*
X00124435D01*
Y00169500D01*
X00124693Y00167542D01*
X00125449Y00165718D01*
X00126651Y00164151D01*
X00128218Y00162949D01*
X00130042Y00162193D01*
X00131500Y00162001D01*
Y00180000D01*
D02*
G37*
%LPD*%
G36*
X00624425Y00458464D02*
X00620575D01*
X00621750Y00460796D01*
X00623250D01*
X00624425Y00458464D01*
D02*
G37*
G36*
X00533796Y00344750D02*
Y00343250D01*
X00531464Y00342075D01*
Y00345925D01*
X00533796Y00344750D01*
D02*
G37*
G36*
X00532296Y00260750D02*
Y00259250D01*
X00529964Y00258075D01*
Y00261925D01*
X00532296Y00260750D01*
D02*
G37*
G36*
X00528750Y00247204D02*
X00527250D01*
X00526075Y00249536D01*
X00529925D01*
X00528750Y00247204D01*
D02*
G37*
G36*
X00640250Y00225204D02*
X00638750D01*
X00637575Y00227536D01*
X00641425D01*
X00640250Y00225204D01*
D02*
G37*
G36*
X00615383Y00114250D02*
Y00112750D01*
X00613051Y00111575D01*
Y00115425D01*
X00615383Y00114250D01*
D02*
G37*
G36*
X00626796Y00059750D02*
Y00058250D01*
X00624464Y00057075D01*
Y00060925D01*
X00626796Y00059750D01*
D02*
G37*
G36*
X00601296Y00057250D02*
Y00055750D01*
X00598964Y00054575D01*
Y00058425D01*
X00601296Y00057250D01*
D02*
G37*
G36*
X00233750Y00111204D02*
X00232250D01*
X00231075Y00113536D01*
X00234925D01*
X00233750Y00111204D01*
D02*
G37*
G36*
X00220750Y00105704D02*
X00219250D01*
X00218075Y00108036D01*
X00221925D01*
X00220750Y00105704D01*
D02*
G37*
G36*
X00197750Y00098204D02*
X00196250D01*
X00195075Y00100536D01*
X00198925D01*
X00197750Y00098204D01*
D02*
G37*
G36*
X00173250Y00098204D02*
X00171750D01*
X00170575Y00100536D01*
X00174425D01*
X00173250Y00098204D01*
D02*
G37*
G36*
X00140750Y00096204D02*
X00139250D01*
X00138075Y00098536D01*
X00141925D01*
X00140750Y00096204D01*
D02*
G37*
G36*
X00115750D02*
X00114250D01*
X00113075Y00098536D01*
X00116925D01*
X00115750Y00096204D01*
D02*
G37*
G36*
X00099250D02*
X00097750D01*
X00096575Y00098536D01*
X00100425D01*
X00099250Y00096204D01*
D02*
G37*
G36*
X00085750Y00096204D02*
X00084250D01*
X00083075Y00098536D01*
X00086925D01*
X00085750Y00096204D01*
D02*
G37*
D11*
X00079499Y00405499D02*
Y00407499D01*
X00078499Y00404499D02*
X00079499Y00405499D01*
X00081000Y00409000D02*
X00086000D01*
X00079499Y00407499D02*
X00081000Y00409000D01*
X00073000Y00399499D02*
X00083000D01*
X00079999Y00396499D02*
X00083000Y00399500D01*
X00073000Y00396499D02*
X00079999D01*
X00238810Y00475500D02*
X00238933Y00475623D01*
X00226500Y00475500D02*
X00238810D01*
X00073000Y00404499D02*
X00078499D01*
X00073000Y00407499D02*
X00079499D01*
X00073000Y00340499D02*
X00082999D01*
X00083000Y00340500D01*
X00080001Y00343499D02*
X00083000Y00340500D01*
X00073000Y00343499D02*
X00080001D01*
X00282465Y00306250D02*
X00295750D01*
X00281000Y00304785D02*
X00282465Y00306250D01*
X00281000Y00300000D02*
Y00304785D01*
X00026500Y00063000D02*
Y00066332D01*
Y00064666D01*
X00016503D01*
X00018169Y00063000D01*
D12*
X00388000Y00260500D02*
X00390000Y00262500D01*
X00226500Y00475500D02*
X00226500Y00475500D01*
X00201000Y00475500D02*
X00226500D01*
X00066150Y00371499D02*
X00073000D01*
X00064000Y00373649D02*
Y00380000D01*
Y00373649D02*
X00066150Y00371499D01*
X00065499Y00381499D02*
X00073000D01*
X00064000Y00380000D02*
X00065499Y00381499D01*
X00080906Y00376499D02*
X00085000D01*
X00073000D02*
X00080906D01*
Y00368406D02*
Y00376499D01*
X00078999Y00366499D02*
X00080906Y00368406D01*
X00073000Y00366499D02*
X00078999D01*
X00079750Y00381750D02*
X00085000D01*
X00079499Y00381499D02*
X00079750Y00381750D01*
X00073000Y00381499D02*
X00079499D01*
X00080499Y00386499D02*
X00086000Y00392000D01*
X00091000D01*
X00073000Y00386499D02*
X00080499D01*
X00086745Y00361745D02*
X00090745D01*
X00091000Y00362000D01*
X00081499Y00356499D02*
X00086745Y00361745D01*
X00073000Y00356499D02*
X00081499D01*
X00259500Y00300000D02*
X00272000D01*
X00261000Y00320000D02*
X00271014D01*
X00277829Y00326815D01*
X00261000Y00339000D02*
X00271542D01*
X00277829Y00326815D02*
Y00332713D01*
X00271542Y00339000D02*
X00277829Y00332713D01*
X00387500Y00315500D02*
Y00324000D01*
X00386000Y00314000D02*
X00387500Y00315500D01*
X00386000Y00306850D02*
Y00314000D01*
X00276509Y00252270D02*
X00280950D01*
X00271837Y00199995D02*
Y00247598D01*
X00276509Y00252270D01*
X00265000Y00198000D02*
X00269842D01*
X00271837Y00199995D01*
X00012000Y00072500D02*
X00031000Y00072500D01*
X00012000Y00072500D02*
X00012000Y00056500D01*
X00031000D01*
Y00072500D01*
X00281000Y00289000D02*
X00287343D01*
X00291343Y00285000D01*
X00281000Y00278500D02*
X00288535D01*
X00291035Y00281000D01*
X00302500Y00306250D02*
X00320250D01*
X00321500Y00300500D02*
X00321500Y00300500D01*
X00321500Y00300500D02*
Y00305000D01*
X00320250Y00306250D02*
X00321500Y00305000D01*
X00326000Y00264500D02*
X00332000Y00270500D01*
X00328500Y00281000D02*
X00330000Y00282500D01*
X00314000Y00274500D02*
X00314000Y00274500D01*
X00321500Y00274500D02*
X00321500Y00274500D01*
X00314000D02*
X00321500D01*
X00321500D02*
X00332800D01*
X00291035Y00281000D02*
X00328500D01*
X00291343Y00285000D02*
X00326500D01*
X00328000Y00286500D01*
X00314000Y00290500D02*
X00321500D01*
X00341650D01*
X00332800Y00274500D02*
Y00277300D01*
Y00274500D02*
X00341650D01*
X00332800Y00277300D02*
X00334000Y00278500D01*
X00341650D01*
X00330000Y00282500D02*
X00341650D01*
X00328000Y00286500D02*
X00341650D01*
X00333750Y00300232D02*
Y00302500D01*
Y00300232D02*
X00335482Y00298500D01*
X00314000Y00264500D02*
X00321500D01*
X00326000D01*
X00327000Y00300500D02*
X00333000Y00294500D01*
X00321500Y00300500D02*
X00327000D01*
X00350000Y00306850D02*
Y00314000D01*
X00346000Y00318000D02*
Y00324000D01*
X00333000Y00294500D02*
X00341650D01*
X00335482Y00298500D02*
X00341650D01*
X00346000Y00318000D02*
X00350000Y00314000D01*
X00424000Y00284500D02*
X00429500D01*
Y00274500D02*
X00429755Y00274755D01*
X00426000Y00274500D02*
X00429500D01*
X00386000Y00221000D02*
Y00238150D01*
X00390000Y00262500D02*
X00410350D01*
Y00278500D02*
X00418000D01*
X00421000Y00281500D01*
X00424000Y00284500D01*
X00332000Y00270500D02*
X00341650D01*
X00410350Y00274500D02*
X00417000D01*
X00425000Y00273500D02*
X00426000Y00274500D01*
X00421500Y00273500D02*
X00425000D01*
X00418000D02*
X00421500D01*
X00417000Y00274500D02*
X00418000Y00273500D01*
X00344500Y00226480D02*
X00350000Y00231980D01*
X00344500Y00221000D02*
Y00226480D01*
X00350000Y00231980D02*
Y00238150D01*
D13*
X00361157Y00204317D02*
Y00225877D01*
X00355500Y00198659D02*
X00361157Y00204317D01*
X00355500Y00171331D02*
Y00198659D01*
X00394000Y00050000D02*
X00455500D01*
X00486591Y00081091D01*
X00124000Y00488000D02*
X00128395Y00483605D01*
X00172895D02*
X00202164Y00454336D01*
X00128395Y00483605D02*
X00172895D01*
X00230000Y00420000D02*
Y00439000D01*
X00253500Y00396500D02*
X00293000D01*
X00214664Y00454336D02*
X00230000Y00439000D01*
X00202164Y00454336D02*
X00214664D01*
X00230000Y00420000D02*
X00253500Y00396500D01*
X00213533Y00483867D02*
X00214900Y00482500D01*
X00213533Y00483867D02*
Y00489500D01*
X00218400Y00482500D02*
X00220400Y00484500D01*
X00214900Y00482500D02*
X00218400D01*
X00220400Y00484500D02*
X00226400D01*
X00195000D02*
X00201000D01*
X00189500Y00482500D02*
X00193000D01*
X00195000Y00484500D01*
X00188133Y00483867D02*
Y00489500D01*
Y00483867D02*
X00189500Y00482500D01*
X00101773Y00058273D02*
X00115000Y00071500D01*
X00101773Y00046827D02*
Y00058273D01*
X00076373Y00054873D02*
X00098500Y00077000D01*
X00076373Y00046827D02*
Y00054873D01*
X00127173Y00067673D02*
X00140000Y00080500D01*
X00127173Y00046827D02*
Y00067673D01*
X00177973Y00067473D02*
X00197000Y00086500D01*
X00177973Y00046827D02*
Y00067473D01*
X00203373Y00046827D02*
Y00066873D01*
X00220000Y00083500D01*
X00228773Y00046827D02*
Y00069773D01*
X00233000Y00074000D01*
Y00115500D01*
X00220000Y00083500D02*
Y00110000D01*
X00197000Y00086500D02*
Y00102500D01*
X00140000Y00080500D02*
Y00100500D01*
X00115000Y00071500D02*
Y00100500D01*
X00050973Y00046827D02*
Y00055319D01*
X00085000Y00089347D01*
Y00100500D01*
X00098500Y00077000D02*
Y00100500D01*
X00152573Y00066653D02*
X00172500Y00086580D01*
X00152573Y00046827D02*
Y00066653D01*
X00172500Y00086580D02*
Y00102500D01*
X00107893Y00488000D02*
X00124000D01*
X00397500Y00269000D02*
X00401944D01*
X00403335Y00270390D02*
Y00280596D01*
X00401944Y00269000D02*
X00403335Y00270390D01*
Y00280596D02*
X00405238Y00282500D01*
X00410350D01*
X00397500Y00283000D02*
X00401000Y00286500D01*
X00382000Y00306850D02*
Y00339000D01*
X00384500Y00341500D01*
X00407000Y00320000D02*
X00414060Y00327060D01*
X00458834D01*
X00408500Y00316500D02*
X00414659Y00322659D01*
X00457041D01*
X00401000Y00316500D02*
X00408500D01*
X00415719Y00318259D02*
X00455639D01*
X00410461Y00313000D02*
X00415719Y00318259D01*
X00403000Y00313000D02*
X00410461D01*
X00394000Y00314500D02*
X00399500Y00320000D01*
X00407000D01*
X00417575Y00314075D02*
X00453675D01*
X00402500Y00299000D02*
X00417575Y00314075D01*
X00398000Y00313500D02*
X00401000Y00316500D01*
X00402000Y00306850D02*
Y00312000D01*
X00403000Y00313000D01*
X00384500Y00341500D02*
X00447113D01*
X00456864Y00331749D02*
X00461257D01*
X00447113Y00341500D02*
X00456864Y00331749D01*
X00381500Y00346000D02*
X00450000D01*
X00459995Y00336005D02*
X00466495D01*
X00450000Y00346000D02*
X00459995Y00336005D01*
X00611000Y00283500D02*
Y00306000D01*
X00573000Y00344000D02*
X00611000Y00306000D01*
X00529500Y00344000D02*
X00573000D01*
X00611000Y00283500D02*
X00614927Y00279573D01*
X00639500Y00222000D02*
Y00229500D01*
Y00222000D02*
X00642000Y00219500D01*
X00649178Y00266908D02*
X00651630Y00269360D01*
X00649178Y00242178D02*
Y00266908D01*
X00646500Y00239500D02*
X00649178Y00242178D01*
X00614927Y00279573D02*
X00622000D01*
X00482334Y00378500D02*
X00515635Y00345200D01*
X00366887Y00378500D02*
X00482334Y00378500D01*
X00515635Y00084365D02*
Y00345200D01*
X00369165Y00373000D02*
X00480056Y00373000D01*
X00510391Y00342665D01*
Y00081089D02*
Y00342665D01*
X00470500Y00344000D02*
X00486591Y00327909D01*
X00463957Y00344000D02*
X00470500D01*
X00610950Y00083500D02*
X00646500Y00119050D01*
X00642000Y00120914D02*
Y00219500D01*
X00542000Y00083500D02*
X00610950D01*
X00646500Y00119050D02*
Y00239500D01*
X00543864Y00088000D02*
X00609086D01*
X00642000Y00120914D01*
X00618578Y00113500D02*
X00630000Y00124922D01*
X00611088Y00113500D02*
X00618578D01*
X00630000Y00124922D02*
Y00194893D01*
X00532500Y00099364D02*
X00543864Y00088000D01*
X00528000Y00097500D02*
X00542000Y00083500D01*
X00532500Y00245500D02*
X00535563Y00248563D01*
Y00257937D01*
X00533500Y00260000D02*
X00535563Y00257937D01*
X00532500Y00099364D02*
Y00245500D01*
X00486591Y00081091D02*
Y00282645D01*
X00488000Y00064000D02*
X00496000Y00056000D01*
X00589500Y00111000D02*
Y00294947D01*
X00584000Y00104000D02*
Y00292669D01*
X00578500Y00111000D02*
Y00290391D01*
X00573000Y00104000D02*
Y00288113D01*
X00562000Y00104000D02*
Y00283556D01*
X00567500Y00111000D02*
Y00285835D01*
X00556500Y00111000D02*
Y00281278D01*
X00551000Y00104000D02*
Y00279000D01*
X00553947Y00330500D02*
X00589500Y00294947D01*
X00551669Y00325000D02*
X00584000Y00292669D01*
X00549391Y00319500D02*
X00578500Y00290391D01*
X00547113Y00314000D02*
X00573000Y00288113D01*
X00542556Y00303000D02*
X00562000Y00283556D01*
X00544835Y00308500D02*
X00567500Y00285835D01*
X00540278Y00297500D02*
X00556500Y00281278D01*
X00538000Y00292000D02*
X00551000Y00279000D01*
X00528000Y00097500D02*
Y00251500D01*
X00529500Y00292000D02*
X00538000D01*
X00522500Y00330500D02*
X00553947D01*
X00529500Y00325000D02*
X00551669D01*
X00529500Y00314000D02*
X00547113D01*
X00529500Y00303000D02*
X00542556D01*
X00523000Y00308500D02*
X00544835D01*
X00522500Y00297500D02*
X00540278D01*
X00523000Y00319500D02*
X00549391D01*
X00515635Y00084365D02*
X00525500Y00074500D01*
X00510391Y00081089D02*
X00522980Y00068500D01*
X00477778Y00367500D02*
X00505577Y00339701D01*
Y00077059D02*
X00519135Y00063500D01*
X00505577Y00077059D02*
Y00339701D01*
X00500810Y00073253D02*
Y00336690D01*
X00475500Y00362000D02*
X00500810Y00336690D01*
Y00073253D02*
X00508173Y00065890D01*
X00496000Y00065500D02*
Y00333778D01*
X00472778Y00357000D02*
X00496000Y00333778D01*
X00491465Y00077776D02*
Y00330535D01*
X00488000Y00074311D02*
X00491465Y00077776D01*
X00470500Y00351500D02*
X00491465Y00330535D01*
X00427602Y00309602D02*
X00452433D01*
X00416500Y00298500D02*
X00427602Y00309602D01*
X00452433D02*
X00464535Y00297500D01*
X00453675Y00314075D02*
X00464750Y00303000D01*
X00455639Y00318259D02*
X00465398Y00308500D01*
X00457041Y00322659D02*
X00465700Y00314000D01*
X00458834Y00327060D02*
X00466359Y00319536D01*
X00461257Y00331749D02*
X00468006Y00325000D01*
X00466495Y00336005D02*
X00472000Y00330500D01*
X00450855Y00305122D02*
X00463977Y00292000D01*
X00418378Y00294500D02*
X00429000Y00305122D01*
X00450855D01*
X00468006Y00325000D02*
X00479000D01*
X00466359Y00319536D02*
X00471964D01*
X00465700Y00314000D02*
X00479000D01*
X00465398Y00308500D02*
X00472000D01*
X00464750Y00303000D02*
X00479000D01*
X00464535Y00297500D02*
X00472000D01*
X00471964Y00319536D02*
X00472000Y00319500D01*
X00431000Y00301000D02*
X00449000D01*
X00467355Y00282645D02*
X00486591D01*
X00449000Y00301000D02*
X00467355Y00282645D01*
X00463977Y00292000D02*
X00479000D01*
X00410350Y00294500D02*
X00418378D01*
X00486591Y00282645D02*
Y00327909D01*
X00429500Y00299500D02*
X00431000Y00301000D01*
X00429500Y00294500D02*
Y00299500D01*
X00378000Y00342500D02*
X00381500Y00346000D01*
X00378000Y00306850D02*
Y00342500D01*
X00374000Y00346000D02*
X00379500Y00351500D01*
X00470500Y00351500D01*
X00374000Y00306850D02*
Y00346000D01*
X00370000Y00349778D02*
X00377222Y00357000D01*
X00472778Y00357000D01*
X00362000Y00306850D02*
Y00358056D01*
X00371444Y00367500D01*
X00354000Y00365613D02*
X00366887Y00378500D01*
X00366000Y00354278D02*
X00373722Y00362000D01*
X00475500Y00362000D01*
X00358000Y00361834D02*
X00369165Y00373000D01*
X00370000Y00306850D02*
Y00349778D01*
X00354000Y00306850D02*
Y00365613D01*
X00371444Y00367500D02*
X00477778Y00367500D01*
X00358000Y00306850D02*
Y00361834D01*
X00366000Y00306850D02*
Y00354278D01*
X00528000Y00260000D02*
X00533500D01*
X00401000Y00286500D02*
X00410350D01*
X00397500Y00277000D02*
Y00283000D01*
X00241596Y00194095D02*
X00245500Y00198000D01*
X00255000D01*
X00241596Y00172904D02*
Y00194095D01*
Y00172904D02*
X00265500Y00149000D01*
X00362000D01*
X00393500Y00117500D01*
X00445000D01*
X00488000Y00064000D02*
Y00074311D01*
X00597000Y00056500D02*
X00605000D01*
X00622500Y00059000D02*
X00629500D01*
X00635173Y00053327D01*
X00605000Y00056500D02*
X00609773Y00051727D01*
Y00046827D02*
Y00051727D01*
X00635173Y00046827D02*
Y00053327D01*
X00508173Y00046827D02*
Y00065890D01*
X00519135Y00063500D02*
X00526000D01*
X00522980Y00068500D02*
X00544000D01*
X00525500Y00074500D02*
X00565500D01*
X00584373Y00055627D01*
X00544000Y00068500D02*
X00558973Y00053527D01*
X00526000Y00063500D02*
X00533573Y00055927D01*
X00451500Y00145000D02*
X00452000D01*
X00405165D02*
X00451500D01*
X00421907Y00264500D02*
X00429500D01*
X00449500Y00259753D02*
X00450379Y00258874D01*
X00449500Y00259753D02*
Y00264500D01*
X00427405Y00259500D02*
X00431836Y00255069D01*
X00422344Y00259500D02*
X00427405D01*
X00306350Y00250850D02*
X00310500Y00255000D01*
X00326500D01*
X00300500Y00258000D02*
X00325000D01*
X00333500Y00266500D01*
X00390000Y00300500D02*
Y00306850D01*
Y00300500D02*
X00391500Y00299000D01*
X00394000Y00306850D02*
Y00314500D01*
X00391500Y00299000D02*
X00402500D01*
X00398000Y00306850D02*
Y00313500D01*
X00410350Y00298500D02*
X00416500D01*
X00420827Y00290500D02*
X00424827Y00294500D01*
X00429500D01*
X00438500Y00264500D02*
X00449500D01*
X00450379Y00258874D02*
X00457930D01*
X00431836Y00236166D02*
Y00255069D01*
X00457930Y00258874D02*
X00458809Y00257995D01*
X00463778Y00250500D02*
X00464000D01*
X00458809Y00255469D02*
Y00257995D01*
Y00255469D02*
X00463778Y00250500D01*
X00426382Y00231618D02*
Y00249618D01*
X00455000Y00221000D02*
Y00225000D01*
X00454000Y00226000D02*
X00455000Y00225000D01*
X00429222Y00195500D02*
X00451447D01*
X00390000Y00232389D02*
X00401000Y00221389D01*
X00406500Y00194887D02*
Y00221057D01*
X00394000Y00232824D02*
X00399016Y00227809D01*
X00399748D01*
X00406500Y00221057D01*
X00401000Y00192609D02*
Y00221389D01*
X00412000Y00197166D02*
Y00221123D01*
X00401869Y00231254D02*
X00412000Y00221123D01*
X00417500Y00199444D02*
Y00220671D01*
X00423000Y00201722D02*
Y00220369D01*
X00428500Y00204000D02*
Y00220037D01*
X00380646Y00205960D02*
Y00227146D01*
X00382000Y00228500D02*
Y00238150D01*
X00380646Y00227146D02*
X00382000Y00228500D01*
X00388500Y00185000D02*
Y00198106D01*
X00383000Y00182722D02*
Y00197856D01*
X00377500Y00180444D02*
Y00197620D01*
X00380646Y00205960D02*
X00388500Y00198106D01*
X00374000Y00201120D02*
X00377500Y00197620D01*
X00377260Y00203596D02*
X00383000Y00197856D01*
X00370771Y00198107D02*
X00372000Y00196878D01*
Y00178165D02*
Y00196878D01*
X00383000Y00182722D02*
X00409722Y00156000D01*
X00377500Y00180444D02*
X00407444Y00150500D01*
X00388500Y00185000D02*
X00412000Y00161500D01*
X00420109Y00173500D02*
X00451947D01*
X00424665Y00184500D02*
X00451447D01*
X00364197Y00201875D02*
Y00227640D01*
X00366000Y00230668D02*
X00367365Y00229302D01*
Y00198000D02*
Y00229302D01*
X00361000Y00198678D02*
X00364197Y00201875D01*
X00366500Y00175887D02*
Y00197135D01*
X00367365Y00198000D01*
X00370771Y00198107D02*
Y00230729D01*
X00422387Y00179000D02*
X00444947D01*
X00401000Y00192609D02*
X00420109Y00173500D01*
X00406500Y00194887D02*
X00422387Y00179000D01*
X00426944Y00190000D02*
X00444947D01*
X00417500Y00199444D02*
X00426944Y00190000D01*
X00412000Y00197166D02*
X00424665Y00184500D01*
X00423000Y00201722D02*
X00429222Y00195500D01*
X00428500Y00204000D02*
X00431500Y00201000D01*
X00444947D01*
X00374000Y00201120D02*
Y00238150D01*
X00378000Y00229500D02*
Y00238150D01*
X00377260Y00228760D02*
X00378000Y00229500D01*
X00377260Y00203596D02*
Y00228760D01*
X00407625Y00230545D02*
X00417500Y00220671D01*
X00431836Y00236166D02*
X00433502Y00234500D01*
X00419947Y00228590D02*
X00428500Y00220037D01*
X00416649Y00226720D02*
X00423000Y00220369D01*
X00431500Y00221500D02*
X00431500D01*
X00423116Y00229884D02*
X00431500Y00221500D01*
X00426382Y00231618D02*
X00436729Y00221271D01*
X00433502Y00234500D02*
X00442000D01*
X00442000Y00227000D02*
Y00234500D01*
Y00227000D02*
X00443000Y00226000D01*
X00454000D01*
X00442000Y00234500D02*
X00442000Y00234500D01*
X00434000Y00215979D02*
X00437990Y00211990D01*
X00431500Y00221500D02*
X00434000Y00219000D01*
Y00215979D02*
Y00219000D01*
X00436729Y00221271D02*
X00440729D01*
X00444000Y00218000D01*
X00419947Y00228590D02*
Y00246224D01*
X00416649Y00226720D02*
Y00245039D01*
X00417500Y00258500D02*
X00426382Y00249618D01*
X00372000Y00178165D02*
X00405165Y00145000D01*
X00366500Y00175887D02*
X00402887Y00139500D01*
X00361000Y00173609D02*
X00400609Y00134000D01*
X00355500Y00171331D02*
X00398331Y00128500D01*
X00350000Y00169053D02*
X00396053Y00123000D01*
X00398000Y00238150D02*
X00398098Y00238051D01*
X00402000Y00238150D02*
Y00243500D01*
X00402879Y00244379D02*
X00404121D01*
X00402000Y00243500D02*
X00402879Y00244379D01*
X00404121D02*
X00407625Y00240875D01*
X00336500Y00246500D02*
X00341650D01*
X00400350Y00231254D02*
X00401869D01*
X00415188Y00246500D02*
X00416649Y00245039D01*
X00407625Y00230545D02*
Y00240875D01*
X00410350Y00266500D02*
X00415344D01*
X00415907Y00270500D02*
X00421907Y00264500D01*
X00415344Y00266500D02*
X00422344Y00259500D01*
X00410350Y00290500D02*
X00420827D01*
X00335000Y00254500D02*
X00341650D01*
X00328000Y00252000D02*
X00334500Y00258500D01*
X00341650D01*
X00326500Y00255000D02*
X00334000Y00262500D01*
X00341650D01*
X00333500Y00266500D02*
X00341650D01*
X00410350Y00270500D02*
X00415907D01*
X00366000Y00230668D02*
Y00238150D01*
X00362000Y00229837D02*
Y00238150D01*
X00370000Y00231500D02*
Y00238150D01*
Y00231500D02*
X00370771Y00230729D01*
X00390000Y00232389D02*
Y00238150D01*
X00398098Y00233506D02*
X00400350Y00231254D01*
X00398098Y00233506D02*
Y00238051D01*
X00394000Y00232824D02*
Y00238150D01*
X00410350Y00250500D02*
X00415671D01*
X00410350Y00246500D02*
X00415188D01*
X00410350Y00258500D02*
X00417500D01*
X00415671Y00250500D02*
X00419947Y00246224D01*
X00410350Y00254500D02*
X00416457D01*
X00423116Y00247840D01*
Y00229884D02*
Y00247840D01*
X00255000Y00189000D02*
X00265000D01*
Y00183500D02*
Y00189000D01*
Y00183500D02*
X00268450Y00180050D01*
X00280950D01*
Y00189000D01*
Y00180050D02*
X00285950D01*
X00293650Y00176593D02*
Y00189000D01*
X00285950Y00180050D02*
X00302000Y00164000D01*
X00293650Y00243000D02*
Y00251150D01*
X00300500Y00258000D01*
X00302000Y00164000D02*
X00326500D01*
X00303243Y00167000D02*
X00325257D01*
X00326500Y00164000D02*
X00335000Y00172500D01*
X00304485Y00170000D02*
X00324015D01*
X00325257Y00167000D02*
X00332000Y00173743D01*
X00301495Y00172990D02*
X00304485Y00170000D01*
X00293650Y00176593D02*
X00303243Y00167000D01*
X00324015Y00170000D02*
X00329000Y00174985D01*
X00301495Y00172990D02*
Y00176625D01*
X00306350Y00181480D01*
X00321500Y00252000D02*
X00328000D01*
X00335000Y00172500D02*
Y00245000D01*
X00332000Y00173743D02*
Y00247100D01*
X00329000Y00174985D02*
Y00248500D01*
X00335000Y00245000D02*
X00336500Y00246500D01*
X00319050Y00243000D02*
Y00249550D01*
X00306350Y00243000D02*
Y00250850D01*
X00332000Y00247100D02*
X00335400Y00250500D01*
X00341650D01*
X00306350Y00181480D02*
Y00189000D01*
X00362000Y00229837D02*
X00364197Y00227640D01*
X00358000Y00229035D02*
Y00238150D01*
Y00229035D02*
X00361157Y00225877D01*
X00354000Y00228290D02*
Y00238150D01*
Y00228290D02*
X00357908Y00224382D01*
X00350000Y00199143D02*
X00357908Y00207051D01*
X00350000Y00169053D02*
Y00199143D01*
X00357908Y00207051D02*
Y00224382D01*
X00361000Y00173609D02*
Y00198678D01*
X00319050Y00249550D02*
X00321500Y00252000D01*
X00329000Y00248500D02*
X00335000Y00254500D01*
X00407444Y00150500D02*
X00445000D01*
X00412000Y00161500D02*
X00445000D01*
X00396053Y00123000D02*
X00452000D01*
X00409722Y00156000D02*
X00452000D01*
X00402887Y00139500D02*
X00445000D01*
X00400609Y00134000D02*
X00452000D01*
X00398331Y00128500D02*
X00445000D01*
X00584373Y00046827D02*
Y00055627D01*
X00558973Y00046827D02*
Y00053527D01*
X00533573Y00046827D02*
Y00055927D01*
X00622500Y00456500D02*
Y00467500D01*
X00609773Y00480227D02*
X00622500Y00467500D01*
X00609773Y00480227D02*
Y00486919D01*
X00047893Y00488000D02*
X00107893D01*
D17*
X00000173Y00010333D02*
G03*
X00010333Y00000173I00010160J00000000D01*
G01*
Y00533573D02*
G03*
X00000173Y00523667I-00000127J-00010033D01*
G01*
X00650667Y00000173D02*
G03*
X00660573Y00010333I-00000127J00010033D01*
G01*
X00010333Y00000173D02*
X00650667D01*
X00000173Y00010333D02*
Y00523667D01*
X00010333Y00533573D02*
X00645333D01*
X00660573Y00010333D02*
Y00025573D01*
X00685973Y00050973D01*
Y00378633D01*
X00660573Y00404033D02*
X00685973Y00378633D01*
X00660573Y00404033D02*
Y00518333D01*
X00645333Y00533573D02*
X00660573Y00518333D01*
D18*
X00136500Y00334500D02*
D03*
X00180500D02*
D03*
X00210000Y00140500D02*
D03*
X00166000D02*
D03*
D19*
X00073000Y00407499D02*
D03*
Y00399499D02*
D03*
Y00386499D02*
D03*
Y00376499D02*
D03*
Y00371499D02*
D03*
X00073000Y00361499D02*
D03*
Y00348499D02*
D03*
Y00340499D02*
D03*
X00073000Y00351499D02*
D03*
Y00356499D02*
D03*
X00073000Y00366499D02*
D03*
X00073000Y00381499D02*
D03*
Y00391499D02*
D03*
X00073000Y00396499D02*
D03*
X00073000Y00404499D02*
D03*
X00073000Y00343499D02*
D03*
D20*
X00102000Y00349000D02*
D03*
X00111500Y00328000D02*
D03*
X00092500Y00328000D02*
D03*
D21*
X00142500Y00361500D02*
D03*
Y00376500D02*
D03*
X00029000Y00292000D02*
D03*
Y00307000D02*
D03*
X00043000D02*
D03*
Y00292000D02*
D03*
X00212000Y00262000D02*
D03*
Y00247000D02*
D03*
X00226000Y00262000D02*
D03*
Y00247000D02*
D03*
X00015000Y00307000D02*
D03*
Y00292000D02*
D03*
X00132000Y00441500D02*
D03*
X00132000Y00426500D02*
D03*
D22*
X00156500Y00375500D02*
D03*
X00171500D02*
D03*
Y00361500D02*
D03*
X00156500D02*
D03*
D23*
X00127750Y00278000D02*
D03*
X00070250D02*
D03*
D24*
X00155450Y00251500D02*
D03*
X00168150D02*
D03*
X00180850D02*
D03*
X00193550D02*
D03*
Y00305500D02*
D03*
X00180850D02*
D03*
X00168150D02*
D03*
X00155450D02*
D03*
D25*
X00024000Y00275000D02*
D03*
X00043000D02*
D03*
X00024000Y00256000D02*
D03*
X00043000D02*
D03*
D26*
X00215500Y00197000D02*
D03*
X00171500D02*
D03*
D27*
X00248000Y00326500D02*
D03*
Y00317500D02*
D03*
X00298500Y00339000D02*
D03*
Y00330000D02*
D03*
X00386000Y00212000D02*
D03*
Y00221000D02*
D03*
X00387500Y00333000D02*
D03*
Y00324000D02*
D03*
X00346000Y00333000D02*
D03*
Y00324000D02*
D03*
X00344500Y00212000D02*
D03*
Y00221000D02*
D03*
X00255000Y00198000D02*
D03*
Y00189000D02*
D03*
X00265000Y00198000D02*
D03*
Y00189000D02*
D03*
D28*
X00261000Y00329500D02*
D03*
Y00339000D02*
D03*
X00285000Y00320000D02*
D03*
X00261000D02*
D03*
X00285000Y00339000D02*
D03*
D29*
X00100000Y00392000D02*
D03*
X00091000D02*
D03*
X00100000Y00362000D02*
D03*
X00091000D02*
D03*
X00272000Y00278500D02*
D03*
X00281000D02*
D03*
X00272000Y00267500D02*
D03*
X00281000D02*
D03*
X00281000Y00289000D02*
D03*
X00272000D02*
D03*
X00458500Y00264500D02*
D03*
X00449500D02*
D03*
X00438500Y00274500D02*
D03*
X00429500D02*
D03*
X00438500Y00264500D02*
D03*
X00429500D02*
D03*
Y00294500D02*
D03*
X00438500D02*
D03*
X00438500Y00284500D02*
D03*
X00429500D02*
D03*
X00464000Y00221000D02*
D03*
X00455000D02*
D03*
X00312500Y00312000D02*
D03*
X00321500D02*
D03*
X00305000Y00290500D02*
D03*
X00314000D02*
D03*
X00312500Y00300500D02*
D03*
X00321500D02*
D03*
X00305000Y00274500D02*
D03*
X00314000D02*
D03*
X00305000Y00264500D02*
D03*
X00314000D02*
D03*
X00321500Y00322000D02*
D03*
X00312500D02*
D03*
X00272000Y00257500D02*
D03*
X00281000D02*
D03*
D30*
X00201000Y00484500D02*
D03*
Y00475500D02*
D03*
X00226500Y00484500D02*
D03*
Y00475500D02*
D03*
D31*
X00250000Y00300000D02*
D03*
X00259000D02*
D03*
X00272000D02*
D03*
X00281000D02*
D03*
D32*
X00410350Y00246500D02*
D03*
Y00250500D02*
D03*
Y00254500D02*
D03*
Y00258500D02*
D03*
Y00262500D02*
D03*
Y00266500D02*
D03*
Y00270500D02*
D03*
Y00274500D02*
D03*
Y00278500D02*
D03*
Y00282500D02*
D03*
Y00286500D02*
D03*
Y00290500D02*
D03*
Y00294500D02*
D03*
Y00298500D02*
D03*
X00341650D02*
D03*
Y00294500D02*
D03*
Y00290500D02*
D03*
Y00286500D02*
D03*
Y00282500D02*
D03*
Y00278500D02*
D03*
Y00274500D02*
D03*
Y00270500D02*
D03*
Y00266500D02*
D03*
Y00262500D02*
D03*
Y00258500D02*
D03*
Y00254500D02*
D03*
Y00250500D02*
D03*
Y00246500D02*
D03*
D33*
X00350000Y00238150D02*
D03*
X00354000D02*
D03*
X00358000D02*
D03*
X00362000D02*
D03*
X00366000D02*
D03*
X00370000D02*
D03*
X00374000D02*
D03*
X00378000D02*
D03*
X00382000D02*
D03*
X00386000D02*
D03*
X00390000D02*
D03*
X00394000D02*
D03*
X00398000D02*
D03*
X00402000D02*
D03*
Y00306850D02*
D03*
X00398000D02*
D03*
X00394000D02*
D03*
X00390000D02*
D03*
X00386000D02*
D03*
X00382000D02*
D03*
X00378000D02*
D03*
X00374000D02*
D03*
X00370000D02*
D03*
X00366000D02*
D03*
X00362000D02*
D03*
X00358000D02*
D03*
X00354000D02*
D03*
X00350000D02*
D03*
D34*
X00442000Y00250500D02*
D03*
Y00234500D02*
D03*
X00464000D02*
D03*
D35*
Y00250500D02*
D03*
D36*
X00319050Y00243000D02*
D03*
X00280950D02*
D03*
X00293650D02*
D03*
X00306350D02*
D03*
X00319050Y00189000D02*
D03*
X00293650D02*
D03*
X00280950D02*
D03*
X00306350D02*
D03*
D37*
X00630000Y00134893D02*
D03*
Y00194893D02*
D03*
X00667000Y00134893D02*
D03*
Y00194893D02*
D03*
D38*
X00047893Y00488000D02*
D03*
X00107893D02*
D03*
X00047893Y00451000D02*
D03*
X00107893D02*
D03*
D72*
X00030000Y00116500D02*
D03*
X00149500Y00463500D02*
D03*
X00631500Y00400500D02*
D03*
D73*
X00376000Y00272500D02*
D03*
D74*
X00300000Y00216000D02*
D03*
D75*
X00311050Y00176500D02*
X00319050D01*
Y00176550D02*
Y00189000D01*
D76*
X00180500Y00343000D02*
X00197500D01*
X00180500Y00326000D02*
X00197500D01*
X00180500Y00184500D02*
Y00209500D01*
X00083001Y00399499D02*
X00090500D01*
X00083000Y00399500D02*
X00083001Y00399499D01*
X00132000Y00441500D02*
X00143000D01*
X00238933Y00475623D02*
Y00508173D01*
Y00461805D02*
Y00475623D01*
X00306500Y00331000D02*
Y00391500D01*
X00248738Y00452000D02*
X00261000D01*
X00238933Y00461805D02*
X00248738Y00452000D01*
X00261000D02*
X00306500Y00406500D01*
X00193550Y00237500D02*
Y00251500D01*
Y00267950D01*
X00226000Y00235500D02*
Y00247000D01*
X00024000Y00256000D02*
X00024000Y00256000D01*
Y00244000D02*
Y00256000D01*
X00013500Y00256000D02*
X00024000D01*
X00013500Y00283500D02*
X00015000Y00285000D01*
X00013500Y00275000D02*
Y00283500D01*
X00015000Y00285000D02*
Y00292000D01*
X00013500Y00275000D02*
X00024000D01*
X00070250Y00278000D02*
X00077000Y00284750D01*
Y00309000D01*
X00084500Y00316500D02*
X00108000D01*
X00077000Y00309000D02*
X00084500Y00316500D01*
X00111500Y00320000D02*
Y00328000D01*
X00108000Y00316500D02*
X00111500Y00320000D01*
X00180500Y00334500D02*
X00197500D01*
X00171500Y00197000D02*
Y00209500D01*
Y00184500D02*
Y00197000D01*
X00306500Y00391500D02*
Y00406500D01*
Y00391500D02*
X00499500Y00391500D01*
X00531500Y00359500D01*
X00306500Y00331000D02*
X00316500D01*
X00152573Y00025573D02*
Y00046827D01*
X00177973Y00025573D02*
Y00046827D01*
X00203373Y00025573D02*
Y00046827D01*
X00076373Y00025573D02*
Y00046827D01*
X00101773Y00025573D02*
Y00046827D01*
X00127173Y00025573D02*
Y00046827D01*
X00050973Y00025573D02*
Y00046827D01*
X00228773Y00025573D02*
Y00046827D01*
X00213533Y00489500D02*
Y00508173D01*
X00188133Y00489500D02*
Y00508173D01*
X00531500Y00359500D02*
X00604917D01*
X00636443Y00304973D02*
Y00327974D01*
X00604917Y00359500D02*
X00636443Y00327974D01*
X00651630Y00269360D02*
X00661843Y00279573D01*
X00622000D02*
X00636443D01*
X00609773Y00025573D02*
Y00046827D01*
X00635173Y00025573D02*
Y00046827D01*
X00316500Y00331000D02*
X00330015D01*
X00337015Y00324000D01*
X00609773Y00486919D02*
X00609773Y00508173D01*
X00584373Y00025573D02*
Y00046827D01*
X00558973Y00025573D02*
Y00046827D01*
X00533573Y00025573D02*
Y00046827D01*
X00508173Y00025573D02*
Y00046827D01*
D77*
X00274500Y00060500D02*
X00278859D01*
X00240500Y00140500D02*
X00279000Y00102000D01*
Y00060641D02*
Y00102000D01*
X00278859Y00060500D02*
X00283219D01*
X00210000Y00140500D02*
X00240500D01*
X00295500Y00111000D02*
Y00134000D01*
X00295500Y00134000D01*
X00327976Y00052000D02*
Y00078524D01*
X00295500Y00111000D02*
X00327976Y00078524D01*
X00355773Y00025573D02*
Y00046227D01*
X00327976Y00052000D02*
X00350000D01*
X00310000D02*
X00327976D01*
X00350000D02*
X00355773Y00046227D01*
X00304973Y00046973D02*
X00310000Y00052000D01*
X00304973Y00025573D02*
Y00046973D01*
D78*
X00133000Y00373500D02*
X00136000Y00376500D01*
X00142500D01*
X00132000Y00418000D02*
Y00426500D01*
X00128000Y00361500D02*
X00142500D01*
X00115500Y00349000D02*
X00128000Y00361500D01*
X00115500Y00344500D02*
Y00349000D01*
X00092500Y00335243D02*
X00094257Y00337000D01*
X00108000D02*
X00115500Y00344500D01*
X00092500Y00328000D02*
Y00335243D01*
X00094257Y00337000D02*
X00108000D01*
X00156500Y00361500D02*
X00156500Y00361500D01*
X00142500Y00361500D02*
X00156500D01*
X00156500Y00361500D02*
Y00375500D01*
X00171500D02*
X00181000D01*
X00171500Y00361500D02*
X00181000D01*
X00209500Y00227500D02*
Y00236000D01*
X00212000Y00238500D02*
Y00247000D01*
X00209500Y00236000D02*
X00212000Y00238500D01*
X00204201Y00262000D02*
X00226000D01*
X00201808Y00264393D02*
Y00273192D01*
Y00264393D02*
X00204201Y00262000D01*
X00194449Y00280551D02*
X00201808Y00273192D01*
X00179500Y00287000D02*
X00185949Y00280551D01*
X00194449D01*
X00171500Y00287000D02*
X00179500D01*
X00168150Y00290350D02*
X00171500Y00287000D01*
X00168150Y00290350D02*
Y00305500D01*
X00100000Y00392000D02*
X00108000D01*
X00100000Y00362000D02*
X00108000D01*
X00064500Y00316000D02*
X00071000D01*
X00055500Y00307000D02*
X00064500Y00316000D01*
X00248000Y00326500D02*
Y00339000D01*
X00248000Y00307000D02*
Y00310000D01*
Y00307000D02*
X00250000Y00305000D01*
X00193550Y00289000D02*
Y00305500D01*
X00043000Y00307000D02*
X00055500D01*
X00029000D02*
X00043000D01*
X00015000D02*
X00029000D01*
X00056250Y00292000D02*
X00057426Y00290824D01*
X00059864D02*
X00070250Y00280438D01*
X00043000Y00292000D02*
X00056250D01*
X00057426Y00290824D02*
X00059864D01*
X00070250Y00278000D02*
Y00280438D01*
X00029000Y00292000D02*
X00043000D01*
X00298500Y00339000D02*
X00306417D01*
X00291000Y00330000D02*
X00298500D01*
X00295750Y00306250D02*
X00302500D01*
X00306500Y00322000D02*
Y00331000D01*
Y00322000D02*
X00312500D01*
X00295750Y00313331D02*
X00304419Y00322000D01*
X00306500D01*
X00295750Y00306250D02*
Y00313331D01*
X00285000Y00339000D02*
X00298500D01*
X00248000D02*
X00261000D01*
Y00329500D02*
X00271500D01*
X00248000Y00310000D02*
Y00317500D01*
X00387500Y00324000D02*
X00395000D01*
X00250000Y00300000D02*
Y00305000D01*
X00464000Y00234500D02*
X00477500D01*
X00281000Y00257500D02*
X00288500D01*
X00281000D02*
Y00267500D01*
X00305000Y00312000D02*
X00312500D01*
X00321500D02*
X00328713D01*
X00333750Y00306963D01*
Y00302500D02*
Y00306963D01*
X00305000Y00300500D02*
X00312500D01*
X00297500Y00274500D02*
X00305000D01*
X00297500Y00290500D02*
X00305000D01*
X00297500Y00264500D02*
X00305000D01*
X00346000Y00333000D02*
Y00340500D01*
X00321500Y00312000D02*
Y00322000D01*
X00337015Y00324000D02*
X00346000D01*
X00387500Y00333000D02*
X00395000D01*
X00458500Y00264500D02*
Y00272000D01*
X00438500Y00294500D02*
X00446000D01*
X00438500Y00284500D02*
X00446000D01*
X00438500Y00274500D02*
X00446000D01*
X00442000Y00250500D02*
X00445000Y00247500D01*
X00448000D01*
X00453000Y00242500D01*
X00464000Y00221000D02*
X00471500D01*
X00386000Y00212000D02*
X00393500D01*
X00386000Y00221000D02*
X00393500D01*
X00280950Y00243000D02*
Y00252270D01*
Y00257450D01*
X00281000Y00257500D01*
X00264500Y00267500D02*
X00272000D01*
X00264500Y00257500D02*
X00272000D01*
X00344500Y00221000D02*
X00352000D01*
X00344500Y00204500D02*
Y00212000D01*
X00107893Y00451000D02*
Y00459393D01*
X00047893Y00451000D02*
Y00459393D01*
X00658607Y00134893D02*
X00667000D01*
X00658607Y00194893D02*
X00667000D01*
D79*
X00085000Y00376500D02*
X00116333D01*
X00129068Y00396660D02*
X00182764D01*
X00085000Y00381750D02*
X00114158D01*
X00129068Y00396660D01*
X00131243Y00391410D02*
X00180590D01*
X00116333Y00376500D02*
X00131243Y00391410D01*
X00227864Y00298561D02*
Y00351561D01*
X00180590Y00391410D02*
X00222614Y00349386D01*
Y00296387D02*
Y00349386D01*
X00182764Y00396660D02*
X00227864Y00351561D01*
Y00298561D02*
X00240050Y00286375D01*
X00222614Y00296387D02*
X00237875Y00281125D01*
X00269375Y00286375D02*
X00272000Y00289000D01*
X00240050Y00286375D02*
X00269375D01*
X00269375Y00281125D02*
X00272000Y00278500D01*
X00237875Y00281125D02*
X00269375D01*
D80*
X00076373Y00025573D02*
D03*
X00228773D02*
D03*
X00203373D02*
D03*
X00177973D02*
D03*
X00152573D02*
D03*
X00127173D02*
D03*
X00101773D02*
D03*
X00050973D02*
D03*
X00457373Y00508173D02*
D03*
X00188133D02*
D03*
X00482773D02*
D03*
X00213533D02*
D03*
X00508173D02*
D03*
X00238933D02*
D03*
X00533573D02*
D03*
X00264333D02*
D03*
X00558973D02*
D03*
X00289733D02*
D03*
X00584373D02*
D03*
X00315133D02*
D03*
X00609773D02*
D03*
X00340533D02*
D03*
X00635173D02*
D03*
X00365933D02*
D03*
X00391333D02*
D03*
X00416733D02*
D03*
X00609773Y00025573D02*
D03*
X00635173D02*
D03*
X00279573D02*
D03*
X00304973D02*
D03*
X00330373D02*
D03*
X00355773D02*
D03*
X00381173D02*
D03*
X00406573D02*
D03*
X00431973D02*
D03*
X00457373D02*
D03*
X00508173D02*
D03*
X00533573D02*
D03*
X00558973D02*
D03*
X00584373D02*
D03*
D81*
X00067750Y00417199D02*
D03*
Y00330799D02*
D03*
D82*
X00026250Y00417199D02*
D03*
Y00330799D02*
D03*
D83*
X00136500Y00185000D02*
D03*
X00078500D02*
D03*
D84*
X00106500Y00137000D02*
D03*
D85*
X00636443Y00304973D02*
D03*
X00661843D02*
D03*
X00636443Y00279573D02*
D03*
X00661843D02*
D03*
X00636443Y00254173D02*
D03*
X00661843D02*
D03*
D86*
X00197000Y00356500D02*
D03*
X00219000Y00377500D02*
D03*
X00210500Y00345000D02*
D03*
X00236500Y00347000D02*
D03*
Y00306500D02*
D03*
X00130000Y00237500D02*
D03*
X00141500Y00240500D02*
D03*
X00151500Y00228000D02*
D03*
X00154500Y00216000D02*
D03*
X00283219Y00060500D02*
D03*
X00292500Y00009000D02*
D03*
X00317900D02*
D03*
X00343300D02*
D03*
X00364500Y00008500D02*
D03*
X00396000D02*
D03*
X00209500Y00236000D02*
D03*
X00133000Y00373500D02*
D03*
X00083000Y00399500D02*
D03*
X00090500Y00399499D02*
D03*
X00143000Y00441500D02*
D03*
X00053000Y00266000D02*
D03*
X00054000Y00258000D02*
D03*
X00181000Y00375500D02*
D03*
X00083500Y00350000D02*
D03*
X00091500D02*
D03*
X00193550Y00237500D02*
D03*
Y00267950D02*
D03*
X00014000Y00265500D02*
D03*
X00013500Y00275000D02*
D03*
X00086000Y00409000D02*
D03*
X00083000Y00340500D02*
D03*
X00108000Y00392000D02*
D03*
Y00362000D02*
D03*
X00197500Y00326000D02*
D03*
Y00343000D02*
D03*
X00248000Y00339000D02*
D03*
X00193550Y00289000D02*
D03*
X00071000Y00316000D02*
D03*
X00274500Y00060500D02*
D03*
X00180500Y00209500D02*
D03*
X00171500D02*
D03*
X00180500Y00184500D02*
D03*
X00171500D02*
D03*
X00139000Y00009500D02*
D03*
X00271500Y00329500D02*
D03*
X00291000Y00330000D02*
D03*
X00248000Y00310000D02*
D03*
X00216000Y00062000D02*
D03*
X00190500Y00050000D02*
D03*
X00114000Y00050500D02*
D03*
X00165500Y00050000D02*
D03*
X00089000Y00053000D02*
D03*
X00140000Y00050500D02*
D03*
X00233000Y00115500D02*
D03*
X00115000Y00100500D02*
D03*
X00140000D02*
D03*
X00085000Y00100500D02*
D03*
X00098500Y00100500D02*
D03*
X00063500Y00053000D02*
D03*
X00220000Y00110000D02*
D03*
X00197000Y00102500D02*
D03*
X00172500Y00102500D02*
D03*
X00197500Y00334500D02*
D03*
X00422000Y00334500D02*
D03*
X00442000D02*
D03*
X00406000D02*
D03*
X00482500Y00011500D02*
D03*
X00490000Y00046000D02*
D03*
X00479500Y00062000D02*
D03*
X00659000Y00164000D02*
D03*
X00639500Y00101500D02*
D03*
X00601500Y00103500D02*
D03*
X00078000Y00453000D02*
D03*
X00032500Y00432000D02*
D03*
X00148500Y00431500D02*
D03*
X00127500Y00473500D02*
D03*
X00127000Y00505500D02*
D03*
X00277000Y00450000D02*
D03*
X00655500Y00392000D02*
D03*
X00238000Y00125500D02*
D03*
X00157000Y00117000D02*
D03*
X00187500Y00117500D02*
D03*
X00244500Y00036500D02*
D03*
X00242000Y00066500D02*
D03*
X00266500Y00009500D02*
D03*
X00261000Y00036500D02*
D03*
X00290000Y00070000D02*
D03*
X00262500D02*
D03*
X00656000Y00214000D02*
D03*
X00657500Y00229500D02*
D03*
X00627500Y00227500D02*
D03*
X00628500Y00214500D02*
D03*
X00652000Y00053500D02*
D03*
X00656500Y00038000D02*
D03*
X00393500Y00203000D02*
D03*
X00285000Y00123500D02*
D03*
X00273000Y00125500D02*
D03*
X00322500Y00123500D02*
D03*
X00349500Y00125500D02*
D03*
X00375000Y00122500D02*
D03*
X00193000Y00402500D02*
D03*
X00211000Y00309000D02*
D03*
X00210500Y00328500D02*
D03*
X00251500Y00243000D02*
D03*
X00221000Y00278000D02*
D03*
X00181000Y00361500D02*
D03*
X00151500Y00409000D02*
D03*
X00116500Y00366500D02*
D03*
X00010000Y00445000D02*
D03*
X00096500Y00431000D02*
D03*
X00226000Y00235500D02*
D03*
X00245500Y00221500D02*
D03*
X00073500Y00237500D02*
D03*
X00259500Y00211000D02*
D03*
X00260500Y00226500D02*
D03*
X00261000Y00242500D02*
D03*
X00253879Y00254932D02*
D03*
X00253500Y00270500D02*
D03*
X00264000Y00308500D02*
D03*
X00332000Y00341000D02*
D03*
X00317000Y00342000D02*
D03*
X00318500Y00382000D02*
D03*
X00339000Y00351000D02*
D03*
X00352000Y00382500D02*
D03*
X00330000Y00428000D02*
D03*
X00353000Y00425000D02*
D03*
X00372000Y00428500D02*
D03*
X00380000Y00410500D02*
D03*
X00345500Y00411500D02*
D03*
X00317500Y00412000D02*
D03*
X00306000Y00431500D02*
D03*
X00244000Y00429000D02*
D03*
X00263500Y00424500D02*
D03*
X00283000Y00409500D02*
D03*
X00284500Y00382500D02*
D03*
X00204500Y00429000D02*
D03*
X00233000Y00401500D02*
D03*
X00132000Y00418000D02*
D03*
X00174000Y00422500D02*
D03*
X00171500Y00455000D02*
D03*
X00437000Y00488000D02*
D03*
X00438220Y00505086D02*
D03*
X00438000Y00460500D02*
D03*
X00629500Y00370500D02*
D03*
X00637000Y00347500D02*
D03*
X00651000Y00331000D02*
D03*
X00649000Y00425000D02*
D03*
X00650500Y00455000D02*
D03*
X00626500Y00428000D02*
D03*
X00555500Y00412000D02*
D03*
X00569500Y00425500D02*
D03*
X00537000Y00430000D02*
D03*
X00573000Y00391500D02*
D03*
X00520000Y00355500D02*
D03*
X00510500Y00364000D02*
D03*
X00501500Y00373500D02*
D03*
X00522000Y00232500D02*
D03*
Y00241500D02*
D03*
X00522500Y00269000D02*
D03*
X00530000Y00275000D02*
D03*
X00522500Y00283500D02*
D03*
X00542500Y00171000D02*
D03*
X00542000Y00109000D02*
D03*
X00333500Y00140500D02*
D03*
X00358500Y00141500D02*
D03*
X00310500Y00140500D02*
D03*
X00282500Y00141500D02*
D03*
X00259000Y00143500D02*
D03*
X00244500Y00157000D02*
D03*
X00282500Y00159500D02*
D03*
X00267000Y00172500D02*
D03*
X00255000Y00178000D02*
D03*
X00328000Y00156500D02*
D03*
X00308500Y00156000D02*
D03*
X00350500Y00156500D02*
D03*
X00342000Y00173000D02*
D03*
Y00188500D02*
D03*
X00479500Y00224000D02*
D03*
X00480500Y00241000D02*
D03*
X00471000Y00264500D02*
D03*
X00456000Y00283000D02*
D03*
X00477000Y00273500D02*
D03*
X00339000Y00313000D02*
D03*
X00353000Y00281000D02*
D03*
Y00265000D02*
D03*
X00397000Y00250000D02*
D03*
X00382500D02*
D03*
X00369000D02*
D03*
X00354500Y00250500D02*
D03*
X00639500Y00229500D02*
D03*
X00529500Y00344000D02*
D03*
X00295500Y00134000D02*
D03*
X00551000Y00104000D02*
D03*
X00556500Y00111000D02*
D03*
X00562000Y00104000D02*
D03*
X00567500Y00111000D02*
D03*
X00573000Y00104000D02*
D03*
X00578500Y00111000D02*
D03*
X00589500D02*
D03*
X00584000Y00104000D02*
D03*
X00522500Y00297500D02*
D03*
X00529500Y00292000D02*
D03*
Y00303000D02*
D03*
X00522500Y00308500D02*
D03*
X00529500Y00314000D02*
D03*
X00522500Y00319500D02*
D03*
X00529500Y00325000D02*
D03*
X00522500Y00330500D02*
D03*
X00472000Y00330500D02*
D03*
X00479000Y00325000D02*
D03*
X00472000Y00319500D02*
D03*
X00479000Y00314000D02*
D03*
X00472000Y00308500D02*
D03*
X00479000Y00303000D02*
D03*
Y00292000D02*
D03*
X00477500Y00234500D02*
D03*
X00472000Y00297500D02*
D03*
X00528000Y00260000D02*
D03*
Y00251500D02*
D03*
X00397500Y00277000D02*
D03*
Y00269000D02*
D03*
X00675000Y00096000D02*
D03*
X00011500Y00522000D02*
D03*
X00041500Y00522500D02*
D03*
X00085500D02*
D03*
X00133000Y00524500D02*
D03*
X00174500D02*
D03*
X00201000Y00525000D02*
D03*
X00009000Y00482000D02*
D03*
X00226000Y00524500D02*
D03*
X00252000D02*
D03*
X00278000D02*
D03*
X00381500Y00525500D02*
D03*
X00404000Y00524000D02*
D03*
X00429500Y00523500D02*
D03*
X00444000D02*
D03*
X00470000Y00524000D02*
D03*
X00495500Y00524000D02*
D03*
X00520500D02*
D03*
X00545500D02*
D03*
X00571500Y00524000D02*
D03*
X00597000D02*
D03*
X00623000D02*
D03*
X00651000Y00514000D02*
D03*
Y00482500D02*
D03*
X00675000Y00377000D02*
D03*
X00676000Y00334000D02*
D03*
X00674500Y00317000D02*
D03*
X00675000Y00267000D02*
D03*
Y00242000D02*
D03*
Y00221000D02*
D03*
Y00182000D02*
D03*
Y00147000D02*
D03*
X00676000Y00116000D02*
D03*
X00656000Y00114000D02*
D03*
X00675000Y00054500D02*
D03*
X00650000Y00011000D02*
D03*
X00622500Y00009000D02*
D03*
X00597000D02*
D03*
X00571000D02*
D03*
X00546000D02*
D03*
X00521000D02*
D03*
X00419500D02*
D03*
X00444500D02*
D03*
X00010000Y00372500D02*
D03*
Y00402500D02*
D03*
X00013500Y00256000D02*
D03*
X00010000Y00340000D02*
D03*
X00118000Y00237500D02*
D03*
X00012500Y00185000D02*
D03*
Y00222500D02*
D03*
Y00147500D02*
D03*
X00056000Y00133000D02*
D03*
X00012500Y00102500D02*
D03*
X00062500Y00105000D02*
D03*
X00110000Y00117500D02*
D03*
X00010000Y00045000D02*
D03*
X00032500D02*
D03*
X00241500Y00010500D02*
D03*
X00215500Y00009500D02*
D03*
X00190000D02*
D03*
X00165000D02*
D03*
X00114500D02*
D03*
X00090000D02*
D03*
X00064000D02*
D03*
X00037000D02*
D03*
X00010500Y00013000D02*
D03*
X00463957Y00344000D02*
D03*
X00445000Y00117500D02*
D03*
X00394000Y00050000D02*
D03*
X00611088Y00113500D02*
D03*
X00293000Y00396500D02*
D03*
X00496000Y00065500D02*
D03*
X00597000Y00056500D02*
D03*
X00496000Y00056000D02*
D03*
X00622500Y00059000D02*
D03*
X00344500Y00204500D02*
D03*
X00319050Y00176550D02*
D03*
X00264500Y00257500D02*
D03*
X00288500D02*
D03*
X00311050Y00176500D02*
D03*
X00297500Y00264500D02*
D03*
X00337015Y00324000D02*
D03*
X00297500Y00274500D02*
D03*
X00297500Y00290500D02*
D03*
X00346000Y00340500D02*
D03*
X00321500Y00264500D02*
D03*
Y00274500D02*
D03*
X00321500Y00290500D02*
D03*
X00305000Y00300500D02*
D03*
X00305000Y00312000D02*
D03*
X00316500Y00331000D02*
D03*
X00421500Y00273500D02*
D03*
X00364000Y00260500D02*
D03*
Y00272500D02*
D03*
X00376000Y00260500D02*
D03*
Y00272500D02*
D03*
X00393500Y00221000D02*
D03*
X00388000Y00260500D02*
D03*
Y00272500D02*
D03*
Y00284500D02*
D03*
X00393500Y00212000D02*
D03*
X00421000Y00281500D02*
D03*
X00364000Y00284500D02*
D03*
X00376000D02*
D03*
X00395000Y00333000D02*
D03*
Y00324000D02*
D03*
X00446000Y00284500D02*
D03*
X00264500Y00267500D02*
D03*
X00446000Y00294500D02*
D03*
X00446000Y00274500D02*
D03*
X00444947Y00190000D02*
D03*
X00453000Y00242500D02*
D03*
X00451947Y00195500D02*
D03*
X00458500Y00272000D02*
D03*
X00352000Y00221000D02*
D03*
X00451947Y00173500D02*
D03*
X00451447Y00184500D02*
D03*
X00471500Y00221000D02*
D03*
X00444947Y00179000D02*
D03*
Y00201000D02*
D03*
X00444000Y00218000D02*
D03*
X00437990Y00211990D02*
D03*
X00445000Y00139500D02*
D03*
X00452000Y00123000D02*
D03*
X00445000Y00161500D02*
D03*
Y00150500D02*
D03*
X00452000Y00134000D02*
D03*
X00445000Y00128500D02*
D03*
X00451500Y00145000D02*
D03*
X00452000Y00156000D02*
D03*
X00622500Y00456500D02*
D03*
X00107893Y00459393D02*
D03*
X00047893Y00459393D02*
D03*
X00658607Y00134893D02*
D03*
Y00194893D02*
D03*
M02*
